<?xml version="1.0" encoding="UTF-8"?>
<svg version="1.1" xmlns="http://www.w3.org/2000/svg" width="512" height="512">
<path d="M0 0 C4.63535813 2.15213056 8.01334219 5.23793392 10 10 C10.47845787 13.80651159 10.37844376 17.54638798 10.25 21.375 C10.23195313 22.39722656 10.21390625 23.41945313 10.1953125 24.47265625 C10.14839491 26.98274749 10.08276729 29.49087764 10 32 C11.05574219 32.08636719 12.11148438 32.17273438 13.19921875 32.26171875 C38.50323515 34.56498106 62.69189508 41.85068098 85 54 C85.60005859 54.32081543 86.20011719 54.64163086 86.81835938 54.97216797 C109.43836697 67.11469658 129.14555528 83.8363985 145 104 C146.11568359 105.40765625 146.11568359 105.40765625 147.25390625 106.84375 C159.93668742 123.25416599 169.37862176 141.55488987 176.359375 161.0390625 C176.63990723 161.81491699 176.92043945 162.59077148 177.20947266 163.39013672 C178 166 178 166 178.48974609 169.08251953 C180.91756303 181.92580019 189.95058563 189.00153443 199.125 197.625 C201.50888353 199.90873249 203.8855611 202.19962741 206.25827026 204.4949646 C207.72822726 205.91235547 209.20591355 207.32178552 210.69216919 208.72207642 C211.6936348 209.67490005 211.6936348 209.67490005 212.71533203 210.64697266 C213.30283234 211.19986969 213.89033264 211.75276672 214.49563599 212.32241821 C218.53446993 216.82629772 218.42588846 221.26060553 218.3125 227.0859375 C217.75226784 232.3101024 215.37746182 234.79030597 211.5625 238.140625 C207.01247335 241.10252672 201.85256255 240.42537629 196.625 240.25 C195.60277344 240.23195313 194.58054687 240.21390625 193.52734375 240.1953125 C191.01725251 240.14839491 188.50912236 240.08276729 186 240 C185.91363281 241.05574219 185.82726562 242.11148438 185.73828125 243.19921875 C183.55710931 267.16193033 177.01018189 290.35372076 165.69921875 311.6171875 C164.14567686 314.70998584 162.99647666 317.69189983 162 321 C162.45251129 321.38227249 162.90502258 321.76454498 163.37124634 322.15840149 C169.44340817 327.37145785 175.11484852 332.95114636 180.7734375 338.60546875 C181.7884733 339.61728356 182.80358083 340.62902642 183.8187561 341.64070129 C185.92992785 343.7459301 188.03906873 345.85316941 190.14697266 347.96166992 C192.84525161 350.66005119 195.55038942 353.35144408 198.25726891 356.04119396 C200.3487636 358.12157435 202.43570182 360.20647956 204.52138138 362.29268837 C205.51730637 363.28743597 206.51484722 364.2805686 207.51404953 365.27202415 C208.90652631 366.65469626 210.29204594 368.0443642 211.67724609 369.43432617 C212.46586029 370.22151535 213.25447449 371.00870453 214.06698608 371.81974792 C217.54280464 375.74013388 218.30876371 378.66882776 218.375 383.875 C218.40335937 384.88304687 218.43171875 385.89109375 218.4609375 386.9296875 C217.5579782 392.9443147 213.18485745 397.0662897 209.01953125 401.23925781 C208.53769379 401.72459991 208.05585632 402.20994202 207.55941772 402.70999146 C205.9820687 404.29606812 204.39760682 405.87480428 202.8125 407.453125 C201.7064949 408.56047889 200.6007867 409.6681294 199.49536133 410.77606201 C197.18536402 413.08899805 194.87181293 415.39830271 192.55566406 417.70507812 C189.58979314 420.65952851 186.63302786 423.62290369 183.67884827 426.58903885 C181.40050105 428.87461565 179.1174087 431.15540447 176.83285522 433.43477631 C175.7405626 434.52573687 174.64974791 435.61817929 173.56045532 436.71213531 C172.03858404 438.23909277 170.51043633 439.75948094 168.98046875 441.27832031 C168.11317139 442.14402649 167.24587402 443.00973267 166.35229492 443.90167236 C161.41208482 448.30850898 157.38116334 448.43838031 150.9140625 448.3125 C145.6898976 447.75226784 143.20969403 445.37746182 139.859375 441.5625 C136.89747328 437.01247335 137.57462371 431.85256255 137.75 426.625 C137.76804687 425.60277344 137.78609375 424.58054687 137.8046875 423.52734375 C137.85160509 421.01725251 137.91723271 418.50912236 138 416 C137.24476118 416.00151888 136.48952237 416.00303776 135.71139753 416.00460267 C90.96933202 416.09407679 46.22727623 416.16272691 1.48513921 416.20426132 C-3.88474458 416.20926426 -9.25462819 416.21444154 -14.62451172 416.21972656 C-15.69357794 416.2207758 -16.76264417 416.22182505 -17.86410634 416.22290608 C-35.18390548 416.24032064 -52.50365161 416.27186412 -69.82341929 416.30861118 C-87.58949991 416.34599136 -105.35555274 416.36822966 -123.12167108 416.37635398 C-134.08806903 416.38184782 -145.05431718 416.39921185 -156.02066903 416.43166587 C-163.5363884 416.45277766 -171.05203011 416.45920761 -178.56777699 416.45400551 C-182.90674405 416.45143853 -187.24544898 416.45542771 -191.58436966 416.4768219 C-195.55583078 416.49626157 -199.52685306 416.49728705 -203.49833421 416.48359558 C-204.93585616 416.48190298 -206.37340528 416.48699933 -207.81087358 416.49953273 C-221.13654599 416.60897442 -221.13654599 416.60897442 -226 412 C-230.54282076 406.90779724 -230.58891916 402.50026092 -230.53125 396 C-230.5350769 395.04609375 -230.53890381 394.0921875 -230.54284668 393.109375 C-230.54556036 391.09894755 -230.53823737 389.08848447 -230.52148438 387.078125 C-230.50006709 384.00961213 -230.52130466 380.94344048 -230.546875 377.875 C-230.54423163 375.91666152 -230.53910645 373.9583245 -230.53125 372 C-230.53934692 371.08734375 -230.54744385 370.1746875 -230.55578613 369.234375 C-230.474444 363.67920128 -229.84199474 360.30662296 -226 356 C-221.54560023 352.4963387 -218.62838061 351.49544601 -212.98486328 351.45410156 C-212.31099075 351.44376389 -211.63711823 351.43342621 -210.94282532 351.42277527 C-208.73507312 351.39348573 -206.52824319 351.39185116 -204.3203125 351.390625 C-202.78187323 351.37563384 -201.24345001 351.35890472 -199.70504761 351.34051514 C-195.6707686 351.29693383 -191.63670667 351.27686323 -187.60223389 351.26177979 C-183.47948419 351.24217521 -179.35696778 351.20020906 -175.234375 351.16015625 C-167.15631121 351.08495418 -159.07833927 351.03460247 -151 351 C-151.54165298 350.39966446 -152.08330597 349.79932892 -152.64137268 349.18080139 C-153.71330116 347.98540993 -153.71330116 347.98540993 -154.80688477 346.76586914 C-155.86686424 345.58692833 -155.86686424 345.58692833 -156.94825745 344.38417053 C-159.92212461 340.92847067 -162.45107531 337.25234693 -164.9375 333.4375 C-165.44764648 332.65938965 -165.95779297 331.8812793 -166.48339844 331.07958984 C-173.33724294 320.5155709 -179.43210241 309.93213632 -184.1875 298.25 C-184.48430664 297.52570801 -184.78111328 296.80141602 -185.08691406 296.05517578 C-186.70226701 291.91616486 -188.0523741 287.88680873 -188.96630859 283.53710938 C-192.38923579 268.39776643 -200.01798372 260.30599689 -211.25 250 C-213.62196054 247.75820803 -215.98383342 245.50626712 -218.34295654 243.25097656 C-219.80007795 241.86503809 -221.26654364 240.48883808 -222.74346924 239.12402344 C-223.73525177 238.20024902 -223.73525177 238.20024902 -224.74707031 237.2578125 C-225.32853821 236.7230127 -225.9100061 236.18821289 -226.50909424 235.63720703 C-230.56453481 231.18380964 -230.42510488 226.69913827 -230.3125 220.9140625 C-229.75226784 215.6898976 -227.37746182 213.20969403 -223.5625 209.859375 C-219.01247335 206.89747328 -213.85256255 207.57462371 -208.625 207.75 C-207.60277344 207.76804688 -206.58054687 207.78609375 -205.52734375 207.8046875 C-203.01725251 207.85160509 -200.50912236 207.91723271 -198 208 C-197.91363281 206.94425781 -197.82726562 205.88851562 -197.73828125 204.80078125 C-195.43501894 179.49676485 -188.14931902 155.30810492 -176 133 C-175.67918457 132.39994141 -175.35836914 131.79988281 -175.02783203 131.18164062 C-154.51263105 92.96439471 -120.22297825 61.88591848 -79.9375 45.625 C-79.23286621 45.33995605 -78.52823242 45.05491211 -77.80224609 44.76123047 C-73.75431209 43.21120498 -69.80266769 41.93441654 -65.55908203 41.046875 C-50.41197952 37.62376407 -42.30952021 29.98585618 -32 18.75 C-29.75820803 16.37803946 -27.50626712 14.01616658 -25.25097656 11.65704346 C-23.86503809 10.19992205 -22.48883808 8.73345636 -21.12402344 7.25653076 C-20.20024902 6.26474823 -20.20024902 6.26474823 -19.2578125 5.25292969 C-18.7230127 4.67146179 -18.18821289 4.0899939 -17.63720703 3.49090576 C-12.56597548 -1.12715914 -6.49367951 -0.69637314 0 0 Z M10 98 C9.98598145 98.86165771 9.98598145 98.86165771 9.97167969 99.74072266 C9.91764969 102.36965304 9.83407106 104.99686567 9.75 107.625 C9.73582031 108.52863281 9.72164062 109.43226563 9.70703125 110.36328125 C9.50088893 116.0115808 8.90953878 119.61862033 5 124 C1.36801283 126.820903 -1.37612134 127.4316295 -5.9375 127.4375 C-7.43603516 127.46650391 -7.43603516 127.46650391 -8.96484375 127.49609375 C-15.05363962 126.50088516 -19.19529424 122.049467 -23.3984375 117.796875 C-23.8782608 117.3142218 -24.35808411 116.8315686 -24.85244751 116.33428955 C-26.36478056 114.81087521 -27.86995915 113.28061545 -29.375 111.75 C-30.40708452 110.70787007 -31.43963254 109.66619895 -32.47265625 108.625 C-34.98714596 106.08861021 -37.49527439 103.54603674 -40 101 C-60.78458336 107.34566055 -78.21406957 116.86658816 -94 132 C-94.88300781 132.80824219 -95.76601562 133.61648437 -96.67578125 134.44921875 C-114.864129 151.65997496 -131.22629657 179.94945212 -132.125 205.5625 C-132.08375 206.366875 -132.0425 207.17125 -132 208 C-131.42556152 208.0093457 -130.85112305 208.01869141 -130.25927734 208.02832031 C-127.63034696 208.08235031 -125.00313433 208.16592894 -122.375 208.25 C-121.47136719 208.26417969 -120.56773437 208.27835937 -119.63671875 208.29296875 C-113.9884192 208.49911107 -110.38137967 209.09046122 -106 213 C-103.179097 216.63198717 -102.5683705 219.37612134 -102.5625 223.9375 C-102.53349609 225.43603516 -102.53349609 225.43603516 -102.50390625 226.96484375 C-103.49911484 233.05363962 -107.950533 237.19529424 -112.203125 241.3984375 C-112.6857782 241.8782608 -113.1684314 242.35808411 -113.66571045 242.85244751 C-115.18912479 244.36478056 -116.71938455 245.86995915 -118.25 247.375 C-119.29212993 248.40708452 -120.33380105 249.43963254 -121.375 250.47265625 C-123.91138979 252.98714596 -126.45396326 255.49527439 -129 258 C-122.65433945 278.78458336 -113.13341184 296.21406957 -98 312 C-97.19175781 312.88300781 -96.38351563 313.76601563 -95.55078125 314.67578125 C-73.39142379 338.09381671 -41.19277772 350.53033459 -9.3203125 351.99609375 C27.20084773 352.46387759 59.58067583 338.13693302 85.5 312.9375 C103.071416 295.36165627 119.23019079 267.93956249 120.125 242.4375 C120.08375 241.633125 120.0425 240.82875 120 240 C119.13834229 239.98598145 119.13834229 239.98598145 118.25927734 239.97167969 C115.63034696 239.91764969 113.00313433 239.83407106 110.375 239.75 C109.47136719 239.73582031 108.56773437 239.72164062 107.63671875 239.70703125 C101.9884192 239.50088893 98.38137967 238.90953878 94 235 C91.179097 231.36801283 90.5683705 228.62387866 90.5625 224.0625 C90.54316406 223.06347656 90.52382813 222.06445312 90.50390625 221.03515625 C91.49911484 214.94636038 95.950533 210.80470576 100.203125 206.6015625 C100.6857782 206.1217392 101.1684314 205.64191589 101.66571045 205.14755249 C103.18912479 203.63521944 104.71938455 202.13004085 106.25 200.625 C107.29212993 199.59291548 108.33380105 198.56036746 109.375 197.52734375 C111.91138979 195.01285404 114.45396326 192.50472561 117 190 C110.65433945 169.21541664 101.13341184 151.78593043 86 136 C85.19175781 135.11699219 84.38351562 134.23398438 83.55078125 133.32421875 C66.34002504 115.135871 38.05054788 98.77370343 12.4375 97.875 C11.633125 97.91625 10.82875 97.9575 10 98 Z " fill="#009FC7" transform="translate(262,32)"/>
<path d="M0 0 C-0.50450684 0.4940332 -1.00901367 0.98806641 -1.52880859 1.49707031 C-3.81612891 3.74276467 -6.09560782 5.99626015 -8.375 8.25 C-9.56609375 9.41595703 -9.56609375 9.41595703 -10.78125 10.60546875 C-11.54179687 11.35957031 -12.30234375 12.11367187 -13.0859375 12.890625 C-13.7876709 13.58188477 -14.4894043 14.27314453 -15.21240234 14.98535156 C-18.13632967 18.28065999 -19.28939366 20.98479476 -19.3125 25.375 C-19.33763672 26.46941406 -19.33763672 26.46941406 -19.36328125 27.5859375 C-18.40659336 33.94328286 -14.42446408 37.99178938 -10.01953125 42.2734375 C-9.44667892 42.84204498 -8.8738266 43.41065247 -8.28361511 43.99649048 C-6.46687821 45.7965433 -4.63995334 47.58583432 -2.8125 49.375 C-1.57287765 50.59956227 -0.3339379 51.82481594 0.90429688 53.05078125 C3.92835947 56.04191099 6.96159915 59.02343906 10 62 C8.26661202 65.46677596 3.9476722 65.87540512 0.4375 67.0625 C-30.77353496 78.13880462 -55.73709556 101.1713466 -70.28369141 130.85693359 C-76.11321972 143.3653053 -79.71719423 156.42331305 -82 170 C-81.42556152 169.97905273 -80.85112305 169.95810547 -80.25927734 169.93652344 C-77.63136626 169.85286236 -75.0037361 169.8011854 -72.375 169.75 C-71.01955078 169.69972656 -71.01955078 169.69972656 -69.63671875 169.6484375 C-63.86957139 169.56424557 -60.55526929 170.09955067 -56 174 C-51.58584159 178.64648254 -51.53241739 182.88793066 -51.46875 189 C-52.51794474 194.92486444 -56.77634997 199.0268625 -60.921875 203.15234375 C-61.38555481 203.61556534 -61.84923462 204.07878693 -62.32696533 204.55604553 C-63.3028448 205.52892491 -64.28113237 206.49939429 -65.26171875 207.4675293 C-66.7375169 208.92517048 -68.20525328 210.39055407 -69.671875 211.85742188 C-73.69211754 215.8620183 -77.72009591 219.82677664 -82.03515625 223.515625 C-87.73262558 228.39802552 -92.87541446 233.87434026 -98.09008789 239.26147461 C-99.45290653 240.66671006 -100.82594738 242.062009 -102.19921875 243.45703125 C-103.00190186 244.28178955 -103.80458496 245.10654785 -104.6315918 245.95629883 C-108.2391051 249.0692247 -111.70681438 250.29067405 -116.4375 250.375 C-117.15808594 250.40335938 -117.87867188 250.43171875 -118.62109375 250.4609375 C-125.23650198 249.17913426 -129.89363366 243.32038794 -134.375 238.6875 C-138.00335456 234.9575214 -141.61207087 231.27957166 -145.578125 227.90625 C-151.48742605 222.81413155 -156.94410307 217.24190875 -162.45654297 211.72875977 C-164.38620975 209.80130309 -166.32377307 207.88201892 -168.26171875 205.96289062 C-169.49527984 204.73225997 -170.72836994 203.501157 -171.9609375 202.26953125 C-172.53798431 201.69966995 -173.11503113 201.12980865 -173.70956421 200.54267883 C-178.47219165 195.75264284 -180.28922949 192.86656238 -180.375 186.125 C-180.27363418 180.91733093 -179.69948398 177.89419367 -176 174 C-170.53445691 169.20013203 -165.68531815 169.51313771 -158.625 169.75 C-157.60277344 169.76804688 -156.58054687 169.78609375 -155.52734375 169.8046875 C-153.01725251 169.85160509 -150.50912236 169.91723271 -148 170 C-147.91363281 168.94425781 -147.82726562 167.88851562 -147.73828125 166.80078125 C-145.43501894 141.49676485 -138.14931902 117.30810492 -126 95 C-125.67918457 94.39994141 -125.35836914 93.79988281 -125.02783203 93.18164062 C-102.60968652 51.41944777 -64.59159958 19.70788125 -20 4 C-19.22092285 3.72510742 -18.4418457 3.45021484 -17.63916016 3.16699219 C-15.43261307 2.40205586 -13.22018071 1.66182337 -11 0.9375 C-10.34733154 0.72101807 -9.69466309 0.50453613 -9.0222168 0.28149414 C-5.56637835 -0.785838 -3.43595196 -1.03926367 0 0 Z " fill="#F9B400" transform="translate(212,70)"/>
<path d="M0 0 C3.56513686 3.38688002 6.19639119 5.95955122 6.8203125 10.92333984 C6.89313609 13.87522395 6.8490024 16.79896697 6.75 19.75 C6.73195313 20.77222656 6.71390625 21.79445313 6.6953125 22.84765625 C6.64839491 25.35774749 6.58276729 27.86587764 6.5 30.375 C7.55574219 30.46136719 8.61148438 30.54773438 9.69921875 30.63671875 C35.00323515 32.93998106 59.19189508 40.22568098 81.5 52.375 C82.10005859 52.69581543 82.70011719 53.01663086 83.31835938 53.34716797 C105.93836697 65.48969658 125.64555528 82.2113985 141.5 102.375 C142.24378906 103.3134375 142.98757813 104.251875 143.75390625 105.21875 C157.59333758 123.12577072 167.21247732 143.03765882 174.5 164.375 C175.06267578 166.00115234 175.06267578 166.00115234 175.63671875 167.66015625 C176.99419118 171.8308521 177.67746876 174.11276228 176.5 178.375 C176.01120361 177.87049316 175.52240723 177.36598633 175.01879883 176.84619141 C172.79133532 174.55621649 170.55212412 172.27808046 168.3125 170 C167.54357422 169.2059375 166.77464844 168.411875 165.98242188 167.59375 C165.23154297 166.83320313 164.48066406 166.07265625 163.70703125 165.2890625 C163.0210083 164.5873291 162.33498535 163.8855957 161.62817383 163.16259766 C158.1283835 160.2228862 154.59391958 159.08077397 150.0625 159 C149.34191406 158.97164062 148.62132812 158.94328125 147.87890625 158.9140625 C141.92708939 160.0672881 137.54492018 165.05273515 133.4453125 169.234375 C132.89890106 169.78361633 132.35248962 170.33285767 131.78952026 170.89874268 C130.06321695 172.63614792 128.34403982 174.38041079 126.625 176.125 C125.44838261 177.3116601 124.27130361 178.49786268 123.09375 179.68359375 C120.22380355 182.57546788 117.36022237 185.47350916 114.5 188.375 C111.03322404 186.64161202 110.62459488 182.3226722 109.4375 178.8125 C98.36119538 147.60146504 75.3286534 122.63790444 45.64306641 108.09130859 C33.1346947 102.26178028 20.07668695 98.65780577 6.5 96.375 C6.52094727 96.94943848 6.54189453 97.52387695 6.56347656 98.11572266 C6.64713764 100.74363374 6.6988146 103.3712639 6.75 106 C6.78351563 106.90363281 6.81703125 107.80726563 6.8515625 108.73828125 C6.93575443 114.50542861 6.40044933 117.81973071 2.5 122.375 C-2.14648254 126.78915841 -6.38793066 126.84258261 -12.5 126.90625 C-18.42486444 125.85705526 -22.5268625 121.59865003 -26.65234375 117.453125 C-27.11556534 116.98944519 -27.57878693 116.52576538 -28.05604553 116.04803467 C-29.02892491 115.0721552 -29.99939429 114.09386763 -30.9675293 113.11328125 C-32.42517048 111.6374831 -33.89055407 110.16974672 -35.35742188 108.703125 C-39.3620183 104.68288246 -43.32677664 100.65490409 -47.015625 96.33984375 C-51.89802552 90.64237442 -57.37434026 85.49958554 -62.76147461 80.28491211 C-64.16671006 78.92209347 -65.562009 77.54905262 -66.95703125 76.17578125 C-67.78178955 75.37309814 -68.60654785 74.57041504 -69.45629883 73.7434082 C-72.5692247 70.1358949 -73.79067405 66.66818562 -73.875 61.9375 C-73.90335938 61.21691406 -73.93171875 60.49632812 -73.9609375 59.75390625 C-72.67913426 53.13849802 -66.82038794 48.48136634 -62.1875 44 C-58.4575214 40.37164544 -54.77957166 36.76292913 -51.40625 32.796875 C-46.31413155 26.88757395 -40.74190875 21.43089693 -35.22875977 15.91845703 C-33.30130309 13.98879025 -31.38201892 12.05122693 -29.46289062 10.11328125 C-28.23225997 8.87972016 -27.001157 7.64663006 -25.76953125 6.4140625 C-25.19966995 5.83701569 -24.62980865 5.25996887 -24.04267883 4.66543579 C-17.16098497 -2.17688108 -9.1725306 -4.25867492 0 0 Z " fill="#009FC7" transform="translate(265.5,33.625)"/>
<path d="M0 0 C1.09441406 -0.02513672 1.09441406 -0.02513672 2.2109375 -0.05078125 C9.42955404 1.03551541 13.69475798 6.04674262 18.5 11.0625 C24.18472943 16.94385984 24.18472943 16.94385984 30.234375 22.44140625 C36.13713107 27.51722711 41.58021106 33.08170066 47.08154297 38.58374023 C49.01120975 40.51119691 50.94877307 42.43048108 52.88671875 44.34960938 C54.12027984 45.58024003 55.35336994 46.811343 56.5859375 48.04296875 C57.16298431 48.61283005 57.74003113 49.18269135 58.33456421 49.76982117 C63.09719165 54.55985716 64.91422949 57.44593762 65 64.1875 C64.89863418 69.39516907 64.32448398 72.41830633 60.625 76.3125 C55.15945691 81.11236797 50.31031815 80.79936229 43.25 80.5625 C42.22777344 80.54445313 41.20554687 80.52640625 40.15234375 80.5078125 C37.64225251 80.46089491 35.13412236 80.39526729 32.625 80.3125 C32.49544922 81.89611328 32.49544922 81.89611328 32.36328125 83.51171875 C30.04754094 108.95282046 22.58482664 132.79682637 10.625 155.3125 C9.61956893 157.30977523 8.61764035 159.30883707 7.625 161.3125 C6.82835937 161.26609375 6.03171875 161.2196875 5.2109375 161.171875 C-1.53238334 160.92446116 -1.53238334 160.92446116 -7.875 162.9375 C-17.60652772 172.18245133 -14.63006884 176.66894573 -15.375 192.3125 C-62.565 192.3125 -109.755 192.3125 -158.375 192.3125 C-158.375 191.9825 -158.375 191.6525 -158.375 191.3125 C-157.07949219 191.22613281 -155.78398437 191.13976562 -154.44921875 191.05078125 C-117.46766918 188.26349154 -85.99518902 173.35493816 -61.375 145.3125 C-46.09717646 126.41774943 -37.37686671 104.11307568 -33.375 80.3125 C-34.23665771 80.3439209 -34.23665771 80.3439209 -35.11572266 80.37597656 C-37.74363374 80.45963764 -40.3712639 80.5113146 -43 80.5625 C-43.90363281 80.59601563 -44.80726563 80.62953125 -45.73828125 80.6640625 C-51.50542861 80.74825443 -54.81973071 80.21294933 -59.375 76.3125 C-63.78915841 71.66601746 -63.84258261 67.42456934 -63.90625 61.3125 C-62.85705526 55.38763556 -58.59865003 51.2856375 -54.453125 47.16015625 C-53.98944519 46.69693466 -53.52576538 46.23371307 -53.04803467 45.75645447 C-52.0721552 44.78357509 -51.09386763 43.81310571 -50.11328125 42.8449707 C-48.6374831 41.38732952 -47.16974672 39.92194593 -45.703125 38.45507812 C-41.68373029 34.45128388 -37.65628162 30.48683825 -33.34375 26.796875 C-27.63146477 21.90052616 -22.46307792 16.42876724 -17.20947266 11.05102539 C-15.83680274 9.64814246 -14.45754704 8.25171301 -13.078125 6.85546875 C-12.27020508 6.03071045 -11.46228516 5.20595215 -10.62988281 4.35620117 C-7.2253774 1.27054561 -4.58299595 0.02412103 0 0 Z " fill="#C70A50" transform="translate(415.375,191.6875)"/>
<path d="M0 0 C1.09763672 -0.02449219 2.19527344 -0.04898438 3.32617188 -0.07421875 C4.91075195 -0.08001953 4.91075195 -0.08001953 6.52734375 -0.0859375 C7.492771 -0.09415527 8.45819824 -0.10237305 9.45288086 -0.11083984 C12.8035335 0.51296021 13.96925699 1.73949878 16.0625 4.375 C16.78515625 7.06640625 16.78515625 7.06640625 17.125 9.9375 C17.53192169 13.82976309 17.53192169 13.82976309 19.44921875 17.109375 C22.90410104 19.8197427 26.10728874 21.21579812 30.4375 21.9375 C34.23865187 21.34766609 35.19453478 20.71698704 38.0625 18.375 C40.70939202 16.26052879 42.09297417 15.36653495 45.4375 14.4375 C51.34502004 15.96530691 54.88591768 20.08868809 59.0625 24.375 C59.71347656 25.00535156 60.36445313 25.63570312 61.03515625 26.28515625 C63.78835919 29.14249926 64.95253013 30.87097141 65.8125 34.8125 C64.91373507 39.0816334 63.10999297 41.08425037 60.4140625 44.40625 C58.25707542 47.54821962 58.40406691 49.68777472 59.0625 53.375 C60.39069426 57.23308808 61.69203475 60.48822837 65.1875 62.75 C66.9636642 63.13612265 68.74579442 63.49697831 70.53515625 63.81640625 C71.87900391 64.06197266 71.87900391 64.06197266 73.25 64.3125 C74.10980469 64.44527344 74.96960938 64.57804687 75.85546875 64.71484375 C78.0625 65.375 78.0625 65.375 80.0625 68.375 C80.52683114 72.3389832 80.43283263 76.32423544 80.4375 80.3125 C80.46199219 81.41013672 80.48648438 82.50777344 80.51171875 83.63867188 C80.51558594 84.69505859 80.51945313 85.75144531 80.5234375 86.83984375 C80.53165527 87.805271 80.53987305 88.77069824 80.54833984 89.76538086 C79.92452961 93.11608817 78.69661956 94.28014901 76.0625 96.375 C73.37109375 97.1328125 73.37109375 97.1328125 70.5 97.5 C66.81860147 97.98952111 65.22191992 98.26872006 62.0625 100.375 C59.47963822 105.15807737 57.67035982 109.92514889 59.0625 115.375 C60.38979148 117.23937854 60.38979148 117.23937854 62.0625 118.9375 C64.35630767 121.37982759 65.05186219 122.33741307 66 125.6875 C64.48630405 131.64137076 60.37754547 135.17041969 56.0625 139.375 C55.43214844 140.02597656 54.80179688 140.67695313 54.15234375 141.34765625 C51.29500074 144.10085919 49.56652859 145.26503013 45.625 146.125 C41.3558666 145.22623507 39.35324963 143.42249297 36.03125 140.7265625 C32.88928038 138.56957542 30.74972528 138.71656691 27.0625 139.375 C23.20441192 140.70319426 19.94927163 142.00453475 17.6875 145.5 C17.30137735 147.2761642 16.94052169 149.05829442 16.62109375 150.84765625 C16.37552734 152.19150391 16.37552734 152.19150391 16.125 153.5625 C15.99222656 154.42230469 15.85945313 155.28210938 15.72265625 156.16796875 C15.0625 158.375 15.0625 158.375 12.0625 160.375 C8.0985168 160.83933114 4.11326456 160.74533263 0.125 160.75 C-0.97263672 160.77449219 -2.07027344 160.79898438 -3.20117188 160.82421875 C-4.78575195 160.83001953 -4.78575195 160.83001953 -6.40234375 160.8359375 C-7.367771 160.84415527 -8.33319824 160.85237305 -9.32788086 160.86083984 C-12.67858817 160.23702961 -13.84264901 159.00911956 -15.9375 156.375 C-16.6953125 153.68359375 -16.6953125 153.68359375 -17.0625 150.8125 C-17.55202111 147.13110147 -17.83122006 145.53441992 -19.9375 142.375 C-24.72057737 139.79213822 -29.48764889 137.98285982 -34.9375 139.375 C-36.80187854 140.70229148 -36.80187854 140.70229148 -38.5 142.375 C-40.94232759 144.66880767 -41.89991307 145.36436219 -45.25 146.3125 C-51.20387076 144.79880405 -54.73291969 140.69004547 -58.9375 136.375 C-59.58847656 135.74464844 -60.23945313 135.11429688 -60.91015625 134.46484375 C-63.66335919 131.60750074 -64.82753013 129.87902859 -65.6875 125.9375 C-64.78873507 121.6683666 -62.98499297 119.66574963 -60.2890625 116.34375 C-58.13207542 113.20178038 -58.27906691 111.06222528 -58.9375 107.375 C-60.26569426 103.51691192 -61.56703475 100.26177163 -65.0625 98 C-66.8386642 97.61387735 -68.62079442 97.25302169 -70.41015625 96.93359375 C-71.30605469 96.76988281 -72.20195312 96.60617187 -73.125 96.4375 C-73.98480469 96.30472656 -74.84460938 96.17195313 -75.73046875 96.03515625 C-77.9375 95.375 -77.9375 95.375 -79.9375 92.375 C-80.40183114 88.4110168 -80.30783263 84.42576456 -80.3125 80.4375 C-80.33699219 79.33986328 -80.36148438 78.24222656 -80.38671875 77.11132812 C-80.39058594 76.05494141 -80.39445313 74.99855469 -80.3984375 73.91015625 C-80.40665527 72.944729 -80.41487305 71.97930176 -80.42333984 70.98461914 C-79.79953979 67.6339665 -78.57300122 66.46824301 -75.9375 64.375 C-73.24609375 63.65234375 -73.24609375 63.65234375 -70.375 63.3125 C-66.48273691 62.90557831 -66.48273691 62.90557831 -63.203125 60.98828125 C-60.4927573 57.53339896 -59.09670188 54.33021126 -58.375 50 C-58.96483391 46.19884813 -59.59551296 45.24296522 -61.9375 42.375 C-64.05197121 39.72810798 -64.94596505 38.34452583 -65.875 35 C-64.34719309 29.09247996 -60.22381191 25.55158232 -55.9375 21.375 C-55.30714844 20.72402344 -54.67679688 20.07304687 -54.02734375 19.40234375 C-51.17000074 16.64914081 -49.44152859 15.48496987 -45.5 14.625 C-41.2308666 15.52376493 -39.22824963 17.32750703 -35.90625 20.0234375 C-32.76428038 22.18042458 -30.62472528 22.03343309 -26.9375 21.375 C-23.07941192 20.04680574 -19.82427163 18.74546525 -17.5625 15.25 C-17.17637735 13.4738358 -16.81552169 11.69170558 -16.49609375 9.90234375 C-16.33238281 9.00644531 -16.16867188 8.11054688 -16 7.1875 C-15.86722656 6.32769531 -15.73445313 5.46789062 -15.59765625 4.58203125 C-13.70001448 -1.76215574 -5.26595412 0.00616261 0 0 Z M-24.9375 60.375 C-30.89793793 69.15256033 -31.7359482 76.83548372 -30.9375 87.375 C-29.09416828 95.5034266 -24.52905791 102.25708399 -17.625 106.9453125 C-9.01255225 111.90313604 0.15993871 113.00515955 9.95703125 110.69140625 C19.84055786 107.03252774 25.4581627 100.73818257 30.0625 91.375 C32.81560059 83.29923827 31.96787175 73.25501361 28.3828125 65.62109375 C23.8605092 57.9278263 17.76095659 52.57491416 9.20703125 49.765625 C-4.03511336 47.3535768 -15.9484631 50.14747357 -24.9375 60.375 Z " fill="#C8094F" transform="translate(255.9375,175.625)"/>
<path d="M0 0 C1.00633736 -0.03460831 1.00633736 -0.03460831 2.03300476 -0.06991577 C4.2382482 -0.13815377 6.44237382 -0.1754599 8.6484375 -0.20654297 C9.40877289 -0.22034878 10.16910828 -0.23415459 10.95248413 -0.24837875 C14.98216474 -0.3199122 19.01129175 -0.36704723 23.04150391 -0.39453125 C26.35084244 -0.42096768 29.65477883 -0.49028677 32.96240234 -0.59960938 C63.36923698 -1.58475764 63.36923698 -1.58475764 71.14025879 5.48135376 C73.23053901 7.8313165 75.01188815 10.27635736 76.72193909 12.91267395 C79.00658556 16.00848443 82.0260091 18.19988768 85.0859375 20.48876953 C85.70031677 20.95658844 86.31469604 21.42440735 86.94769287 21.90640259 C88.62787884 23.17964084 90.32277009 24.43055149 92.0234375 25.67626953 C93.08175781 26.45615234 94.14007813 27.23603516 95.23046875 28.03955078 C125.69328613 49.78797404 160.69600013 61.73850639 198.0234375 63.67626953 C198.0234375 64.00626953 198.0234375 64.33626953 198.0234375 64.67626953 C171.39841634 64.76967818 144.77341971 64.8402318 118.14826775 64.88351822 C105.78596395 64.90415036 93.42376192 64.93228356 81.06152344 64.97802734 C70.2875897 65.01787497 59.51372966 65.0436976 48.73972428 65.05262351 C43.03405074 65.05784173 37.32858804 65.07012028 31.62298203 65.09918976 C26.25336926 65.12632591 20.88405433 65.13471808 15.5143795 65.12870026 C13.54311314 65.12980129 11.5718369 65.13776577 9.60062981 65.15309143 C6.90923942 65.17299111 4.21897374 65.16820882 1.52755737 65.1572876 C0.74739002 65.16893896 -0.03277733 65.18059033 -0.83658612 65.19259477 C-6.04216494 65.13549309 -8.96179893 63.95274243 -12.9765625 60.67626953 C-17.51938326 55.58406678 -17.56548166 51.17653045 -17.5078125 44.67626953 C-17.5116394 43.72236328 -17.51546631 42.76845703 -17.51940918 41.78564453 C-17.52212286 39.77521709 -17.51479987 37.76475401 -17.49804688 35.75439453 C-17.47662959 32.68588166 -17.49786716 29.61971001 -17.5234375 26.55126953 C-17.52079413 24.59293106 -17.51566895 22.63459403 -17.5078125 20.67626953 C-17.51590942 19.76361328 -17.52400635 18.85095703 -17.53234863 17.91064453 C-17.4510065 12.35547081 -16.81855724 8.98289249 -12.9765625 4.67626953 C-8.55737904 1.2166856 -5.58844564 0.15454483 0 0 Z " fill="#C70A4F" transform="translate(48.9765625,383.32373046875)"/>
<path d="M0 0 C-0.50450684 0.4940332 -1.00901367 0.98806641 -1.52880859 1.49707031 C-3.81612891 3.74276467 -6.09560782 5.99626015 -8.375 8.25 C-9.1690625 9.02730469 -9.963125 9.80460937 -10.78125 10.60546875 C-11.54179687 11.35957031 -12.30234375 12.11367187 -13.0859375 12.890625 C-13.7876709 13.58188477 -14.4894043 14.27314453 -15.21240234 14.98535156 C-18.13632967 18.28065999 -19.28939366 20.98479476 -19.3125 25.375 C-19.33763672 26.46941406 -19.33763672 26.46941406 -19.36328125 27.5859375 C-18.40659336 33.94328286 -14.42446408 37.99178938 -10.01953125 42.2734375 C-9.44667892 42.84204498 -8.8738266 43.41065247 -8.28361511 43.99649048 C-6.46687821 45.7965433 -4.63995334 47.58583432 -2.8125 49.375 C-1.57287765 50.59956227 -0.3339379 51.82481594 0.90429688 53.05078125 C3.92835947 56.04191099 6.96159915 59.02343906 10 62 C9 64 9 64 6.8737793 65.01806641 C2.90730311 64.99313061 1.66065719 63.37464309 -1.0891571 60.66757202 C-2.02535637 59.69903793 -2.02535637 59.69903793 -2.98046875 58.7109375 C-3.63453201 58.05549957 -4.28859528 57.40006165 -4.96247864 56.72476196 C-6.3437012 55.33447324 -7.71762151 53.93689751 -9.0847168 52.53271484 C-11.17435809 50.38848522 -13.28683462 48.26906676 -15.40429688 46.15234375 C-16.74360824 44.79827879 -18.08154552 43.44285305 -19.41796875 42.0859375 C-20.04817429 41.45239349 -20.67837982 40.81884949 -21.3276825 40.16610718 C-25.47001286 35.8880967 -27.7490019 32.71077949 -28.3125 26.625 C-27.62800102 18.68481181 -23.96787018 14.42013072 -18.375 9.1875 C-14.18422176 5.48411429 -14.18422176 5.48411429 -11 1 C-6.894382 -0.47182532 -4.17395843 -1.29917911 0 0 Z " fill="#D89603" transform="translate(212,70)"/>
<path d="M0 0 C0.99 0.495 0.99 0.495 2 1 C2.4127198 3.88876597 2.5956754 6.08708651 0.95428467 8.60263062 C-0.60403782 10.34829914 -2.22904634 11.98163937 -3.9140625 13.60546875 C-4.52132172 14.2113533 -5.12858093 14.81723785 -5.75424194 15.44148254 C-7.04019638 16.71838734 -8.33342123 17.98800607 -9.63330078 19.25073242 C-11.61284458 21.17567983 -13.56748451 23.12338629 -15.51953125 25.07617188 C-16.77463902 26.3165251 -18.03110678 27.55550398 -19.2890625 28.79296875 C-20.16130966 29.66020821 -20.16130966 29.66020821 -21.05117798 30.54496765 C-25.440901 34.78469394 -30.01358619 38.38513716 -36.375 38.5625 C-45.25310799 38.19196127 -51.14512607 30.03236944 -56.8984375 24.07421875 C-58.82506762 21.95829578 -58.82506762 21.95829578 -61 21 C-62.47182532 16.894382 -63.29917911 14.17395843 -62 10 C-61.5059668 10.50450684 -61.01193359 11.00901367 -60.50292969 11.52880859 C-58.25723533 13.81612891 -56.00373985 16.09560782 -53.75 18.375 C-52.97269531 19.1690625 -52.19539063 19.963125 -51.39453125 20.78125 C-50.64042969 21.54179687 -49.88632813 22.30234375 -49.109375 23.0859375 C-48.07248535 24.1385376 -48.07248535 24.1385376 -47.01464844 25.21240234 C-43.71934001 28.13632967 -41.01520524 29.28939366 -36.625 29.3125 C-35.89539063 29.32925781 -35.16578125 29.34601563 -34.4140625 29.36328125 C-28.05671714 28.40659336 -24.00821062 24.42446408 -19.7265625 20.01953125 C-19.15795502 19.44667892 -18.58934753 18.8738266 -18.00350952 18.28361511 C-16.2034567 16.46687821 -14.41416568 14.63995334 -12.625 12.8125 C-11.40043773 11.57287765 -10.17518406 10.3339379 -8.94921875 9.09570312 C-5.95808901 6.07164053 -2.97656094 3.03840085 0 0 Z " fill="#0483A7" transform="translate(132,290)"/>
<path d="M0 0 C5.89613417 -0.75285657 5.89613417 -0.75285657 8.66455078 1.13525391 C10.38005636 2.79805578 11.97606754 4.52612223 13.5625 6.3125 C20.19589524 13.348946 27.20873998 19.29299749 35 25 C36.05832031 25.77988281 37.11664063 26.55976563 38.20703125 27.36328125 C59.16104525 42.32305204 82.22195548 52.25946813 107 59 C107 59.66 107 60.32 107 61 C79.49616679 56.56389787 53.64323727 45.10877239 31 29 C30.42636719 28.59458984 29.85273438 28.18917969 29.26171875 27.77148438 C19.78986565 20.99478385 11.34372143 13.09974508 3 5 C2.16106201 4.22644165 2.16106201 4.22644165 1.30517578 3.43725586 C0 2 0 2 0 0 Z " fill="#9E032C" transform="translate(106,384)"/>
<path d="M0 0 C4.86896303 0.59619955 9.32790951 1.56976822 14 3 C14 3.66 14 4.32 14 5 C12.22694336 4.74412595 10.45655392 4.46972261 8.6875 4.1875 C7.20830078 3.96126953 7.20830078 3.96126953 5.69921875 3.73046875 C2.87300731 2.96563295 1.8040872 2.24741238 0 0 Z " fill="#9B0934" transform="translate(199,440)"/>
</svg>
