<?xml version="1.0" standalone="no"?>
<!DOCTYPE svg PUBLIC "-//W3C//DTD SVG 20010904//EN"
 "http://www.w3.org/TR/2001/REC-SVG-20010904/DTD/svg10.dtd">
<svg version="1.0" xmlns="http://www.w3.org/2000/svg"
 width="512.000000pt" height="512.000000pt" viewBox="0 0 512.000000 512.000000"
 preserveAspectRatio="xMidYMid meet">

<g transform="translate(0.000000,512.000000) scale(0.100000,-0.100000)"
fill="#000000" stroke="none">
<path d="M3407 4788 c-13 -13 -36 -55 -51 -94 -25 -68 -29 -72 -69 -84 -23 -7
-70 -25 -103 -40 l-61 -28 -69 31 c-109 48 -108 48 -246 -91 -139 -138 -139
-137 -91 -246 l31 -69 -29 -64 c-15 -35 -34 -81 -40 -103 -11 -37 -17 -41 -83
-66 -116 -44 -116 -45 -116 -243 0 -118 4 -172 13 -184 6 -9 47 -32 91 -50
l78 -33 23 -60 c12 -33 32 -78 43 -101 l21 -40 -35 -82 c-32 -73 -35 -86 -24
-111 6 -16 63 -78 125 -139 87 -85 120 -111 140 -111 15 0 58 14 97 31 l70 31
72 -31 c39 -16 87 -36 106 -44 31 -13 38 -23 63 -91 39 -104 43 -106 252 -99
120 4 164 9 177 20 9 8 29 48 44 89 19 53 32 75 48 80 11 3 59 22 105 41 l83
36 72 -32 c39 -17 82 -31 96 -31 36 0 270 236 270 272 0 14 -14 57 -31 96
l-31 71 35 83 c19 46 38 93 41 104 5 16 27 29 80 48 110 40 110 41 114 215 2
102 -1 158 -10 186 -12 38 -18 42 -93 71 l-79 32 -44 106 -44 107 31 70 c17
38 31 81 31 95 0 32 -197 239 -248 261 -31 13 -38 12 -114 -21 l-81 -35 -40
21 c-23 11 -68 31 -101 43 l-60 23 -33 78 c-18 44 -41 85 -50 92 -12 8 -66 12
-184 12 -160 0 -169 -1 -192 -22z m300 -208 c13 -36 30 -71 37 -78 7 -7 53
-27 102 -43 49 -17 112 -44 140 -60 63 -35 86 -36 158 -4 31 14 62 25 69 25 7
0 36 -24 66 -54 l52 -53 -32 -77 -32 -77 46 -97 c25 -53 51 -117 57 -142 18
-69 33 -86 110 -116 l71 -27 -3 -84 -3 -84 -69 -29 c-38 -17 -73 -35 -78 -42
-4 -7 -17 -42 -29 -78 -12 -36 -40 -102 -62 -147 l-41 -83 32 -77 33 -77 -58
-58 -58 -58 -77 32 -78 32 -82 -41 c-46 -22 -112 -50 -148 -62 -36 -12 -71
-25 -78 -29 -7 -5 -25 -40 -42 -78 l-29 -69 -84 -3 -84 -3 -27 70 c-15 38 -33
74 -40 80 -7 6 -48 22 -90 36 -43 14 -110 42 -149 62 -78 40 -73 41 -188 -10
l-36 -16 -58 59 -58 59 26 63 c15 35 27 73 27 85 0 12 -18 57 -39 100 -22 43
-47 104 -56 135 -22 76 -38 93 -115 122 l-65 24 -3 84 -3 83 66 25 c36 14 74
34 84 45 10 11 29 52 41 90 13 39 38 100 56 137 41 81 41 97 9 166 -14 30 -25
59 -25 65 0 6 25 37 56 68 l56 57 62 -29 c33 -16 71 -29 84 -29 12 0 53 15 90
34 37 18 99 43 137 56 39 12 79 31 90 41 11 10 31 48 45 84 l25 66 83 -3 84
-3 25 -65z"/>
<path d="M3525 4259 c-187 -24 -357 -144 -436 -309 -48 -98 -61 -155 -60 -265
0 -159 60 -295 182 -410 278 -262 733 -177 898 167 64 134 77 254 41 392 -27
108 -63 169 -150 257 -132 134 -296 192 -475 168z m186 -175 c75 -22 129 -56
184 -115 150 -161 146 -408 -10 -564 -266 -266 -718 -59 -692 317 17 259 270
435 518 362z"/>
<path d="M593 4725 c-167 -29 -170 -31 -188 -66 -19 -37 -11 -73 24 -100 26
-21 35 -21 140 -2 l34 6 -30 -44 c-89 -130 -212 -360 -273 -514 -288 -718
-304 -1518 -44 -2243 95 -266 321 -679 387 -707 36 -15 82 -3 97 25 21 39 9
73 -61 184 -329 516 -490 1175 -439 1791 41 493 191 946 440 1334 l48 74 12
-59 c18 -91 19 -94 56 -111 40 -19 73 -9 99 31 16 24 15 35 -10 188 -14 90
-31 176 -37 191 -21 54 -53 57 -255 22z"/>
<path d="M2463 4570 c-37 -15 -43 -42 -43 -204 l0 -155 26 -20 c15 -12 37 -21
50 -21 71 0 84 33 84 210 l0 142 -29 29 c-30 30 -50 34 -88 19z"/>
<path d="M1526 4309 c-42 -33 -35 -69 40 -200 82 -142 88 -149 135 -149 42 0
79 35 79 75 0 27 -132 262 -158 281 -25 20 -66 17 -96 -7z"/>
<path d="M2211 3935 c-122 -32 -295 -116 -397 -193 -237 -179 -395 -445 -439
-739 -39 -260 2 -476 136 -714 110 -195 158 -293 189 -387 56 -167 90 -398 90
-611 0 -81 5 -115 19 -146 19 -43 95 -118 128 -129 18 -6 21 -17 25 -101 4
-89 6 -97 41 -148 24 -34 54 -63 81 -78 l43 -23 5 -80 c9 -132 53 -205 153
-252 46 -22 63 -24 206 -24 185 0 231 12 294 75 52 52 75 116 75 211 0 66 2
72 23 78 37 9 104 73 127 122 15 31 24 72 28 129 l5 85 43 25 c95 56 124 129
124 311 0 201 34 411 95 586 25 70 94 208 188 374 69 120 78 158 47 197 -17
21 -30 27 -59 27 -46 0 -53 -8 -114 -120 -25 -47 -71 -130 -101 -185 -104
-186 -167 -372 -195 -575 -7 -47 -14 -100 -17 -117 l-5 -33 -144 0 -145 0 0
499 0 499 123 4 c109 3 130 7 179 31 72 36 138 105 138 147 0 41 -39 80 -80
80 -22 0 -43 -12 -74 -40 -54 -50 -87 -60 -198 -60 l-88 0 0 110 c0 104 -1
112 -25 135 -31 32 -74 32 -109 0 -25 -23 -26 -28 -26 -135 l0 -110 -99 0 -98
0 -6 118 c-6 142 -23 195 -85 263 -133 148 -352 148 -484 0 -110 -122 -110
-307 1 -434 18 -20 63 -51 99 -69 62 -31 75 -33 184 -37 l118 -3 0 -499 0
-499 -144 0 -144 0 -6 68 c-12 111 -53 303 -87 398 -35 101 -86 204 -187 381
-83 146 -118 247 -133 383 -25 218 30 449 153 637 99 151 235 270 399 347 93
44 232 86 284 86 34 0 85 50 85 83 0 13 -9 36 -21 51 -17 22 -28 26 -72 26
-29 -1 -94 -12 -146 -25z m-60 -968 c66 -45 79 -77 79 -200 l0 -109 -103 4
c-116 4 -155 20 -195 79 -20 28 -23 44 -20 94 2 40 10 70 23 87 50 67 152 89
216 45z m449 -967 l0 -500 -100 0 -100 0 0 500 0 500 100 0 100 0 0 -500z
m448 -726 c-4 -58 -8 -70 -32 -90 l-27 -24 -495 0 -495 0 -24 25 c-22 21 -25
33 -25 90 l0 65 551 0 551 0 -4 -66z m-178 -343 c0 -49 -4 -65 -24 -88 l-24
-28 -305 -3 c-254 -3 -311 -1 -341 12 -42 18 -56 46 -56 117 l0 49 375 0 375
0 0 -59z m-170 -331 c0 -28 -7 -64 -15 -79 -23 -45 -58 -53 -203 -49 -122 3
-132 5 -156 27 -23 21 -26 33 -26 88 l0 63 200 0 200 0 0 -50z"/>
<path d="M873 3650 c-58 -23 -66 -102 -15 -138 59 -42 227 -134 253 -139 22
-4 35 1 60 26 26 27 30 37 25 64 -8 42 -11 44 -155 126 -130 74 -133 75 -168
61z"/>
<path d="M4890 3255 l-23 -24 12 -158 c18 -257 12 -452 -24 -696 -71 -483
-285 -977 -582 -1347 -75 -94 -248 -271 -332 -340 l-54 -44 5 65 c8 100 -14
139 -78 139 -69 0 -80 -31 -89 -257 l-7 -162 24 -24 c22 -22 37 -26 129 -31
217 -14 265 -13 288 8 14 13 21 31 21 58 0 56 -24 74 -108 83 l-71 7 32 26
c18 14 66 58 107 96 557 525 877 1254 907 2066 7 190 -11 480 -32 521 -25 47
-87 54 -125 14z"/>
</g>
</svg>
