<svg
   id="Layer_1"
   data-name="Layer 1"
   xmlns="http://www.w3.org/2000/svg"
   xmlns:xlink="http://www.w3.org/1999/xlink"
   viewBox="0 0 508.13 410.82"
>
   <defs>
      <style>
         .cls-1 {
            fill: url(#linear-gradient);
         }
         .cls-2 {
            fill: url(#linear-gradient-2);
         }
         .cls-3 {
            fill: url(#radial-gradient);
         }
      </style>
      <linearGradient
         id="linear-gradient"
         x1="-10326.4"
         y1="-8442.14"
         x2="-10155.5"
         y2="-8543.12"
         gradientTransform="translate(1451.21 1254.9) scale(0.12)"
         gradientUnits="userSpaceOnUse"
      >
         <stop offset="0" stop-color="#909ca9" />
         <stop offset="1" stop-color="#ededee" />
      </linearGradient>
      <linearGradient
         id="linear-gradient-2"
         x1="-10322.56"
         y1="-10345.3"
         x2="-10185.06"
         y2="-10345.3"
         gradientTransform="translate(1451.21 1254.9) scale(0.12)"
         gradientUnits="userSpaceOnUse"
      >
         <stop offset="0" stop-color="#939fab" />
         <stop offset="1" stop-color="#dcdee1" />
      </linearGradient>
      <radialGradient
         id="radial-gradient"
         cx="-3411.78"
         cy="-6056.26"
         r="182.56"
         gradientTransform="matrix(-0.11, -0.02, 0.03, -0.23, 128.7, -1338.2)"
         gradientUnits="userSpaceOnUse"
      >
         <stop offset="0" stop-color="#ee352c" />
         <stop offset="1" stop-color="#a91d22" />
      </radialGradient>
   </defs>
   <title>sql-server</title>
   <g transform="translate(-50,60)">
        <path
            class="cls-1"
            d="M344.5,130.81l-56.12,18.32-48.82,21.55-13.66,3.61c-3.47,3.31-7.12,6.66-11.07,10.05-4.32,3.73-8.35,7.13-11.45,9.59a85.76,85.76,0,0,0-11.11,11c-3.86,4.84-6.91,10-8.23,13.92-2.33,7.12-1.19,14.33,3.31,21,5.77,8.48,17.26,17.14,30.67,23a195.68,195.68,0,0,0,27,9c14.38,3.64,42.2,7.59,57.52,8.18a64.49,64.49,0,0,0,7.42,0c.34-.21,2.71-4.75,5.47-10.39,9.42-19.21,16.2-37.24,19.89-52.64,2.21-9.33,3.95-21.75,5.09-36.47.3-4.12.43-17.9.17-22.57a158.16,158.16,0,0,0-2.12-19.89,4.75,4.75,0,0,1-.13-1.74c.17-.13.68-.3,7.6-2.29l-1.4-3.31Zm-12.81,7.51c.51,0,1.86,13,2.2,21.25a10.83,10.83,0,0,1,0,2.88c-.34,0-7.17-4-12-7.08-4.25-2.67-12.3-8-13.58-9-.42-.3-.38-.34,3.1-1.53C317.22,142.81,331.22,138.32,331.69,138.32Zm-28.59,9.42c.38,0,1.36.55,3.69,2,8.74,5.47,20.61,12.09,25.7,14.29,1.57.68,1.74.43-1.86,2.89a185.13,185.13,0,0,1-29.14,15.65c-2.08.93-3.82,1.65-3.86,1.65a10.57,10.57,0,0,1,.51-2.33,125.38,125.38,0,0,0,4.54-29.82c0-4.24,0-4.24.42-4.37-.08.05,0,.05,0,.05ZM297.2,150c.26.26.09,9.76-.25,12.35a107.7,107.7,0,0,1-3.9,18.45,27.48,27.48,0,0,1-1,3c-.17.21-6-5.48-7.89-7.68a57.51,57.51,0,0,1-7.8-11.37,36.11,36.11,0,0,1-2.38-5.77c.68-.46,23-9.12,23.2-9Zm-27.74,10.9a.14.14,0,0,1,.13.05,7.64,7.64,0,0,1,.64,1.52,57.53,57.53,0,0,0,7,12.6,71.21,71.21,0,0,0,9.8,10.56c1,.85,1.95,1.66,2.07,1.78s.34.22-6.57,2.85c-8,3-16.75,6.1-26.76,9.33-2.39.77-4.78,1.54-7.17,2.33-.38.13-.26-.09.85-1.82,5-7.77,12.51-23,16.75-33.77.72-1.86,1.44-3.73,1.57-4.15a1.54,1.54,0,0,1,.93-1.11,4.81,4.81,0,0,1,.72-.17ZM261,164.4a91.69,91.69,0,0,1-4.15,8.78c-4.12,8-8.62,15.91-14.64,25.5-1,1.65-2,3.18-2.12,3.35s-.3.21-1-1.11a38.72,38.72,0,0,1-3.27-9.84,39.54,39.54,0,0,1,.21-12.64c.55-2.63.51-2.58,1.78-3.22,5.43-2.76,23-11,23.16-10.82Zm73.17,3v1.78a231.58,231.58,0,0,1-2.5,31.9c-.26,1.66-.47,3-.51,3.06s-1.23-.34-2.68-.77A109.72,109.72,0,0,1,309,195c-4.11-2.25-10.09-5.94-9.92-6.11s1.82-1,3.9-2.08a249.32,249.32,0,0,0,23.2-13.62c2.59-1.73,6.49-4.53,7.34-5.3l.68-.51ZM229,179.93c.17,0,.13.34-.13,1.86-.17,1.11-.38,3.14-.46,4.54-.35,6.2.67,10.78,3.73,17a33.57,33.57,0,0,1,1.48,3.23c-.3.25-28.37,8.48-37.2,10.9l-5.09,1.4c-.29.08-.34,0-.21-.68,1-6.24,5.73-14.38,12.34-21.25a55.2,55.2,0,0,1,14-10.69c4.33-2.46,11-6.15,11.49-6.32,0,0,0,0,.09,0Zm66.17,11.83a17.7,17.7,0,0,1,2.29,1.23,127.49,127.49,0,0,0,32.49,12.64l1,.21-1.36.77c-5.64,3.14-24.17,10.86-43.13,17.94-2.76,1-5.47,2-6,2.25a2.79,2.79,0,0,1-1,.29s.77-1.52,1.74-3.35a208.67,208.67,0,0,0,13.36-30.41c.34-.8.55-1.53.6-1.57ZM288.38,194a11,11,0,0,1-.72,1.95,267.9,267.9,0,0,1-14.72,29.65c-1.57,2.8-2.88,5.05-2.92,5.05s-1.32-.77-2.85-1.7c-9-5.52-17-12.3-22.18-18.88l-.76-.93,3.86-1.06a279,279,0,0,0,37.24-12.85C287,194.52,288.34,194,288.38,194Zm41.91,14.63h0c0,1-2.12,9.71-3.9,16-1.49,5.31-2.76,9.46-5.09,16.8-1,3.22-1.91,5.9-1.95,5.9a3.32,3.32,0,0,1-.56-.13,177.31,177.31,0,0,1-34.48-9.71c-3-1.19-7.21-3.1-7.46-3.31a47.42,47.42,0,0,1,5.68-2.68c19.3-8.44,39.32-18,46.19-22.14a5.65,5.65,0,0,1,1.57-.76Zm-96.75,3.31c.08.08-5.3,7.85-12.85,18.41-2.63,3.69-5.69,8-6.83,9.63S211,244.1,210,245.63l-1.78,2.76-1.91-1.62a70.43,70.43,0,0,1-7.89-8.05,34.77,34.77,0,0,1-7.08-13.7c-.47-2-.47-3.06-.05-3.18.64-.17,12-2.85,22.57-5.31,5.89-1.35,12.72-3,15.18-3.56s4.46-1.06,4.5-1.06ZM239,214l1.36,1.52a79.45,79.45,0,0,0,19.89,16.29,11.09,11.09,0,0,1,2.29,1.49c-.3.21-26.21,9.41-38.22,13.57-6.74,2.37-12.3,4.28-12.34,4.28a7.42,7.42,0,0,1-.85-.55l-.76-.55,1.23-1.78c4-5.77,9-12.09,19.89-25.24l7.51-9Zm33.85,24.22c0-.05,1.9.63,4.19,1.48a137,137,0,0,0,15.74,4.88,175,175,0,0,0,23.8,4.11c.93.09,1.44.17,1.27.3s-6.53,2.25-11.11,3.69c-7.3,2.29-29.57,8.87-47.72,14.08-3.35,1-6.24,1.78-6.41,1.83a3.4,3.4,0,0,1-1.82-.47,31.38,31.38,0,0,1,2.25-2.84,252.31,252.31,0,0,0,17.22-23.16c1.4-2.12,2.59-3.86,2.59-3.9Zm-7.47.21s-3,4.88-8.23,13.19c-2.25,3.52-4.75,7.51-5.64,8.91s-2.12,3.48-2.84,4.66l-1.23,2.17-.64-.17c-1.52-.43-12.26-4.2-15.1-5.35a102.55,102.55,0,0,1-9.88-4.54c-3.39-1.82-7.63-4.54-7.3-4.62.09,0,5.9-1.61,12.9-3.52,18.58-5.05,28.88-8,35.63-10.09a16.59,16.59,0,0,1,2.33-.64Zm52.81,12.38h0c.17.43-6.7,19.52-9.2,25.54-.56,1.36-.77,1.69-1.06,1.65-.73,0-10.69-1.44-16.76-2.33-10.56-1.61-28.29-4.71-32.74-5.73l-1-.21,6.32-1.44c13.57-3.06,20.1-4.71,26.72-6.75a187.87,187.87,0,0,0,25-9.62,21.25,21.25,0,0,1,2.72-1.11Z"
        />
        <path
            class="cls-2"
            d="M286.64,0c-.93-.12-16,5.3-25.7,9.25-13.11,5.34-23.29,10.43-29.56,14.84-2.34,1.66-5.26,4.59-5.73,5.73a3.92,3.92,0,0,0-.25,1.44l5.68,5.39L244.61,41l32.19,5.76,36.82,6.32.38-3.18c-.13,0-.21,0-.34,0l-4.83-.76-1-1.74c-5-8.82-10.52-19.77-13.74-27.15A139.4,139.4,0,0,1,287.92,3.1c-.73-2.89-.81-3.05-1.28-3.1ZM286,2.17H286s.21,1.23.38,2.63a89.15,89.15,0,0,0,4.11,17.85c1.57,4.67,1.57,4.41-.25,3.86C285.92,25.32,266.54,22,252.5,20c-2.25-.29-4.16-.59-4.16-.63-.17-.17,10.14-5.56,14.68-7.68C268.83,9,284.78,2.38,286,2.17Zm-40.88,19,1.65.55c9,3.05,31.6,7.38,44.07,8.4,1.4.12,2.59.25,2.63.25a20.4,20.4,0,0,1-2.67,1.4c-6,3-12.64,6.7-17.22,9.55a18.07,18.07,0,0,1-2.76,1.52c-.17,0-1.06-.17-2-.29l-1.7-.26-4.24-4.16c-7.47-7.25-13.32-12.85-15.57-15Zm-1.7,1.31,6,7.47c3.27,4.11,6.57,8.14,7.3,9a13.08,13.08,0,0,1,1.27,1.66c-.17.12-8.65-1.53-13.15-2.55s-6.53-1.57-9.37-2.46l-2.34-.76v-.6c.05-2.84,3.65-7.08,9.76-11.41l.55-.38Zm50.81,10.18c.17,0,.38.38.89,1.53,1.45,3.18,5.94,11.75,7,13.4.34.55.94.6-5-.38-14.38-2.33-19-3.1-19-3.18a4.47,4.47,0,0,1,1-.64,83.23,83.23,0,0,0,12.94-9c1-.8,1.86-1.57,2-1.69s.13-.13.17-.09Z"
        />
        <path
            class="cls-3"
            d="M226,29.23a4.2,4.2,0,0,0,0,3.69c.56,1.35,2.17,3,4,4.71,0,0,18.88,18.4,21.17,21,10.43,12,15,23.93,15.39,40.3.26,10.52-1.74,19.76-6.7,30.49-8.82,19.26-27.44,40.51-56.16,64.09l4.2-1.4c2.72-2,6.41-4.19,15.06-8.95,20-10.94,42.46-21,70-31.34,39.7-14.93,105-32.41,142.13-38.09l3.86-.59-.59-.94a132.23,132.23,0,0,0-8.53-12,101.83,101.83,0,0,0-30.11-25.07C383,65.87,361.5,58.62,334.28,53.23c-5.14-1-16.42-3-25.58-4.36-19.43-3-32-5.09-45.81-7.47-5-.85-12.39-2.12-17.31-3.18a110.31,110.31,0,0,1-11.23-3c-3.06-1.19-7.47-2.38-8.4-6Zm10.94,10.6a11.8,11.8,0,0,1,1.61.51c1.61.55,3.69,1.19,6.15,1.87q2.79.76,5.6,1.48c2.55.64,4.67,1.23,4.71,1.23.3.3,4.58,14,6,19.26.55,2,1,3.69.94,3.69a8.58,8.58,0,0,1-1.07-1.66c-5-8.74-12.8-17.6-21.88-24.73a17.46,17.46,0,0,1-2.08-1.65Zm20.87,5.77a17.49,17.49,0,0,1,2.29.38c7.21,1.61,20.15,4.07,28.42,5.47A10.51,10.51,0,0,1,291,52a3.92,3.92,0,0,1-1.15.72c-1.4.73-7,4.08-8.9,5.35a81.9,81.9,0,0,0-12,9.58c-1.23,1.23-2.29,2.25-2.29,2.25s-.25-.72-.46-1.61a137.12,137.12,0,0,0-7.6-20.78,19.77,19.77,0,0,1-.84-1.95c0,.08,0,0,0,0Zm36.73,7c.25.08.68,1.52,1.53,4.71a69.19,69.19,0,0,1,2,19.42c-.08,1.78-.17,3.44-.25,3.65l-.13.42-2.2-.72c-4.54-1.44-11.92-3.6-18.24-5.38-3.61-1-6.53-1.87-6.53-2a101.94,101.94,0,0,1,7.5-7.5c4.29-3.78,15.91-12.77,16.29-12.64Zm2.93.42c.12-.13,17.56,2.89,25.49,4.41,5.89,1.15,14.46,2.93,15,3.14.26.09-.64.6-3.48,1.87a184.15,184.15,0,0,0-27.78,15.1c-2.16,1.44-4,2.63-4,2.63a24.52,24.52,0,0,1-.08-2.72,59.39,59.39,0,0,0-4.58-23.07A5.9,5.9,0,0,1,297.42,53Zm45.08,8.91a31.47,31.47,0,0,1-.93,5.6C340,73.85,335.93,83.22,330.88,92a27.12,27.12,0,0,1-1.78,2.89,19,19,0,0,1-2.54-1.36,137.88,137.88,0,0,0-16.63-8.14c-1.7-.72-3.18-1.32-3.22-1.4-.3-.26,13.36-9.29,20.57-13.62,5.72-3.48,15.05-8.65,15.22-8.48Zm3.23.51c.38,0,8.1,2.12,12.13,3.31a248.52,248.52,0,0,1,28.88,10.56l3.1,1.4-2.16.51a316.14,316.14,0,0,0-48.91,15.14c-1.23.51-2.33.93-2.42.93a11.51,11.51,0,0,1,.89-2.16c4.54-9.63,7.47-19.68,8.19-28.25,0-.81.17-1.44.3-1.44ZM268.87,80.08c.13-.12,6,1.28,9.21,2.17,4.83,1.35,15.09,4.79,15.09,5,0,0-1.14,1-2.5,2.21-5.55,4.62-10.9,9.5-17.3,15.69-1.91,1.83-3.52,3.31-3.61,3.31s-.12-.25-.08-.59a95.8,95.8,0,0,0-.6-25.58C269,81.14,268.83,80.12,268.87,80.08Zm123.9.13c.08.08-2.72,4.5-4.5,7-2.54,3.65-6.28,8.48-14.72,19.09-4.45,5.59-9.46,11.91-11.11,14s-3.1,3.91-3.14,3.91a16.32,16.32,0,0,1-1.19-1.7,87.42,87.42,0,0,0-17.18-19c-1.27-1.06-2.67-2.21-3.13-2.54a4.23,4.23,0,0,1-.85-.73c0-.12,7.21-3.22,12.68-5.42,9.59-3.91,22.65-8.57,32.45-11.58,5.13-1.62,10.6-3.19,10.69-3.1Zm3.26.85a9.51,9.51,0,0,1,2.42,1.19,143.51,143.51,0,0,1,28.38,21.29c2.24,2.2,7.8,8,7.71,8s-2,.17-4.24.34c-17.85,1.36-40.71,5.14-62.69,10.44-1.48.34-2.8.63-2.88.63s1.57-1.65,3.65-3.64C381.27,106.89,387.17,99,394.12,85c1-2.07,1.83-3.85,1.91-4Zm-94.46,9.67c.6.13,6.11,2.71,10.27,4.79,3.82,1.91,9.54,5,9.84,5.22,0,0-2,1.1-4.5,2.33-8,4-14.8,7.76-21.93,12.09-2,1.23-3.73,2.25-3.77,2.25s-.13-.17,1-2.25a88.92,88.92,0,0,0,8.61-23.37c.17-.64.34-1.06.46-1.06Zm-5.51,1a81.3,81.3,0,0,1-2.21,8.18,104.43,104.43,0,0,1-7.5,17.22c-.68,1.19-1.7,2.93-2.25,3.91L283,122.75l-2.38-2.29a31.11,31.11,0,0,0-7.89-5.81,10.78,10.78,0,0,1-2-1.19c0-.34,7.25-6.91,12.81-11.66,4-3.44,12.38-10.18,12.51-10Zm33.72,13.87,2.08,1.35a160.2,160.2,0,0,1,14.63,10.82c2.42,2,7.08,6.19,8,7.21l.51.55-3.44,1c-19.43,5.38-34.44,10.18-52,16.62-1.95.72-3.6,1.32-3.73,1.32s-.47.21,3.9-3.82a185.87,185.87,0,0,0,28.5-32.74l1.49-2.29Zm-8.87,2.2c.09.09-5.72,8.27-9.2,12.9-4.16,5.51-11.54,14.76-16.63,20.78-2.12,2.5-3.94,4.58-4,4.62s-.17-.59-.17-1.57a35.58,35.58,0,0,0-3.6-15.27c-1-2-1.15-2.41-.93-2.63.8-.72,13.15-7.76,20.95-12,5.26-2.8,13.49-7,13.61-6.87ZM267.3,121a19.56,19.56,0,0,1,2.21,1.1A47.12,47.12,0,0,1,276.8,127a12.23,12.23,0,0,1-2.46,2c-4,2.88-10.13,7.51-13.7,10.35-3.73,3-3.86,3.05-3.43,2.42a72.78,72.78,0,0,0,9.24-18.67,7.29,7.29,0,0,1,.85-2.16Zm14.3,11.2c.21,0,.46.34,1.61,2A30.67,30.67,0,0,1,288,146.55l.08.85-5.81,2.24c-10.39,4-20,8-26.47,11-1.82.85-5,2.37-7.08,3.39s-3.77,1.87-3.77,1.83,1.31-1,2.92-2.21c12.69-9.2,23.67-19.3,31.9-29.39.89-1.06,1.7-2,1.78-2.08ZM275,133.78c.17.17-4.66,5.64-8,9A140.64,140.64,0,0,1,240.71,164l-2.55,1.61c-.29.17.09-.25,4.5-5,2.8-3,4.92-5.56,7.34-8.7a14.39,14.39,0,0,1,4.24-4C260.47,143.37,274.85,133.61,275,133.78Z"
        />
    </g>
</svg>
