<svg version="1.1" id="Layer_1" xmlns="http://www.w3.org/2000/svg" xmlns:xlink="http://www.w3.org/1999/xlink" x="0px" y="0px"
	 width="100%" viewBox="0 0 879 1015" enable-background="new 0 0 879 1015" xml:space="preserve">
<path fill="#000000" opacity="1.000000" stroke="none" 
	d="
M880.000000,366.000000 
	C880.000000,583.000000 880.000000,799.500000 880.000000,1016.000000 
	C587.000000,1016.000000 294.000000,1016.000000 1.000000,1016.000000 
	C1.000000,677.666687 1.000000,339.333344 1.000000,1.000000 
	C294.000000,1.000000 587.000000,1.000000 880.000000,1.000000 
	C880.000000,122.500000 880.000000,244.000000 880.000000,366.000000 
M835.316772,692.032715 
	C835.296448,676.121460 832.378906,660.732239 826.569336,645.947815 
	C822.950256,636.737793 818.118652,628.176392 811.141113,620.206909 
	C804.149048,611.316284 796.543884,603.057800 786.753601,597.143005 
	C749.689209,574.750427 711.606689,574.419617 673.409180,593.344116 
	C648.477844,605.695923 633.456543,626.317444 628.094177,654.729126 
	C627.958313,664.678345 626.248230,674.911560 627.981873,684.523621 
	C633.181274,713.352356 649.667419,733.353516 678.133972,742.319946 
	C695.252502,747.711975 712.709961,750.144775 729.978027,743.348572 
	C751.917358,734.713806 762.680420,717.488953 766.328247,694.770508 
	C770.510498,668.723206 749.086792,643.602905 722.104370,647.018494 
	C711.357544,648.378906 701.847595,652.680054 697.175171,663.575073 
	C695.751770,666.894287 695.292114,670.398987 698.296692,673.316467 
	C701.542236,676.467957 705.229980,676.185730 708.894165,674.305664 
	C711.698608,672.866760 714.295532,671.029358 717.054810,669.495117 
	C728.935852,662.889038 744.109253,670.499207 745.862671,683.911316 
	C747.913574,699.599731 736.880005,716.867371 721.501831,720.823303 
	C703.389465,725.482666 686.865479,721.861694 672.651855,709.351257 
	C655.315369,694.092041 654.473083,674.690796 659.257629,653.316956 
	C661.594482,648.612549 663.423523,643.562500 666.350952,639.259949 
	C684.819031,612.116821 722.621033,604.032959 751.978699,613.846924 
	C760.085205,616.556946 767.240601,622.112183 775.155762,626.921448 
	C783.368103,635.029114 789.602783,644.355347 793.456848,655.327271 
	C798.091309,668.521057 799.092834,682.122803 798.442078,696.653198 
	C796.705505,724.513794 788.533569,750.431824 772.614014,773.278381 
	C763.536743,786.305420 752.271729,797.808105 741.372070,810.247559 
	C732.441833,817.459961 723.981934,825.368958 714.503418,831.769409 
	C661.149719,867.796936 602.808533,891.022888 538.708557,899.213928 
	C491.152374,905.290771 444.424713,901.274048 398.316498,888.481201 
	C376.132111,882.326050 355.033447,873.413452 333.706390,863.378906 
	C330.018188,861.492859 326.255005,859.739136 322.654083,857.698975 
	C301.567871,845.751587 280.360138,833.901001 263.991302,815.468994 
	C257.955750,808.672852 252.604950,801.268555 246.782944,793.460022 
	C237.969452,779.630920 231.259888,764.887573 227.321396,748.047180 
	C223.634705,732.529602 223.641449,716.856140 225.715973,700.446350 
	C226.503662,696.369019 226.799774,692.114258 228.192810,688.255432 
	C230.350418,682.278687 232.116074,675.578003 236.117050,670.987915 
	C241.873245,664.384155 250.630432,665.364685 258.619934,666.712585 
	C273.996368,669.306824 286.655670,677.329285 297.020233,688.436584 
	C306.620880,698.725281 315.056213,710.101379 324.174652,721.668335 
	C332.882416,738.458069 342.208771,754.960938 350.155701,772.103394 
	C362.689392,799.139954 382.624481,816.403687 412.170929,821.555176 
	C427.630463,824.250671 442.989410,824.240906 457.279266,815.948547 
	C479.391632,803.116821 477.829742,780.653931 468.146973,766.048157 
	C462.778381,757.949890 455.563599,757.596375 448.336456,764.012939 
	C443.259644,768.520508 437.979401,773.023254 432.134918,776.391296 
	C422.416412,781.992004 412.192932,782.798645 402.529816,775.833496 
	C394.807800,770.267517 389.823059,762.700806 390.451294,753.042847 
	C391.107239,742.959290 397.837555,737.109863 407.048767,733.909180 
	C407.991150,733.581726 408.923584,733.222656 409.848572,732.848389 
	C415.696411,730.481567 417.720093,727.283936 416.541779,722.292053 
	C415.317688,717.106140 412.392639,714.907166 405.961029,715.824768 
	C391.874542,717.834351 382.572968,726.200928 377.060608,739.040833 
	C375.948242,741.631775 375.343170,744.444397 374.187744,747.012390 
	C371.754211,752.421143 363.795380,753.230164 360.739868,748.177185 
	C359.174500,745.588501 358.343384,742.328552 357.992401,739.278564 
	C357.176483,732.188049 356.853333,725.040894 356.451965,717.011841 
	C355.956146,712.214417 355.558868,707.404358 354.947632,702.621643 
	C352.149750,680.728760 347.235992,659.403015 336.876404,639.713318 
	C331.901520,630.257935 326.116302,621.342468 314.656311,617.257202 
	C299.784912,607.300110 284.431854,597.979614 270.183350,587.199219 
	C257.048798,577.261658 247.671265,564.221008 246.088303,546.125732 
	C247.255096,540.512329 247.634186,534.582031 249.740067,529.346375 
	C255.475235,515.087708 261.940338,501.122620 268.657837,486.622681 
	C277.168121,472.413635 285.294403,457.955902 294.291016,444.061768 
	C304.347046,428.531433 328.014618,428.193115 340.367401,440.785828 
	C329.185669,457.622772 318.096985,474.319641 306.464752,491.420715 
	C298.048920,507.759979 289.515594,524.040955 281.346649,540.502808 
	C280.152100,542.910034 279.610718,546.682922 280.662354,548.941467 
	C282.708008,553.334900 286.097595,557.102478 289.200195,561.736511 
	C294.380829,566.826416 299.139099,572.455627 304.820740,576.905945 
	C322.379364,590.659241 342.526031,599.186707 364.733368,605.045410 
	C381.158569,609.949524 397.977325,612.559631 415.078522,612.913574 
	C424.035828,613.098938 433.010345,612.208618 441.981537,612.036804 
	C450.948639,611.865112 453.926697,614.280762 457.067993,622.678345 
	C459.260223,628.538635 461.505798,634.464722 464.563416,639.890381 
	C467.327698,644.795532 472.793549,645.600281 477.062012,642.729431 
	C481.995239,639.411621 483.415192,634.220764 480.746490,629.305115 
	C479.001678,626.091125 477.169128,622.919312 475.557220,619.639526 
	C470.787476,609.934448 469.240814,602.357727 481.705139,594.745667 
	C497.062897,587.093811 511.348083,591.458679 519.651733,601.800049 
	C524.179993,607.439575 529.479919,608.295349 535.619629,606.523926 
	C539.409058,605.430664 543.116516,603.738464 546.543701,601.764648 
	C556.256897,596.170776 557.927856,589.535400 552.488464,579.605103 
	C543.679077,563.522461 521.253601,552.474121 502.523651,554.539917 
	C481.205444,556.891174 463.884247,567.241394 448.365814,581.137146 
	C444.491333,584.606445 440.638885,586.244446 435.433655,586.210999 
	C412.703949,586.065308 392.114777,578.300781 372.214050,568.457214 
	C363.857697,564.323853 356.193848,558.790405 347.910431,553.255493 
	C344.920837,550.516418 344.750244,547.941589 347.081024,544.297485 
	C358.947784,525.743408 370.505707,506.991791 382.734772,487.909576 
	C388.167145,479.617828 393.599518,471.326080 399.117523,462.903595 
	C401.121552,463.644653 402.810883,464.257690 404.491882,464.892761 
	C419.659851,470.623260 434.826355,476.357605 450.510925,482.577667 
	C492.399261,498.748993 534.221191,515.097168 576.257446,530.874329 
	C581.694885,532.915100 588.506226,533.365234 594.231689,532.248291 
	C651.518616,521.072144 708.712463,509.418213 765.930359,497.888306 
	C799.348633,491.154236 832.759460,484.382629 866.185303,477.686005 
	C869.421021,477.037750 871.806763,476.111694 871.630371,472.072815 
	C871.446594,467.865173 868.252380,468.534485 865.872864,468.319580 
	C855.925842,467.421051 845.956055,466.778473 836.000366,465.970337 
	C813.270447,464.125183 790.549744,462.163177 767.814331,460.389893 
	C747.239380,458.785065 726.649841,457.367584 705.343323,455.479004 
	C681.963257,453.649841 658.582153,451.833130 635.203491,449.986359 
	C623.265015,449.043304 611.313721,448.216461 599.400635,447.015381 
	C591.127686,446.181274 585.579163,440.597992 585.276550,433.550812 
	C584.922363,425.302124 589.169250,419.525146 597.797363,418.109039 
	C605.614075,416.826080 613.597229,416.553009 621.508423,415.850952 
	C636.032227,414.562073 650.552185,413.225952 665.082947,412.020447 
	C678.463257,410.910370 691.860779,410.007904 705.241516,408.902924 
	C724.402100,407.320557 743.556152,405.656586 762.709534,403.988647 
	C772.445190,403.140808 782.165833,402.109253 791.909363,401.373016 
	C794.913208,401.146057 795.915894,399.512085 796.247925,396.991943 
	C796.861816,392.332001 797.418091,387.664398 798.248108,382.169495 
	C798.498718,373.595245 798.682434,365.018372 799.022705,356.447693 
	C799.264465,350.358124 799.717285,344.277008 800.662537,337.845947 
	C803.490723,334.392731 806.476562,331.055481 809.118103,327.464935 
	C817.570862,315.975189 824.828918,303.830627 829.214905,289.337311 
	C836.106689,268.810089 837.082092,248.036560 831.817505,226.254807 
	C828.923401,219.043442 826.500977,211.596283 823.038391,204.669067 
	C815.509705,189.607025 806.155457,175.786758 792.801819,164.220398 
	C773.765930,146.619705 751.205566,136.499527 725.627014,133.254791 
	C721.440613,132.723740 718.677551,131.236618 715.943970,128.346664 
	C710.589355,122.685661 704.931580,117.311378 699.046875,111.224335 
	C691.435791,104.708771 683.797913,98.224274 676.218994,91.671494 
	C657.632935,75.601814 637.056458,62.578590 614.666565,51.151699 
	C604.311279,46.543236 594.061646,41.677166 583.579956,37.376747 
	C556.884338,26.424047 529.262695,18.725122 500.693298,14.482182 
	C478.601929,11.201318 456.448364,9.423699 434.088562,10.779552 
	C430.331573,11.007368 428.664154,12.452571 428.207123,15.968166 
	C427.714569,19.756865 427.064728,23.524954 426.497650,27.304159 
	C424.312164,41.869080 422.132324,56.434853 419.578735,71.698044 
	C415.939117,93.759392 412.299500,115.820732 408.171051,138.315231 
	C406.300171,140.395737 404.657410,142.755066 402.517151,144.506302 
	C395.049072,150.616791 387.594910,156.778076 379.743622,162.369934 
	C376.558746,164.638290 372.480316,165.996368 368.605835,166.870377 
	C362.952515,168.145630 357.035217,168.240280 351.371735,169.482361 
	C320.467590,176.260223 290.074890,184.953018 261.352417,198.290634 
	C242.120499,207.221207 223.723083,217.948837 204.265900,228.024734 
	C168.342697,250.395599 136.609924,277.594299 109.017502,310.629059 
	C97.613846,326.268280 85.896271,341.691681 74.935478,357.635406 
	C69.229065,365.935974 64.857483,375.154266 59.349155,384.386108 
	C48.270355,405.532959 38.477695,427.231873 30.749504,450.639862 
	C24.469826,469.338898 19.704163,488.389008 17.170767,508.704132 
	C15.248836,528.140686 13.326904,547.577271 11.178562,567.924011 
	C11.503222,586.727600 11.616712,605.538452 12.259153,624.331177 
	C12.507177,631.586426 13.955747,638.800720 14.802570,646.880310 
	C16.237261,655.691772 17.109354,664.641357 19.230021,673.284485 
	C23.019884,688.730774 27.562757,703.992310 31.843744,720.076721 
	C38.070019,735.101868 44.296295,750.126953 50.765343,765.843018 
	C59.418716,780.589355 68.072090,795.335632 76.926903,810.755981 
	C80.282356,815.489807 83.604271,820.247803 86.999008,824.953308 
	C101.966660,845.700134 117.929260,865.601318 136.956848,883.769043 
	C154.764023,901.561462 174.001373,917.731567 194.918854,931.645935 
	C210.769058,942.189392 227.610077,951.243347 244.469437,961.468384 
	C256.466248,967.044250 268.341949,972.900757 280.483826,978.140564 
	C310.663330,991.164551 342.313324,998.914307 374.848480,1002.878479 
	C389.869690,1004.708679 405.030457,1005.517212 420.151245,1006.381104 
	C456.188080,1008.440063 491.947174,1005.782349 527.384766,999.068604 
	C581.520508,988.812439 631.804016,968.735535 678.171204,938.995605 
	C688.295227,932.502136 697.915039,925.222656 708.384338,918.142334 
	C730.188232,901.579773 749.654785,882.571838 767.247681,861.633362 
	C781.382202,844.810974 794.072571,826.985168 804.718018,806.958069 
	C817.879700,782.366821 828.006165,756.602905 832.555054,729.030579 
	C834.509766,717.182678 834.348267,704.985596 835.316772,692.032715 
z"/>
<path fill="#3D6FC5" opacity="1.000000" stroke="none" 
	d="
M17.445597,508.020355 
	C19.704163,488.389008 24.469826,469.338898 31.410494,450.320557 
	C34.569405,449.964966 37.080704,450.082733 39.563034,449.867035 
	C53.898907,448.621552 68.225586,447.270599 82.560143,446.009521 
	C91.300537,445.240570 100.054337,444.622864 108.793495,443.841003 
	C122.630272,442.603058 136.456680,441.248993 150.293594,440.012665 
	C159.198273,439.217041 168.118896,438.599945 177.023483,437.803436 
	C190.694870,436.580505 204.353943,435.218964 218.027206,434.018494 
	C227.263824,433.207550 236.522797,432.651367 245.759399,431.840302 
	C259.598145,430.625153 273.422699,429.249695 287.259613,428.012970 
	C296.164276,427.217102 305.084839,426.600067 313.990021,425.809723 
	C327.827606,424.581512 341.654205,423.229492 355.493011,422.015778 
	C364.564301,421.220215 373.654358,420.639069 382.726227,419.849579 
	C396.896637,418.616394 411.057098,417.268646 425.225098,416.007141 
	C433.799316,415.243713 442.383270,414.589203 450.956818,413.818542 
	C464.793060,412.574890 478.621307,411.241669 492.458801,410.012360 
	C501.198364,409.235962 509.951965,408.618866 518.693298,407.860870 
	C533.194946,406.603363 547.689514,405.265198 562.191284,404.009003 
	C571.098206,403.237488 580.018799,402.621124 588.922668,401.817596 
	C602.427856,400.598724 615.918945,399.223114 629.425415,398.019073 
	C638.495361,397.210480 647.589844,396.674591 656.658569,395.853363 
	C669.998291,394.645416 683.317261,393.205688 696.659546,392.029175 
	C706.226379,391.185608 715.828979,390.745728 725.393860,389.883759 
	C738.403503,388.711334 751.387939,387.261169 764.391602,386.018250 
	C775.587769,384.948059 786.795593,384.001312 797.998291,383.000000 
	C797.418091,387.664398 796.861816,392.332001 796.247925,396.991943 
	C795.915894,399.512085 794.913208,401.146057 791.909363,401.373016 
	C782.165833,402.109253 772.445190,403.140808 762.709534,403.988647 
	C743.556152,405.656586 724.402100,407.320557 705.241516,408.902924 
	C691.860779,410.007904 678.463257,410.910370 665.082947,412.020447 
	C650.552185,413.225952 636.032227,414.562073 621.508423,415.850952 
	C613.597229,416.553009 605.614075,416.826080 597.797363,418.109039 
	C589.169250,419.525146 584.922363,425.302124 585.276550,433.550812 
	C585.579163,440.597992 591.127686,446.181274 599.400635,447.015381 
	C611.313721,448.216461 623.265015,449.043304 635.203491,449.986359 
	C658.582153,451.833130 681.963257,453.649841 705.487549,455.978027 
	C698.518066,457.651306 691.438477,459.134583 684.282288,459.922577 
	C675.069092,460.937103 665.788208,461.319977 656.547913,462.108887 
	C642.042114,463.347382 627.547607,464.718811 613.044739,465.992889 
	C604.468201,466.746338 595.880554,467.375031 587.305176,468.141296 
	C573.300415,469.392731 559.304077,470.739685 545.299194,471.989899 
	C536.558289,472.770172 527.802979,473.389374 519.063354,474.182892 
	C505.556366,475.409363 492.062134,476.777527 478.553131,477.980499 
	C469.813080,478.758759 461.051666,479.299408 452.314575,480.106262 
	C451.486786,480.182678 450.764557,481.402069 449.993317,482.090820 
	C434.826355,476.357605 419.659851,470.623260 404.491882,464.892761 
	C402.810883,464.257690 401.121552,463.644653 399.117523,462.903595 
	C393.599518,471.326080 388.167145,479.617828 382.279541,487.767029 
	C381.323792,487.213440 380.797974,486.417786 380.326569,486.448822 
	C372.585114,486.957977 364.842834,487.485840 357.116058,488.180267 
	C343.634949,489.391876 330.173584,490.837250 316.682373,491.913818 
	C313.501801,492.167633 310.235291,491.344299 307.008301,491.016479 
	C318.096985,474.319641 329.185669,457.622772 340.367401,440.785828 
	C328.014618,428.193115 304.347046,428.531433 294.291016,444.061768 
	C285.294403,457.955902 277.168121,472.413635 267.916351,486.819580 
	C252.309601,488.040039 237.440842,489.016327 222.580490,490.106720 
	C214.827881,490.675568 207.088043,491.423553 199.345932,492.129028 
	C185.350449,493.404358 171.360352,494.739410 157.362625,495.989105 
	C148.626205,496.769104 139.875870,497.392731 131.138992,498.167877 
	C117.140701,499.409851 103.151855,500.758698 89.152290,501.985779 
	C80.249336,502.766083 71.330795,503.367126 62.425369,504.121002 
	C47.429546,505.390442 32.438595,506.717499 17.445597,508.020355 
z"/>
<path fill="#0A9CCC" opacity="1.000000" stroke="none" 
	d="
M804.152954,807.394165 
	C794.072571,826.985168 781.382202,844.810974 767.247681,861.633362 
	C749.654785,882.571838 730.188232,901.579773 707.555176,918.132812 
	C698.940186,918.455688 691.135864,918.554871 683.372681,919.171509 
	C669.361633,920.284546 655.377991,921.738525 641.377380,922.988892 
	C632.639221,923.769287 623.886414,924.386230 615.148315,925.167664 
	C601.313293,926.404968 587.489319,927.767761 573.652344,928.982605 
	C564.582397,929.778931 555.492126,930.343018 546.421021,931.127441 
	C532.086304,932.367065 517.761475,933.719666 503.429779,934.994324 
	C495.021973,935.742126 486.605103,936.389404 478.199219,937.157227 
	C464.531647,938.405640 450.875092,939.776611 437.203583,940.978882 
	C427.968414,941.791138 418.705078,942.287781 409.473175,943.131470 
	C396.466553,944.320129 383.487366,945.812439 370.477539,946.960449 
	C360.581390,947.833862 350.640381,948.203796 340.746674,949.099304 
	C324.114960,950.604614 307.516052,952.474426 290.882324,953.954529 
	C277.362885,955.157410 263.799011,955.872009 250.289383,957.163940 
	C248.040359,957.378967 244.097580,956.462463 244.010162,960.960144 
	C227.610077,951.243347 210.769058,942.189392 194.918854,931.645935 
	C174.001373,917.731567 154.764023,901.561462 137.192871,883.298096 
	C145.782822,881.884705 154.125351,880.821899 162.493683,880.032593 
	C171.546967,879.178650 180.632965,878.674622 189.689087,877.847229 
	C202.845474,876.645325 215.980301,875.205444 229.138840,874.029297 
	C238.526810,873.190186 247.946091,872.705627 257.338257,871.908020 
	C275.940399,870.328369 294.543915,868.749329 313.124878,866.943726 
	C320.160736,866.260071 327.135956,864.952087 334.138794,863.928711 
	C355.033447,873.413452 376.132111,882.326050 398.316498,888.481201 
	C444.424713,901.274048 491.152374,905.290771 538.708557,899.213928 
	C602.808533,891.022888 661.149719,867.796936 714.503418,831.769409 
	C723.981934,825.368958 732.441833,817.459961 742.143066,810.124939 
	C761.962097,808.391113 781.006409,806.730042 800.066650,805.278503 
	C801.367493,805.179443 802.788086,806.652344 804.152954,807.394165 
z"/>
<path fill="#4568C4" opacity="1.000000" stroke="none" 
	d="
M798.123169,382.584747 
	C786.795593,384.001312 775.587769,384.948059 764.391602,386.018250 
	C751.387939,387.261169 738.403503,388.711334 725.393860,389.883759 
	C715.828979,390.745728 706.226379,391.185608 696.659546,392.029175 
	C683.317261,393.205688 669.998291,394.645416 656.658569,395.853363 
	C647.589844,396.674591 638.495361,397.210480 629.425415,398.019073 
	C615.918945,399.223114 602.427856,400.598724 588.922668,401.817596 
	C580.018799,402.621124 571.098206,403.237488 562.191284,404.009003 
	C547.689514,405.265198 533.194946,406.603363 518.693298,407.860870 
	C509.951965,408.618866 501.198364,409.235962 492.458801,410.012360 
	C478.621307,411.241669 464.793060,412.574890 450.956818,413.818542 
	C442.383270,414.589203 433.799316,415.243713 425.225098,416.007141 
	C411.057098,417.268646 396.896637,418.616394 382.726227,419.849579 
	C373.654358,420.639069 364.564301,421.220215 355.493011,422.015778 
	C341.654205,423.229492 327.827606,424.581512 313.990021,425.809723 
	C305.084839,426.600067 296.164276,427.217102 287.259613,428.012970 
	C273.422699,429.249695 259.598145,430.625153 245.759399,431.840302 
	C236.522797,432.651367 227.263824,433.207550 218.027206,434.018494 
	C204.353943,435.218964 190.694870,436.580505 177.023483,437.803436 
	C168.118896,438.599945 159.198273,439.217041 150.293594,440.012665 
	C136.456680,441.248993 122.630272,442.603058 108.793495,443.841003 
	C100.054337,444.622864 91.300537,445.240570 82.560143,446.009521 
	C68.225586,447.270599 53.898907,448.621552 39.563034,449.867035 
	C37.080704,450.082733 34.569405,449.964966 31.626856,450.002014 
	C38.477695,427.231873 48.270355,405.532959 60.088760,384.184692 
	C76.024620,382.959961 91.224525,381.987183 106.415619,380.892212 
	C114.167694,380.333466 121.905983,379.577545 129.646957,378.871979 
	C143.640427,377.596527 157.628418,376.260559 171.624161,375.011078 
	C180.359314,374.231171 189.110092,373.625122 197.843842,372.830933 
	C211.341888,371.603516 224.825180,370.211914 238.326538,369.023956 
	C247.723755,368.197144 257.151703,367.715698 266.546234,366.863098 
	C279.548950,365.683044 292.522003,364.170319 305.528473,363.038208 
	C319.046234,361.861542 332.601868,361.116821 346.117035,359.914490 
	C363.574066,358.361542 381.007324,356.541992 398.700867,355.034119 
	C399.778595,356.273438 400.594604,357.325439 401.435852,358.356842 
	C419.592621,380.618164 442.429108,395.833282 470.402039,402.480316 
	C488.191833,406.707642 506.363770,406.578674 524.492004,403.967377 
	C548.141479,400.560822 569.164307,391.460358 586.533447,374.869232 
	C594.550171,367.211578 601.922485,358.879333 610.071899,350.893738 
	C613.554443,350.920135 616.571899,351.123779 619.546387,350.853943 
	C632.887939,349.643677 646.208313,348.195770 659.553589,347.031464 
	C672.748596,345.880310 685.975891,345.094727 699.168213,343.916534 
	C716.136719,342.401093 733.079346,340.598145 750.042847,339.024231 
	C764.702820,337.664032 779.367737,336.321625 794.054626,335.328735 
	C795.988342,335.197998 798.065308,337.185638 800.075928,338.192108 
	C799.717285,344.277008 799.264465,350.358124 799.022705,356.447693 
	C798.682434,365.018372 798.498718,373.595245 798.123169,382.584747 
z"/>
<path fill="#2584C8" opacity="1.000000" stroke="none" 
	d="
M324.004700,720.998657 
	C315.056213,710.101379 306.620880,698.725281 297.020233,688.436584 
	C286.655670,677.329285 273.996368,669.306824 258.619934,666.712585 
	C250.630432,665.364685 241.873245,664.384155 236.117050,670.987915 
	C232.116074,675.578003 230.350418,682.278687 228.192810,688.255432 
	C226.799774,692.114258 226.503662,696.369019 225.069580,700.747314 
	C215.688477,701.747009 206.946030,702.361938 198.220825,703.164124 
	C185.062408,704.373901 171.923309,705.796082 158.762070,706.971985 
	C149.372055,707.810913 139.947601,708.266296 130.558929,709.117798 
	C113.613419,710.654663 96.692970,712.471130 79.743492,713.959534 
	C66.235519,715.145752 52.692318,715.930176 39.183445,717.107422 
	C36.673698,717.326111 34.252747,718.563721 31.790813,719.331055 
	C27.562757,703.992310 23.019884,688.730774 19.230021,673.284485 
	C17.109354,664.641357 16.237261,655.691772 15.297773,646.447144 
	C22.405523,645.635742 29.030102,645.401428 35.628143,644.849792 
	C49.948978,643.652466 64.254890,642.277588 78.569580,641.005554 
	C86.967430,640.259277 95.373009,639.599915 103.770576,638.850647 
	C117.919678,637.588440 132.062469,636.254944 146.213165,635.011169 
	C155.107285,634.229431 164.016998,633.623047 172.908981,632.819336 
	C186.396225,631.600403 199.868118,630.209534 213.358109,629.023621 
	C222.747498,628.198181 232.163788,627.680481 241.554749,626.870911 
	C255.707474,625.651062 269.847015,624.278992 283.995209,623.005798 
	C292.227081,622.265015 300.486389,621.767456 308.685913,620.770264 
	C310.909149,620.499817 312.959778,618.810425 315.089630,617.772339 
	C326.116302,621.342468 331.901520,630.257935 336.876404,639.713318 
	C347.235992,659.403015 352.149750,680.728760 354.947632,702.621643 
	C355.558868,707.404358 355.956146,712.214417 355.931915,717.487366 
	C344.942810,718.974854 334.473755,719.986755 324.004700,720.998657 
z"/>
<path fill="#03A2CD" opacity="1.000000" stroke="none" 
	d="
M244.239807,961.214233 
	C244.097580,956.462463 248.040359,957.378967 250.289383,957.163940 
	C263.799011,955.872009 277.362885,955.157410 290.882324,953.954529 
	C307.516052,952.474426 324.114960,950.604614 340.746674,949.099304 
	C350.640381,948.203796 360.581390,947.833862 370.477539,946.960449 
	C383.487366,945.812439 396.466553,944.320129 409.473175,943.131470 
	C418.705078,942.287781 427.968414,941.791138 437.203583,940.978882 
	C450.875092,939.776611 464.531647,938.405640 478.199219,937.157227 
	C486.605103,936.389404 495.021973,935.742126 503.429779,934.994324 
	C517.761475,933.719666 532.086304,932.367065 546.421021,931.127441 
	C555.492126,930.343018 564.582397,929.778931 573.652344,928.982605 
	C587.489319,927.767761 601.313293,926.404968 615.148315,925.167664 
	C623.886414,924.386230 632.639221,923.769287 641.377380,922.988892 
	C655.377991,921.738525 669.361633,920.284546 683.372681,919.171509 
	C691.135864,918.554871 698.940186,918.455688 707.246460,918.214233 
	C697.915039,925.222656 688.295227,932.502136 678.171204,938.995605 
	C631.804016,968.735535 581.520508,988.812439 527.384766,999.068604 
	C491.947174,1005.782349 456.188080,1008.440063 420.151245,1006.381104 
	C405.030457,1005.517212 389.869690,1004.708679 374.848480,1002.878479 
	C342.313324,998.914307 310.663330,991.164551 280.483826,978.140564 
	C268.341949,972.900757 256.466248,967.044250 244.239807,961.214233 
z"/>
<path fill="#614FC0" opacity="1.000000" stroke="none" 
	d="
M699.399292,111.818398 
	C704.931580,117.311378 710.589355,122.685661 715.943970,128.346664 
	C718.677551,131.236618 721.440613,132.723740 725.627014,133.254791 
	C751.205566,136.499527 773.765930,146.619705 792.691528,164.826874 
	C781.248840,166.622223 769.925110,167.903473 758.581299,168.970718 
	C749.515991,169.823593 740.420898,170.354263 731.348511,171.138245 
	C717.011963,172.377121 702.684448,173.721466 688.350891,174.995544 
	C679.941956,175.742981 671.525513,176.407593 663.117798,177.168427 
	C649.282227,178.420425 635.442993,179.640991 621.620667,181.028198 
	C612.579407,181.935577 603.565247,183.113586 594.265747,184.011871 
	C546.943604,138.488297 481.830109,133.069138 427.772980,169.932449 
	C410.514709,181.701416 397.338898,197.080368 386.762390,214.782745 
	C385.369904,214.375793 384.221558,214.080917 383.108063,214.179642 
	C369.113617,215.420044 355.127686,216.757004 341.132263,217.985703 
	C332.231049,218.767166 323.312592,219.352463 314.410736,220.127167 
	C300.082184,221.374161 285.761719,222.713669 271.436279,223.997086 
	C262.868073,224.764709 254.292419,225.451996 245.728210,226.261169 
	C233.061371,227.457962 220.405685,228.776749 207.730301,229.870453 
	C206.868179,229.944839 205.881180,228.572083 204.952255,227.872345 
	C223.723083,217.948837 242.120499,207.221207 261.352417,198.290634 
	C290.074890,184.953018 320.467590,176.260223 351.371735,169.482361 
	C357.035217,168.240280 362.952515,168.145630 368.605835,166.870377 
	C372.480316,165.996368 376.558746,164.638290 379.743622,162.369934 
	C387.594910,156.778076 395.049072,150.616791 402.517151,144.506302 
	C404.657410,142.755066 406.300171,140.395737 408.894287,138.132523 
	C412.110138,137.901581 414.616302,138.003372 417.093170,137.780167 
	C430.584595,136.564301 444.064362,135.218155 457.557068,134.017548 
	C466.618073,133.211319 475.701721,132.658554 484.761261,131.837967 
	C498.087372,130.630951 511.393585,129.202240 524.722412,128.028412 
	C534.279602,127.186722 543.871948,126.740570 553.427002,125.878777 
	C566.423340,124.706604 579.387573,123.174324 592.386841,122.040375 
	C605.896912,120.861855 619.440491,120.069710 632.954834,118.935638 
	C651.564148,117.374016 670.165894,115.713341 688.756104,113.940331 
	C692.338684,113.598640 695.853333,112.544090 699.399292,111.818398 
z"/>
<path fill="#2F7CC7" opacity="1.000000" stroke="none" 
	d="
M314.872986,617.514771 
	C312.959778,618.810425 310.909149,620.499817 308.685913,620.770264 
	C300.486389,621.767456 292.227081,622.265015 283.995209,623.005798 
	C269.847015,624.278992 255.707474,625.651062 241.554749,626.870911 
	C232.163788,627.680481 222.747498,628.198181 213.358109,629.023621 
	C199.868118,630.209534 186.396225,631.600403 172.908981,632.819336 
	C164.016998,633.623047 155.107285,634.229431 146.213165,635.011169 
	C132.062469,636.254944 117.919678,637.588440 103.770576,638.850647 
	C95.373009,639.599915 86.967430,640.259277 78.569580,641.005554 
	C64.254890,642.277588 49.948978,643.652466 35.628143,644.849792 
	C29.030102,645.401428 22.405523,645.635742 15.325163,646.023804 
	C13.955747,638.800720 12.507177,631.586426 12.259153,624.331177 
	C11.616712,605.538452 11.503222,586.727600 11.713404,567.465088 
	C19.986977,566.337524 27.723368,565.640137 35.465057,565.007568 
	C44.531155,564.266663 53.607140,563.643188 62.669369,562.859375 
	C76.989937,561.620728 91.300461,560.266296 105.619461,559.008911 
	C114.350296,558.242371 123.093277,557.613464 131.823288,556.838013 
	C145.810623,555.595520 159.788071,554.241333 173.776779,553.015076 
	C182.672775,552.235291 191.584824,551.639893 200.483978,550.894043 
	C215.633881,549.624512 230.779312,548.301636 245.926605,547.001099 
	C247.671265,564.221008 257.048798,577.261658 270.183350,587.199219 
	C284.431854,597.979614 299.784912,607.300110 314.872986,617.514771 
z"/>
<path fill="#4E60C3" opacity="1.000000" stroke="none" 
	d="
M398.450836,354.837219 
	C381.007324,356.541992 363.574066,358.361542 346.117035,359.914490 
	C332.601868,361.116821 319.046234,361.861542 305.528473,363.038208 
	C292.522003,364.170319 279.548950,365.683044 266.546234,366.863098 
	C257.151703,367.715698 247.723755,368.197144 238.326538,369.023956 
	C224.825180,370.211914 211.341888,371.603516 197.843842,372.830933 
	C189.110092,373.625122 180.359314,374.231171 171.624161,375.011078 
	C157.628418,376.260559 143.640427,377.596527 129.646957,378.871979 
	C121.905983,379.577545 114.167694,380.333466 106.415619,380.892212 
	C91.224525,381.987183 76.024620,382.959961 60.355659,383.970642 
	C64.857483,375.154266 69.229065,365.935974 74.935478,357.635406 
	C85.896271,341.691681 97.613846,326.268280 109.540253,310.818054 
	C111.800858,311.318512 113.575455,312.033386 115.270905,311.878998 
	C132.206741,310.337036 149.124725,308.600220 166.057434,307.022400 
	C181.022736,305.627899 195.999649,304.357819 210.972656,303.046661 
	C230.227280,301.360504 249.483261,299.690094 268.738342,298.009277 
	C283.877106,296.687836 299.014282,295.347687 314.154175,294.039612 
	C333.738922,292.347443 353.325745,290.679047 373.022278,289.406433 
	C373.990967,294.669373 374.701599,299.557831 375.733276,304.377563 
	C379.680756,322.818298 387.670288,339.461395 398.450836,354.837219 
z"/>
<path fill="#3576C6" opacity="1.000000" stroke="none" 
	d="
M450.252136,482.334229 
	C450.764557,481.402069 451.486786,480.182678 452.314575,480.106262 
	C461.051666,479.299408 469.813080,478.758759 478.553131,477.980499 
	C492.062134,476.777527 505.556366,475.409363 519.063354,474.182892 
	C527.802979,473.389374 536.558289,472.770172 545.299194,471.989899 
	C559.304077,470.739685 573.300415,469.392731 587.305176,468.141296 
	C595.880554,467.375031 604.468201,466.746338 613.044739,465.992889 
	C627.547607,464.718811 642.042114,463.347382 656.547913,462.108887 
	C665.788208,461.319977 675.069092,460.937103 684.282288,459.922577 
	C691.438477,459.134583 698.518066,457.651306 705.849243,456.172272 
	C726.649841,457.367584 747.239380,458.785065 767.814331,460.389893 
	C790.549744,462.163177 813.270447,464.125183 836.000366,465.970337 
	C845.956055,466.778473 855.925842,467.421051 865.872864,468.319580 
	C868.252380,468.534485 871.446594,467.865173 871.630371,472.072815 
	C871.806763,476.111694 869.421021,477.037750 866.185303,477.686005 
	C832.759460,484.382629 799.348633,491.154236 765.930359,497.888306 
	C708.712463,509.418213 651.518616,521.072144 594.231689,532.248291 
	C588.506226,533.365234 581.694885,532.915100 576.257446,530.874329 
	C534.221191,515.097168 492.399261,498.748993 450.252136,482.334229 
z"/>
<path fill="#5758C1" opacity="1.000000" stroke="none" 
	d="
M372.911652,289.000427 
	C353.325745,290.679047 333.738922,292.347443 314.154175,294.039612 
	C299.014282,295.347687 283.877106,296.687836 268.738342,298.009277 
	C249.483261,299.690094 230.227280,301.360504 210.972656,303.046661 
	C195.999649,304.357819 181.022736,305.627899 166.057434,307.022400 
	C149.124725,308.600220 132.206741,310.337036 115.270905,311.878998 
	C113.575455,312.033386 111.800858,311.318512 109.821106,310.608704 
	C136.609924,277.594299 168.342697,250.395599 204.609070,227.948547 
	C205.881180,228.572083 206.868179,229.944839 207.730301,229.870453 
	C220.405685,228.776749 233.061371,227.457962 245.728210,226.261169 
	C254.292419,225.451996 262.868073,224.764709 271.436279,223.997086 
	C285.761719,222.713669 300.082184,221.374161 314.410736,220.127167 
	C323.312592,219.352463 332.231049,218.767166 341.132263,217.985703 
	C355.127686,216.757004 369.113617,215.420044 383.108063,214.179642 
	C384.221558,214.080917 385.369904,214.375793 386.652252,215.115234 
	C383.805542,223.388596 380.439240,230.913559 377.888489,238.705490 
	C372.535156,255.058472 372.163177,271.995148 372.911652,289.000427 
z"/>
<path fill="#6B47BF" opacity="1.000000" stroke="none" 
	d="
M699.223083,111.521362 
	C695.853333,112.544090 692.338684,113.598640 688.756104,113.940331 
	C670.165894,115.713341 651.564148,117.374016 632.954834,118.935638 
	C619.440491,120.069710 605.896912,120.861855 592.386841,122.040375 
	C579.387573,123.174324 566.423340,124.706604 553.427002,125.878777 
	C543.871948,126.740570 534.279602,127.186722 524.722412,128.028412 
	C511.393585,129.202240 498.087372,130.630951 484.761261,131.837967 
	C475.701721,132.658554 466.618073,133.211319 457.557068,134.017548 
	C444.064362,135.218155 430.584595,136.564301 417.093170,137.780167 
	C414.616302,138.003372 412.110138,137.901581 409.138672,137.915955 
	C412.299500,115.820732 415.939117,93.759392 420.222565,71.349052 
	C426.817230,70.621887 432.779388,70.370621 438.716583,69.839844 
	C452.215179,68.633102 465.694000,67.202934 479.194946,66.025391 
	C492.215393,64.889748 505.264191,64.075371 518.281311,62.906155 
	C535.237000,61.383167 552.163757,59.535011 569.121948,58.042755 
	C582.636658,56.853523 596.190369,56.101337 609.698303,54.848526 
	C611.588196,54.673248 613.315430,52.745632 615.117981,51.629166 
	C637.056458,62.578590 657.632935,75.601814 676.218994,91.671494 
	C683.797913,98.224274 691.435791,104.708771 699.223083,111.521362 
z"/>
<path fill="#3874C6" opacity="1.000000" stroke="none" 
	d="
M246.007446,546.563477 
	C230.779312,548.301636 215.633881,549.624512 200.483978,550.894043 
	C191.584824,551.639893 182.672775,552.235291 173.776779,553.015076 
	C159.788071,554.241333 145.810623,555.595520 131.823288,556.838013 
	C123.093277,557.613464 114.350296,558.242371 105.619461,559.008911 
	C91.300461,560.266296 76.989937,561.620728 62.669369,562.859375 
	C53.607140,563.643188 44.531155,564.266663 35.465057,565.007568 
	C27.723368,565.640137 19.986977,566.337524 11.826610,567.010010 
	C13.326904,547.577271 15.248836,528.140686 17.308182,508.362244 
	C32.438595,506.717499 47.429546,505.390442 62.425369,504.121002 
	C71.330795,503.367126 80.249336,502.766083 89.152290,501.985779 
	C103.151855,500.758698 117.140701,499.409851 131.138992,498.167877 
	C139.875870,497.392731 148.626205,496.769104 157.362625,495.989105 
	C171.360352,494.739410 185.350449,493.404358 199.345932,492.129028 
	C207.088043,491.423553 214.827881,490.675568 222.580490,490.106720 
	C237.440842,489.016327 252.309601,488.040039 267.645508,487.028809 
	C261.940338,501.122620 255.475235,515.087708 249.740067,529.346375 
	C247.634186,534.582031 247.255096,540.512329 246.007446,546.563477 
z"/>
<path fill="#1294CB" opacity="1.000000" stroke="none" 
	d="
M333.922607,863.653809 
	C327.135956,864.952087 320.160736,866.260071 313.124878,866.943726 
	C294.543915,868.749329 275.940399,870.328369 257.338257,871.908020 
	C247.946091,872.705627 238.526810,873.190186 229.138840,874.029297 
	C215.980301,875.205444 202.845474,876.645325 189.689087,877.847229 
	C180.632965,878.674622 171.546967,879.178650 162.493683,880.032593 
	C154.125351,880.821899 145.782822,881.884705 137.030411,882.995911 
	C117.929260,865.601318 101.966660,845.700134 86.999008,824.953308 
	C83.604271,820.247803 80.282356,815.489807 77.273209,810.394714 
	C80.908607,809.688965 84.193069,809.290161 87.487648,809.010315 
	C96.230171,808.267700 104.984291,807.654602 113.720551,806.846680 
	C126.892555,805.628479 140.045959,804.206543 153.221329,803.028381 
	C162.621384,802.187866 172.051437,801.686890 181.455719,800.888672 
	C195.959290,799.657715 210.461563,798.395691 224.945862,796.959961 
	C232.298721,796.231201 239.611115,795.094055 246.941818,794.141602 
	C252.604950,801.268555 257.955750,808.672852 263.991302,815.468994 
	C280.360138,833.901001 301.567871,845.751587 322.654083,857.698975 
	C326.255005,859.739136 330.018188,861.492859 333.922607,863.653809 
z"/>
<path fill="#1E8AC9" opacity="1.000000" stroke="none" 
	d="
M31.817280,719.703857 
	C34.252747,718.563721 36.673698,717.326111 39.183445,717.107422 
	C52.692318,715.930176 66.235519,715.145752 79.743492,713.959534 
	C96.692970,712.471130 113.613419,710.654663 130.558929,709.117798 
	C139.947601,708.266296 149.372055,707.810913 158.762070,706.971985 
	C171.923309,705.796082 185.062408,704.373901 198.220825,703.164124 
	C206.946030,702.361938 215.688477,701.747009 224.881470,701.079712 
	C223.641449,716.856140 223.634705,732.529602 226.914886,748.506592 
	C219.779572,749.643982 213.057938,750.406067 206.320282,750.979736 
	C196.938477,751.778564 187.535446,752.334106 178.158188,753.179016 
	C165.015076,754.363281 151.894562,755.799133 138.750519,756.972046 
	C129.372650,757.808960 119.965347,758.311646 110.583069,759.104309 
	C95.948601,760.340576 81.318314,761.634460 66.698647,763.033508 
	C61.288582,763.551208 55.913574,764.435181 50.522572,765.152100 
	C44.296295,750.126953 38.070019,735.101868 31.817280,719.703857 
z"/>
<path fill="#4A64C4" opacity="1.000000" stroke="none" 
	d="
M800.369263,338.019043 
	C798.065308,337.185638 795.988342,335.197998 794.054626,335.328735 
	C779.367737,336.321625 764.702820,337.664032 750.042847,339.024231 
	C733.079346,340.598145 716.136719,342.401093 699.168213,343.916534 
	C685.975891,345.094727 672.748596,345.880310 659.553589,347.031464 
	C646.208313,348.195770 632.887939,349.643677 619.546387,350.853943 
	C616.571899,351.123779 613.554443,350.920135 610.218567,350.572113 
	C613.668884,343.630310 618.103210,337.327850 621.074768,330.398102 
	C624.436096,322.559357 626.484314,314.157593 629.557617,306.000305 
	C640.075500,305.315674 650.144043,304.694305 660.201477,303.926880 
	C668.107727,303.323578 676.001770,302.556549 683.898560,301.832855 
	C697.709778,300.567139 711.514893,299.232941 725.330383,298.016205 
	C734.551636,297.204132 743.793152,296.622406 753.013367,295.800323 
	C766.497498,294.598114 779.965698,293.217896 793.450073,292.019226 
	C802.505310,291.214264 811.572998,290.536285 820.643311,289.922424 
	C823.366150,289.738190 826.116516,289.960846 828.854309,289.997101 
	C824.828918,303.830627 817.570862,315.975189 809.118103,327.464935 
	C806.476562,331.055481 803.490723,334.392731 800.369263,338.019043 
z"/>
<path fill="#505EC3" opacity="1.000000" stroke="none" 
	d="
M829.034607,289.667206 
	C826.116516,289.960846 823.366150,289.738190 820.643311,289.922424 
	C811.572998,290.536285 802.505310,291.214264 793.450073,292.019226 
	C779.965698,293.217896 766.497498,294.598114 753.013367,295.800323 
	C743.793152,296.622406 734.551636,297.204132 725.330383,298.016205 
	C711.514893,299.232941 697.709778,300.567139 683.898560,301.832855 
	C676.001770,302.556549 668.107727,303.323578 660.201477,303.926880 
	C650.144043,304.694305 640.075500,305.315674 629.514648,305.590240 
	C630.059448,291.787231 631.101257,278.394012 632.590820,265.000397 
	C643.284546,264.285492 653.541626,263.699890 663.773926,262.824554 
	C677.286072,261.668610 690.772461,260.214172 704.281921,259.024475 
	C713.684753,258.196442 723.110352,257.630371 732.521240,256.889496 
	C748.689819,255.616653 764.854858,254.298676 781.133118,253.389572 
	C781.452637,259.467987 784.864380,264.563080 788.405823,263.690918 
	C792.491760,262.684631 796.832581,261.369995 800.181274,258.962952 
	C810.645020,251.441742 815.599243,240.580872 817.582520,228.000702 
	C822.626343,227.667908 827.218079,227.335434 831.809753,227.002960 
	C837.082092,248.036560 836.106689,268.810089 829.034607,289.667206 
z"/>
<path fill="#198ECA" opacity="1.000000" stroke="none" 
	d="
M50.643959,765.497559 
	C55.913574,764.435181 61.288582,763.551208 66.698647,763.033508 
	C81.318314,761.634460 95.948601,760.340576 110.583069,759.104309 
	C119.965347,758.311646 129.372650,757.808960 138.750519,756.972046 
	C151.894562,755.799133 165.015076,754.363281 178.158188,753.179016 
	C187.535446,752.334106 196.938477,751.778564 206.320282,750.979736 
	C213.057938,750.406067 219.779572,749.643982 226.962982,748.932007 
	C231.259888,764.887573 237.969452,779.630920 246.862381,793.800781 
	C239.611115,795.094055 232.298721,796.231201 224.945862,796.959961 
	C210.461563,798.395691 195.959290,799.657715 181.455719,800.888672 
	C172.051437,801.686890 162.621384,802.187866 153.221329,803.028381 
	C140.045959,804.206543 126.892555,805.628479 113.720551,806.846680 
	C104.984291,807.654602 96.230171,808.267700 87.487648,809.010315 
	C84.193069,809.290161 80.908607,809.688965 77.172485,810.057739 
	C68.072090,795.335632 59.418716,780.589355 50.643959,765.497559 
z"/>
<path fill="#5B55C1" opacity="1.000000" stroke="none" 
	d="
M831.813599,226.628876 
	C827.218079,227.335434 822.626343,227.667908 817.522400,227.545471 
	C816.669617,222.953735 816.737122,218.734680 815.922668,214.693375 
	C810.523743,187.903214 781.816406,169.620026 756.434937,186.351013 
	C759.643738,195.205475 762.864197,204.092087 765.667114,213.034973 
	C756.395142,214.051208 747.551819,215.131989 738.684021,215.946182 
	C719.604004,217.697998 700.511658,219.314011 681.424072,220.982925 
	C661.840454,222.695221 642.256470,224.404297 622.438110,225.868454 
	C615.436340,210.166840 605.915833,196.549133 594.538940,184.170380 
	C603.565247,183.113586 612.579407,181.935577 621.620667,181.028198 
	C635.442993,179.640991 649.282227,178.420425 663.117798,177.168427 
	C671.525513,176.407593 679.941956,175.742981 688.350891,174.995544 
	C702.684448,173.721466 717.011963,172.377121 731.348511,171.138245 
	C740.420898,170.354263 749.515991,169.823593 758.581299,168.970718 
	C769.925110,167.903473 781.248840,166.622223 792.844482,165.120316 
	C806.155457,175.786758 815.509705,189.607025 823.038391,204.669067 
	C826.500977,211.596283 828.923401,219.043442 831.813599,226.628876 
z"/>
<path fill="#7340BD" opacity="1.000000" stroke="none" 
	d="
M614.892273,51.390434 
	C613.315430,52.745632 611.588196,54.673248 609.698303,54.848526 
	C596.190369,56.101337 582.636658,56.853523 569.121948,58.042755 
	C552.163757,59.535011 535.237000,61.383167 518.281311,62.906155 
	C505.264191,64.075371 492.215393,64.889748 479.194946,66.025391 
	C465.694000,67.202934 452.215179,68.633102 438.716583,69.839844 
	C432.779388,70.370621 426.817230,70.621887 420.408386,71.000183 
	C422.132324,56.434853 424.312164,41.869080 426.497650,27.304159 
	C427.064728,23.524954 427.714569,19.756865 428.207123,15.968166 
	C428.664154,12.452571 430.331573,11.007368 434.088562,10.779552 
	C456.448364,9.423699 478.601929,11.201318 500.693298,14.482182 
	C529.262695,18.725122 556.884338,26.424047 583.579956,37.376747 
	C594.061646,41.677166 604.311279,46.543236 614.892273,51.390434 
z"/>
<path fill="#1690C9" opacity="1.000000" stroke="none" 
	d="
M324.089661,721.333496 
	C334.473755,719.986755 344.942810,718.974854 355.871155,717.939819 
	C356.853333,725.040894 357.176483,732.188049 357.992401,739.278564 
	C358.343384,742.328552 359.174500,745.588501 360.739868,748.177185 
	C363.795380,753.230164 371.754211,752.421143 374.187744,747.012390 
	C375.343170,744.444397 375.948242,741.631775 377.060608,739.040833 
	C382.572968,726.200928 391.874542,717.834351 405.961029,715.824768 
	C412.392639,714.907166 415.317688,717.106140 416.541779,722.292053 
	C417.720093,727.283936 415.696411,730.481567 409.848572,732.848389 
	C408.923584,733.222656 407.991150,733.581726 407.048767,733.909180 
	C397.837555,737.109863 391.107239,742.959290 390.451294,753.042847 
	C389.823059,762.700806 394.807800,770.267517 402.529816,775.833496 
	C412.192932,782.798645 422.416412,781.992004 432.134918,776.391296 
	C437.979401,773.023254 443.259644,768.520508 448.336456,764.012939 
	C455.563599,757.596375 462.778381,757.949890 468.146973,766.048157 
	C477.829742,780.653931 479.391632,803.116821 457.279266,815.948547 
	C442.989410,824.240906 427.630463,824.250671 412.170929,821.555176 
	C382.624481,816.403687 362.689392,799.139954 350.155701,772.103394 
	C342.208771,754.960938 332.882416,738.458069 324.089661,721.333496 
z"/>
<path fill="#2E7CC7" opacity="1.000000" stroke="none" 
	d="
M364.005615,604.749390 
	C342.526031,599.186707 322.379364,590.659241 304.820740,576.905945 
	C299.139099,572.455627 294.380829,566.826416 289.300964,561.117188 
	C291.113281,559.998962 292.799255,559.195435 294.540344,559.049377 
	C307.712616,557.944946 320.902954,557.052856 334.071594,555.909790 
	C338.808777,555.498596 343.501923,554.580322 348.215179,553.893494 
	C356.193848,558.790405 363.857697,564.323853 372.214050,568.457214 
	C392.114777,578.300781 412.703949,586.065308 435.433655,586.210999 
	C440.638885,586.244446 444.491333,584.606445 448.365814,581.137146 
	C463.884247,567.241394 481.205444,556.891174 502.523651,554.539917 
	C521.253601,552.474121 543.679077,563.522461 552.488464,579.605103 
	C557.927856,589.535400 556.256897,596.170776 546.543701,601.764648 
	C543.116516,603.738464 539.409058,605.430664 535.619629,606.523926 
	C529.479919,608.295349 524.179993,607.439575 519.651733,601.800049 
	C511.348083,591.458679 497.062897,587.093811 481.244141,594.430298 
	C479.093658,593.743286 477.368652,592.933472 475.720093,593.067078 
	C457.090393,594.576233 438.473450,596.241699 419.851013,597.841309 
	C403.528595,599.243469 387.195343,600.529114 370.888916,602.095825 
	C368.531250,602.322327 366.296997,603.833008 364.005615,604.749390 
z"/>
<path fill="#1D8AC8" opacity="1.000000" stroke="none" 
	d="
M658.950073,654.001099 
	C654.473083,674.690796 655.315369,694.092041 672.651855,709.351257 
	C686.865479,721.861694 703.389465,725.482666 721.501831,720.823303 
	C736.880005,716.867371 747.913574,699.599731 745.862671,683.911316 
	C744.109253,670.499207 728.935852,662.889038 717.054810,669.495117 
	C714.295532,671.029358 711.698608,672.866760 708.894165,674.305664 
	C705.229980,676.185730 701.542236,676.467957 698.296692,673.316467 
	C695.292114,670.398987 695.751770,666.894287 697.175171,663.575073 
	C701.847595,652.680054 711.357544,648.378906 722.104370,647.018494 
	C749.086792,643.602905 770.510498,668.723206 766.328247,694.770508 
	C762.680420,717.488953 751.917358,734.713806 729.978027,743.348572 
	C712.709961,750.144775 695.252502,747.711975 678.133972,742.319946 
	C649.667419,733.353516 633.181274,713.352356 627.981873,684.523621 
	C626.248230,674.911560 627.958313,664.678345 628.499451,654.754395 
	C629.930237,655.123047 630.975403,655.812683 631.978149,655.755798 
	C640.973022,655.245544 649.960449,654.604004 658.950073,654.001099 
z"/>
<path fill="#2781C7" opacity="1.000000" stroke="none" 
	d="
M659.103882,653.659058 
	C649.960449,654.604004 640.973022,655.245544 631.978149,655.755798 
	C630.975403,655.812683 629.930237,655.123047 628.693115,654.354919 
	C633.456543,626.317444 648.477844,605.695923 673.409180,593.344116 
	C711.606689,574.419617 749.689209,574.750427 786.753601,597.143005 
	C796.543884,603.057800 804.149048,611.316284 810.761658,620.628906 
	C809.263123,621.356995 808.158752,621.849976 807.022583,621.939819 
	C797.786011,622.669861 788.534729,623.231750 779.311157,624.092590 
	C777.761169,624.237183 776.322510,625.575317 774.832397,626.362061 
	C767.240601,622.112183 760.085205,616.556946 751.978699,613.846924 
	C722.621033,604.032959 684.819031,612.116821 666.350952,639.259949 
	C663.423523,643.562500 661.594482,648.612549 659.103882,653.659058 
z"/>
<path fill="#1690C9" opacity="1.000000" stroke="none" 
	d="
M804.435486,807.176147 
	C802.788086,806.652344 801.367493,805.179443 800.066650,805.278503 
	C781.006409,806.730042 761.962097,808.391113 742.452881,809.999756 
	C752.271729,797.808105 763.536743,786.305420 772.614014,773.278381 
	C788.533569,750.431824 796.705505,724.513794 799.085449,696.311829 
	C811.535217,694.962708 823.341736,693.954895 835.148193,692.947144 
	C834.348267,704.985596 834.509766,717.182678 832.555054,729.030579 
	C828.006165,756.602905 817.879700,782.366821 804.435486,807.176147 
z"/>
<path fill="#3576C6" opacity="1.000000" stroke="none" 
	d="
M348.062805,553.574463 
	C343.501923,554.580322 338.808777,555.498596 334.071594,555.909790 
	C320.902954,557.052856 307.712616,557.944946 294.540344,559.049377 
	C292.799255,559.195435 291.113281,559.998962 289.166138,560.813599 
	C286.097595,557.102478 282.708008,553.334900 280.662354,548.941467 
	C279.610718,546.682922 280.152100,542.910034 281.346649,540.502808 
	C289.515594,524.040955 298.048920,507.759979 306.736511,491.218597 
	C310.235291,491.344299 313.501801,492.167633 316.682373,491.913818 
	C330.173584,490.837250 343.634949,489.391876 357.116058,488.180267 
	C364.842834,487.485840 372.585114,486.957977 380.326569,486.448822 
	C380.797974,486.417786 381.323792,487.213440 381.998016,487.966919 
	C370.505707,506.991791 358.947784,525.743408 347.081024,544.297485 
	C344.750244,547.941589 344.920837,550.516418 348.062805,553.574463 
z"/>
<path fill="#2187C8" opacity="1.000000" stroke="none" 
	d="
M835.232483,692.489929 
	C823.341736,693.954895 811.535217,694.962708 799.265137,695.949524 
	C799.092834,682.122803 798.091309,668.521057 793.456848,655.327271 
	C789.602783,644.355347 783.368103,635.029114 774.994080,626.641724 
	C776.322510,625.575317 777.761169,624.237183 779.311157,624.092590 
	C788.534729,623.231750 797.786011,622.669861 807.022583,621.939819 
	C808.158752,621.849976 809.263123,621.356995 810.812012,620.982971 
	C818.118652,628.176392 822.950256,636.737793 826.569336,645.947815 
	C832.378906,660.732239 835.296448,676.121460 835.232483,692.489929 
z"/>
<path fill="#2781C7" opacity="1.000000" stroke="none" 
	d="
M364.369507,604.897461 
	C366.296997,603.833008 368.531250,602.322327 370.888916,602.095825 
	C387.195343,600.529114 403.528595,599.243469 419.851013,597.841309 
	C438.473450,596.241699 457.090393,594.576233 475.720093,593.067078 
	C477.368652,592.933472 479.093658,593.743286 480.887695,594.498352 
	C469.240814,602.357727 470.787476,609.934448 475.557220,619.639526 
	C477.169128,622.919312 479.001678,626.091125 480.746490,629.305115 
	C483.415192,634.220764 481.995239,639.411621 477.062012,642.729431 
	C472.793549,645.600281 467.327698,644.795532 464.563416,639.890381 
	C461.505798,634.464722 459.260223,628.538635 457.067993,622.678345 
	C453.926697,614.280762 450.948639,611.865112 441.981537,612.036804 
	C433.010345,612.208618 424.035828,613.098938 415.078522,612.913574 
	C397.977325,612.559631 381.158569,609.949524 364.369507,604.897461 
z"/>
<path fill="#050507" opacity="1.000000" stroke="none" 
	d="
M594.265747,184.011856 
	C605.915833,196.549133 615.436340,210.166840 622.528320,226.229858 
	C628.600586,238.913376 632.246033,251.500839 632.143127,265.000763 
	C631.101257,278.394012 630.059448,291.787231 629.060547,305.590576 
	C626.484314,314.157593 624.436096,322.559357 621.074768,330.398102 
	C618.103210,337.327850 613.668884,343.630310 609.733704,350.531372 
	C601.922485,358.879333 594.550171,367.211578 586.533447,374.869232 
	C569.164307,391.460358 548.141479,400.560822 524.492004,403.967377 
	C506.363770,406.578674 488.191833,406.707642 470.402039,402.480316 
	C442.429108,395.833282 419.592621,380.618164 401.435852,358.356842 
	C400.594604,357.325439 399.778595,356.273438 398.700867,355.034119 
	C387.670288,339.461395 379.680756,322.818298 375.733276,304.377563 
	C374.701599,299.557831 373.990967,294.669373 373.022278,289.406433 
	C372.163177,271.995148 372.535156,255.058472 377.888489,238.705490 
	C380.439240,230.913559 383.805542,223.388596 386.912567,215.410217 
	C397.338898,197.080368 410.514709,181.701416 427.772980,169.932449 
	C481.830109,133.069138 546.943604,138.488297 594.265747,184.011856 
M499.500244,397.329315 
	C501.500183,397.307404 503.500031,397.273743 505.500031,397.265259 
	C555.956360,397.051178 590.432800,371.454590 613.473328,328.485077 
	C620.638245,315.122894 621.937195,300.015350 623.488342,285.031036 
	C625.872559,261.999451 622.106506,240.771027 611.091370,220.064392 
	C573.623962,149.632233 482.101166,129.054871 418.980896,187.058487 
	C382.632263,220.460648 372.946228,262.718323 385.218811,309.803314 
	C398.935181,362.427399 449.230621,399.846344 499.500244,397.329315 
z"/>
<path fill="#555AC2" opacity="1.000000" stroke="none" 
	d="
M632.590820,265.000397 
	C632.246033,251.500839 628.600586,238.913376 622.762878,226.476196 
	C642.256470,224.404297 661.840454,222.695221 681.424072,220.982925 
	C700.511658,219.314011 719.604004,217.697998 738.684021,215.946182 
	C747.551819,215.131989 756.395142,214.051208 765.925781,213.273285 
	C771.408508,226.636765 776.214966,239.818207 781.021423,252.999634 
	C764.854858,254.298676 748.689819,255.616653 732.521240,256.889496 
	C723.110352,257.630371 713.684753,258.196442 704.281921,259.024475 
	C690.772461,260.214172 677.286072,261.668610 663.773926,262.824554 
	C653.541626,263.699890 643.284546,264.285492 632.590820,265.000397 
z"/>
<path fill="#050507" opacity="1.000000" stroke="none" 
	d="
M781.133118,253.389557 
	C776.214966,239.818207 771.408508,226.636765 766.343384,213.217010 
	C762.864197,204.092087 759.643738,195.205475 756.434937,186.351013 
	C781.816406,169.620026 810.523743,187.903214 815.922668,214.693375 
	C816.737122,218.734680 816.669617,222.953735 817.070312,227.545807 
	C815.599243,240.580872 810.645020,251.441742 800.181274,258.962952 
	C796.832581,261.369995 792.491760,262.684631 788.405823,263.690918 
	C784.864380,264.563080 781.452637,259.467987 781.133118,253.389557 
M773.813477,187.914139 
	C771.298035,188.448502 768.782532,188.982864 765.717651,189.633942 
	C774.300232,211.844223 782.615845,233.363831 791.104370,255.330780 
	C792.320374,254.662766 794.342590,253.902344 795.942078,252.616135 
	C806.250061,244.326920 810.204590,233.348373 809.005798,220.401855 
	C807.243530,201.370331 791.425171,186.131287 773.813477,187.914139 
z"/>
<path fill="#FEFEFE" opacity="1.000000" stroke="none" 
	d="
M499.000549,397.334412 
	C449.230621,399.846344 398.935181,362.427399 385.218811,309.803314 
	C372.946228,262.718323 382.632263,220.460648 418.980896,187.058487 
	C482.101166,129.054871 573.623962,149.632233 611.091370,220.064392 
	C622.106506,240.771027 625.872559,261.999451 623.488342,285.031036 
	C621.937195,300.015350 620.638245,315.122894 613.473328,328.485077 
	C590.432800,371.454590 555.956360,397.051178 505.500031,397.265259 
	C503.500031,397.273743 501.500183,397.307404 499.000549,397.334412 
M426.285492,252.045624 
	C426.491211,257.832062 425.989807,263.748993 427.029572,269.381470 
	C430.783264,289.715637 448.003326,304.221863 470.299896,306.475647 
	C488.111847,308.276123 507.170532,296.787170 514.358887,279.916107 
	C522.677612,260.392029 517.509338,236.350540 502.614899,223.633453 
	C477.189728,201.925018 431.843903,218.836365 426.285492,252.045624 
z"/>
<path fill="#FCFCFC" opacity="1.000000" stroke="none" 
	d="
M774.262695,187.890030 
	C791.425171,186.131287 807.243530,201.370331 809.005798,220.401855 
	C810.204590,233.348373 806.250061,244.326920 795.942078,252.616135 
	C794.342590,253.902344 792.320374,254.662766 791.104370,255.330780 
	C782.615845,233.363831 774.300232,211.844223 765.717651,189.633942 
	C768.782532,188.982864 771.298035,188.448502 774.262695,187.890030 
z"/>
<path fill="#050507" opacity="1.000000" stroke="none" 
	d="
M426.358337,251.609283 
	C431.843903,218.836365 477.189728,201.925018 502.614899,223.633453 
	C517.509338,236.350540 522.677612,260.392029 514.358887,279.916107 
	C507.170532,296.787170 488.111847,308.276123 470.299896,306.475647 
	C448.003326,304.221863 430.783264,289.715637 427.029572,269.381470 
	C425.989807,263.748993 426.491211,257.832062 426.358337,251.609283 
M481.981812,297.820679 
	C503.378265,291.391602 514.183411,273.241364 509.832458,251.037689 
	C505.967407,231.313248 490.417206,220.038773 469.726837,221.959610 
	C453.939972,223.425217 438.800751,235.128067 434.971252,248.826172 
	C427.031158,277.227905 451.345947,303.094879 481.981812,297.820679 
z"/>
<path fill="#5559C1" opacity="1.000000" stroke="none" 
	d="
M481.569763,297.890808 
	C451.345947,303.094879 427.031158,277.227905 434.971252,248.826172 
	C438.800751,235.128067 453.939972,223.425217 469.726837,221.959610 
	C490.417206,220.038773 505.967407,231.313248 509.832458,251.037689 
	C514.183411,273.241364 503.378265,291.391602 481.569763,297.890808 
z"/>
</svg>