<?xml version="1.0" encoding="UTF-8"?>
<svg version="1.1" xmlns="http://www.w3.org/2000/svg" width="512" height="512">
<path d="M0 0 C2.07186088 -0.00970199 4.14272719 -0.04075048 6.21435547 -0.07226562 C7.53048828 -0.07742187 8.84662109 -0.08257813 10.20263672 -0.08789062 C11.40259277 -0.09723633 12.60254883 -0.10658203 13.83886719 -0.11621094 C17.62398471 0.28395355 20.01018694 1.19717416 23.21044922 3.24023438 C24.17678983 5.71267342 24.86955362 7.94539789 25.52294922 10.49023438 C27.06320691 15.34314877 28.62948622 18.31818637 33.22998047 20.74804688 C37.44444491 22.59218612 41.77128041 24.04207663 46.21044922 25.24023438 C47.23537476 25.55263062 47.23537476 25.55263062 48.28100586 25.87133789 C51.3107917 26.45061239 53.28569963 25.09932628 56.02294922 23.80273438 C64.74099752 20.08148764 64.74099752 20.08148764 69.21044922 21.24023438 C72.89501253 23.89519212 76.01153789 27.02776834 79.21044922 30.24023438 C80.27612344 31.26189161 81.34390153 32.28135803 82.41357422 33.29882812 C83.49293215 34.34052088 84.57107569 35.38347352 85.64794922 36.42773438 C86.15608154 36.9140332 86.66421387 37.40033203 87.18774414 37.90136719 C90.37877763 41.06618766 92.57732433 44.04321762 94.21044922 48.24023438 C93.62822706 52.12171541 92.92138921 55.03510439 90.92919922 58.41210938 C89.10434802 61.72799753 87.71951137 64.35507091 88.71679688 68.18457031 C90.08445009 71.81763559 91.77007259 75.24952998 93.53857422 78.70117188 C95.21044922 82.24023437 95.21044922 82.24023437 95.21044922 86.24023438 C95.90783203 86.35753906 96.60521484 86.47484375 97.32373047 86.59570312 C100.50680151 87.30640234 103.37148453 88.33838891 106.39794922 89.55273438 C107.44337891 89.96136719 108.48880859 90.37 109.56591797 90.79101562 C112.6250278 92.46742589 113.05524765 93.02513154 114.21044922 96.24023438 C114.43716945 98.82701289 114.56192188 101.30441865 114.58154297 103.89257812 C114.59057144 104.62972549 114.59959991 105.36687286 114.60890198 106.12635803 C114.62337833 107.68209792 114.63228472 109.23789833 114.63598633 110.79370117 C114.64789485 113.16689948 114.69710808 115.53750542 114.74755859 117.91015625 C114.75702253 119.42511757 114.76425771 120.9400948 114.76904297 122.45507812 C114.78857529 123.16043198 114.8081076 123.86578583 114.82823181 124.59251404 C114.79299768 128.46170064 114.32184032 130.10127179 111.87280273 133.15649414 C108.84410072 135.52696381 106.41252784 136.27146614 102.71044922 137.24023438 C98.58629558 138.70184187 96.70202385 139.4541298 94.35888672 143.20117188 C93.12127568 146.51918429 92.15659207 149.82934964 91.21044922 153.24023438 C90.61619141 154.3771875 90.02193359 155.51414063 89.40966797 156.68554688 C88.08045498 160.62555933 88.45216333 162.13427785 90.17724609 165.84570312 C90.49757813 166.47089844 90.81791016 167.09609375 91.14794922 167.74023438 C93.08329771 171.56363159 94.39025397 174.26642579 93.58178711 178.64501953 C92.07674025 182.59077705 90.49535841 184.54826044 87.49169922 187.48242188 C86.55970703 188.4028125 85.62771484 189.32320312 84.66748047 190.27148438 C83.68186042 191.21946035 82.69618271 192.16737636 81.71044922 193.11523438 C80.72367869 194.08547772 79.73799045 195.05682309 78.75341797 196.02929688 C69.98557501 204.61523438 69.98557501 204.61523438 63.62841797 204.61523438 C59.67303192 204.00179809 56.39408018 202.06341986 52.92138672 200.13867188 C49.2861896 198.93392355 47.68782434 199.74865862 44.21044922 201.24023438 C43.18564453 201.65402344 42.16083984 202.0678125 41.10498047 202.49414062 C40.08791016 202.92597656 39.07083984 203.3578125 38.02294922 203.80273438 C35.09566104 205.04360999 32.22710184 206.2346835 29.21044922 207.24023438 C27.81639802 210.35547412 26.67058476 213.47484566 25.54833984 216.69335938 C24.05232482 220.75115211 22.96840593 223.06315183 19.21044922 225.24023438 C16.64501953 225.58081055 16.64501953 225.58081055 13.78857422 225.53320312 C12.76376953 225.52353516 11.73896484 225.51386719 10.68310547 225.50390625 C9.61962891 225.47876953 8.55615234 225.45363281 7.46044922 225.42773438 C6.38150391 225.41419922 5.30255859 225.40066406 4.19091797 225.38671875 C1.53025502 225.35140022 -1.12939374 225.30207637 -3.78955078 225.24023438 C-3.99041521 228.95622628 -3.94149448 230.01231883 -1.78955078 233.24023438 C-1.008742 240.19243564 -2.89472223 244.38778418 -6.28955078 250.36523438 C-6.74442871 251.19925781 -7.19930664 252.03328125 -7.66796875 252.89257812 C-9.70381805 256.60370979 -11.79746215 260.27747204 -13.95361328 263.91992188 C-28.6902679 288.87242471 -35.4889459 316.58146497 -35.93017578 345.52929688 C-35.94951172 346.5734375 -35.96884766 347.61757813 -35.98876953 348.69335938 C-36.02274567 350.81556153 -36.04086232 352.93807434 -36.04345703 355.06054688 C-36.23522298 363.21564625 -37.96081058 370.07439185 -43.60302734 376.21337891 C-46.8849217 379.30618902 -49.28356752 380.55353487 -53.78955078 381.24023438 C-53.73154297 382.35140625 -53.67353516 383.46257812 -53.61376953 384.60742188 C-53.28876603 393.44413797 -53.12347345 400.91682942 -58.78955078 408.24023438 C-61.48936741 411.11481592 -64.11937794 413.7319209 -67.94580078 414.89648438 C-70.20887495 416.22173436 -70.20887495 416.22173436 -70.44189453 419.80273438 C-70.54827322 421.28112962 -70.64267058 422.76042057 -70.72705078 424.24023438 C-71.44938029 432.30342784 -72.64919374 439.24235925 -78.71923828 445.10351562 C-87.61123463 452.13322595 -96.57661762 452.42100039 -107.53955078 452.42773438 C-108.57337891 452.43998047 -109.60720703 452.45222656 -110.67236328 452.46484375 C-121.35718458 452.48502918 -129.77557843 451.71498353 -137.78955078 444.24023438 C-144.25027526 437.43028155 -145.25718315 430.79123763 -145.05322266 421.84960938 C-145.03467428 419.52199736 -145.03467428 419.52199736 -145.78955078 416.24023438 C-148.56330088 414.33510786 -148.56330088 414.33510786 -151.78955078 413.24023438 C-158.08810148 408.65947023 -161.23448601 402.79879163 -162.78955078 395.24023438 C-163.08210315 390.54980465 -163.03609896 385.93149835 -162.78955078 381.24023438 C-164.16240234 380.83804688 -164.16240234 380.83804688 -165.56298828 380.42773438 C-170.82801452 378.49000075 -174.19835353 375.02687881 -176.97436523 370.1652832 C-180.18931119 362.76670962 -180.33374452 355.91180864 -180.35205078 347.92773438 C-180.85632934 316.37796183 -187.81194492 289.12667867 -203.28955078 261.67773438 C-219.07112381 233.68848848 -227.96219991 204.97073277 -219.75830078 172.45898438 C-219.27876953 170.86570313 -219.27876953 170.86570313 -218.78955078 169.24023438 C-218.44923828 168.03367188 -218.10892578 166.82710937 -217.75830078 165.58398438 C-208.77878886 136.2185535 -188.67607948 111.7920752 -161.69042969 97.09716797 C-148.81138164 90.47913709 -132.49331624 84.09910245 -117.78955078 85.24023438 C-114.85205078 87.05273438 -114.85205078 87.05273438 -112.78955078 89.24023438 C-112.78955078 90.23023437 -112.78955078 91.22023438 -112.78955078 92.24023438 C-107.02951901 90.93607624 -101.62790321 89.15069199 -96.10986328 87.04492188 C-93.78955078 86.24023438 -93.78955078 86.24023438 -91.78955078 86.24023438 C-91.61939453 85.62277344 -91.44923828 85.0053125 -91.27392578 84.36914062 C-89.9848488 79.86422797 -88.58627932 75.64911199 -86.53955078 71.42773438 C-85.39798861 68.91190697 -84.78955078 67.52194302 -84.78955078 64.74023438 C-85.40401938 63.20406287 -86.05430168 61.68096139 -86.76220703 60.18554688 C-90.84158698 51.50041537 -90.84158698 51.50041537 -89.78955078 46.24023438 C-85.40393403 40.23316904 -79.73866319 35.03508851 -74.47705078 29.80273438 C-73.40487305 28.72475586 -73.40487305 28.72475586 -72.31103516 27.625 C-71.6271875 26.94244141 -70.94333984 26.25988281 -70.23876953 25.55664062 C-69.62348389 24.94248291 -69.00819824 24.3283252 -68.37426758 23.69555664 C-65.74754432 21.28330932 -63.53393238 20.86170842 -59.98876953 20.86914062 C-56.14949741 21.51697517 -52.85449694 23.43799206 -49.43798828 25.24414062 C-44.41957965 27.1315952 -40.47568394 24.79639484 -35.78955078 22.74023438 C-32.11326068 21.12716831 -28.7589064 19.88233602 -24.78955078 19.24023438 C-24.51691406 18.26183594 -24.51691406 18.26183594 -24.23876953 17.26367188 C-20.77712842 5.22781201 -20.77712842 5.22781201 -16.78955078 1.24023438 C-11.52953465 -0.65029593 -5.50505913 0.01560612 0 0 Z " fill="#A599A5" transform="translate(357.78955078125,29.759765625)"/>
<path d="M0 0 C2.0625 2.4375 2.0625 2.4375 2.625 5.875 C1.94876347 10.15783137 1.21129217 11.47000193 -1.9375 14.4375 C-5.13198437 15.63566884 -8.40506165 16.23617574 -11.75 16.875 C-32.70010335 21.4080528 -48.86569546 30.36569546 -63.9375 45.4375 C-64.60394531 46.10394531 -65.27039063 46.77039063 -65.95703125 47.45703125 C-78.44485238 60.84690718 -85.14268859 77.84514353 -88.9375 95.4375 C-89.114021 96.23236816 -89.29054199 97.02723633 -89.47241211 97.84619141 C-94.26206183 124.53246027 -84.44464801 147.22974038 -71.37695312 169.68115234 C-63.56986255 183.14515956 -57.85853409 196.37980106 -53.9375 211.4375 C-53.49277344 213.04238281 -53.49277344 213.04238281 -53.0390625 214.6796875 C-50.30585977 224.88184027 -48.9375 234.87245598 -48.9375 245.4375 C-39.0375 245.4375 -29.1375 245.4375 -18.9375 245.4375 C-18.9375 212.4375 -18.9375 179.4375 -18.9375 145.4375 C-26.5275 145.4375 -34.1175 145.4375 -41.9375 145.4375 C-52.37663111 142.26847806 -59.21313448 137.86990768 -64.89453125 128.5625 C-69.02502906 120.14680409 -69.39518412 109.68785884 -67 100.625 C-63.40347907 91.80020327 -55.86197069 85.25892005 -47.30859375 81.4453125 C-38.48414946 78.80718199 -29.77667456 79.09884698 -21.375 83 C-13.02982098 87.83499517 -7.25003873 93.86547981 -4.39819336 103.20336914 C-3.84674171 105.87763203 -3.8253184 108.34735912 -3.83984375 111.078125 C-3.84467773 112.68300781 -3.84467773 112.68300781 -3.84960938 114.3203125 C-3.86217773 115.98707031 -3.86217773 115.98707031 -3.875 117.6875 C-3.87951172 118.81414062 -3.88402344 119.94078125 -3.88867188 121.1015625 C-3.90044589 123.88023106 -3.918381 126.65887227 -3.9375 129.4375 C2.9925 129.4375 9.9225 129.4375 17.0625 129.4375 C17.00449219 127.90738281 16.94648438 126.37726563 16.88671875 124.80078125 C16.83981418 122.7838847 16.79431477 120.76695512 16.75 118.75 C16.70810547 117.74259766 16.66621094 116.73519531 16.62304688 115.69726562 C16.49937068 108.20248807 16.49937068 108.20248807 19.39453125 104.26953125 C22.0625 102.4375 22.0625 102.4375 25.0625 101.8125 C29.27979101 102.69110229 30.50145156 103.9584208 33.0625 107.4375 C33.67681889 111.22667278 33.53410252 114.92419639 33.375 118.75 C33.34116211 120.29010742 33.34116211 120.29010742 33.30664062 121.86132812 C33.24787575 124.3882179 33.16577849 126.91210255 33.0625 129.4375 C36.08463254 129.34994571 39.10402681 129.24298937 42.125 129.125 C42.97255859 129.10244141 43.82011719 129.07988281 44.69335938 129.05664062 C51.81875964 128.75401745 57.43563298 127.51740261 62.625 122.25 C65.03374503 120.09452346 65.92279289 119.46823557 69.1875 118.75 C73.14219918 119.69568893 74.66071949 121.18803225 77.0625 124.4375 C77.8125 127.25 77.8125 127.25 77.0625 130.4375 C70.98988419 139.40762107 64.47640042 142.31332987 54.0625 145.4375 C47.1325 145.4375 40.2025 145.4375 33.0625 145.4375 C33.0625 178.4375 33.0625 211.4375 33.0625 245.4375 C42.9625 245.4375 52.8625 245.4375 63.0625 245.4375 C63.0625 242.4675 63.0625 239.4975 63.0625 236.4375 C65.2667979 207.51809975 77.06836416 183.32452479 91.0625 158.4375 C91.48692383 157.67695313 91.91134766 156.91640625 92.34863281 156.1328125 C98.64125648 144.85874352 98.64125648 144.85874352 101.0625 142.4375 C105.23989176 142.12806357 108.5397983 141.99870651 112.0625 144.4375 C113.68874343 147.68998686 113.54536613 150.9171041 113.0625 154.4375 C111.87564516 157.66283508 110.25725282 160.57846106 108.5625 163.5625 C108.10762207 164.39652344 107.65274414 165.23054687 107.18408203 166.08984375 C105.14823273 169.80097542 103.05458863 173.47473767 100.8984375 177.1171875 C86.16178288 202.06969034 79.36310488 229.77873059 78.921875 258.7265625 C78.90253906 259.77070313 78.88320313 260.81484375 78.86328125 261.890625 C78.82930511 264.01282716 78.81118846 266.13533997 78.80859375 268.2578125 C78.6168278 276.41291188 76.8912402 283.27165748 71.24902344 289.41064453 C67.96712908 292.50345464 65.56848326 293.7508005 61.0625 294.4375 C61.12050781 295.54867188 61.17851562 296.65984375 61.23828125 297.8046875 C61.56328475 306.64140359 61.72857734 314.11409504 56.0625 321.4375 C53.36268337 324.31208154 50.73267284 326.92918653 46.90625 328.09375 C44.64317583 329.41899999 44.64317583 329.41899999 44.41015625 333 C44.30377757 334.47839525 44.2093802 335.95768619 44.125 337.4375 C43.40267049 345.50069347 42.20285704 352.43962488 36.1328125 358.30078125 C27.24081615 365.33049157 18.27543316 365.61826601 7.3125 365.625 C6.27867187 365.63724609 5.24484375 365.64949219 4.1796875 365.66210938 C-6.5051338 365.68229481 -14.92352765 364.91224915 -22.9375 357.4375 C-29.39822447 350.62754718 -30.40513237 343.98850325 -30.20117188 335.046875 C-30.1826235 332.71926299 -30.1826235 332.71926299 -30.9375 329.4375 C-33.7112501 327.53237349 -33.7112501 327.53237349 -36.9375 326.4375 C-43.2360507 321.85673586 -46.38243523 315.99605726 -47.9375 308.4375 C-48.23005237 303.74707028 -48.18404818 299.12876398 -47.9375 294.4375 C-49.31035156 294.0353125 -49.31035156 294.0353125 -50.7109375 293.625 C-55.97596374 291.68726637 -59.34630275 288.22414443 -62.12231445 283.36254883 C-65.33726041 275.96397524 -65.48169373 269.10907426 -65.5 261.125 C-66.00427856 229.57522745 -72.95989414 202.32394429 -88.4375 174.875 C-104.21907303 146.8857541 -113.11014913 118.16799839 -104.90625 85.65625 C-104.5865625 84.5940625 -104.266875 83.531875 -103.9375 82.4375 C-103.5971875 81.2309375 -103.256875 80.024375 -102.90625 78.78125 C-93.92673808 49.41581912 -73.8240287 24.98934082 -46.83837891 10.29443359 C-35.40443158 4.41898254 -12.39388345 -6.5924912 0 0 Z " fill="#020101" transform="translate(242.9375,116.5625)"/>
<path d="M0 0 C1.65 0 3.3 0 5 0 C4.83773926 0.50595703 4.67547852 1.01191406 4.50830078 1.53320312 C3.82566405 4.84605689 3.85729165 8.1021933 3.8671875 11.46875 C3.86575241 12.5447345 3.86575241 12.5447345 3.86428833 13.64245605 C3.86360944 15.15535571 3.86544342 16.66825832 3.86962891 18.18115234 C3.8749813 20.49192877 3.8696741 22.80251084 3.86328125 25.11328125 C3.86394208 26.58593793 3.86522335 28.05859448 3.8671875 29.53125 C3.86415115 30.56421204 3.86415115 30.56421204 3.86105347 31.61804199 C3.85796852 36.40065069 3.85796852 36.40065069 5 41 C6.81203711 41.99962676 6.81203711 41.99962676 9.0625 42.5 C9.87460938 42.75265625 10.68671875 43.0053125 11.5234375 43.265625 C13.06197077 43.72184622 14.6082226 44.15370246 16.1640625 44.546875 C20.29279283 45.98156894 21.70600408 47.43547569 23.76171875 51.3828125 C25.37109288 55.19376497 26.70692545 59.07135947 28 63 C28.433125 64.03640625 28.86625 65.0728125 29.3125 66.140625 C30.19474607 69.80996662 29.42957675 71.11912343 27.625 74.375 C24.83474475 79.92646345 24.83474475 79.92646345 24.26953125 85.984375 C26.0540916 90.90861638 30.3412871 94.41477631 34 98 C34.98266396 99.00175759 35.96308871 100.00571601 36.94140625 101.01171875 C42.89879321 107.91008713 42.89879321 107.91008713 50.84375 111.28515625 C55.24539609 110.88748278 58.36156593 109.04106634 62.21875 106.99609375 C69.18881579 104.4997921 77.71251424 109.07787354 84.171875 111.90234375 C87.55612883 113.57302117 89.35215266 114.9910604 90.875 118.5625 C91.28160167 120.0332937 91.65924361 121.51257131 92 123 C92.5775 124.134375 93.155 125.26875 93.75 126.4375 C95 129 95 129 95 131 C99.62 131.33 104.24 131.66 109 132 C108.67 133.98 108.34 135.96 108 138 C107.40832031 137.9071875 106.81664062 137.814375 106.20703125 137.71875 C105.41683594 137.6465625 104.62664062 137.574375 103.8125 137.5 C103.03519531 137.4071875 102.25789062 137.314375 101.45703125 137.21875 C97.30813548 138.53795374 95.9751381 142.37530734 94 146 C93.44320557 146.97275879 92.88641113 147.94551758 92.31274414 148.94775391 C75.42798633 178.48766126 64.27110402 205.92599975 61 240 C51.1 240 41.2 240 31 240 C31 207 31 174 31 140 C37.93 139.67 44.86 139.34 52 139 C61.05573163 136.90376583 66.7266067 133.88434135 73 127 C74.42041821 124.15916359 74.31452272 122.14522722 74 119 C71.98668966 116.0574695 70.70637112 115.17659278 67.25 114.3125 C63.02574007 115.20609345 61.11032945 117.25079143 58.125 120.2734375 C52.7439811 124.64551536 46.70127492 124.25375237 40.125 124.125 C38.80628906 124.11146484 38.80628906 124.11146484 37.4609375 124.09765625 C35.3071729 124.07424577 33.15354986 124.0383801 31 124 C30.9906543 123.35450195 30.98130859 122.70900391 30.97167969 122.04394531 C30.91790899 119.11186056 30.8342766 116.18135992 30.75 113.25 C30.73582031 112.23421875 30.72164063 111.2184375 30.70703125 110.171875 C30.60816168 104.39216365 30.60816168 104.39216365 28.140625 99.328125 C25.17938303 97.49085808 23.42121736 97.42979711 20 98 C17.63819449 99.2695265 17.63819449 99.2695265 16 102 C15.35501589 105.74151921 15.30291215 109.45956615 15.25 113.25 C15.20552734 114.796875 15.20552734 114.796875 15.16015625 116.375 C15.08956605 118.91624703 15.04250622 121.45812812 15 124 C8.07 124 1.14 124 -6 124 C-6.05607422 121.54046875 -6.05607422 121.54046875 -6.11328125 119.03125 C-6.17896977 116.85414489 -6.2454161 114.67706256 -6.3125 112.5 C-6.33505859 111.42234375 -6.35761719 110.3446875 -6.38085938 109.234375 C-6.70406293 99.59703257 -8.59080286 91.64929205 -15.49609375 84.4375 C-22.78760279 77.70169488 -30.01432369 75.30679438 -39.90600586 75.39331055 C-49.10241426 75.8472545 -56.20048036 79.73110037 -62.5625 86.3125 C-69.49232027 94.99998779 -70.04571025 104.10137543 -69 115 C-66.89940768 123.60565243 -62.58745064 129.55677741 -55.0625 134.25 C-43.78035495 140.90128044 -35.44749023 139.37184825 -21 140 C-21 173 -21 206 -21 240 C-30.9 240 -40.8 240 -51 240 C-51.53625 235.978125 -52.0725 231.95625 -52.625 227.8125 C-56.46756859 201.03596642 -65.84313842 178.09699769 -79.3984375 154.86328125 C-92.3547429 132.61322085 -96.98423077 108.43785445 -90.76611328 83.0847168 C-83.9491701 57.66163091 -67.53550976 35.60465198 -45 22 C-32.81264568 15.01608008 -20.37682595 11.47999697 -6.64453125 8.90625 C-3.53206734 7.83964494 -2.62184342 6.81405944 -1 4 C-0.29485154 1.85266073 -0.29485154 1.85266073 0 0 Z " fill="#FCDE75" transform="translate(245,122)"/>
<path d="M0 0 C2.07186088 -0.00970199 4.14272719 -0.04075048 6.21435547 -0.07226562 C7.53048828 -0.07742187 8.84662109 -0.08257813 10.20263672 -0.08789062 C11.40259277 -0.09723633 12.60254883 -0.10658203 13.83886719 -0.11621094 C17.62398471 0.28395355 20.01018694 1.19717416 23.21044922 3.24023438 C24.17678983 5.71267342 24.86955362 7.94539789 25.52294922 10.49023438 C27.06320691 15.34314877 28.62948622 18.31818637 33.22998047 20.74804688 C37.44444491 22.59218612 41.77128041 24.04207663 46.21044922 25.24023438 C47.23537476 25.55263062 47.23537476 25.55263062 48.28100586 25.87133789 C51.3107917 26.45061239 53.28569963 25.09932628 56.02294922 23.80273438 C64.74099752 20.08148764 64.74099752 20.08148764 69.21044922 21.24023438 C72.89501253 23.89519212 76.01153789 27.02776834 79.21044922 30.24023438 C80.27612344 31.26189161 81.34390153 32.28135803 82.41357422 33.29882812 C83.49293215 34.34052088 84.57107569 35.38347352 85.64794922 36.42773438 C86.15608154 36.9140332 86.66421387 37.40033203 87.18774414 37.90136719 C90.37877763 41.06618766 92.57732433 44.04321762 94.21044922 48.24023438 C93.62822706 52.12171541 92.92138921 55.03510439 90.92919922 58.41210938 C89.10434802 61.72799753 87.71951137 64.35507091 88.71679688 68.18457031 C90.08445009 71.81763559 91.77007259 75.24952998 93.53857422 78.70117188 C95.21044922 82.24023438 95.21044922 82.24023438 95.21044922 86.24023438 C95.90783203 86.35753906 96.60521484 86.47484375 97.32373047 86.59570312 C100.50680151 87.30640234 103.37148453 88.33838891 106.39794922 89.55273438 C107.44337891 89.96136719 108.48880859 90.37 109.56591797 90.79101562 C112.6250278 92.46742589 113.05524765 93.02513154 114.21044922 96.24023438 C114.43716945 98.82701289 114.56192188 101.30441865 114.58154297 103.89257812 C114.59057144 104.62972549 114.59959991 105.36687286 114.60890198 106.12635803 C114.62337833 107.68209792 114.63228472 109.23789833 114.63598633 110.79370117 C114.64789485 113.16689948 114.69710808 115.53750542 114.74755859 117.91015625 C114.75702253 119.42511757 114.76425771 120.9400948 114.76904297 122.45507812 C114.78857529 123.16043198 114.8081076 123.86578583 114.82823181 124.59251404 C114.79299768 128.46170064 114.32184032 130.10127179 111.87280273 133.15649414 C108.84410072 135.52696381 106.41252784 136.27146614 102.71044922 137.24023438 C98.58629558 138.70184187 96.70202385 139.4541298 94.35888672 143.20117188 C93.12127568 146.51918429 92.15659207 149.82934964 91.21044922 153.24023438 C90.61619141 154.3771875 90.02193359 155.51414063 89.40966797 156.68554688 C88.08045498 160.62555933 88.45216333 162.13427785 90.17724609 165.84570312 C90.49757813 166.47089844 90.81791016 167.09609375 91.14794922 167.74023438 C93.08329771 171.56363159 94.39025397 174.26642579 93.58178711 178.64501953 C92.07674025 182.59077705 90.49535841 184.54826044 87.49169922 187.48242188 C86.55970703 188.4028125 85.62771484 189.32320312 84.66748047 190.27148438 C83.68186042 191.21946035 82.69618271 192.16737636 81.71044922 193.11523438 C80.72367869 194.08547772 79.73799045 195.05682309 78.75341797 196.02929688 C69.98557501 204.61523438 69.98557501 204.61523438 63.62841797 204.61523438 C59.67303192 204.00179809 56.39408018 202.06341986 52.92138672 200.13867188 C49.2861896 198.93392355 47.68782434 199.74865862 44.21044922 201.24023438 C43.18564453 201.65402344 42.16083984 202.0678125 41.10498047 202.49414062 C40.08791016 202.92597656 39.07083984 203.3578125 38.02294922 203.80273438 C35.09566104 205.04360999 32.22710184 206.2346835 29.21044922 207.24023438 C27.81639802 210.35547412 26.67058476 213.47484566 25.54833984 216.69335938 C24.05168679 220.75288269 22.95354998 223.04220036 19.21044922 225.24023438 C16.83544922 225.59667969 16.83544922 225.59667969 14.21044922 225.56835938 C13.24598877 225.56416992 12.28152832 225.55998047 11.2878418 225.55566406 C10.27230225 225.53407227 9.2567627 225.51248047 8.21044922 225.49023438 C7.17621826 225.47637695 6.1419873 225.46251953 5.07641602 225.44824219 C2.12021665 225.39895282 -0.83416417 225.32438847 -3.78955078 225.24023438 C-4.51062012 225.22476563 -5.23168945 225.20929688 -5.97460938 225.19335938 C-14.81852177 224.97022781 -14.81852177 224.97022781 -17.99267578 222.58398438 C-20.16136875 219.75525442 -20.56864841 217.45197049 -21.35205078 213.99023438 C-23.04030271 209.2265681 -24.75140358 206.93144825 -29.12548828 204.57617188 C-39.10753951 199.7536347 -39.10753951 199.7536347 -49.78955078 200.24023438 C-52.07626531 201.18922091 -54.24041125 202.2777195 -56.44580078 203.40039062 C-59.45719827 204.47947472 -61.6092706 204.61608567 -64.78955078 204.24023438 C-67.14111328 202.69335938 -67.14111328 202.69335938 -69.41455078 200.49023438 C-70.26275391 199.678125 -71.11095703 198.86601562 -71.98486328 198.02929688 C-72.91041016 197.10890625 -73.83595703 196.18851563 -74.78955078 195.24023438 C-75.86984906 194.18510553 -76.95059287 193.13043268 -78.03173828 192.07617188 C-88.60991989 181.67728148 -88.60991989 181.67728148 -89.22705078 176.74023438 C-89.16399955 171.8582677 -87.01485423 168.14937975 -84.68798828 163.95117188 C-83.48152704 160.31080622 -84.34295816 158.74964185 -85.78955078 155.24023438 C-86.13630859 154.02207031 -86.48306641 152.80390625 -86.84033203 151.54882812 C-89.19576394 143.7291619 -89.19576394 143.7291619 -94.93408203 138.29492188 C-98.36072639 137.01127694 -98.36072639 137.01127694 -101.76611328 136.19726562 C-105.14045797 135.1291591 -106.55693235 133.93929187 -108.78955078 131.24023438 C-110.2708675 128.27760093 -109.97282769 125.2516551 -109.99267578 122.00195312 C-109.99837585 121.28417191 -110.00407593 120.56639069 -110.00994873 119.82685852 C-110.0194003 118.3062182 -110.02593334 116.78555739 -110.02978516 115.26489258 C-110.03947003 112.94706048 -110.07048158 110.63012312 -110.10205078 108.3125 C-110.10858315 106.83398963 -110.11383271 105.35547293 -110.11767578 103.87695312 C-110.13002258 103.18719894 -110.14236938 102.49744476 -110.15509033 101.78678894 C-110.13510241 97.43200364 -109.49791732 94.67861351 -106.78955078 91.24023438 C-103.72314453 89.65820312 -103.72314453 89.65820312 -100.22705078 88.42773438 C-99.07076172 88.00878906 -97.91447266 87.58984375 -96.72314453 87.15820312 C-93.78955078 86.24023438 -93.78955078 86.24023438 -91.78955078 86.24023438 C-91.61939453 85.62277344 -91.44923828 85.0053125 -91.27392578 84.36914062 C-89.9848488 79.86422797 -88.58627932 75.64911199 -86.53955078 71.42773438 C-85.39798861 68.91190697 -84.78955078 67.52194302 -84.78955078 64.74023438 C-85.40401938 63.20406287 -86.05430168 61.68096139 -86.76220703 60.18554688 C-90.84158698 51.50041537 -90.84158698 51.50041537 -89.78955078 46.24023438 C-85.40393403 40.23316904 -79.73866319 35.03508851 -74.47705078 29.80273438 C-73.76226562 29.08408203 -73.04748047 28.36542969 -72.31103516 27.625 C-71.6271875 26.94244141 -70.94333984 26.25988281 -70.23876953 25.55664062 C-69.62348389 24.94248291 -69.00819824 24.3283252 -68.37426758 23.69555664 C-65.74754432 21.28330932 -63.53393238 20.86170842 -59.98876953 20.86914062 C-56.14949741 21.51697517 -52.85449694 23.43799206 -49.43798828 25.24414062 C-44.41957965 27.1315952 -40.47568394 24.79639484 -35.78955078 22.74023438 C-32.11326068 21.12716831 -28.7589064 19.88233602 -24.78955078 19.24023438 C-24.60779297 18.58796875 -24.42603516 17.93570313 -24.23876953 17.26367188 C-20.77712842 5.22781201 -20.77712842 5.22781201 -16.78955078 1.24023438 C-11.52953465 -0.65029593 -5.50505913 0.01560612 0 0 Z M-6.78955078 17.24023438 C-8.55708883 21.70549215 -8.55708883 21.70549215 -10.28833008 26.18481445 C-12.03815627 30.43160421 -13.59268986 32.39693224 -17.78955078 34.24023438 C-19.97314453 34.94335938 -19.97314453 34.94335938 -22.22705078 35.49023438 C-28.08110525 37.11392264 -33.19259576 39.91859492 -38.49267578 42.81445312 C-43.22424404 44.86068821 -46.14969217 44.79882368 -51.00048828 43.14648438 C-52.04462891 42.68242188 -53.08876953 42.21835938 -54.16455078 41.74023438 C-55.75396484 41.04414062 -55.75396484 41.04414062 -57.37548828 40.33398438 C-58.17212891 39.97304687 -58.96876953 39.61210938 -59.78955078 39.24023438 C-61.66664777 40.92811999 -63.51339919 42.6363196 -65.35205078 44.36523438 C-65.88507813 44.83960937 -66.41810547 45.31398438 -66.96728516 45.80273438 C-68.72343947 47.40686235 -68.72343947 47.40686235 -70.78955078 50.24023438 C-70.71431409 54.03028271 -69.77693355 56.26849696 -68.22705078 59.74023438 C-66.56339049 63.79088551 -65.86164536 66.85208703 -67.49682617 71.06054688 C-68.48029035 73.06897593 -69.52576692 75.03002776 -70.60205078 76.99023438 C-73.41742092 82.31522203 -75.73825106 87.29391629 -77.02392578 93.22460938 C-78.51658896 97.15427366 -81.11783549 98.90959731 -84.80517578 100.72460938 C-87.79996745 101.89648438 -90.79475911 103.06835938 -93.78955078 104.24023438 C-93.78955078 110.18023437 -93.78955078 116.12023437 -93.78955078 122.24023438 C-91.45892578 122.83835937 -89.12830078 123.43648438 -86.72705078 124.05273438 C-82.85694387 125.35174489 -79.76468661 126.75637919 -77.47265625 130.24414062 C-75.27834623 135.01411661 -73.88815808 140.02777484 -72.47167969 145.07226562 C-71.39113458 148.50649631 -69.63804352 151.38764546 -67.63720703 154.35351562 C-66.39205157 157.12499069 -66.50704552 159.23061161 -66.78955078 162.24023438 C-67.9826826 165.16300694 -69.41482444 167.86575128 -70.89111328 170.65429688 C-72.03078854 173.13481141 -72.03078854 173.13481141 -71.20751953 175.27539062 C-69.44613525 177.71609667 -67.5641008 179.88150082 -65.47705078 182.05273438 C-64.71779297 182.86355469 -63.95853516 183.674375 -63.17626953 184.50976562 C-60.93072369 186.52027443 -60.93072369 186.52027443 -58.20361328 186.09960938 C-55.60074452 185.21771661 -55.60074452 185.21771661 -52.47705078 183.67773438 C-48.27198529 182.03847156 -45.17408731 181.23441178 -40.78955078 182.24023438 C-37.87336574 183.54343795 -35.04508308 184.95179855 -32.22949219 186.45947266 C-27.37710778 189.04263461 -22.50885451 190.79978459 -17.21533203 192.31835938 C-13.32241161 193.79779451 -12.18412059 195.40997058 -10.40283203 199.15820312 C-9.19840495 202.18554688 -7.99397786 205.21289062 -6.78955078 208.24023438 C-0.84955078 208.24023438 5.09044922 208.24023438 11.21044922 208.24023438 C11.95294922 206.15710938 12.69544922 204.07398438 13.46044922 201.92773438 C16.12700896 194.44655287 16.12700896 194.44655287 20.21044922 192.24023438 C22.6055407 191.37588239 24.96366276 190.59415529 27.39794922 189.86523438 C31.92963592 188.45361806 36.08941826 186.93238722 40.14794922 184.42773438 C44.26298856 181.99716908 47.49392309 181.21411991 52.21044922 182.24023438 C54.59974276 183.1975341 56.86213421 184.25021719 59.13232422 185.46289062 C61.76067777 186.44605295 62.64648725 186.37923449 65.21044922 185.24023438 C67.91333981 183.12699434 67.91333981 183.12699434 70.52294922 180.49023438 C71.42658203 179.62914062 72.33021484 178.76804688 73.26123047 177.88085938 C75.49292145 175.43500842 75.49292145 175.43500842 75.10107422 172.61914062 C74.17703823 170.05146447 74.17703823 170.05146447 72.64794922 166.92773438 C71.0086864 162.72266888 70.20462662 159.6247709 71.21044922 155.24023438 C72.51383809 152.32363468 73.92132051 149.49478331 75.43188477 146.68017578 C78.01840888 141.83003618 79.73196936 136.9771635 81.19091797 131.66601562 C82.82893975 127.76865346 85.20211036 126.66131443 89.00732422 125.07226562 C91.74169922 124.12825521 94.47607422 123.18424479 97.21044922 122.24023438 C97.21044922 116.30023438 97.21044922 110.36023438 97.21044922 104.24023438 C95.10669922 103.25023437 93.00294922 102.26023437 90.83544922 101.24023438 C89.06041016 100.40492188 89.06041016 100.40492188 87.24951172 99.55273438 C84.45616347 98.10807397 84.45616347 98.10807397 82.21044922 98.24023438 C82.05189453 97.58539063 81.89333984 96.93054688 81.72998047 96.25585938 C79.63771705 88.07175716 77.07197763 79.83789394 72.58154297 72.62304688 C70.60416157 69.18657209 70.55657233 66.05451623 71.21044922 62.24023438 C72.15681431 59.84277615 73.21892628 57.59136823 74.43310547 55.31835938 C75.41885906 52.68307842 75.37578271 51.80396805 74.21044922 49.24023438 C71.91302823 46.57950887 71.91302823 46.57950887 69.14794922 43.99023438 C68.22884766 43.09820312 67.30974609 42.20617187 66.36279297 41.28710938 C65.65251953 40.61164063 64.94224609 39.93617187 64.21044922 39.24023438 C60.92506571 40.30152399 57.84783389 41.40859149 54.71044922 42.86523438 C50.66383632 44.45497516 47.56869706 45.15620618 43.39013672 43.53320312 C41.38183618 42.54954572 39.42086813 41.50355972 37.46044922 40.42773438 C31.49233409 37.28759609 25.7824534 34.85981178 19.21044922 33.24023438 C18.22044922 32.91023438 17.23044922 32.58023438 16.21044922 32.24023438 C15.33154297 30.13085937 15.33154297 30.13085937 14.64794922 27.49023438 C13.6932985 23.88737176 12.61203107 20.74418901 11.21044922 17.24023438 C5.27044922 17.24023438 -0.66955078 17.24023438 -6.78955078 17.24023438 Z " fill="#010101" transform="translate(357.78955078125,29.759765625)"/>
<path d="M0 0 C3.00952259 3.02721526 3.64722398 5.99911238 4.38671875 10.12890625 C4.60263672 11.32966797 4.81855469 12.53042969 5.04101562 13.76757812 C5.25435547 15.01990234 5.46769531 16.27222656 5.6875 17.5625 C6.02491211 19.40038086 6.02491211 19.40038086 6.36914062 21.27539062 C9.65673727 40.03167906 9.65673727 40.03167906 6.5 45.6875 C3.05872543 47.49416915 -0.20585891 48.00781873 -4 47 C-7.6046454 44.18469301 -8.70476713 41.63997804 -9.75 37.25 C-10.11351563 35.77273437 -10.11351563 35.77273437 -10.484375 34.265625 C-10.65453125 33.51796875 -10.8246875 32.7703125 -11 32 C-33.5169898 66.32346454 -47.87169096 103.61294203 -55 144 C-55.16516113 144.90008789 -55.33032227 145.80017578 -55.50048828 146.72753906 C-60.73515087 176.51152412 -60.5738144 210.28838715 -55 240 C-54.81727539 241.07072754 -54.63455078 242.14145508 -54.44628906 243.24462891 C-49.7703645 270.46710926 -41.43933887 297.29225289 -29 322 C-28.43152344 323.13526123 -28.43152344 323.13526123 -27.8515625 324.29345703 C-22.92634227 334.04266604 -17.68092408 343.57926343 -11.234375 352.421875 C-8.67281384 355.98890877 -7.11479141 358.37386502 -6.3125 362.75 C-7.21280257 367.00597579 -8.44965696 368.50720595 -12 371 C-15.5 371.625 -15.5 371.625 -19 371 C-48.24464623 345.27033529 -62.64604834 293.6998443 -70.375 257.25 C-70.6016333 256.18869873 -70.8282666 255.12739746 -71.06176758 254.03393555 C-75.08409537 233.78312614 -76.55926099 213.49058435 -76.4375 192.875 C-76.43445862 191.77091797 -76.43141724 190.66683594 -76.42828369 189.52929688 C-76.35468961 171.36954873 -75.34855512 153.87457161 -72 136 C-71.80164551 134.89043945 -71.60329102 133.78087891 -71.39892578 132.63769531 C-64.09922651 92.81165108 -48.4688084 53.08496772 -25 20 C-25.72058594 20.15726563 -26.44117188 20.31453125 -27.18359375 20.4765625 C-31.49595738 21.27802814 -35.64250439 21.63929531 -40 21 C-43.42005762 18.31281187 -43.89868502 16.72186921 -44.5 12.4375 C-44 9 -44 9 -42.5 6.6875 C-36.46574265 2.61437629 -27.6317773 2.08819369 -20.5625 0.8125 C-19.57701172 0.62236328 -18.59152344 0.43222656 -17.57617188 0.23632812 C-5.38377797 -1.95329331 -5.38377797 -1.95329331 0 0 Z " fill="#000000" transform="translate(83,37)"/>
<path d="M0 0 C3.00675779 2.23432325 3.90092613 3.60379333 4.81713867 7.26782227 C4.97695046 8.59404703 5.11304856 9.92325813 5.23046875 11.25390625 C5.30533005 11.99081192 5.38019135 12.72771759 5.45732117 13.48695374 C6.40762554 23.94298693 6.34991601 34.44781109 6.3125 44.9375 C6.30926727 46.56564636 6.30926727 46.56564636 6.30596924 48.22668457 C6.25460958 64.34292819 5.84945269 80.09829887 3 96 C2.80664062 97.12035645 2.61328125 98.24071289 2.4140625 99.39501953 C-6.29237972 148.61732054 -25.81996282 194.8242796 -57 234 C-57.44714355 234.56428711 -57.89428711 235.12857422 -58.35498047 235.70996094 C-69.36335554 249.44109839 -82.21026263 263.0546804 -96 274 C-95.32453125 274.04898437 -94.6490625 274.09796875 -93.953125 274.1484375 C-93.06109375 274.22320312 -92.1690625 274.29796875 -91.25 274.375 C-90.36828125 274.44460938 -89.4865625 274.51421875 -88.578125 274.5859375 C-85.97909638 275.00335725 -84.23561121 275.63268421 -82 277 C-79.70031437 280.21955988 -79.44651362 283.12559532 -80 287 C-82.015625 289.66796875 -82.015625 289.66796875 -85 292 C-87.95039674 292.40716083 -90.26499222 292.52492885 -93.1875 292.375 C-93.96762451 292.35284424 -94.74774902 292.33068848 -95.55151367 292.30786133 C-97.19590856 292.25571837 -98.83994923 292.19108821 -100.48339844 292.11474609 C-102.99146048 292.00038937 -105.49804654 291.92870635 -108.0078125 291.86328125 C-109.60946518 291.80720658 -111.21103475 291.74869407 -112.8125 291.6875 C-113.55846436 291.6654248 -114.30442871 291.64334961 -115.07299805 291.62060547 C-119.48970404 291.39524786 -122.52917395 290.80360626 -126 288 C-128.68577313 284.24244217 -128.10632418 280.26522464 -127.828125 275.875 C-127.78564636 275.09108887 -127.74316772 274.30717773 -127.69940186 273.49951172 C-127.60705379 271.84506916 -127.50921131 270.19092536 -127.40625 268.53710938 C-127.25059898 266.00972596 -127.1162229 263.48184961 -126.984375 260.953125 C-126.89189499 259.34367652 -126.79818606 257.73429809 -126.703125 256.125 C-126.64357635 254.99360596 -126.64357635 254.99360596 -126.58282471 253.83935547 C-126.34122991 250.15107119 -126.09721761 247.11013321 -124 244 C-121.34543069 241.93533498 -119.9117824 242.00315063 -116.5 242.125 C-112.55935576 243.11016106 -111.44745696 243.83085702 -109 247 C-108.390625 250.234375 -108.390625 250.234375 -108.25 253.75 C-108.19328125 254.92046875 -108.1365625 256.0909375 -108.078125 257.296875 C-108.05234375 258.18890625 -108.0265625 259.0809375 -108 260 C-95.50822927 249.55067937 -84.11444924 238.84020759 -74 226 C-73.12891838 224.92991843 -72.25646935 223.86094884 -71.3828125 222.79296875 C-42.86256849 187.64295189 -24.63078352 144.67609563 -16.25 100.375 C-16.05116211 99.32779785 -15.85232422 98.2805957 -15.64746094 97.20166016 C-12.73103098 80.92117768 -11.68647809 64.85114999 -11.79418945 48.3293457 C-11.81250778 45.43627062 -11.81469754 42.54351796 -11.81445312 39.65039062 C-11.81588049 28.69896317 -11.81588049 28.69896317 -12.37646484 17.76611328 C-12.4392009 16.94506607 -12.50193695 16.12401886 -12.5665741 15.27809143 C-12.69255726 13.74937943 -12.83747217 12.22205517 -13.00532532 10.69737244 C-13.31614648 6.99855404 -13.15557339 5.2452134 -11.13989258 2.06811523 C-7.3286603 -1.6152788 -5.09988278 -1.14307718 0 0 Z " fill="#000000" transform="translate(499,184)"/>
<path d="M0 0 C9.85753841 6.85824862 17.23037466 16.42957587 19.44140625 28.31640625 C21.02937477 40.06354687 18.60835675 50.94737047 11.515625 60.65234375 C5.05516971 68.15930907 -3.22786298 74.94523117 -13.38818359 75.921875 C-15.86055472 76.06335546 -18.32062871 76.12766276 -20.796875 76.15234375 C-21.58819824 76.16257568 -22.37952148 76.17280762 -23.19482422 76.18334961 C-34.65544012 76.01351872 -43.52963004 71.15208646 -51.921875 63.58984375 C-57.68948098 57.5399074 -61.94508903 49.10413685 -62.234375 40.71484375 C-62.34265625 39.17376953 -62.34265625 39.17376953 -62.453125 37.6015625 C-62.94064233 26.4496036 -60.05229075 17.2138549 -52.9453125 8.51953125 C-38.8345469 -6.36442698 -18.0893928 -10.40456334 0 0 Z " fill="#EAEDEF" transform="translate(381.234375,107.28515625)"/>
<path d="M0 0 C0.78906738 0.00563965 1.57813477 0.0112793 2.39111328 0.01708984 C18.62425196 0.34985766 32.18911005 5.98037933 43.6796875 17.39453125 C54.57193961 29.1865781 59.7761952 43.74158515 59.578125 59.63671875 C58.880635 72.2586051 53.09616416 87.5560662 44.109375 96.80859375 C30.50554133 108.60471078 16.06669905 114.93838728 -1.97265625 114.625 C-19.4716121 113.12776314 -33.3306078 104.08640769 -44.5390625 91.09375 C-54.00566292 78.08324276 -55.83759125 61.90437495 -54.625 46.3125 C-51.60457141 30.72708847 -42.33473571 18.08860642 -29.53125 9.13671875 C-20.33584856 3.36487403 -10.88366902 -0.08193771 0 0 Z M-30.875 32 C-38.45157983 43.02625165 -40.29785929 53.94167926 -37.9375 67.0625 C-35.03039288 77.814814 -29.13213755 86.06948976 -19.7734375 92.171875 C-9.06986683 98.23049991 3.4660111 99.14508012 15.52734375 96.6640625 C26.280224 92.68906411 35.09622698 84.32658405 39.91796875 74.01171875 C44.37157611 62.59701081 44.78756428 52.80181831 40.375 41.3125 C35.18634759 30.41794634 27.66932737 22.70757762 16.375 18.3125 C-1.38024112 12.41492578 -18.99775824 17.46997327 -30.875 32 Z " fill="#030303" transform="translate(357.625,85.6875)"/>
<path d="M0 0 C6.6 0 13.2 0 20 0 C20 33 20 66 20 100 C13.4 100 6.8 100 0 100 C0 67 0 34 0 0 Z " fill="#FEE076" transform="translate(240,262)"/>
<path d="M0 0 C36.3 0 72.6 0 110 0 C110 12 110 12 108.125 15.1875 C103.9744231 18.72769795 99.99088263 18.16842278 94.7644043 18.19287109 C93.80654022 18.20104858 92.84867615 18.20922607 91.86178589 18.21765137 C88.68260326 18.2425241 85.50346531 18.25902557 82.32421875 18.2734375 C81.24006998 18.27876118 80.15592121 18.28408485 79.03891945 18.28956985 C73.30142549 18.31630867 67.56395335 18.33568188 61.82641602 18.35009766 C55.89436382 18.36675388 49.96286629 18.41153818 44.03102398 18.4624691 C39.47485196 18.49609135 34.91881244 18.50766958 30.36252785 18.51332474 C28.17561411 18.5200503 25.98870949 18.53530602 23.80191612 18.55921555 C20.74207449 18.5907636 17.68374024 18.59091922 14.6237793 18.58349609 C13.71917465 18.59990143 12.81457001 18.61630676 11.8825531 18.63320923 C7.84272036 18.5930588 5.4773524 18.26533747 1.89851379 16.27603149 C0 13 0 13 0 0 Z " fill="#EBEEF0" transform="translate(195,378)"/>
<path d="M0 0 C25.08 0 50.16 0 76 0 C76 12 76 12 73.625 15.6875 C69.8341715 19.02703939 68.04376942 19.13246865 63.0690918 19.17700195 C61.82407394 19.18983719 60.57905609 19.20267242 59.29631042 19.21589661 C57.93061724 19.22406428 56.56491956 19.23150796 55.19921875 19.23828125 C54.51224222 19.24235678 53.82526569 19.2464323 53.11747169 19.25063133 C49.48074265 19.27149176 45.84405133 19.28579304 42.20727539 19.29516602 C38.45443992 19.30622525 34.70219826 19.34061858 30.94957256 19.38033772 C28.06102918 19.40650911 25.17262711 19.41485829 22.2839756 19.41844749 C20.90089728 19.42331289 19.51782525 19.43492574 18.1348629 19.45348549 C16.19641825 19.47788099 14.25768468 19.47449171 12.3190918 19.4699707 C10.66601265 19.47877007 10.66601265 19.47877007 8.97953796 19.48774719 C5.28438227 18.88285414 3.63147126 17.62002307 1 15 C0 12 0 12 0 0 Z " fill="#C7C7CC" transform="translate(212,412)"/>
<path d="M0 0 C3.652579 2.64832224 5.36785711 6.09575883 6.76171875 10.27734375 C6.84278561 11.83156104 6.86928773 13.38901402 6.859375 14.9453125 C6.85615234 15.83798828 6.85292969 16.73066406 6.84960938 17.65039062 C6.83704102 19.04354492 6.83704102 19.04354492 6.82421875 20.46484375 C6.81970703 21.40521484 6.81519531 22.34558594 6.81054688 23.31445312 C6.79876501 25.63548087 6.78231433 27.95638019 6.76171875 30.27734375 C3.40785114 30.39453305 0.05451726 30.46491959 -3.30078125 30.52734375 C-4.24373047 30.56085938 -5.18667969 30.594375 -6.15820312 30.62890625 C-12.4562456 30.71668385 -16.10712977 29.99556946 -21.23828125 26.27734375 C-26.08065664 20.92524464 -26.65481569 17.43870199 -26.578125 10.33203125 C-26.08116229 5.86507906 -24.62379838 3.20119946 -21.23828125 0.27734375 C-13.9425259 -3.98998485 -7.24613005 -4.00031934 0 0 Z " fill="#F8DB73" transform="translate(217.23828125,215.72265625)"/>
<path d="M0 0 C13.2 0 26.4 0 40 0 C40 12.67857143 40 12.67857143 37 16 C31.70951699 19.39052331 25.11230623 18.41007015 19.0625 18.4375 C17.14920898 18.48680664 17.14920898 18.48680664 15.19726562 18.53710938 C6.16101614 18.58923247 6.16101614 18.58923247 1.62109375 16.28515625 C0 13 0 13 0 0 Z " fill="#B0B0B4" transform="translate(230,447)"/>
<path d="M0 0 C4.41803972 4.66184459 7.55162977 9.956733 10.75 15.5 C11.24371094 16.32886719 11.73742187 17.15773438 12.24609375 18.01171875 C14.72691659 22.28689016 16.81597923 25.93942872 17 31 C15.39588152 34.52906067 14.25840638 35.82772908 11 38 C7.3212216 38.47984066 5.60870014 38.41551986 2.51293945 36.30224609 C-1.70028134 32.44227601 -4.05152987 27.5744314 -6.8125 22.625 C-7.40998047 21.59632812 -8.00746094 20.56765625 -8.62304688 19.5078125 C-9.18701172 18.5075 -9.75097656 17.5071875 -10.33203125 16.4765625 C-10.84483643 15.56986816 -11.3576416 14.66317383 -11.88598633 13.72900391 C-13.17310869 10.57593491 -13.33370407 8.37660808 -13 5 C-9.45031244 -0.50813587 -6.34558445 -1.90367534 0 0 Z " fill="#000000" transform="translate(162,79)"/>
<path d="M0 0 C2.96606445 1.23754883 2.96606445 1.23754883 5.86328125 2.95703125 C7.44012695 3.88418945 7.44012695 3.88418945 9.04882812 4.83007812 C10.12583984 5.48427734 11.20285156 6.13847656 12.3125 6.8125 C13.95702148 7.77639648 13.95702148 7.77639648 15.63476562 8.75976562 C23.71226134 13.568392 23.71226134 13.568392 26 17 C26.65753425 23.90410959 26.65753425 23.90410959 24.5 27.5 C20.95299264 29.62820442 17.97541713 29.72091817 14 29 C9.85712716 27.25748524 6.05029559 25.03779397 2.1875 22.75 C1.15173828 22.16347656 0.11597656 21.57695312 -0.95117188 20.97265625 C-9.60107233 15.97043961 -9.60107233 15.97043961 -12 12 C-12.63940864 7.60406563 -12.51187502 5.72903411 -9.9375 2.0625 C-6.23805024 -0.534986 -4.45511059 -0.37950395 0 0 Z " fill="#000000" transform="translate(94,146)"/>
<path d="M0 0 C3.12170937 2.32292117 3.92755586 3.52132191 4.51757812 7.41992188 C4.54385512 8.76928311 4.54711746 10.11922621 4.53125 11.46875 C4.5350769 12.186073 4.53890381 12.903396 4.54284668 13.64245605 C4.54556227 15.15536914 4.53822555 16.66832945 4.52148438 18.18115234 C4.50006551 20.49292976 4.52129351 22.80160013 4.546875 25.11328125 C4.54423166 26.58594434 4.53910653 28.0586055 4.53125 29.53125 C4.53934692 30.21989136 4.54744385 30.90853271 4.55578613 31.61804199 C4.49064053 34.9633622 4.21206007 36.72389644 2.15039062 39.40820312 C-0.65424799 41.48429801 -2.51644639 41.92890707 -6 42 C-9.52906067 40.39588152 -10.82772908 39.25840638 -13 36 C-13.38697374 31.75188824 -13.32915033 27.49452271 -13.31567383 23.23095703 C-13.31252127 21.1391148 -13.33595219 19.04869791 -13.36132812 16.95703125 C-13.3636021 15.61979344 -13.36430416 14.28255185 -13.36328125 12.9453125 C-13.36626221 11.73375488 -13.36924316 10.52219727 -13.37231445 9.27392578 C-12.96810294 5.71951505 -12.13692031 3.83859078 -10 1 C-6.87057535 -0.56471233 -3.38917777 -0.69701958 0 0 Z " fill="#000000" transform="translate(254,54)"/>
<path d="M0 0 C36.3 0 72.6 0 110 0 C110 3.96 110 7.92 110 12 C108.68 13.32 107.36 14.64 106 16 C106 11.05 106 6.1 106 1 C71.02 1 36.04 1 0 1 C0 0.67 0 0.34 0 0 Z " fill="#DCDFE1" transform="translate(195,378)"/>
<path d="M0 0 C3.96 0 7.92 0 12 0 C11.67 1.98 11.34 3.96 11 6 C10.40832031 5.9071875 9.81664062 5.814375 9.20703125 5.71875 C6.61047214 5.48154395 4.55114735 5.42641989 2 6 C0.18826331 7.88938255 -0.85972316 9.71944633 -2.02734375 12.0546875 C-3 14 -3 14 -5 16 C-4.02551228 10.38900227 -1.98893476 5.32521242 0 0 Z " fill="#E8BE5C" transform="translate(342,254)"/>
<path d="M0 0 C0.33 0 0.66 0 1 0 C0.18914172 9.68762264 -0.90555906 19.34129307 -2 29 C-2.99 29 -3.98 29 -5 29 C-5.13806322 23.39588844 -4.71777854 18.30266142 -3.625 12.8125 C-3.43550781 11.78479492 -3.43550781 11.78479492 -3.2421875 10.73632812 C-2.51576654 6.96257122 -1.56774106 3.51037671 0 0 Z " fill="#ECC15D" transform="translate(308,333)"/>
<path d="M0 0 C0.99 0 1.98 0 3 0 C3.08107583 1.93681161 3.13922475 3.8745934 3.1875 5.8125 C3.23970703 7.43091797 3.23970703 7.43091797 3.29296875 9.08203125 C3 12 3 12 0 15 C0 10.05 0 5.1 0 0 Z " fill="#BCBCC1" transform="translate(302,378)"/>
<path d="M0 0 C1.20963046 3.62889137 0.68301064 4.3467885 -0.8125 7.75 C-2.52954031 11.80197747 -3.89007805 15.74529919 -5 20 C-5.66 20 -6.32 20 -7 20 C-5.69039355 12.73763698 -3.24043814 6.6169252 0 0 Z " fill="#ECC25E" transform="translate(317,305)"/>
</svg>
