<?xml version="1.0" encoding="UTF-8"?>
<svg version="1.1" xmlns="http://www.w3.org/2000/svg" width="512" height="512">
<path d="M0 0 C5.25754291 0.08010441 10.51366037 0.005266 15.77129364 -0.04297113 C24.59228446 -0.098931 33.40515819 -0.0262945 42.22490692 0.12258673 C52.33523006 0.29131398 62.4261771 0.23662694 72.53603172 0.06596816 C81.31069506 -0.07605833 90.07962154 -0.09394504 98.8550663 -0.0134331 C104.05502891 0.03420823 109.2459723 0.04342729 114.44530487 -0.06106424 C148.51436335 -0.65467986 148.51436335 -0.65467986 158.85540074 9.22776443 C162.09127617 12.61676888 165.15373596 16.12752978 168.16265106 19.71853399 C176.54450265 29.71514622 183.07274301 36.61737997 196.4506442 38.29617172 C206.15897124 39.14871011 215.89222339 38.88101469 225.61702037 38.50923181 C230.91459427 38.3407174 236.21209807 38.35326948 241.51190948 38.34452581 C251.49558079 38.30159817 261.46934368 38.10188889 271.44947106 37.84206349 C282.83240541 37.55363035 294.21498223 37.44565064 305.6009177 37.35088003 C328.9746654 37.15238533 352.33502676 36.7098649 375.70342255 36.16409063 C375.70342255 57.28409063 375.70342255 78.40409063 375.70342255 100.16409063 C396.82342255 100.16409063 417.94342255 100.16409063 439.70342255 100.16409063 C439.70342255 205.76409063 439.70342255 311.36409063 439.70342255 420.16409063 C317.60250388 420.32541603 317.60250388 420.32541603 266.67412567 420.35940313 C255.75856633 420.36672498 244.84300713 420.37423336 233.92744824 420.38219461 C232.44686428 420.38327397 230.96628032 420.38434746 229.48569635 420.38541499 C205.88271024 420.40248199 182.27976246 420.43249682 158.67679951 420.46927952 C134.41834905 420.50701505 110.15991978 420.53163361 85.90144047 420.53975059 C82.47500595 420.54090321 79.0485715 420.54220576 75.62213707 420.54359961 C74.61058113 420.54400414 74.61058113 420.54400414 73.57858971 420.54441685 C62.72360476 420.5491435 51.86868535 420.56769512 41.01372713 420.59141877 C30.10049574 420.61497466 19.18733242 420.62363703 8.27407683 420.61809614 C2.36113336 420.6155301 -3.55161773 420.61950822 -9.46452713 420.64091253 C-14.87758747 420.66036456 -20.29032588 420.66136915 -25.70340098 420.64768621 C-27.66183188 420.64599486 -29.62028279 420.65108029 -31.57867425 420.66362336 C-50.11025429 420.77541437 -50.11025429 420.77541437 -57.29657745 416.16409063 C-58.32782745 415.62784063 -59.35907745 415.09159063 -60.42157745 414.53909063 C-66.30186187 409.68146437 -70.2018491 403.46694559 -72.29657745 396.16409063 C-72.58064514 393.13982779 -72.58064514 393.13982779 -72.62926579 389.87452555 C-72.65236555 388.62419112 -72.67546531 387.37385669 -72.69926506 386.08563334 C-72.71497673 384.70582836 -72.73044269 383.32602057 -72.74568939 381.94621038 C-72.76876868 380.4740608 -72.79261049 379.00192301 -72.81714815 377.52979702 C-72.88176354 373.48732988 -72.93372031 369.44478603 -72.98313916 365.40210807 C-73.02698675 361.93309783 -73.07788868 358.46420335 -73.12848932 354.99528611 C-73.60649308 322.02271337 -73.86146145 289.04707408 -74.06701756 256.07181406 C-74.09428936 251.77403766 -74.12208092 247.47626497 -74.15033722 243.17849493 C-74.15733784 242.11040763 -74.16433846 241.04232033 -74.17155122 239.94186675 C-74.28793396 222.6925377 -74.5197337 205.44667974 -74.79658515 188.19926197 C-75.0790629 170.4522078 -75.24180586 152.7069475 -75.29466146 134.95770878 C-75.32753125 125.00685932 -75.41347976 115.06264112 -75.63533974 105.11405897 C-77.17205854 33.7535811 -77.17205854 33.7535811 -61.35199249 16.70494521 C-44.4168851 0.4597163 -22.23636027 -0.44688645 0 0 Z " fill="#FBC14E" transform="translate(72.29657745361328,43.835909366607666)"/>
<path d="M0 0 C73.92 0 147.84 0 224 0 C224 35.64 224 71.28 224 108 C219.38 112.62 214.76 117.24 210 122 C209.67 122 209.34 122 209 122 C209 111.44 209 100.88 209 90 C199.1 90 189.2 90 179 90 C179 135.21 179 180.42 179 227 C188.9 227 198.8 227 209 227 C209 216.44 209 205.88 209 195 C211.31 196.98 213.62 198.96 216 201 C216.79239075 201.54721207 217.58478149 202.09442413 218.40118408 202.65821838 C221.38825653 204.94067657 223.55069663 207.10333696 224.44139099 210.86326218 C225.19341968 216.64444347 225.01859516 222.46126366 224.921875 228.27734375 C224.91709965 230.17248533 224.91529688 232.0676365 224.9163208 233.96278381 C224.91008019 237.92656113 224.87708055 241.88888365 224.82324219 245.85229492 C224.75532815 250.91402553 224.73998462 255.97415917 224.74302292 261.03629208 C224.74193116 264.94766783 224.71992709 268.85869962 224.69101715 272.7699604 C224.67835461 274.63531458 224.67042068 276.50070744 224.66744232 278.36610222 C224.60535386 296.92779284 224.60535386 296.92779284 220 304 C219.51917969 304.80953125 219.03835938 305.6190625 218.54296875 306.453125 C212.40327497 314.59220032 206.10364764 318.3022246 196 320 C188.74897182 320.55196664 181.45477731 320.37966023 174.1887207 320.34057617 C171.98022981 320.33972901 169.77173808 320.34020677 167.56324768 320.34190369 C161.59294032 320.34276159 155.62281515 320.32516888 149.65254998 320.30418181 C143.40388945 320.28538091 137.15522437 320.28366188 130.90653992 320.28010559 C120.42667564 320.27185183 109.94687343 320.25313517 99.46704102 320.22631836 C88.67765635 320.19873832 77.8882898 320.17752411 67.09887695 320.16479492 C66.4326799 320.16400675 65.76648285 320.16321858 65.08009801 320.16240653 C61.73764314 320.15849112 58.39518814 320.15470685 55.05273306 320.15097082 C27.36844243 320.11964449 -0.31577409 320.06690345 -28 320 C-28 319.67 -28 319.34 -28 319 C-27.38253906 318.85304688 -26.76507813 318.70609375 -26.12890625 318.5546875 C-17.34729911 316.22896506 -10.54172346 312.97360647 -5.5625 305.125 C-0.90461016 297.08317309 -0.70579815 288.9997663 -0.7215271 279.95251465 C-0.7157347 278.75328196 -0.7099423 277.55404927 -0.70397437 276.3184762 C-0.68995607 273.00722913 -0.68474755 269.69618406 -0.68332577 266.38492203 C-0.67961955 262.80763608 -0.66445801 259.23039611 -0.65071106 255.65313721 C-0.6284727 249.46107977 -0.61343886 243.26903876 -0.60334396 237.07695007 C-0.58873809 228.1243135 -0.56319592 219.1717342 -0.53501268 210.21913129 C-0.48957934 195.69297771 -0.45295025 181.16681587 -0.421875 166.640625 C-0.39167528 152.53253732 -0.35729586 138.42446993 -0.31738281 124.31640625 C-0.31366055 122.99795589 -0.31366055 122.99795589 -0.30986309 121.65287018 C-0.29042255 114.77843549 -0.27074014 107.9040015 -0.25098133 101.02956772 C-0.15424869 67.35306982 -0.07860621 33.67655451 0 0 Z " fill="#FEE34A" transform="translate(64,144)"/>
<path d="M0 0 C5.25754291 0.08010441 10.51366037 0.005266 15.77129364 -0.04297113 C24.59228446 -0.098931 33.40515819 -0.0262945 42.22490692 0.12258673 C52.33523006 0.29131398 62.4261771 0.23662694 72.53603172 0.06596816 C81.31069506 -0.07605833 90.07962154 -0.09394504 98.8550663 -0.0134331 C104.05502891 0.03420823 109.2459723 0.04342729 114.44530487 -0.06106424 C148.51436335 -0.65467986 148.51436335 -0.65467986 158.85540074 9.22776443 C162.09127617 12.61676888 165.15373596 16.12752978 168.16265106 19.71853399 C176.54450265 29.71514622 183.07274301 36.61737997 196.4506442 38.29617172 C206.15897124 39.14871011 215.89222339 38.88101469 225.61702037 38.50923181 C230.91459427 38.3407174 236.21209807 38.35326948 241.51190948 38.34452581 C251.49558079 38.30159817 261.46934368 38.10188889 271.44947106 37.84206349 C282.83240541 37.55363035 294.21498223 37.44565064 305.6009177 37.35088003 C328.9746654 37.15238533 352.33502676 36.7098649 375.70342255 36.16409063 C375.70342255 57.28409063 375.70342255 78.40409063 375.70342255 100.16409063 C248.98342255 100.16409063 122.26342255 100.16409063 -8.29657745 100.16409063 C-8.17778847 195.8113327 -8.17778847 195.8113327 -8.02631378 291.45852423 C-8.01276398 309.94851446 -8.01276398 309.94851446 -8.01024628 318.60174322 C-8.00744892 324.65133934 -7.99644546 330.70085232 -7.97985077 336.75042486 C-7.96073369 343.72986724 -7.95207455 350.70922988 -7.9562426 357.68869863 C-7.95804728 361.25782366 -7.95521682 364.82677058 -7.93893206 368.39586282 C-7.92157794 372.22267414 -7.92761104 376.04924993 -7.9358139 379.87609625 C-7.92707591 380.98280487 -7.91833792 382.08951349 -7.90933514 383.22975874 C-7.97002194 393.77043396 -10.22082802 403.09959018 -17.29657745 411.16409063 C-25.37949954 418.25600311 -34.78848559 420.80567591 -45.4020462 420.51955938 C-49.88975165 419.96843766 -53.40320054 418.39110223 -57.29657745 416.16409063 C-58.32782745 415.62784063 -59.35907745 415.09159063 -60.42157745 414.53909063 C-66.30186187 409.68146437 -70.2018491 403.46694559 -72.29657745 396.16409063 C-72.58064514 393.13982779 -72.58064514 393.13982779 -72.62926579 389.87452555 C-72.65236555 388.62419112 -72.67546531 387.37385669 -72.69926506 386.08563334 C-72.71497673 384.70582836 -72.73044269 383.32602057 -72.74568939 381.94621038 C-72.76876868 380.4740608 -72.79261049 379.00192301 -72.81714815 377.52979702 C-72.88176354 373.48732988 -72.93372031 369.44478603 -72.98313916 365.40210807 C-73.02698675 361.93309783 -73.07788868 358.46420335 -73.12848932 354.99528611 C-73.60649308 322.02271337 -73.86146145 289.04707408 -74.06701756 256.07181406 C-74.09428936 251.77403766 -74.12208092 247.47626497 -74.15033722 243.17849493 C-74.15733784 242.11040763 -74.16433846 241.04232033 -74.17155122 239.94186675 C-74.28793396 222.6925377 -74.5197337 205.44667974 -74.79658515 188.19926197 C-75.0790629 170.4522078 -75.24180586 152.7069475 -75.29466146 134.95770878 C-75.32753125 125.00685932 -75.41347976 115.06264112 -75.63533974 105.11405897 C-77.17205854 33.7535811 -77.17205854 33.7535811 -61.35199249 16.70494521 C-44.4168851 0.4597163 -22.23636027 -0.44688645 0 0 Z " fill="#F59444" transform="translate(72.29657745361328,43.835909366607666)"/>
<path d="M0 0 C11.67244302 6.54228812 19.27402559 16.26648385 23.30761719 29.07543945 C24.70445145 34.88478714 24.56306917 40.74699055 24.57421875 46.69140625 C24.58420395 48.55923515 24.58420395 48.55923515 24.59439087 50.46479797 C24.60448741 53.09297211 24.60920882 55.72117173 24.60888672 58.34936523 C24.60864438 62.33673304 24.64957136 66.32336033 24.6875 70.31054688 C24.69337135 72.87499625 24.69733861 75.43945084 24.69921875 78.00390625 C24.71358978 79.1803923 24.72796082 80.35687836 24.74276733 81.5690155 C24.66591446 95.73742815 20.23656184 108.27295145 10.73828125 118.8671875 C1.22779272 127.8838622 -11.77987881 132.21366755 -24.68359375 131.921875 C-36.98551615 130.95395725 -47.46746511 125.02501079 -55.91015625 116.11328125 C-64.64460501 104.63319353 -67.07322707 92.63937673 -67.0625 78.5625 C-67.06678513 77.31016571 -67.07107025 76.05783142 -67.07548523 74.76754761 C-67.0812113 72.12662589 -67.08268478 69.48609723 -67.07739258 66.84521484 C-67.07275586 64.15494089 -67.07969899 61.46511823 -67.09790039 58.77490234 C-67.12250815 54.87063 -67.12655179 50.96684053 -67.125 47.0625 C-67.13420975 45.87053009 -67.14341949 44.67856018 -67.15290833 43.45046997 C-67.07792867 29.79229319 -62.98272242 17.83732749 -53.44921875 7.8046875 C-46.74663393 1.51750576 -39.47859044 -1.72975625 -30.76171875 -4.3203125 C-20.48132057 -7.74711189 -9.42956438 -4.50805199 0 0 Z " fill="#3574FD" transform="translate(201.76171875,239.3203125)"/>
<path d="M0 0 C63.28302632 0 63.28302632 0 78.1875 13.5625 C88.7181711 24.62826617 90.56547478 36.20364956 90.34375 50.69921875 C89.83126167 62.81743245 83.32990135 71.99204508 74.875 80.1875 C69.84669354 84.5453656 64.22394506 86.80950834 58 89 C60.97893451 92.64919477 63.8996873 96.02085651 67.5 99.0625 C74.05454564 104.61850157 79.96743489 110.89118056 86 117 C84.51346494 120.46629835 82.54277649 122.69022036 79.8671875 125.328125 C79.06152344 126.12734375 78.25585938 126.9265625 77.42578125 127.75 C76.58402344 128.575 75.74226563 129.4 74.875 130.25 C74.02550781 131.09046875 73.17601562 131.9309375 72.30078125 132.796875 C70.20495077 134.86915683 68.10459287 136.93662393 66 139 C63.09456128 137.68623083 61.03338941 136.27943508 58.79199219 134.01904297 C58.19167175 133.41857147 57.59135132 132.81809998 56.97283936 132.19943237 C56.33727112 131.55354156 55.70170288 130.90765076 55.046875 130.2421875 C54.38665344 129.57913605 53.72643188 128.91608459 53.04620361 128.23294067 C50.94272176 126.11828168 48.84630858 123.99676788 46.75 121.875 C45.32337739 120.43834443 43.89629928 119.00214102 42.46875 117.56640625 C38.97297861 114.05031061 35.48685311 110.52503034 32 107 C31.67 116.9 31.34 126.8 31 137 C20.77 137 10.54 137 0 137 C0 91.79 0 46.58 0 0 Z " fill="#2757C7" transform="translate(350,234)"/>
<path d="M0 0 C52.8 0 105.6 0 160 0 C160 21.12 160 42.24 160 64 C107.2 64 54.4 64 0 64 C0 42.88 0 21.76 0 0 Z " fill="#F26E35" transform="translate(288,80)"/>
<path d="M0 0 C5.25804109 1.97718306 8.91062684 6.50207726 12.8125 10.375 C13.61365234 11.14328125 14.41480469 11.9115625 15.24023438 12.703125 C15.99240234 13.44820312 16.74457031 14.19328125 17.51953125 14.9609375 C18.55750854 15.97873291 18.55750854 15.97873291 19.61645508 17.01708984 C21 19 21 19 20.86322021 20.82589722 C19.67206335 23.82593985 17.86212294 25.49677404 15.57202148 27.76855469 C15.11345764 28.22755661 14.6548938 28.68655853 14.18243408 29.1594696 C12.66899112 30.670827 11.14520986 32.17128789 9.62109375 33.671875 C8.56811838 34.7192536 7.51580457 35.76729769 6.46412659 36.815979 C3.69730031 39.57136295 0.9215829 42.31761824 -1.8560791 45.06207275 C-4.69007411 47.86535382 -7.51557253 50.67716993 -10.34179688 53.48828125 C-15.88624795 59.00057896 -21.44011909 64.50326105 -27 70 C-22.08072341 75.95978636 -16.71702566 81.33415035 -11.19140625 86.73046875 C-9.77673382 88.12486576 -8.36207564 89.51927761 -6.94829464 90.91457844 C-3.48661729 94.33073246 -0.0209039 97.7425668 3.46069336 101.13842773 C5.42565783 103.0556003 7.38391935 104.97915238 9.3349762 106.91047668 C11.16796784 108.72463557 13.01064368 110.5290705 14.8636322 112.32279968 C15.68521317 113.1407753 16.50679413 113.95875092 17.35327148 114.80151367 C18.08352036 115.51764328 18.81376923 116.23377289 19.56614685 116.97160339 C21 119 21 119 20.83432007 121.12976074 C18.83811725 125.60451452 14.60764835 128.90294855 11.1875 132.3125 C10.36701172 133.16134766 9.54652344 134.01019531 8.70117188 134.88476562 C7.90646484 135.68205078 7.11175781 136.47933594 6.29296875 137.30078125 C5.20278442 138.40160034 5.20278442 138.40160034 4.09057617 139.5246582 C2 141 2 141 -0.02685547 140.95214844 C-2.45350495 139.78115945 -3.97036594 138.385114 -5.86328125 136.46484375 C-6.58580078 135.73716797 -7.30832031 135.00949219 -8.05273438 134.25976562 C-8.79845703 133.49341797 -9.54417969 132.72707031 -10.3125 131.9375 C-11.04662109 131.19822266 -11.78074219 130.45894531 -12.53710938 129.69726562 C-16.54670566 125.63074517 -20.40685962 121.48376833 -24.09057617 117.11938477 C-26.93511562 113.96205873 -29.99499481 111.00500519 -33 108 C-33.33 118.23 -33.66 128.46 -34 139 C-43.9 139 -53.8 139 -64 139 C-64 93.79 -64 48.58 -64 2 C-54.1 2 -44.2 2 -34 2 C-33.505 17.345 -33.505 17.345 -33 33 C-23.63505218 23.78252088 -23.63505218 23.78252088 -14.82421875 14.05078125 C-12.37153966 11.29348677 -9.79140359 8.67649298 -7.1875 6.0625 C-6.46602783 5.33426025 -6.46602783 5.33426025 -5.72998047 4.59130859 C-2.24765429 1.12382715 -2.24765429 1.12382715 0 0 Z " fill="#3473FE" transform="translate(307,232)"/>
<path d="M0 0 C4.84692177 2.75804317 7.86208546 5.84169061 9.90625 11.12890625 C10.48085253 15.05847982 10.46733866 18.94021303 10.4375 22.90625 C10.4413269 24.03156631 10.44515381 25.15688263 10.44909668 26.31629944 C10.45181077 28.68898415 10.44448498 31.06169904 10.42773438 33.43432617 C10.40633934 37.05130272 10.42754464 40.6662884 10.453125 44.28320312 C10.45048125 46.59505644 10.44535529 48.90690852 10.4375 51.21875 C10.44559692 52.29293686 10.45369385 53.36712372 10.46203613 54.47386169 C10.37171229 61.76560007 9.42851075 67.64295747 4.01171875 73.00390625 C-0.50538627 75.65345054 -3.72536279 77.00736961 -9.09375 76.12890625 C-14.45248503 74.10524893 -17.2988588 71.18120957 -20.09375 66.12890625 C-21.07679202 63.17978018 -21.23693889 61.20357024 -21.27075195 58.12597656 C-21.28358719 57.1077179 -21.29642242 56.08945923 -21.30964661 55.04034424 C-21.31703354 53.94035095 -21.32442047 52.84035767 -21.33203125 51.70703125 C-21.340103 50.57368347 -21.34817474 49.44033569 -21.35649109 48.27264404 C-21.37032902 45.87188241 -21.38105247 43.47110113 -21.38891602 41.0703125 C-21.40611728 37.40717054 -21.4500063 33.74493373 -21.49414062 30.08203125 C-21.50426871 27.74870455 -21.51278445 25.41537018 -21.51953125 23.08203125 C-21.53703934 21.99013489 -21.55454742 20.89823853 -21.57258606 19.77325439 C-21.55425184 13.31291803 -20.95248893 9.37633198 -17.09375 4.12890625 C-12.12439595 -0.47683653 -6.66704557 -2.77378948 0 0 Z " fill="#F9E14E" transform="translate(186.09375,264.87109375)"/>
<path d="M0 0 C7.61515047 6.39093333 14.62818105 13.33379227 21.68212891 20.33203125 C23.23641459 21.86961826 24.79606423 23.40180063 26.36083984 24.92871094 C28.6276595 27.14109663 30.87788798 29.3691843 33.125 31.6015625 C33.83003662 32.28392975 34.53507324 32.966297 35.26147461 33.66934204 C35.89964111 34.31035858 36.53780762 34.95137512 37.1953125 35.61181641 C37.76266113 36.17107819 38.33000977 36.73033997 38.91455078 37.30654907 C40 39 40 39 39.7816925 41.07911682 C37.93983781 45.6051775 33.59037252 48.92017085 30.1875 52.3125 C29.36701172 53.16134766 28.54652344 54.01019531 27.70117188 54.88476562 C26.50911133 56.08069336 26.50911133 56.08069336 25.29296875 57.30078125 C24.5661792 58.03466064 23.83938965 58.76854004 23.09057617 59.5246582 C21 61 21 61 18.98852539 60.87524414 C11.55097681 57.60162699 4.49964313 52.32344552 0.72369385 44.97601318 C-4.136653 31.70505686 -1.01377941 13.81951069 0 0 Z " fill="#2657C8" transform="translate(288,312)"/>
<path d="M0 0 C5.25804109 1.97718306 8.91062684 6.50207726 12.8125 10.375 C13.61365234 11.14328125 14.41480469 11.9115625 15.24023438 12.703125 C15.99240234 13.44820312 16.74457031 14.19328125 17.51953125 14.9609375 C18.55750854 15.97873291 18.55750854 15.97873291 19.61645508 17.01708984 C21 19 21 19 20.81059265 20.87753296 C19.79366727 23.54026447 18.43448638 24.93295535 16.4140625 26.94238281 C15.27783447 28.08311249 15.27783447 28.08311249 14.11865234 29.24688721 C13.29574707 30.05744568 12.4728418 30.86800415 11.625 31.703125 C10.78533691 32.54091492 9.94567383 33.37870483 9.08056641 34.24188232 C7.30525307 36.01047349 5.52634573 37.77546323 3.74414062 39.53710938 C1.0038937 42.24615064 -1.72549077 44.96576548 -4.453125 47.6875 C-6.17646054 49.40166801 -7.90039833 51.11523083 -9.625 52.828125 C-10.44790527 53.6467804 -11.27081055 54.46543579 -12.11865234 55.30889893 C-13.25488037 56.43071564 -13.25488037 56.43071564 -14.4140625 57.57519531 C-15.41880615 58.56969696 -15.41880615 58.56969696 -16.44384766 59.58428955 C-18 61 -18 61 -19 61 C-21.95269924 20.74976598 -21.95269924 20.74976598 -15.28515625 11.39453125 C-10.85933207 6.61422185 -5.8154672 2.9077336 0 0 Z " fill="#2757C7" transform="translate(307,232)"/>
<path d="M0 0 C2.97 -0.103125 5.94 -0.20625 9 -0.3125 C9.91910156 -0.35802002 10.83820313 -0.40354004 11.78515625 -0.45043945 C18.04193902 -0.55440615 22.20933422 0.93151662 27 5 C30.17077047 8.68211604 31.32075709 11.66889823 31 16.5625 C30.24920331 20.8486015 28.96821409 23.7273537 26 27 C20.30988066 30.88271907 15.24390839 31.53329429 8.5 31.25 C5.695 31.1675 2.89 31.085 0 31 C0 20.77 0 10.54 0 0 Z " fill="#F3BD53" transform="translate(380,264)"/>
<path d="M0 0 C0 4.95 0 9.9 0 15 C-4.53786224 12.73106888 -5.94678157 10.90133466 -9 7 C-7.88121617 5.82737096 -6.75476949 4.66204862 -5.625 3.5 C-4.68527344 2.52546875 -4.68527344 2.52546875 -3.7265625 1.53125 C-2 0 -2 0 0 0 Z " fill="#F7DF50" transform="translate(288,295)"/>
</svg>
