<?xml version="1.0" encoding="UTF-8"?>
<svg version="1.1" xmlns="http://www.w3.org/2000/svg" width="1024" height="1024">
<path d="M0 0 C337.92 0 675.84 0 1024 0 C1024 337.92 1024 675.84 1024 1024 C686.08 1024 348.16 1024 0 1024 C0 686.08 0 348.16 0 0 Z " fill="#0074DF" transform="translate(0,0)"/>
<path d="M0 0 C337.92 0 675.84 0 1024 0 C1024 337.92 1024 675.84 1024 1024 C686.08 1024 348.16 1024 0 1024 C0 686.08 0 348.16 0 0 Z M447 49 C445.51123338 49.13024164 444.02246373 49.26044865 442.53369141 49.390625 C408.54312536 52.4101836 375.13737811 57.84268814 342 66 C340.87980469 66.27424805 339.75960937 66.54849609 338.60546875 66.83105469 C307.08857054 74.65419935 276.74356573 85.8759164 248 101 C246.93604004 101.54793213 246.93604004 101.54793213 245.85058594 102.10693359 C229.94757905 110.32962955 215.96125022 120.64052211 203 133 C202.2575 133.66773438 201.515 134.33546875 200.75 135.0234375 C188.43770686 146.5234613 177.1130385 164.32724166 175.81526222 181.43532707 C175.74300549 184.23571289 175.73309081 187.02977025 175.74552441 189.83107185 C175.74231793 190.9048488 175.73911145 191.97862575 175.73580781 193.08494139 C175.7274943 196.68966729 175.73343696 200.29422762 175.73930359 203.8989563 C175.73628352 206.50688279 175.73239476 209.11480839 175.72771102 211.72273242 C175.7189524 217.39645331 175.71763571 223.0701381 175.72121429 228.74386406 C175.72652191 237.18120721 175.72042532 245.61851542 175.71213136 254.05585478 C175.69688656 270.00278895 175.69518686 285.94970724 175.69765439 301.89664717 C175.69948693 314.21279639 175.69772825 326.5289404 175.69342995 338.84508896 C175.69282755 340.6144603 175.69222635 342.38383163 175.69162634 344.15320297 C175.69071909 346.8194954 175.68981042 349.48578782 175.68889399 352.15208025 C175.68046344 376.94489866 175.6761294 401.7377151 175.68030071 426.53053474 C175.68045709 427.4653041 175.68061346 428.40007346 175.68077458 429.36316916 C175.68158036 434.10094677 175.68242613 438.83872438 175.68328788 443.57650198 C175.68345897 444.51743731 175.68363006 445.45837263 175.68380633 446.42782115 C175.68415298 448.33062239 175.68450151 450.23342363 175.68485192 452.13622487 C175.69020777 481.73633618 175.68228297 511.33641769 175.66381836 540.93652344 C175.64309629 574.19444055 175.63237617 607.4523392 175.63639385 640.71026313 C175.63678919 644.25751424 175.63715074 647.80476534 175.63749123 651.35201645 C175.63758196 652.22543478 175.63767269 653.09885311 175.63776617 653.99873866 C175.63893161 667.17759425 175.63228781 680.3564312 175.62167931 693.53528214 C175.60962322 708.52772295 175.60807294 723.52012271 175.62046947 738.51256414 C175.62709382 746.89915672 175.62547685 755.28565111 175.61188096 763.67223582 C175.60265323 769.93979457 175.60916438 776.2072454 175.62172876 782.47479628 C175.62438164 785.00641795 175.62199065 787.53805109 175.61399289 790.06966151 C175.5229927 821.02843472 183.1785552 842.56386661 205 865 C205.53641113 865.5583252 206.07282227 866.11665039 206.62548828 866.69189453 C210.70466362 870.87215898 214.97957633 874.58820675 219.625 878.125 C220.34864746 878.67631592 221.07229492 879.22763184 221.81787109 879.7956543 C230.80299743 886.50930266 240.32621278 892.34014208 250 898 C250.65645508 898.38494629 251.31291016 898.76989258 251.98925781 899.16650391 C327.11330216 942.59822895 422.34936329 954.778674 507.81860352 954.3225708 C511.23987224 954.30909288 514.66101197 954.31442526 518.08229542 954.31943226 C544.66514483 954.34882805 571.16595499 953.60391998 597.5625 950.1875 C598.56677536 950.06003387 598.56677536 950.06003387 599.59133911 949.92999268 C604.39878221 949.31851567 609.20027485 948.66914219 614 948 C615.21913086 947.83161621 616.43826172 947.66323242 617.69433594 947.48974609 C677.69506454 938.95212537 742.94534944 921.41115537 793 886 C793.95181152 885.32783447 793.95181152 885.32783447 794.92285156 884.64208984 C818.88230608 867.54885274 842.46832711 845.3738101 848 815 C848.27473393 811.38657325 848.27054967 807.78868568 848.25447559 804.16613483 C848.25768207 803.09205829 848.26088855 802.01798175 848.26419219 800.91135743 C848.27250571 797.30562223 848.26656304 793.70005255 848.26069641 790.09431458 C848.26371648 787.48567539 848.26760523 784.8770371 848.27228898 782.26840037 C848.28104758 776.59314914 848.2823643 770.917934 848.27878571 765.24267769 C848.27347811 756.80311244 848.27957463 748.36358211 848.28786864 739.92402065 C848.30311323 723.97320744 848.30481318 708.02241009 848.30234561 692.07159112 C848.30051312 679.75304963 848.30227164 667.43451335 848.30657005 655.11597252 C848.30717245 653.34630954 848.30777365 651.57664656 848.30837366 649.80698359 C848.30928091 647.14026497 848.31018958 644.47354636 848.31110601 641.80682774 C848.31953646 617.01043595 848.32387065 592.21404611 848.31969929 567.41765308 C848.31954291 566.48275851 848.31938654 565.54786393 848.31922542 564.58463922 C848.31841964 559.84621364 848.31757387 555.10778807 848.31671212 550.36936251 C848.31654103 549.42829599 848.31636994 548.48722946 848.31619367 547.51764577 C848.31584702 545.6145796 848.31549849 543.71151342 848.31514808 541.80844725 C848.30979176 512.20163209 848.31771839 482.59484671 848.33618164 452.98803711 C848.35690135 419.72390365 848.36762432 386.45978865 848.36360615 353.19564837 C848.36321081 349.64813435 848.36284926 346.10062033 848.36250877 342.55310631 C848.36241804 341.67962056 848.36232731 340.8061348 848.36223383 339.90617979 C848.36106818 326.72377469 848.3677138 313.54138824 848.37832069 300.35898781 C848.39037377 285.36395656 848.39193049 270.36896635 848.37953053 255.37393449 C848.37290366 246.98490987 848.37452898 238.5959834 848.38811904 230.20696664 C848.39734064 223.93937407 848.39084182 217.67188951 848.37827124 211.40430482 C848.37561653 208.87135506 848.37801507 206.33839385 848.38600711 203.8054553 C848.5289676 181.70465773 848.5289676 181.70465773 841.4375 161 C841.09090332 160.33049316 840.74430664 159.66098633 840.38720703 158.97119141 C827.87115526 135.60826446 806.38641406 119.20173111 784 106 C783.26990723 105.56574707 782.53981445 105.13149414 781.78759766 104.68408203 C726.02109064 71.82446315 659.55689276 58.46913631 596 51 C595.00693848 50.87931152 594.01387695 50.75862305 592.99072266 50.63427734 C587.00286565 49.91915807 581.01580367 49.41293381 575 49 C573.14012451 48.86682373 573.14012451 48.86682373 571.24267578 48.73095703 C530.0392197 45.85113901 488.16092747 45.28152171 447 49 Z " fill="#000000" transform="translate(0,0)"/>
<path d="M0 0 C1.18721649 -0.00100708 2.37443298 -0.00201416 3.59762573 -0.00305176 C37.24911977 0.0160389 70.74864643 1.90885846 104 7.25 C105.35347689 7.46232389 106.70699383 7.67439261 108.06054688 7.88623047 C154.02890981 15.14028548 209.79354357 25.61826057 245 58.25 C245.88300781 59.05308594 246.76601563 59.85617188 247.67578125 60.68359375 C255.54604028 68.15742491 262.27111478 76.62213142 263.3359375 87.765625 C263.4793857 101.47927301 260.0510834 109.09554643 251 119.25 C250.47792969 119.85457031 249.95585938 120.45914063 249.41796875 121.08203125 C202.77675615 171.50177247 101.80613212 180.48686618 37 183.25 C26.71974614 183.57693447 16.43043198 183.54169232 6.14624023 183.51074219 C2.33057468 183.49935882 -1.48481145 183.50613733 -5.30046749 183.51761341 C-31.0178695 183.58331781 -56.54228578 182.45325924 -82.0625 179.0625 C-83.2668721 178.90535019 -83.2668721 178.90535019 -84.49557495 178.74502563 C-138.21649092 171.67674228 -203.45341696 160.46397848 -245 123.25 C-246.05380859 122.33541016 -246.05380859 122.33541016 -247.12890625 121.40234375 C-255.14688957 113.99293601 -260.91104825 104.83357501 -261.39477539 93.81884766 C-261.63045953 82.40634818 -258.2762606 74.76515657 -250.75 66.0625 C-249.18906719 64.43652832 -247.60546915 62.83201262 -246 61.25 C-245.2265625 60.47785156 -244.453125 59.70570313 -243.65625 58.91015625 C-186.22509422 4.36920474 -74.24030176 0.04425613 0 0 Z " fill="#000000" transform="translate(511,87.75)"/>
<path d="M0 0 C17.27587798 14.36783673 25.89812119 34.80167651 28 57 C29.63763337 80.76734564 26.28023737 104.61259548 11.48046875 123.984375 C10.05817194 125.92080021 9.00510815 127.82308283 8 130 C13.68214438 136.68774726 19.36365272 143.35951311 25.3125 149.8125 C37 162.55735057 37 162.55735057 37 165 C2.11214428 168.43351821 2.11214428 168.43351821 -5.2109375 163.125 C-8.04362018 160.33392481 -10.18364295 157.24600706 -12.04736328 153.74121094 C-13.40727681 151.25558733 -15.17695541 149.15788952 -17 147 C-17.65484375 147.19335938 -18.3096875 147.38671875 -18.984375 147.5859375 C-41.49908228 154.00962517 -62.78431919 153.7048676 -83.80078125 142.5078125 C-101.57543502 131.99889414 -111.54889161 115.45511186 -116.85449219 95.84106445 C-118.87200138 87.04741265 -119.50761473 78.69640151 -119.4375 69.6875 C-119.43479095 69.01190033 -119.43208191 68.33630066 -119.42929077 67.64022827 C-119.28487369 43.8381153 -112.14008864 21.14680751 -95.08203125 3.828125 C-69.31297847 -20.7487652 -27.89756347 -21.22555878 0 0 Z " fill="#000001" transform="translate(650,455)"/>
<path d="M0 0 C0.7626416 0.10908691 1.5252832 0.21817383 2.31103516 0.33056641 C9.7145783 1.52863712 16.33487842 3.64925098 23.6875 5.75 C23.6875 17.63 23.6875 29.51 23.6875 41.75 C20.7175 40.76 17.7475 39.77 14.6875 38.75 C11.91875704 37.86706446 9.14923757 36.99011354 6.375 36.125 C5.68599609 35.9084375 4.99699219 35.691875 4.28710938 35.46875 C-2.80886271 33.2516864 -8.69943708 32.51044266 -16.125 32.4375 C-17.09759766 32.40849609 -18.07019531 32.37949219 -19.07226562 32.34960938 C-25.38352359 32.29406005 -29.18757952 32.98147048 -34.3125 36.75 C-35.52005308 39.16510615 -35.54822748 40.86738049 -35.625 43.5625 C-35.66238281 44.41457031 -35.69976562 45.26664062 -35.73828125 46.14453125 C-35.15414612 49.71900955 -33.87343526 51.20572123 -31.3125 53.75 C-28.17339892 55.61162237 -28.17339892 55.61162237 -24.5625 57.125 C-23.90926758 57.41826172 -23.25603516 57.71152344 -22.58300781 58.01367188 C-19.1264789 59.55685327 -15.64347465 61.03561153 -12.15625 62.5078125 C6.47657338 70.40540264 21.45367575 80.52991275 29.92578125 99.51171875 C34.14911591 111.92182522 31.80585182 125.16463887 26.5625 136.8125 C21.48162734 146.35240717 14.25423087 152.92093362 4.6875 157.75 C3.98109375 158.12769531 3.2746875 158.50539063 2.546875 158.89453125 C-20.62760436 170.35302382 -48.95981789 164.56232928 -72.3125 156.75 C-72.9725 156.42 -73.6325 156.09 -74.3125 155.75 C-74.3125 142.88 -74.3125 130.01 -74.3125 116.75 C-69.70952537 118.28432488 -65.56988729 120.00670816 -61.25 122.125 C-47.8237873 128.54862606 -30.5119005 134.62723626 -15.6875 129.5 C-11.27800616 127.21359579 -8.89552693 125.4990808 -7.3125 120.75 C-6.76670692 114.9645933 -7.68835707 112.25965358 -11.3125 107.75 C-13.65483777 106.27551724 -15.7558185 105.12647456 -18.25 104 C-18.93803711 103.67056396 -19.62607422 103.34112793 -20.33496094 103.00170898 C-23.51415968 101.48628154 -26.71588027 100.02200319 -29.92041016 98.56103516 C-46.37906301 91.04944327 -63.19502227 83.12760598 -71.5234375 65.96484375 C-73.9403353 59.18077914 -74.67261576 53.02960765 -74.625 45.875 C-74.61936035 44.99021973 -74.6137207 44.10543945 -74.60791016 43.19384766 C-74.491743 36.95877671 -74.02770516 31.44883364 -71.3125 25.75 C-70.92191406 24.9146875 -70.53132813 24.079375 -70.12890625 23.21875 C-63.9294308 11.55741374 -52.41004493 4.68647918 -40.10546875 0.71484375 C-26.89832364 -2.59078628 -13.36820374 -1.92664703 0 0 Z " fill="#000001" transform="translate(483.3125,442.25)"/>
<path d="M0 0 C36.96 0 73.92 0 112 0 C112 11.22 112 22.44 112 34 C99.79 34 87.58 34 75 34 C75 75.91 75 117.82 75 161 C62.46 161 49.92 161 37 161 C37 119.09 37 77.18 37 34 C24.79 34 12.58 34 0 34 C0 22.78 0 11.56 0 0 Z " fill="#000000" transform="translate(228,443)"/>
<path d="M0 0 C12.54 0 25.08 0 38 0 C38 42.24 38 84.48 38 128 C56.81 128 75.62 128 95 128 C95 138.89 95 149.78 95 161 C63.65 161 32.3 161 0 161 C0 107.87 0 54.74 0 0 Z " fill="#000000" transform="translate(701,443)"/>
<path d="M0 0 C9.48289096 5.58903131 14.07358715 15.60644074 17.3125 25.76953125 C21.31805799 42.76964592 21.15318333 63.08302618 14.20703125 79.30078125 C10.3761974 78.02383663 9.3226423 76.26267167 6.83203125 73.11328125 C6.04183594 72.12328125 5.25164063 71.13328125 4.4375 70.11328125 C3.70144531 69.18515625 2.96539063 68.25703125 2.20703125 67.30078125 C1.1910553 66.06759665 0.17146157 64.83735866 -0.85546875 63.61328125 C-1.81453125 62.46859375 -1.81453125 62.46859375 -2.79296875 61.30078125 C-7.24600715 64.19728647 -11.47684148 67.28890844 -15.66796875 70.55078125 C-16.55742188 71.23914063 -16.55742188 71.23914063 -17.46484375 71.94140625 C-18.90893575 73.05941296 -20.35115115 74.17984293 -21.79296875 75.30078125 C-17.77789022 80.9376366 -13.38066293 86.05227004 -8.6484375 91.1015625 C-6.79296875 93.30078125 -6.79296875 93.30078125 -5.79296875 96.30078125 C-10.86560048 98.83709711 -18.17576648 97.74466883 -23.48046875 96.23828125 C-32.19919775 92.8442046 -36.71088811 86.7433773 -40.54296875 78.43359375 C-48.31302776 58.95988337 -47.99976905 36.62924762 -41.04296875 16.98828125 C-37.41041224 8.62239353 -32.03136303 2.31252107 -23.79296875 -1.69921875 C-16.08699652 -4.26787616 -7.29608326 -3.42998421 0 0 Z " fill="#0075DF" transform="translate(617.79296875,476.69921875)"/>
<path d="M0 0 C20.46 0 40.92 0 62 0 C62 10.89 62 21.78 62 33 C41.54 33 21.08 33 0 33 C0 22.11 0 11.22 0 0 Z " fill="#000000" transform="translate(333,519)"/>
<path d="M0 0 C0.33 0 0.66 0 1 0 C1.33 4.62 1.66 9.24 2 14 C1.34 14 0.68 14 0 14 C-1.53508028 11.56661348 -2.03088304 10.32875493 -1.7578125 7.421875 C-1.54898438 6.54015625 -1.34015625 5.6584375 -1.125 4.75 C-0.92132813 3.85796875 -0.71765625 2.9659375 -0.5078125 2.046875 C-0.34023437 1.37140625 -0.17265625 0.6959375 0 0 Z " fill="#0063BD" transform="translate(249,175)"/>
<path d="M0 0 C0.66 0.33 1.32 0.66 2 1 C-0.31 3.31 -2.62 5.62 -5 8 C-5.99 7.67 -6.98 7.34 -8 7 C-5.36 4.69 -2.72 2.38 0 0 Z " fill="#0081EC" transform="translate(219,119)"/>
</svg>
