<svg
   version="1.1"
   viewBox="0.0 0.0 192.0 192.0"
   fill="none"
   stroke="none"
   stroke-linecap="square"
   stroke-miterlimit="10"
   xmlns:xlink="http://www.w3.org/1999/xlink"
   xmlns="http://www.w3.org/2000/svg"
>
   <clipPath id="p.0">
      <path d="m0 0l192.0 0l0 192.0l-192.0 0l0 -192.0z" clip-rule="nonzero" />
   </clipPath>
   <g clip-path="url(#p.0)">
      <path
         fill="#000000"
         fill-opacity="0.0"
         d="m0 0l192.0 0l0 192.0l-192.0 0z"
         fill-rule="evenodd"
      />
      <path
         fill="#999999"
         d="m61.498463 5.1658897l103.604385 25.901096l0 129.86061l-103.604385 25.901093z"
         fill-rule="evenodd"
      />
      <g transform="translate(-15.15,-58.37) rotate(12,95.3,83.05)">
        <path
            fill="#cc0000"
            d="m100.77579 101.75337l39.667023 0l0 39.667023l-39.667023 0z"
            fill-rule="evenodd"
        />
        <path
            fill="#93c47d"
            d="m140.44281 101.75337l39.667023 0l0 39.667023l-39.667023 0z"
            fill-rule="evenodd"
        />
        <path
            fill="#4a86e8"
            d="m100.77579 141.4204l39.667023 0l0 39.667023l-39.667023 0z"
            fill-rule="evenodd"
        />
        <path
            fill="#ff9900"
            d="m140.44281 141.4204l39.667023 0l0 39.667023l-39.667023 0z"
            fill-rule="evenodd"
        />
      </g>

      <path
         stroke="#000000"
         stroke-width="2.0"
         stroke-linejoin="round"
         stroke-linecap="butt"
         d="m61.498463 5.1658897l103.604385 25.901096l0 129.86061l-103.604385 25.901093z"
         fill-rule="evenodd"
      />
      <path
         fill="#b7b7b7"
         d="m61.498463 5.1649036l-55.35353 13.838383l0 153.98605l55.35353 13.838379z"
         fill-rule="evenodd"
      />
      <path
         stroke="#000000"
         stroke-width="2.0"
         stroke-linejoin="round"
         stroke-linecap="butt"
         d="m61.498463 5.1649036l-55.35353 13.838383l0 153.98605l55.35353 13.838379z"
         fill-rule="evenodd"
      />
      <path
         fill="#000000"
         fill-opacity="0.0"
         d="m6.1449313 95.99631l55.33858 0"
         fill-rule="evenodd"
      />
      <path
         stroke="#000000"
         stroke-width="2.0"
         stroke-linejoin="round"
         stroke-linecap="butt"
         d="m6.1449313 95.99631l55.33858 0"
         fill-rule="evenodd"
      />
      <path
         fill="#000000"
         fill-opacity="0.0"
         d="m7.121832 60.06769l54.897636 -8.503937"
         fill-rule="evenodd"
      />
      <path
         stroke="#000000"
         stroke-width="2.0"
         stroke-linejoin="round"
         stroke-linecap="butt"
         d="m7.121832 60.06769l54.897636 -8.503937"
         fill-rule="evenodd"
      />
      <path
         fill="#000000"
         fill-opacity="0.0"
         d="m7.121832 129.74907l54.897636 8.503937"
         fill-rule="evenodd"
      />
      <path
         stroke="#000000"
         stroke-width="2.0"
         stroke-linejoin="round"
         stroke-linecap="butt"
         d="m7.121832 129.74907l54.897636 8.503937"
         fill-rule="evenodd"
      />
   </g>
</svg>
