<?xml version="1.0" standalone="no"?>
<!DOCTYPE svg PUBLIC "-//W3C//DTD SVG 20010904//EN"
 "http://www.w3.org/TR/2001/REC-SVG-20010904/DTD/svg10.dtd">
<svg version="1.0" xmlns="http://www.w3.org/2000/svg"
 width="512.000000pt" height="512.000000pt" viewBox="0 0 512.000000 512.000000"
 preserveAspectRatio="xMidYMid meet">

<g transform="translate(0.000000,512.000000) scale(0.100000,-0.100000)"
fill="#000000" stroke="none">
<path d="M2444 3348 c-27 -13 -44 -49 -44 -94 0 -52 -16 -73 -76 -100 -73 -32
-94 -30 -144 11 -67 56 -90 50 -183 -43 -92 -93 -97 -116 -42 -182 41 -50 43
-71 11 -144 -27 -60 -48 -76 -100 -76 -47 0 -81 -17 -95 -47 -14 -31 -14 -195
0 -226 14 -30 48 -47 95 -47 52 0 73 -16 100 -76 32 -73 30 -94 -11 -144 -56
-67 -50 -90 43 -183 93 -92 116 -97 182 -42 50 41 71 43 144 11 60 -27 76 -48
76 -100 0 -47 17 -81 47 -95 13 -6 64 -11 113 -11 49 0 100 5 113 11 30 14 47
48 47 95 0 52 16 73 76 100 73 32 94 30 144 -11 67 -56 90 -50 183 43 92 93
97 116 42 182 -42 50 -44 76 -11 147 27 57 48 73 100 73 47 0 81 17 95 47 14
31 14 195 0 226 -14 30 -48 47 -95 47 -52 0 -73 16 -100 76 -32 73 -30 94 11
144 56 67 50 90 -43 183 -93 92 -116 97 -182 42 -50 -41 -71 -43 -144 -11 -60
27 -76 48 -76 100 0 47 -17 81 -47 95 -30 14 -200 13 -229 -1z m248 -496 c60
-26 133 -99 161 -160 17 -36 22 -66 22 -132 0 -103 -21 -157 -90 -225 -68 -69
-122 -90 -225 -90 -103 0 -157 21 -225 90 -168 168 -99 457 127 531 59 19 171
13 230 -14z"/>
<path d="M4075 3182 c-16 -11 -143 -135 -281 -278 -263 -271 -283 -299 -270
-367 18 -96 83 -136 219 -137 53 0 87 -4 87 -10 0 -6 -7 -44 -15 -86 -50 -241
-176 -474 -351 -648 -186 -187 -438 -316 -704 -361 -64 -11 20 -13 580 -12
l655 2 6 96 c10 152 58 211 170 211 l48 -1 60 122 c95 193 165 427 187 625 l7
62 96 0 c145 1 208 39 227 137 13 68 -7 95 -275 371 -141 145 -268 270 -283
278 -39 20 -126 18 -163 -4z"/>
<path d="M1185 2079 c-72 -72 -142 -137 -157 -145 -32 -17 -101 -18 -131 -3
-12 6 -61 50 -109 97 -52 51 -88 80 -88 71 0 -63 69 -160 164 -230 45 -34 116
-39 170 -14 17 8 94 77 170 154 132 132 138 140 131 170 -3 17 -10 31 -13 31
-4 0 -66 -59 -137 -131z"/>
<path d="M410 1258 c-33 -17 -51 -35 -67 -68 -21 -41 -23 -57 -23 -230 0 -173
2 -189 23 -230 16 -33 34 -51 67 -67 l44 -23 1051 2 c577 0 998 4 935 8 -458
29 -871 213 -1214 541 l-94 89 -339 0 c-331 0 -340 0 -383 -22z"/>
</g>
</svg>
