<?xml version="1.0" standalone="no"?>
<!DOCTYPE svg PUBLIC "-//W3C//DTD SVG 20010904//EN"
 "http://www.w3.org/TR/2001/REC-SVG-20010904/DTD/svg10.dtd">
<svg version="1.0" xmlns="http://www.w3.org/2000/svg"
 width="512.000000pt" height="512.000000pt" viewBox="0 0 512.000000 512.000000"
 preserveAspectRatio="xMidYMid meet">

<g transform="translate(0.000000,512.000000) scale(0.100000,-0.100000)"
fill="#000000" stroke="none">
<path d="M1256 3950 c-209 -24 -393 -85 -572 -191 -88 -52 -114 -79 -114 -117
0 -29 42 -72 70 -72 12 0 64 25 115 56 200 119 405 176 635 176 157 0 237 -11
375 -53 342 -105 633 -368 776 -700 114 -263 130 -582 43 -861 -82 -264 -266
-508 -506 -669 -94 -63 -110 -89 -89 -136 7 -14 10 -28 7 -30 -4 -4 -192 11
-283 23 l-41 5 45 97 c25 53 56 121 69 151 l24 53 29 -31 c16 -17 39 -31 52
-31 45 0 193 103 280 197 207 221 310 498 296 797 -23 495 -385 910 -873 1002
-134 25 -358 16 -479 -20 -583 -171 -915 -761 -749 -1333 34 -118 89 -231 158
-327 l57 -79 -60 -61 c-59 -58 -61 -60 -76 -41 -143 181 -225 353 -271 565
-25 118 -25 362 0 480 40 184 120 364 227 507 79 105 78 158 -2 178 -35 9 -79
-30 -146 -127 -350 -508 -334 -1165 40 -1653 70 -92 105 -115 172 -115 61 0
97 23 187 118 64 67 78 94 78 153 0 48 -5 58 -72 146 -67 88 -132 226 -159
339 -31 124 -31 304 -1 427 85 346 368 620 714 691 149 31 344 18 488 -32 288
-100 510 -341 592 -642 19 -72 23 -108 22 -235 -1 -133 -4 -160 -28 -240 -55
-185 -164 -354 -297 -463 -56 -45 -65 -50 -79 -37 -9 8 -33 21 -53 30 -46 19
-102 7 -138 -29 -13 -13 -64 -111 -113 -217 -99 -213 -108 -254 -70 -306 39
-53 65 -60 298 -81 246 -23 259 -21 310 39 25 29 28 39 24 86 l-5 53 71 53
c86 65 211 190 273 272 25 33 49 60 53 60 4 0 25 -23 47 -52 80 -107 119 -143
155 -143 51 0 78 24 78 69 0 26 -7 44 -21 57 -41 37 -41 49 -6 117 19 34 36
69 38 76 3 7 48 -31 109 -91 150 -149 283 -230 462 -282 428 -124 890 31 1160
388 78 104 152 255 182 375 32 126 16 171 -57 171 -45 0 -66 -29 -87 -118 -80
-337 -370 -617 -712 -686 -89 -18 -257 -21 -344 -5 -355 63 -640 325 -736 681
-19 70 -23 107 -22 233 1 133 4 160 28 240 56 186 157 344 289 455 63 53 72
58 87 45 8 -8 33 -21 53 -30 46 -19 102 -7 138 29 13 13 64 111 113 217 99
213 108 254 70 306 -40 53 -65 60 -299 81 -246 23 -259 21 -309 -39 -25 -29
-28 -39 -24 -86 l5 -53 -74 -56 c-91 -68 -202 -179 -267 -264 -26 -36 -52 -65
-56 -65 -4 0 -29 29 -56 64 -68 91 -201 219 -302 291 -94 67 -267 155 -373
189 -162 53 -411 79 -573 61z m2069 -201 c60 -5 111 -12 113 -14 2 -2 -27 -68
-63 -148 l-67 -146 -25 30 c-36 42 -73 39 -153 -13 -36 -23 -111 -88 -168
-144 l-103 -102 -37 72 c-20 39 -39 75 -41 79 -9 21 190 195 292 256 64 39 77
74 52 135 -7 17 -4 18 41 12 27 -3 98 -11 159 -17z"/>
<path d="M4564 3501 c-55 -40 -152 -144 -164 -176 -5 -14 -10 -46 -10 -69 0
-37 9 -55 61 -127 78 -106 143 -241 168 -349 22 -91 43 -120 88 -120 72 0 88
45 58 166 -35 139 -96 266 -180 379 l-45 60 57 57 c55 55 58 57 76 40 11 -9
49 -61 84 -115 286 -429 276 -990 -25 -1411 -69 -96 -224 -246 -320 -309 -377
-251 -859 -277 -1265 -67 -53 27 -106 50 -116 50 -28 0 -60 -31 -67 -65 -9
-47 25 -79 139 -135 207 -101 389 -143 617 -143 382 -1 715 137 985 408 261
260 395 564 412 935 14 320 -89 642 -290 905 -70 92 -105 115 -172 115 -41 0
-60 -6 -91 -29z"/>
<path d="M1245 3257 c-44 -24 -85 -91 -85 -138 0 -64 -72 -104 -131 -74 -44
23 -135 17 -175 -12 -17 -12 -53 -63 -82 -115 -76 -138 -72 -205 20 -281 38
-31 43 -40 43 -77 0 -37 -5 -46 -43 -77 -92 -76 -96 -143 -20 -281 29 -52 65
-103 82 -115 40 -29 131 -35 175 -12 59 30 131 -10 131 -74 0 -47 41 -114 85
-138 34 -20 55 -23 148 -23 69 0 119 5 140 14 38 15 85 67 91 99 17 91 22 101
55 121 32 18 35 18 80 3 92 -33 167 -17 215 45 44 59 106 188 106 221 0 46
-32 103 -79 144 -35 29 -41 40 -41 73 0 33 6 44 41 73 47 41 79 98 79 144 0
33 -62 162 -106 221 -48 62 -123 78 -215 45 -45 -15 -48 -15 -80 3 -33 20 -38
30 -55 121 -6 32 -53 84 -91 99 -21 9 -71 14 -140 14 -93 0 -114 -3 -148 -23z
m237 -174 c8 -51 38 -111 70 -140 61 -57 179 -80 255 -48 19 8 37 15 38 15 2
0 15 -21 30 -47 l27 -48 -73 -67 c-39 -37 -98 -88 -130 -113 -52 -41 -60 -44
-65 -28 -29 91 -92 163 -160 182 -125 35 -253 -24 -301 -136 -17 -42 -17 -144
1 -187 7 -18 28 -49 45 -68 l32 -36 -79 -31 c-84 -32 -216 -71 -242 -71 -8 0
-25 19 -38 43 l-23 42 37 30 c110 88 110 282 0 371 l-38 30 38 64 c20 36 38
66 39 68 1 1 18 -5 38 -13 84 -35 189 -13 258 55 45 43 56 66 74 153 l6 28 77
-3 77 -3 7 -42z m-24 -465 c53 -50 11 -142 -65 -142 -66 0 -105 78 -67 132 32
46 88 50 132 10z"/>
<path d="M3585 3266 c-36 -16 -83 -68 -89 -99 -17 -91 -22 -101 -55 -121 -32
-18 -35 -18 -80 -3 -92 33 -167 17 -215 -45 -43 -58 -106 -188 -106 -220 0
-47 37 -114 75 -138 36 -23 45 -38 45 -80 0 -42 -9 -57 -45 -80 -38 -24 -75
-91 -75 -138 0 -32 63 -162 106 -220 48 -62 123 -78 215 -45 45 15 48 15 80
-3 33 -20 38 -30 55 -121 6 -32 53 -84 91 -99 21 -9 71 -14 140 -14 93 0 114
3 148 23 44 24 85 91 85 138 0 64 72 104 131 74 44 -23 135 -17 175 12 17 12
53 63 82 115 76 138 72 205 -20 281 -38 31 -43 40 -43 77 0 37 5 46 43 77 92
76 96 143 20 281 -29 52 -65 103 -82 115 -40 29 -131 35 -175 12 -59 -30 -131
10 -131 74 0 47 -41 114 -85 138 -35 20 -54 23 -150 22 -69 0 -121 -5 -140
-13z m220 -163 c18 -87 29 -110 75 -155 69 -67 172 -88 257 -53 20 8 37 14 38
13 21 -33 45 -78 45 -86 0 -13 -108 -117 -189 -182 l-65 -52 -13 44 c-47 161
-261 222 -384 111 -60 -54 -83 -105 -83 -183 0 -72 17 -114 66 -166 l29 -31
-83 -32 c-90 -34 -213 -71 -239 -71 -8 0 -26 18 -38 41 l-23 40 46 45 c46 46
76 114 76 174 0 60 -30 128 -76 173 l-46 46 37 65 c20 36 38 66 40 66 1 0 19
-7 38 -15 80 -33 207 -6 264 56 28 31 63 107 63 140 0 14 3 29 7 32 3 4 39 7
79 7 72 0 74 -1 79 -27z m-17 -489 c47 -53 9 -138 -61 -138 -99 0 -120 132
-27 167 26 10 64 -3 88 -29z"/>
</g>
</svg>
