<?xml version="1.0" standalone="no"?>
<!DOCTYPE svg PUBLIC "-//W3C//DTD SVG 20010904//EN"
 "http://www.w3.org/TR/2001/REC-SVG-20010904/DTD/svg10.dtd">
<svg version="1.0" xmlns="http://www.w3.org/2000/svg"
 width="256.000000pt" height="256.000000pt" viewBox="0 0 256.000000 256.000000"
 preserveAspectRatio="xMidYMid meet">

<g transform="translate(0.000000,256.000000) scale(0.100000,-0.100000)"
fill="#000000" stroke="none">
<path d="M1260 2514 c-1 -45 -52 -309 -61 -320 -28 -34 -74 -57 -140 -71 -307
-63 -569 -258 -711 -530 -87 -167 -117 -297 -118 -509 0 -129 10 -199 41 -306
41 -133 147 -306 252 -407 l46 -44 258 21 c142 12 264 22 272 22 7 0 -29 21
-80 47 -161 80 -239 181 -247 318 -6 98 6 139 42 143 46 6 74 -6 121 -49 42
-39 108 -140 134 -205 41 -105 205 -162 280 -98 24 20 31 34 31 61 0 69 -33
92 -81 54 -38 -29 -67 -35 -94 -17 -37 24 -34 71 5 91 40 21 41 55 2 55 -29 0
-82 -44 -82 -68 0 -7 -6 -12 -14 -12 -10 0 -17 15 -20 48 -24 196 -44 237
-152 308 -83 54 -124 102 -124 143 0 30 81 199 114 239 21 24 36 32 61 32 19
0 36 -4 39 -8 3 -5 -11 -31 -30 -58 -41 -57 -99 -159 -108 -191 -5 -17 2 -32
30 -63 67 -74 192 -120 323 -120 l71 0 17 -37 c33 -69 79 -47 53 25 -11 32
-11 37 6 49 26 19 57 16 87 -7 32 -25 48 -25 80 0 23 18 25 24 16 50 -27 77
-148 93 -235 32 -61 -43 -105 -42 -200 3 -41 20 -74 40 -74 45 0 17 122 200
133 200 6 0 105 -37 221 -81 116 -45 222 -82 236 -82 40 0 694 134 705 144 6
6 6 12 0 18 -6 5 -161 20 -345 35 -254 20 -338 30 -350 41 -13 13 -12 17 1 30
11 11 77 20 259 36 154 13 248 25 252 32 4 7 8 42 8 78 0 49 5 72 19 90 85
110 93 236 21 348 -46 72 -102 115 -179 138 -34 10 -71 31 -96 53 -174 161
-369 246 -587 257 -61 3 -108 2 -108 -3z m297 -365 c69 -26 140 -90 173 -156
21 -41 25 -62 25 -138 0 -74 -4 -98 -23 -133 -85 -161 -270 -222 -427 -141
-165 85 -218 307 -109 457 38 52 76 81 142 108 72 30 144 31 219 3z m637 -100
c35 -41 35 -91 0 -126 -29 -29 -36 -25 -54 32 -7 22 -21 57 -31 77 -11 21 -19
40 -19 43 0 3 18 5 39 5 32 0 44 -6 65 -31z"/>
<path d="M1345 2003 c-49 -12 -87 -78 -77 -131 3 -13 18 -36 34 -52 42 -42
104 -42 146 0 34 33 42 62 30 106 -14 55 -76 91 -133 77z"/>
<path d="M1928 1101 c-53 -17 -108 -55 -133 -91 -48 -69 -57 -138 -26 -206 36
-78 96 -114 191 -114 49 0 64 4 91 27 65 55 77 132 28 188 -27 30 -37 35 -74
35 -35 0 -48 -5 -65 -27 -18 -23 -19 -29 -7 -41 11 -11 19 -11 35 -3 54 29 94
-5 71 -60 -15 -37 -36 -49 -89 -49 -35 0 -48 6 -77 35 -34 34 -35 38 -31 90 7
89 66 135 170 135 129 0 194 -114 154 -271 -29 -111 -98 -202 -211 -278 -27
-18 -41 -31 -30 -28 11 3 66 9 123 13 118 8 117 7 176 136 98 213 64 398 -88
483 -53 30 -156 43 -208 26z"/>
<path d="M1980 438 c-92 -9 -156 -27 -99 -28 57 0 245 22 254 31 11 11 -22 10
-155 -3z"/>
<path d="M810 335 c-135 -12 -228 -25 -218 -29 21 -10 549 33 563 45 14 13
-83 9 -345 -16z"/>
</g>
</svg>
