<?xml version="1.0" standalone="no"?>
<!DOCTYPE svg PUBLIC "-//W3C//DTD SVG 20010904//EN"
 "http://www.w3.org/TR/2001/REC-SVG-20010904/DTD/svg10.dtd">
<svg version="1.0" xmlns="http://www.w3.org/2000/svg"
 width="512.000000pt" height="512.000000pt" viewBox="0 0 512.000000 512.000000"
 preserveAspectRatio="xMidYMid meet">

<g transform="translate(0.000000,512.000000) scale(0.100000,-0.100000)"
fill="#000000" stroke="none">
<path d="M2902 2628 l-172 -173 0 158 0 157 -150 0 -150 0 0 -675 0 -675 150
0 150 0 0 157 0 158 173 -173 172 -172 105 105 105 105 -248 248 -247 247 247
248 248 247 -105 105 -105 105 -173 -172z"/>
<path d="M3505 2768 c-3 -7 -4 -314 -3 -683 l3 -670 148 -3 147 -3 0 163 0
163 175 -175 175 -175 105 105 105 105 -146 146 -145 145 67 29 c90 38 178
124 225 220 33 67 34 73 34 190 0 113 -2 124 -31 185 -67 141 -198 239 -349
260 -107 15 -504 13 -510 -2z m534 -317 c42 -30 75 -101 67 -145 -18 -96 -88
-139 -218 -134 l-83 3 -3 154 -3 153 103 -4 c89 -3 108 -7 137 -27z"/>
<path d="M1660 2747 c-130 -44 -240 -156 -280 -284 -18 -59 -20 -93 -20 -368
0 -277 2 -309 20 -369 41 -132 158 -247 293 -288 87 -26 214 -22 297 10 109
43 207 140 253 252 21 52 22 71 25 374 3 298 2 323 -17 386 -72 235 -336 367
-571 287z m228 -294 c14 -11 35 -32 46 -47 20 -26 21 -40 21 -311 0 -271 -1
-285 -21 -311 -38 -51 -71 -69 -129 -69 -58 0 -91 18 -129 69 -20 26 -21 43
-24 284 -2 141 0 271 3 289 7 40 49 91 90 109 39 18 110 12 143 -13z"/>
</g>
</svg>
