<?xml version="1.0" standalone="no"?>
<!DOCTYPE svg PUBLIC "-//W3C//DTD SVG 20010904//EN"
 "http://www.w3.org/TR/2001/REC-SVG-20010904/DTD/svg10.dtd">
<svg version="1.0" xmlns="http://www.w3.org/2000/svg"
 width="3840.000000pt" height="2933.000000pt" viewBox="0 0 3840.000000 2933.000000"
 preserveAspectRatio="xMidYMid meet">

<g transform="translate(0.000000,2933.000000) scale(0.100000,-0.100000)"
fill="#000000" stroke="none">
<path d="M3875 29323 c-650 -54 -1162 -529 -1291 -1198 -24 -122 -24 -375 0
-505 41 -229 158 -484 300 -655 22 -27 1386 -1595 3031 -3485 1644 -1889 3941
-4528 5103 -5865 1163 -1336 2123 -2439 2134 -2450 19 -20 19 -20 71 39 48 55
6396 7337 10482 12025 946 1085 1719 1976 1719 1979 -3 13 -170 71 -270 94
l-99 23 -10570 1 c-5814 0 -10588 -1 -10610 -3z"/>
</g>
</svg>
