<?xml version="1.0" encoding="utf-8"?>
<!-- Generator: Adobe Illustrator 19.2.1, SVG Export Plug-In . SVG Version: 6.00 Build 0)  -->
<svg version="1.1" id="layer" xmlns="http://www.w3.org/2000/svg" xmlns:xlink="http://www.w3.org/1999/xlink" x="0px" y="0px"
	 viewBox="0 0 652 652" style="enable-background:new 0 0 652 652;" xml:space="preserve">
<style type="text/css">
	.st0{fill:#F8981D;}
</style>
<g>
	<g>
		<path class="st0" d="M613.3,281.5c3.8,0,6.8,3.1,6.8,6.9c0,3.8-3,6.9-6.8,6.9c-3.7,0-6.7-3.1-6.7-6.9
			C606.6,284.5,609.6,281.5,613.3,281.5 M613.3,294c3,0,5.4-2.5,5.4-5.6c0-3.2-2.4-5.6-5.4-5.6c-3,0-5.3,2.5-5.3,5.6
			C607.9,291.5,610.3,294,613.3,294 M611,284.8h2.7c1.3,0,2.3,0.9,2.3,2.2c0,1.1-0.7,1.7-1.3,1.9v0c0,0,0.1,0.1,0.2,0.4l1.4,2.6
			h-1.5l-1.3-2.8h-1.2v2.8H611V284.8z M613.5,288.2c0.7,0,1.2-0.5,1.2-1.2c0-0.7-0.5-1.2-1.2-1.2h-1.1v2.4H613.5z"/>
		<path class="st0" d="M550.7,368.4c4.9,0,9.3-1.8,11.4-7.8l3.2-8.9l-26.8-63.2h12.6l20,47.1l16.9-47.1h12.4l-28.8,77.9
			c-3.2,8.8-11.2,12.7-20.2,12.7c-0.2,0-2.1,0-2.1,0v-10.6C549.2,368.3,550.5,368.4,550.7,368.4"/>
		<path class="st0" d="M507.5,298.3h-6.1v-9.9h6.1v-20.6h12.3v20.6H532l4.2,9.9h-16.5v28.8c0,12.8,9,14.4,13.7,14.4
			c1.8,0,2.9-0.3,2.9-0.3v10.9c0,0-1.8,0.3-4.3,0.3c-8.2,0-24.6-2.5-24.6-23.9V298.3z"/>
		<rect x="479.4" y="288.4" class="st0" width="12.3" height="64.1"/>
		<path class="st0" d="M485.6,265.4L485.6,265.4c4.3,0,7.8,3.4,7.8,7.7v0.2c0,4.2-3.5,7.7-7.8,7.7c-4.3,0-7.8-3.4-7.8-7.7v-0.2
			C477.8,268.9,481.3,265.4,485.6,265.4"/>
		<polygon class="st0" points="458.6,288.4 440.3,335.5 422,288.4 409.4,288.4 434.5,352.4 446,352.4 471.3,288.4 		"/>
		<rect x="389" y="288.4" class="st0" width="12.3" height="64.1"/>
		<path class="st0" d="M395.1,265.4L395.1,265.4c4.3,0,7.8,3.4,7.8,7.7v0.2c0,4.2-3.5,7.7-7.8,7.7c-4.3,0-7.8-3.4-7.8-7.7v-0.2
			C387.3,268.9,390.8,265.4,395.1,265.4"/>
		<path class="st0" d="M349.7,298.3h-6.1v-9.9h6.1v-20.6H362v20.6h16.6v9.9H362v28.8c0,12.8,9,14.4,13.7,14.4c1.8,0,2.9-0.3,2.9-0.3
			v10.9c0,0-1.8,0.3-4.3,0.3c-8.2,0-24.6-2.5-24.6-23.9V298.3z"/>
		<path class="st0" d="M337.5,313.7c0-4.4,0.1-9.1-1.1-13.3c-1.2-4.3-3-6.8-6.6-9.5c-3.7-2.7-8-4.1-12.5-4.6
			c-7.4-0.8-14.5,0.2-21.3,3c-2.5,1.1-5,2.4-7.5,3.9l5,8.9c6.9-3.5,14.1-5.9,21.9-5.1c6,0.6,10.4,5.2,10.4,10.8v3.3h-11.2
			c-8.3,0-18.1,0-25.8,8.3c-2.1,2.2-3.2,4.9-3.9,7.7c-0.4,1.8-0.7,3.8-0.7,6l0,0c0,9.6,6.7,16.6,16.3,19.2c7.8,2,14.1,0.5,21.1-3
			c1.6-0.8,3.1-1.6,4.6-2.5v5.8h11.3C337.5,352.5,337.5,325.9,337.5,313.7 M325.8,334.7c-1.3,1.5-2.9,2.8-4.5,3.9
			c-2.9,1.9-7.3,3.9-12.9,3.9c-11.6,0-12.7-8.1-12.8-10.3c0-0.9,0.1-1.7,0.3-2.6c1.2-4.5,5.6-8.5,16-8.5h13.9V334.7z"/>
		<path class="st0" d="M258.1,262.2h12.3v70.1c0,7.7,3,9.1,6.8,9.1c1.1,0,2.2-0.1,2.2-0.1v10.9c0,0-1.9,0.3-4,0.3
			c-7,0-17.2-1.9-17.2-18V262.2z"/>
		<path class="st0" d="M222.3,286c18.1,0,28.2,13.4,28.2,30c0,1.1-0.2,3.1-0.3,4.3c-0.1,0.6-0.1,1-0.1,1h-46.7
			c0.6,14,10.6,21.1,22,21.1c11,0,19-7.5,19-7.5l5.1,9c0,0-9.5,9.1-24.8,9.1c-20.1,0-33.9-14.6-33.9-33.5
			C190.8,299.2,204.1,286,222.3,286 M238,312.1c-0.4-11-7.7-16.3-16-16.3c-9.4,0-16.4,5.8-18.2,16.3H238z"/>
		<path class="st0" d="M173.4,314.3c8.8-3.6,14.5-14,14.5-25.5c0-11.8-5.9-20.9-15.1-24.3c-3.4-1.3-7.3-2.2-16.7-2.2h-29.8v19.9v34
			v36.4h12.1v-36.3h19.1c13.2,4.9,20.1,36.3,20.1,36.3h12.6C190.2,352.5,184.5,325.3,173.4,314.3 M138.4,273.2h17.3
			c7,0,9.9,0.8,12.3,2c4.6,2.5,7.1,7.2,7.1,13.8c0,7.3-3.2,12.5-8.8,14.8c-2.2,0.8-5.1,1.2-10.6,1.2h-17.3v-23.1V273.2z"/>
		<path class="st0" d="M110.3,262.2H49.6v29.5H20.1v60.7h60.7v-29.5h29.5V262.2z M73,344.7H27.8v-45.1h21.7v23.4H73V344.7z
			 M73,315.2H57.4v-15.6H73V315.2z M102.5,315.2H80.8v-23.4H57.4V270h45.1V315.2z"/>
	</g>
</g>
</svg>
