<?xml version="1.0" standalone="no"?>
<!DOCTYPE svg PUBLIC "-//W3C//DTD SVG 20010904//EN"
 "http://www.w3.org/TR/2001/REC-SVG-20010904/DTD/svg10.dtd">
<svg version="1.0" xmlns="http://www.w3.org/2000/svg"
 width="512.000000pt" height="512.000000pt" viewBox="0 0 512.000000 512.000000"
 preserveAspectRatio="xMidYMid meet">

<g transform="translate(0.000000,512.000000) scale(0.100000,-0.100000)"
fill="#000000" stroke="none">
<path d="M3515 5109 c-160 -23 -348 -106 -495 -220 -275 -213 -435 -551 -417
-879 l5 -97 -147 -6 c-380 -16 -754 -160 -1056 -407 -103 -84 -260 -252 -338
-360 -79 -112 -203 -357 -245 -486 -70 -211 -98 -424 -88 -661 l6 -151 -67
-16 c-80 -18 -113 -41 -132 -90 -11 -29 -12 -45 -2 -75 10 -35 45 -67 299
-274 158 -128 297 -239 309 -245 12 -7 42 -12 66 -12 84 0 93 11 278 375 93
182 171 345 175 362 9 46 -22 102 -71 127 -37 19 -40 19 -119 3 -45 -10 -84
-17 -88 -17 -11 0 -9 173 2 255 33 233 129 444 282 622 46 54 81 87 201 188
37 32 38 85 1 114 -42 33 -66 26 -151 -43 -194 -156 -347 -377 -427 -617 -49
-147 -61 -231 -61 -424 0 -261 12 -280 157 -251 46 9 87 16 91 16 5 0 -55
-125 -133 -279 l-142 -279 -243 197 c-133 108 -241 197 -240 199 2 2 36 11 75
20 104 24 116 43 99 148 -20 125 -15 387 9 526 43 239 149 490 290 688 80 112
247 284 352 361 400 296 875 402 1360 303 323 -66 643 -247 870 -492 298 -321
460 -736 460 -1176 0 -73 3 -85 23 -104 31 -29 72 -28 102 3 23 22 25 31 25
129 0 285 -73 578 -211 846 -86 165 -176 287 -324 436 -132 134 -223 207 -358
289 -139 84 -216 189 -240 328 -38 223 125 441 359 479 175 29 360 -70 440
-237 50 -102 50 -102 -51 -97 l-85 4 -35 -35 c-30 -30 -35 -42 -35 -82 0 -44
14 -69 190 -353 105 -169 202 -319 216 -334 14 -15 42 -32 62 -38 77 -20 92
-10 387 276 150 146 276 272 279 281 3 8 6 35 6 60 0 63 -44 107 -115 117
-137 18 -125 12 -125 64 0 123 -73 387 -121 438 -31 34 -81 32 -108 -2 -28
-35 -27 -42 14 -143 41 -103 65 -232 65 -351 0 -106 14 -124 100 -134 123 -15
131 4 -78 -200 -103 -100 -205 -199 -227 -218 l-40 -36 -110 176 c-237 381
-228 365 -203 359 13 -3 53 -9 90 -12 63 -7 68 -6 92 18 21 21 26 36 26 76 0
115 -52 254 -133 353 -60 73 -178 151 -270 180 -103 32 -245 32 -345 -1 -175
-57 -321 -203 -375 -376 -29 -93 -31 -254 -3 -333 10 -29 16 -55 14 -57 -1 -2
-41 8 -88 21 -47 14 -131 33 -187 42 l-102 16 -7 74 c-24 260 80 527 283 723
125 122 248 193 412 238 273 76 608 -4 831 -198 30 -26 65 -51 76 -55 48 -15
105 44 89 93 -3 11 -30 42 -60 69 -222 203 -561 305 -870 261z"/>
<path d="M2455 3409 c-108 -8 -264 -41 -333 -70 -71 -31 -82 -103 -21 -138 24
-13 35 -12 120 12 144 41 228 50 389 44 113 -4 167 -11 245 -32 192 -50 392
-164 529 -300 472 -467 474 -1209 4 -1676 -167 -167 -369 -274 -610 -326 -74
-15 -172 -18 -916 -23 -810 -5 -834 -6 -848 -24 -24 -33 -18 -82 13 -106 l27
-21 840 4 c812 3 844 4 931 24 275 64 483 179 675 372 245 247 373 536 387
877 14 330 -79 619 -283 880 -217 279 -582 479 -913 500 -47 3 -97 6 -111 8
-14 1 -70 -1 -125 -5z"/>
<path d="M4221 1723 c-13 -11 -36 -66 -62 -143 -83 -254 -212 -470 -388 -652
-241 -251 -528 -411 -876 -489 l-100 -23 -1373 -6 -1374 -5 -24 -28 c-37 -44
-31 -88 17 -112 24 -13 308 -15 2154 -15 l2125 0 0 -77 c0 -91 20 -134 74
-159 64 -31 87 -19 339 184 345 277 351 282 370 315 22 41 22 94 -2 134 -28
45 -595 499 -633 507 -43 8 -112 -24 -132 -63 -11 -20 -16 -57 -16 -111 l0
-80 -181 0 -182 0 26 33 c149 185 278 435 337 650 25 89 18 126 -26 146 -34
15 -48 14 -73 -6z m513 -958 c124 -99 224 -183 223 -187 -1 -4 -111 -95 -244
-203 l-243 -195 0 85 c0 48 -5 95 -10 105 -20 37 -70 40 -615 40 l-530 0 92
49 c110 59 242 148 340 230 l72 61 301 0 301 0 24 25 c23 22 25 32 25 111 0
84 0 86 20 73 11 -8 121 -95 244 -194z"/>
<path d="M21 874 c-34 -43 -26 -86 20 -109 23 -12 88 -15 358 -15 221 0 338 4
354 11 47 21 56 80 19 122 -14 16 -45 17 -373 17 l-358 0 -20 -26z"/>
</g>
</svg>
