<?xml version="1.0" encoding="UTF-8"?>
<svg version="1.1" xmlns="http://www.w3.org/2000/svg" width="512" height="512">
<path d="M0 0 C1.93383545 0.00737183 1.93383545 0.00737183 3.90673828 0.01489258 C12.92834978 0.12608043 21.12630535 0.72955483 29.8125 3.3125 C31.03195312 3.6528125 32.25140625 3.993125 33.5078125 4.34375 C48.43990651 8.88163483 60.89606485 16.34847513 72.8125 26.3125 C73.51890625 26.869375 74.2253125 27.42625 74.953125 28 C77.13541755 29.87636369 78.6654372 31.45160429 79.16015625 34.34765625 C79.1875 36.5 79.1875 36.5 78.8125 40.3125 C78.8125 44.47844246 80.96505554 46.74284135 83.375 49.9375 C83.79330078 50.535625 84.21160156 51.13375 84.64257812 51.75 C87.17007132 55.10985561 88.0825346 56.1933544 92.40234375 56.8984375 C94.09037109 57.10339844 94.09037109 57.10339844 95.8125 57.3125 C99.49866475 60.76146806 101.18053291 65.01821356 102.875 69.6875 C103.26014771 70.73925415 103.26014771 70.73925415 103.65307617 71.81225586 C107.86472113 83.7329899 109.29616833 95.76029902 109.8125 108.3125 C110.946875 108.27125 112.08125 108.23 113.25 108.1875 C119.21854436 108.20866505 124.62086307 108.96021338 129.75 112.125 C132.96711465 115.5370913 133.68263898 118.12210733 134.1875 122.75 C133.37200946 130.49716009 126.85686237 135.5431097 121.5625 140.75 C120.83675781 141.47509766 120.11101562 142.20019531 119.36328125 142.94726562 C116.00579655 146.27781863 112.61972359 149.51862394 109.01953125 152.5859375 C105.52317454 155.59963653 102.26203072 158.81612634 99.02734375 162.10546875 C98.51767059 162.62300217 98.00799744 163.14053558 97.48287964 163.67375183 C95.36845459 165.82465241 93.25698833 167.97826686 91.1550293 170.14135742 C89.59852916 171.74048828 88.0324712 173.32975441 86.46484375 174.91796875 C85.54695068 175.85793701 84.62905762 176.79790527 83.68334961 177.76635742 C78.58007367 182.29242807 73.88608748 185.06394881 66.9453125 184.6875 C60.91632061 183.62745747 57.91023702 179.35887812 54.51000977 174.74804688 C51.25026305 170.07103936 48.32897911 165.18605598 45.375 160.3125 C43.96672754 158.00145253 42.55569839 155.69209327 41.14453125 153.3828125 C40.78769257 152.79807159 40.43085388 152.21333069 40.0632019 151.61087036 C35.67893003 144.43735895 31.19075899 137.32870891 26.68579102 130.23046875 C16.93740949 114.75179291 16.93740949 114.75179291 18.19921875 107.359375 C19.33156283 103.58008648 21.32270293 101.20575359 24.67578125 99.1953125 C29.92939098 97.02471689 36.39882138 98.20200182 41.8125 99.3125 C37.99300615 86.83390519 32.41066486 77.76162707 20.8125 71.3125 C10.45537327 65.90947878 -1.51166213 65.60053438 -12.625 68.875 C-24.26770993 73.36147167 -31.86612715 82.0048244 -37.20703125 92.98046875 C-41.05122352 102.12382647 -40.43972956 114.10733299 -37.125 123.3125 C-32.59203139 133.46736265 -26.49138953 139.45168251 -17.1875 145.3125 C-4.92683586 153.06083478 6.1984682 161.36088238 16.8125 171.3125 C17.31152832 171.7775293 17.81055664 172.24255859 18.32470703 172.72167969 C49.79598606 202.2835525 70.56293794 245.97623531 73.03344727 289.17602539 C73.14835288 293.09867367 73.18359528 297.0132594 73.1875 300.9375 C73.21187297 302.28516293 73.23661132 303.6328193 73.26171875 304.98046875 C73.26558594 306.25792969 73.26945312 307.53539062 73.2734375 308.8515625 C73.28165527 309.99834473 73.28987305 311.14512695 73.29833984 312.32666016 C72.8125 315.3125 72.8125 315.3125 71.03369141 317.71630859 C68.8125 319.3125 68.8125 319.3125 64.8125 319.3125 C64.8434375 320.9521875 64.8434375 320.9521875 64.875 322.625 C64.90662595 326.17343163 64.52962733 329.54724889 64.0625 333.0625 C63.72011273 335.83408726 63.72011273 335.83408726 63.8125 338.3125 C65.70836384 340.45839423 65.70836384 340.45839423 67.8125 342.3125 C68.88870636 348.81173648 67.12067047 354.85309085 65 360.9375 C64.6908667 361.83702393 64.3817334 362.73654785 64.06323242 363.66333008 C56.45726381 385.02669338 45.35939765 403.2499698 31.8125 421.3125 C43.0325 421.3125 54.2525 421.3125 65.8125 421.3125 C65.8125 415.7025 65.8125 410.0925 65.8125 404.3125 C69.55816474 398.06972543 69.55816474 398.06972543 73.8125 396.3125 C78.06463127 395.30090425 81.35861175 395.53413218 85.2421875 397.61328125 C88.2112674 399.72051577 91.01768562 401.98362214 93.8125 404.3125 C95.18807316 405.43578906 96.56442663 406.55812299 97.94140625 407.6796875 C100.90902173 410.10593818 103.86487817 412.54559785 106.8125 414.99609375 C109.80959752 417.48649273 112.82550301 419.94879547 115.875 422.375 C124.57396319 429.29836007 133.27271023 436.24325949 141.75 443.4375 C142.33652344 443.93507813 142.92304688 444.43265625 143.52734375 444.9453125 C146.16219759 447.7483485 146.00264174 451.04612242 146.0625 454.6875 C146.08828125 455.62335938 146.1140625 456.55921875 146.140625 457.5234375 C145.58192706 462.27236997 143.61561486 464.61290278 140.0546875 467.71484375 C138.93800434 468.5674305 137.81519032 469.41202627 136.6875 470.25 C135.42038576 471.21810598 134.15482936 472.18825347 132.890625 473.16015625 C132.22482422 473.67078613 131.55902344 474.18141602 130.87304688 474.70751953 C127.33578405 477.46272875 123.88915641 480.32630019 120.4375 483.1875 C119.00012189 484.37514753 117.56262134 485.5626469 116.125 486.75 C115.41214844 487.33910156 114.69929688 487.92820312 113.96484375 488.53515625 C84.72025958 512.68449526 84.72025958 512.68449526 76.13671875 512.6015625 C72.59770095 512.16141575 70.48224395 510.59154971 67.8125 508.3125 C65.74526286 505.21164429 65.56752577 504.58318319 65.6171875 501.08203125 C65.62363281 500.27958984 65.63007813 499.47714844 65.63671875 498.65039062 C65.65347656 497.81701172 65.67023438 496.98363281 65.6875 496.125 C65.69652344 495.28001953 65.70554687 494.43503906 65.71484375 493.56445312 C65.73839297 491.48034757 65.77426353 489.39638783 65.8125 487.3125 C64.90838387 487.31401888 64.00426774 487.31553776 63.07275414 487.31710267 C9.52943658 487.40654643 -44.01387309 487.47521152 -97.55725037 487.51676132 C-103.98120089 487.52176436 -110.40515126 487.52694162 -116.82910156 487.53222656 C-118.10803544 487.5332758 -119.38696932 487.53432505 -120.70465878 487.53540608 C-141.43366382 487.55282807 -162.16262465 487.58437562 -182.89160344 487.62111118 C-204.14941327 487.65847073 -225.40719989 487.68072528 -246.66504121 487.68885398 C-259.79030955 487.69435211 -272.91545293 487.71173934 -286.04068282 487.74416587 C-295.03185758 487.76525223 -304.02296742 487.77171341 -313.01416513 487.76650551 C-318.20752983 487.76393455 -323.40067565 487.76797276 -328.59400177 487.7893219 C-333.34374677 487.80870574 -338.09312453 487.80982345 -342.842886 487.79609558 C-344.56569876 487.7943975 -346.2885339 487.79954075 -348.0113022 487.81203273 C-350.34501478 487.82797756 -352.67738417 487.81950193 -355.01107407 487.80469131 C-356.95903936 487.80696964 -356.95903936 487.80696964 -358.94635749 487.80929399 C-362.73179708 487.22907154 -363.90486391 486.32495344 -366.1875 483.3125 C-366.96885174 480.55352007 -366.86581199 478.09414918 -366.1875 475.3125 C-363.8125 472.8125 -363.8125 472.8125 -361.1875 471.3125 C-360.5275 471.3125 -359.8675 471.3125 -359.1875 471.3125 C-359.1875 460.0925 -359.1875 448.8725 -359.1875 437.3125 C-360.8375 436.9825 -362.4875 436.6525 -364.1875 436.3125 C-366.3147776 433.1215836 -366.52131412 431.11090226 -366.74609375 427.34765625 C-365.85981684 424.11863338 -363.93343602 423.11911221 -361.1875 421.3125 C-357.96240234 420.7978363 -357.96240234 420.7978363 -354.2734375 420.77905273 C-353.59798889 420.77043716 -352.92254028 420.76182159 -352.22662354 420.75294495 C-350.00485375 420.73033304 -347.78435012 420.73701343 -345.5625 420.74609375 C-344.01220323 420.7408563 -342.46190966 420.73457937 -340.91162109 420.72731018 C-337.66683935 420.71691513 -334.4224964 420.72145463 -331.17773438 420.73608398 C-327.02454265 420.75327873 -322.87273353 420.7297652 -318.71969604 420.69459438 C-315.51968258 420.67260959 -312.31999949 420.67406417 -309.11993408 420.6823597 C-307.58895348 420.68317849 -306.05794844 420.67632871 -304.52703857 420.66158867 C-302.38435416 420.64411866 -300.24414826 420.6586992 -298.1015625 420.68139648 C-296.8842041 420.68235825 -295.6668457 420.68332001 -294.41259766 420.68431091 C-290.27242431 421.49073974 -288.75268846 423.02759371 -286.1875 426.3125 C-286.1875 427.3025 -286.1875 428.2925 -286.1875 429.3125 C-279.9175 429.3125 -273.6475 429.3125 -267.1875 429.3125 C-266.5275 427.3325 -265.8675 425.3525 -265.1875 423.3125 C-261.98982464 420.77935119 -258.59316081 421.05971711 -254.63276672 421.05421448 C-253.97572461 421.05053877 -253.31868249 421.04686307 -252.64173001 421.04307598 C-250.44116863 421.03310062 -248.24086019 421.03724601 -246.0402832 421.04125977 C-244.46138236 421.03687195 -242.88248383 421.0315696 -241.30358887 421.02542114 C-237.90146278 421.01391631 -234.49939902 421.0084613 -231.0972538 421.00753975 C-225.70281466 421.00559605 -220.30850351 420.98752166 -214.91410828 420.96678162 C-201.50352497 420.9176142 -188.09290656 420.88681759 -174.68225098 420.86547852 C-164.28033828 420.84889376 -153.87853472 420.82587603 -143.47669476 420.78245777 C-138.13078732 420.76084746 -132.785088 420.75260818 -127.43913996 420.75485051 C-124.08623084 420.75316485 -120.73345343 420.73900043 -117.38059235 420.72163773 C-115.8445222 420.71611212 -114.30842386 420.71548321 -112.77235222 420.72057533 C-79.5613886 420.81898109 -50.00374864 408.5360456 -26.21484375 385.42578125 C-12.2466737 371.34300961 -2.57632943 353.30962447 2.8125 334.3125 C3.15152344 333.12398438 3.49054688 331.93546875 3.83984375 330.7109375 C8.33341655 311.36993751 7.61308277 289.29218462 1.8125 270.3125 C1.60351074 269.62446289 1.39452148 268.93642578 1.17919922 268.22753906 C-3.67080002 252.87465759 -11.52008028 239.34704391 -22.1875 227.3125 C-22.79851562 226.55839844 -23.40953125 225.80429688 -24.0390625 225.02734375 C-41.68832546 203.73557333 -70.12408895 190.91670884 -97.1875 187.5625 C-98.85245246 187.45000321 -100.5197657 187.37067678 -102.1875 187.3125 C-103.425 187.2609375 -104.6625 187.209375 -105.9375 187.15625 C-119.67428868 186.77154265 -132.68299944 188.89291522 -145.8515625 192.7421875 C-149.45180476 193.62117641 -152.49549609 193.64214321 -156.1875 193.3125 C-157.1775 192.6525 -158.1675 191.9925 -159.1875 191.3125 C-159.1875 190.6525 -159.1875 189.9925 -159.1875 189.3125 C-160.24710938 189.89 -161.30671875 190.4675 -162.3984375 191.0625 C-163.78634058 191.81271788 -165.17436787 192.56270601 -166.5625 193.3125 C-167.61050781 193.88484375 -167.61050781 193.88484375 -168.6796875 194.46875 C-173.9609375 197.3125 -173.9609375 197.3125 -176.1875 197.3125 C-175.98125 198.385 -175.775 199.4575 -175.5625 200.5625 C-175.17535605 204.43393954 -175.15992549 205.2168282 -177.1875 208.3125 C-179.2890625 210.20703125 -179.2890625 210.20703125 -181.8125 212.125 C-182.71355469 212.83011719 -183.61460937 213.53523437 -184.54296875 214.26171875 C-186.10673268 215.47438649 -187.67144826 216.68583151 -189.23828125 217.89453125 C-209.92095807 234.80893569 -223.14509712 263.1058052 -226.1875 289.3125 C-226.8241121 297.30031957 -227.06820027 305.30193478 -227.1875 313.3125 C-226.5265332 313.17247559 -225.86556641 313.03245117 -225.18457031 312.88818359 C-210.22631988 309.79309006 -210.22631988 309.79309006 -203.6875 313.0625 C-200.18139664 316.21799303 -199.3376671 318.41149739 -198.5625 323.0625 C-198.69225389 327.65219878 -200.35896709 331.11240547 -202.4609375 335.09765625 C-203.19505604 336.5267278 -203.92822868 337.95628552 -204.66064453 339.38623047 C-205.06430237 340.1695575 -205.46796021 340.95288452 -205.8838501 341.75994873 C-208.32980539 346.54913813 -210.69602589 351.37805146 -213.078125 356.19921875 C-214.6592956 359.38429839 -216.24217966 362.56852258 -217.82519531 365.75268555 C-218.90932627 367.9362146 -219.99132293 370.12080452 -221.07128906 372.30639648 C-222.65125759 375.50267377 -224.23891788 378.69502698 -225.828125 381.88671875 C-226.30735413 382.86066086 -226.78658325 383.83460297 -227.28033447 384.83805847 C-233.60322075 397.4869842 -233.60322075 397.4869842 -241.1875 400.3125 C-247.0968189 401.07852282 -251.33854777 399.57746117 -256.1875 396.3125 C-259.42591044 393.71828949 -262.56600149 391.03231958 -265.6953125 388.30859375 C-269.10169129 385.35454993 -272.62283783 382.57196673 -276.1875 379.8125 C-281.33020278 375.81806433 -286.33416355 371.69639003 -291.27099609 367.45068359 C-294.12882538 365.00723518 -297.02470798 362.64106144 -300.0078125 360.3515625 C-300.64267578 359.86365234 -301.27753906 359.37574219 -301.93164062 358.87304688 C-303.15114168 357.94227504 -304.37611944 357.01861853 -305.60742188 356.10351562 C-309.66618002 353.00641447 -312.62989946 350.20097126 -313.62109375 345.06640625 C-313.63066959 339.69436082 -312.99276523 336.41047794 -309.1875 332.3125 C-303.73232725 329.14849981 -298.41704322 328.67599447 -292.1875 328.3125 C-292.34831055 327.65975098 -292.50912109 327.00700195 -292.67480469 326.33447266 C-293.31896939 322.53758188 -293.36936935 318.8004032 -293.390625 314.9609375 C-293.39632507 314.14742828 -293.40202515 313.33391907 -293.40789795 312.49575806 C-293.41733035 310.76932056 -293.42387493 309.0428652 -293.42773438 307.31640625 C-293.43728847 304.74444292 -293.46826199 302.17333327 -293.5 299.6015625 C-293.59835044 284.38615539 -291.90226498 269.48713338 -287.5 254.875 C-287.24508789 254.01285889 -286.99017578 253.15071777 -286.72753906 252.26245117 C-280.04537453 230.31788754 -270.11298689 210.53318576 -256.1875 192.3125 C-255.5171875 191.41789063 -254.846875 190.52328125 -254.15625 189.6015625 C-224.75944928 151.95104466 -181.10701095 128.00215337 -134.0078125 121.56640625 C-124.70227236 120.43829685 -115.56513135 120.23002816 -106.1875 120.3125 C-106.2189209 119.17373413 -106.2189209 119.17373413 -106.25097656 118.01196289 C-106.60367444 103.26003915 -106.91287352 89.40029584 -102.1875 75.3125 C-101.97851074 74.68134277 -101.76952148 74.05018555 -101.55419922 73.39990234 C-91.77756092 44.61191347 -70.74286303 23.38629339 -44.125 9.5 C-37.66651173 6.37562494 -31.14935418 4.03662116 -24.1875 2.3125 C-23.13985474 2.04651001 -23.13985474 2.04651001 -22.07104492 1.77514648 C-14.72169878 0.08642772 -7.51750922 -0.03369547 0 0 Z " fill="#7CC1EC" transform="translate(366.1875,-0.3125)"/>
<path d="M0 0 C1.93383545 0.00737183 1.93383545 0.00737183 3.90673828 0.01489258 C12.92834978 0.12608043 21.12630535 0.72955483 29.8125 3.3125 C31.03195312 3.6528125 32.25140625 3.993125 33.5078125 4.34375 C48.43990651 8.88163483 60.89606485 16.34847513 72.8125 26.3125 C73.51890625 26.869375 74.2253125 27.42625 74.953125 28 C77.13541755 29.87636369 78.6654372 31.45160429 79.16015625 34.34765625 C79.1875 36.5 79.1875 36.5 78.8125 40.3125 C78.8125 44.47844246 80.96505554 46.74284135 83.375 49.9375 C83.79330078 50.535625 84.21160156 51.13375 84.64257812 51.75 C87.17007132 55.10985561 88.0825346 56.1933544 92.40234375 56.8984375 C94.09037109 57.10339844 94.09037109 57.10339844 95.8125 57.3125 C99.49866475 60.76146806 101.18053291 65.01821356 102.875 69.6875 C103.26014771 70.73925415 103.26014771 70.73925415 103.65307617 71.81225586 C107.86472113 83.7329899 109.29616833 95.76029902 109.8125 108.3125 C110.946875 108.27125 112.08125 108.23 113.25 108.1875 C119.21854436 108.20866505 124.62086307 108.96021338 129.75 112.125 C132.96711465 115.5370913 133.68263898 118.12210733 134.1875 122.75 C133.37200946 130.49716009 126.85686237 135.5431097 121.5625 140.75 C120.83675781 141.47509766 120.11101562 142.20019531 119.36328125 142.94726562 C116.00579655 146.27781863 112.61972359 149.51862394 109.01953125 152.5859375 C105.52317454 155.59963653 102.26203072 158.81612634 99.02734375 162.10546875 C98.51767059 162.62300217 98.00799744 163.14053558 97.48287964 163.67375183 C95.36845459 165.82465241 93.25698833 167.97826686 91.1550293 170.14135742 C89.59852916 171.74048828 88.0324712 173.32975441 86.46484375 174.91796875 C85.54695068 175.85793701 84.62905762 176.79790527 83.68334961 177.76635742 C78.58007367 182.29242807 73.88608748 185.06394881 66.9453125 184.6875 C60.91632061 183.62745747 57.91023702 179.35887812 54.51000977 174.74804688 C51.25026305 170.07103936 48.32897911 165.18605598 45.375 160.3125 C43.96672754 158.00145253 42.55569839 155.69209327 41.14453125 153.3828125 C40.78769257 152.79807159 40.43085388 152.21333069 40.0632019 151.61087036 C35.67893003 144.43735895 31.19075899 137.32870891 26.68579102 130.23046875 C16.93740949 114.75179291 16.93740949 114.75179291 18.19921875 107.359375 C19.33156283 103.58008648 21.32270293 101.20575359 24.67578125 99.1953125 C29.92939098 97.02471689 36.39882138 98.20200182 41.8125 99.3125 C37.99300615 86.83390519 32.41066486 77.76162707 20.8125 71.3125 C10.45537327 65.90947878 -1.51166213 65.60053438 -12.625 68.875 C-24.26770993 73.36147167 -31.86612715 82.0048244 -37.20703125 92.98046875 C-41.05122352 102.12382647 -40.43972956 114.10733299 -37.125 123.3125 C-32.59203139 133.46736265 -26.49138953 139.45168251 -17.1875 145.3125 C-4.92683586 153.06083478 6.1984682 161.36088238 16.8125 171.3125 C17.31152832 171.7775293 17.81055664 172.24255859 18.32470703 172.72167969 C49.79598606 202.2835525 70.56293794 245.97623531 73.03344727 289.17602539 C73.14835288 293.09867367 73.18359528 297.0132594 73.1875 300.9375 C73.21187297 302.28516293 73.23661132 303.6328193 73.26171875 304.98046875 C73.26558594 306.25792969 73.26945312 307.53539062 73.2734375 308.8515625 C73.28165527 309.99834473 73.28987305 311.14512695 73.29833984 312.32666016 C72.70622293 315.96565005 71.73989176 317.13180527 68.8125 319.3125 C65.3125 319.875 65.3125 319.875 61.8125 319.3125 C59.08714562 317.09418829 57.9480015 315.26439348 57.45068359 311.77075195 C57.29747891 308.57266997 57.25848895 305.38921144 57.25 302.1875 C56.29478831 258.61839646 39.69891437 218.96584766 9.8125 187.3125 C8.636875 186.02279297 8.636875 186.02279297 7.4375 184.70703125 C-19.43124415 156.3228244 -61.34782724 138.26937087 -100.21401978 137.08850098 C-115.36537803 136.71849617 -130.4196741 136.51027912 -145.1875 140.3125 C-146.75360822 140.68095657 -148.32003274 141.04807049 -149.88671875 141.4140625 C-179.89562151 148.64699283 -206.19450288 163.77079557 -228.1875 185.3125 C-228.99574219 186.07046875 -229.80398437 186.8284375 -230.63671875 187.609375 C-240.61636171 197.15360597 -248.32985535 208.38435445 -255.1875 220.3125 C-255.51991699 220.88693848 -255.85233398 221.46137695 -256.19482422 222.05322266 C-265.86956534 238.92497082 -271.53172824 256.24432685 -275.1875 275.3125 C-275.55875 277.20162109 -275.55875 277.20162109 -275.9375 279.12890625 C-278.28455456 293.45571848 -278.23212355 308.96817401 -276.42553711 323.35546875 C-276.09018505 326.11257857 -275.94485233 328.84928917 -275.875 331.625 C-275.81892578 333.10419922 -275.81892578 333.10419922 -275.76171875 334.61328125 C-276.31235635 338.10402051 -277.40665713 339.19078425 -280.1875 341.3125 C-282.37109375 342.140625 -282.37109375 342.140625 -284.625 342.5625 C-285.40617187 342.70945312 -286.18734375 342.85640625 -286.9921875 343.0078125 C-289.41670029 343.34431072 -291.74317478 343.4701984 -294.1875 343.3125 C-290.96019234 346.62077953 -287.66015517 349.66289733 -284.0625 352.5625 C-283.09441406 353.34625 -282.12632812 354.13 -281.12890625 354.9375 C-280.15824219 355.72125 -279.18757813 356.505 -278.1875 357.3125 C-276.45728883 358.72789079 -274.72811933 360.14455593 -273 361.5625 C-271.60716897 362.70044696 -270.21432684 363.83838036 -268.82128906 364.97607422 C-267.62693317 365.95304734 -266.43373413 366.9314352 -265.24121094 367.91064453 C-263.12118918 369.65127835 -260.99824865 371.38830457 -258.875 373.125 C-257.8701355 373.95209473 -257.8701355 373.95209473 -256.8449707 374.79589844 C-256.19874756 375.32344727 -255.55252441 375.85099609 -254.88671875 376.39453125 C-254.31783936 376.86093018 -253.74895996 377.3273291 -253.1628418 377.80786133 C-250.59320596 379.76518004 -247.87518021 381.52071319 -245.1875 383.3125 C-236.2775 365.4925 -227.3675 347.6725 -218.1875 329.3125 C-227.06018146 329.60050934 -227.06018146 329.60050934 -230.1875 331.3125 C-233.5 331.75 -233.5 331.75 -237.1875 331.3125 C-240.27042728 328.76573398 -241.82978828 327.12490607 -242.60498047 323.19726562 C-243.99786245 306.78237288 -244.28452 290.34738862 -240.1875 274.3125 C-239.9090625 273.16265625 -239.630625 272.0128125 -239.34375 270.828125 C-234.07486045 250.75183895 -224.76872372 233.0141124 -211.1875 217.3125 C-210.51460938 216.50683594 -209.84171875 215.70117188 -209.1484375 214.87109375 C-202.46915765 207.11098498 -194.72280846 200.00270564 -186.1875 194.3125 C-182.36576452 194.4514722 -179.9106601 194.84244594 -176.6875 196.9375 C-175.1875 199.3125 -175.1875 199.3125 -175.125 202.75 C-176.82863261 208.46217994 -181.2018611 211.39662271 -185.74145508 215.05224609 C-207.822983 232.9326404 -223.06119383 260.98290685 -226.1875 289.3125 C-226.76869189 297.30096297 -227.00746062 305.30621831 -227.1875 313.3125 C-226.5265332 313.17247559 -225.86556641 313.03245117 -225.18457031 312.88818359 C-210.22631988 309.79309006 -210.22631988 309.79309006 -203.6875 313.0625 C-200.18139664 316.21799303 -199.3376671 318.41149739 -198.5625 323.0625 C-198.69225389 327.65219878 -200.35896709 331.11240547 -202.4609375 335.09765625 C-203.19505604 336.5267278 -203.92822868 337.95628552 -204.66064453 339.38623047 C-205.06430237 340.1695575 -205.46796021 340.95288452 -205.8838501 341.75994873 C-208.32980539 346.54913813 -210.69602589 351.37805146 -213.078125 356.19921875 C-214.6592956 359.38429839 -216.24217966 362.56852258 -217.82519531 365.75268555 C-218.90932627 367.9362146 -219.99132293 370.12080452 -221.07128906 372.30639648 C-222.65125759 375.50267377 -224.23891788 378.69502698 -225.828125 381.88671875 C-226.30735413 382.86066086 -226.78658325 383.83460297 -227.28033447 384.83805847 C-233.60322075 397.4869842 -233.60322075 397.4869842 -241.1875 400.3125 C-247.0968189 401.07852282 -251.33854777 399.57746117 -256.1875 396.3125 C-259.42591044 393.71828949 -262.56600149 391.03231958 -265.6953125 388.30859375 C-269.10169129 385.35454993 -272.62283783 382.57196673 -276.1875 379.8125 C-281.33020278 375.81806433 -286.33416355 371.69639003 -291.27099609 367.45068359 C-294.12882538 365.00723518 -297.02470798 362.64106144 -300.0078125 360.3515625 C-300.64267578 359.86365234 -301.27753906 359.37574219 -301.93164062 358.87304688 C-303.15114168 357.94227504 -304.37611944 357.01861853 -305.60742188 356.10351562 C-309.66618002 353.00641447 -312.62989946 350.20097126 -313.62109375 345.06640625 C-313.63066959 339.69436082 -312.99276523 336.41047794 -309.1875 332.3125 C-303.73232725 329.14849981 -298.41704322 328.67599447 -292.1875 328.3125 C-292.34831055 327.65975098 -292.50912109 327.00700195 -292.67480469 326.33447266 C-293.31896939 322.53758188 -293.36936935 318.8004032 -293.390625 314.9609375 C-293.39632507 314.14742828 -293.40202515 313.33391907 -293.40789795 312.49575806 C-293.41733035 310.76932056 -293.42387493 309.0428652 -293.42773438 307.31640625 C-293.43728847 304.74444292 -293.46826199 302.17333327 -293.5 299.6015625 C-293.59835044 284.38615539 -291.90226498 269.48713338 -287.5 254.875 C-287.24508789 254.01285889 -286.99017578 253.15071777 -286.72753906 252.26245117 C-280.04537453 230.31788754 -270.11298689 210.53318576 -256.1875 192.3125 C-255.5171875 191.41789063 -254.846875 190.52328125 -254.15625 189.6015625 C-224.75944928 151.95104466 -181.10701095 128.00215337 -134.0078125 121.56640625 C-124.70227236 120.43829685 -115.56513135 120.23002816 -106.1875 120.3125 C-106.20844727 119.55332275 -106.22939453 118.79414551 -106.25097656 118.01196289 C-106.60367444 103.26003915 -106.91287352 89.40029584 -102.1875 75.3125 C-101.97851074 74.68134277 -101.76952148 74.05018555 -101.55419922 73.39990234 C-91.77756092 44.61191347 -70.74286303 23.38629339 -44.125 9.5 C-37.66651173 6.37562494 -31.14935418 4.03662116 -24.1875 2.3125 C-23.13985474 2.04651001 -23.13985474 2.04651001 -22.07104492 1.77514648 C-14.72169878 0.08642772 -7.51750922 -0.03369547 0 0 Z " fill="#010101" transform="translate(366.1875,-0.3125)"/>
<path d="M0 0 C2.34819124 2.34819124 2.29121343 2.83345467 2.30078125 6.0234375 C2.17303332 11.23098306 0.89281423 15.73228818 -0.8125 20.625 C-1.1216333 21.52452393 -1.4307666 22.42404785 -1.74926758 23.35083008 C-9.35523619 44.71419338 -20.45310235 62.9374698 -34 81 C-22.78 81 -11.56 81 0 81 C0 75.39 0 69.78 0 64 C3.74566474 57.75722543 3.74566474 57.75722543 8 56 C12.25213127 54.98840425 15.54611175 55.22163218 19.4296875 57.30078125 C22.3987674 59.40801577 25.20518562 61.67112214 28 64 C29.37557316 65.12328906 30.75192663 66.24562299 32.12890625 67.3671875 C35.09652173 69.79343818 38.05237817 72.23309785 41 74.68359375 C43.99709752 77.17399273 47.01300301 79.63629547 50.0625 82.0625 C58.76146319 88.98586007 67.46021023 95.93075949 75.9375 103.125 C76.52402344 103.62257813 77.11054688 104.12015625 77.71484375 104.6328125 C80.34969759 107.4358485 80.19014174 110.73362242 80.25 114.375 C80.27578125 115.31085938 80.3015625 116.24671875 80.328125 117.2109375 C79.76942706 121.95986997 77.80311486 124.30040278 74.2421875 127.40234375 C73.12550434 128.2549305 72.00269032 129.09952627 70.875 129.9375 C69.60788576 130.90560598 68.34232936 131.87575347 67.078125 132.84765625 C66.41232422 133.35828613 65.74652344 133.86891602 65.06054688 134.39501953 C61.52328405 137.15022875 58.07665641 140.01380019 54.625 142.875 C53.18762189 144.06264753 51.75012134 145.2501469 50.3125 146.4375 C49.59964844 147.02660156 48.88679688 147.61570312 48.15234375 148.22265625 C18.90775958 172.37199526 18.90775958 172.37199526 10.32421875 172.2890625 C6.78520095 171.84891575 4.66974395 170.27904971 2 168 C-0.06723714 164.89914429 -0.24497423 164.27068319 -0.1953125 160.76953125 C-0.18886719 159.96708984 -0.18242187 159.16464844 -0.17578125 158.33789062 C-0.15902344 157.50451172 -0.14226562 156.67113281 -0.125 155.8125 C-0.11597656 154.96751953 -0.10695313 154.12253906 -0.09765625 153.25195312 C-0.07410703 151.16784757 -0.03823647 149.08388783 0 147 C-0.90411613 147.00151888 -1.80823226 147.00303776 -2.73974586 147.00460267 C-56.28306342 147.09404643 -109.82637309 147.16271152 -163.36975037 147.20426132 C-169.79370089 147.20926436 -176.21765126 147.21444162 -182.64160156 147.21972656 C-183.92053544 147.2207758 -185.19946932 147.22182505 -186.51715878 147.22290608 C-207.24616382 147.24032807 -227.97512465 147.27187562 -248.70410344 147.30861118 C-269.96191327 147.34597073 -291.21969989 147.36822528 -312.47754121 147.37635398 C-325.60280955 147.38185211 -338.72795293 147.39923934 -351.85318282 147.43166587 C-360.84435758 147.45275223 -369.83546742 147.45921341 -378.82666513 147.45400551 C-384.02002983 147.45143455 -389.21317565 147.45547276 -394.40650177 147.4768219 C-399.15624677 147.49620574 -403.90562453 147.49732345 -408.655386 147.48359558 C-410.37819876 147.4818975 -412.1010339 147.48704075 -413.8238022 147.49953273 C-416.15751478 147.51547756 -418.48988417 147.50700193 -420.82357407 147.49219131 C-422.77153936 147.49446964 -422.77153936 147.49446964 -424.75885749 147.49679399 C-428.54429708 146.91657154 -429.71736391 146.01245344 -432 143 C-432.56640625 141 -432.56640625 141 -432.5625 139 C-432.58441406 138.34 -432.60632813 137.68 -432.62890625 137 C-431.59400179 133.70887526 -429.92787149 132.79112659 -427 131 C-423.5297033 130.41960396 -420.10023879 130.49495258 -416.58918762 130.54589844 C-415.52928594 130.545303 -414.46938425 130.54470757 -413.37736434 130.54409409 C-409.81871868 130.5468762 -406.26089498 130.5782636 -402.70239258 130.609375 C-400.15274521 130.61705105 -397.6030918 130.62290656 -395.05343628 130.6270752 C-389.55534442 130.63973473 -384.05751017 130.66438947 -378.55951881 130.69934082 C-370.58210589 130.74966956 -362.60477212 130.77389318 -354.62722655 130.79107428 C-341.64652265 130.81935873 -328.66591803 130.8625529 -315.68530273 130.91796875 C-314.90841863 130.92128 -314.13153452 130.92459125 -313.33110847 130.92800283 C-307.04003185 130.95493293 -300.74895847 130.9825896 -294.45788574 131.01041412 C-288.98942189 131.03459579 -283.52095706 131.05853086 -278.05249023 131.08203125 C-277.2829245 131.08534376 -276.51335876 131.08865626 -275.72047285 131.09206915 C-262.81321693 131.1471293 -249.90595934 131.18600452 -236.9986164 131.21367264 C-229.06058144 131.23145121 -221.12285244 131.26330211 -213.18495973 131.3142519 C-207.06761343 131.35246119 -200.95036642 131.36943129 -194.83291245 131.3792572 C-192.34917134 131.38665231 -189.86543801 131.40086439 -187.38178444 131.42298889 C-165.02929315 131.61556589 -143.12163921 129.7423372 -122 122 C-120.69200928 121.55291936 -119.38339982 121.10764536 -118.07421875 120.6640625 C-98.73590114 113.94917241 -81.46901247 103.36157678 -66 90 C-64.53046875 88.73349609 -64.53046875 88.73349609 -63.03125 87.44140625 C-39.57746712 66.81616321 -24.70715455 39.86324372 -15.171875 10.42138672 C-14.58986328 8.62918701 -14.58986328 8.62918701 -13.99609375 6.80078125 C-13.65763428 5.72997314 -13.3191748 4.65916504 -12.97045898 3.5559082 C-12 1 -12 1 -10 -1 C-5.95027674 -2.05644955 -3.52533292 -2.3921902 0 0 Z " fill="#010000" transform="translate(432,340)"/>
<path d="M0 0 C1.89669686 1.68652936 3.79253705 3.37402267 5.6875 5.0625 C9.09886653 8.17840583 9.09886653 8.17840583 13.40625 8.9921875 C14.8923784 8.63083436 16.37687397 8.26267674 17.859375 7.88671875 C20 8 20 8 22.265625 10.01953125 C24.32457208 12.60802767 26.20284513 15.2245378 28 18 C28.66 18.99 29.32 19.98 30 21 C29.64111965 23.96076291 29.15341979 24.84658021 27 27 C26.57275852 31.43959624 27.29686475 34.25730855 29.3125 38.1875 C35.09989919 50.23775043 36.1755797 62.33901063 36.4296875 75.52539062 C36.47609375 76.87987305 36.47609375 76.87987305 36.5234375 78.26171875 C36.54325684 79.07600342 36.56307617 79.89028809 36.58349609 80.72924805 C37.10416915 83.56792337 37.9939669 84.93761925 40 87 C41.89762721 87.80646133 41.89762721 87.80646133 44.01171875 88.046875 C44.76904297 88.16933594 45.52636719 88.29179688 46.30664062 88.41796875 C47.09232422 88.52753906 47.87800781 88.63710937 48.6875 88.75 C49.48478516 88.87503906 50.28207031 89.00007813 51.10351562 89.12890625 C53.06669237 89.43455053 55.03309915 89.71931793 57 90 C53.21102082 94.73622397 49.1194255 98.77294756 44.59643555 102.80786133 C40.70653886 106.32901425 36.9755605 109.9939869 33.28125 113.71875 C32.77331406 114.23046753 32.26537811 114.74218506 31.74205017 115.26940918 C29.15699867 117.87721735 26.57981348 120.49240386 24.01000977 123.11523438 C23.03935617 124.09778559 22.06857676 125.08021254 21.09765625 126.0625 C20.23664307 126.94035156 19.37562988 127.81820312 18.48852539 128.72265625 C16.1155813 130.89422718 13.81492714 132.46258037 11 134 C10.68474365 133.48953125 10.3694873 132.9790625 10.04467773 132.453125 C8.50959313 129.96835308 6.97364769 127.48411484 5.4375 125 C4.86193359 124.06897461 4.28636719 123.13794922 3.69335938 122.17871094 C0.46878367 116.96858461 -2.76886155 111.76712204 -6.02734375 106.578125 C-6.68984131 105.52238281 -7.35233887 104.46664062 -8.03491211 103.37890625 C-9.31630876 101.33860566 -10.59958582 99.29948447 -11.88500977 97.26171875 C-15.43958082 91.59982581 -18.82878398 85.88574771 -22 80 C-20.73542969 80.09539062 -19.47085938 80.19078125 -18.16796875 80.2890625 C-16.50785113 80.40161285 -14.84769258 80.51356068 -13.1875 80.625 C-12.35412109 80.68945312 -11.52074219 80.75390625 -10.66210938 80.8203125 C-9.45844727 80.89765625 -9.45844727 80.89765625 -8.23046875 80.9765625 C-7.49207764 81.02893066 -6.75368652 81.08129883 -5.99291992 81.13525391 C-3.67745795 81.14397982 -3.67745795 81.14397982 -1 79 C2.48945995 68.53162015 -0.87842538 57.2733824 -5.61328125 47.7578125 C-14.37431466 32.17832515 -26.35758266 22.94236359 -43.515625 18.03515625 C-57.79342906 14.4535124 -73.23950208 17.29878407 -85.875 24.625 C-99.40323066 33.69962997 -108.28315224 45.43172813 -112.34375 61.2890625 C-114.47729521 73.35375266 -112.86000806 84.41997582 -109 96 C-117.06251743 94.43884035 -125.05686282 92.63709683 -133.05273438 90.76757812 C-138.02611699 89.62040764 -142.93333963 88.62369678 -148 88 C-153.33260452 67.31465505 -146.82982216 44.28462032 -136.3125 26.375 C-121.96797396 4.1764369 -101.39744155 -10.73824976 -75.9375 -17.875 C-49.56314427 -23.33176325 -21.16314122 -16.47723585 0 0 Z " fill="#FDDE7C" transform="translate(424,34)"/>
<path d="M0 0 C1.29295019 0.35553626 2.58591984 0.71100173 3.87890625 1.06640625 C38.4301998 10.92150086 67.30658346 32.70516575 85.17724609 64.06591797 C100.21710317 91.76953216 106.79846328 123.78176919 100 155 C99.75507813 156.14339844 99.51015625 157.28679687 99.2578125 158.46484375 C94.21376242 179.37756467 85.14592966 198.71986819 71 215 C70.30261719 215.81855469 69.60523438 216.63710938 68.88671875 217.48046875 C52.1019499 236.70991086 31.62497581 249.48054666 7.4375 257.375 C6.7559082 257.60155273 6.07431641 257.82810547 5.37207031 258.06152344 C-8.3942142 262.26665858 -22.53237374 263.45201539 -36.83520508 263.41992188 C-38.42579228 263.42728948 -40.01637419 263.43588334 -41.60694885 263.44558716 C-45.86233009 263.46749854 -50.11751615 263.47075042 -54.37294602 263.46883965 C-57.93984102 263.46871883 -61.50669623 263.47732541 -65.07357997 263.48561716 C-73.4814542 263.50473114 -81.88922915 263.50777488 -90.29711914 263.50097656 C-98.95899626 263.49430269 -107.62045115 263.5173611 -116.2822426 263.55429029 C-123.74761487 263.58495829 -131.21285081 263.59635175 -138.67828482 263.59245348 C-143.12558189 263.59038772 -147.57254791 263.59584269 -152.01978493 263.62034607 C-156.18898995 263.64257057 -160.35750069 263.64077202 -164.5267086 263.62041855 C-166.05494601 263.61700393 -167.58322996 263.62211717 -169.11140442 263.63640213 C-171.19831691 263.65456608 -173.28286447 263.64187384 -175.3697052 263.62145996 C-177.11968921 263.62252872 -177.11968921 263.62252872 -178.90502644 263.62361908 C-182.94142457 262.81030845 -184.42930195 261.14271446 -187 258 C-188.0521332 255.12416926 -188.22819245 253.72606689 -187.3125 250.8125 C-185.68385933 248.56342479 -184.59155817 248.00523224 -182 247 C-179.00966358 246.74666691 -179.00966358 246.74666691 -175.44526672 246.74171448 C-174.78822461 246.73803877 -174.13118249 246.73436307 -173.45423001 246.73057598 C-171.25366863 246.72060062 -169.05336019 246.72474601 -166.8527832 246.72875977 C-165.27388236 246.72437195 -163.69498383 246.7190696 -162.11608887 246.71292114 C-158.71396278 246.70141631 -155.31189902 246.6959613 -151.9097538 246.69503975 C-146.51531466 246.69309605 -141.12100351 246.67502166 -135.72660828 246.65428162 C-122.31602497 246.6051142 -108.90540656 246.57431759 -95.49475098 246.55297852 C-85.09283828 246.53639376 -74.69103472 246.51337603 -64.28919476 246.46995777 C-58.94328732 246.44834746 -53.597588 246.44010818 -48.25163996 246.44235051 C-44.89873084 246.44066485 -41.54595343 246.42650043 -38.19309235 246.40913773 C-36.6570222 246.40361212 -35.12092386 246.40298321 -33.58485222 246.40807533 C-0.3738886 246.50648109 29.18375136 234.2235456 52.97265625 211.11328125 C66.9408263 197.03050961 76.61117057 178.99712447 82 160 C82.33902344 158.81148437 82.67804688 157.62296875 83.02734375 156.3984375 C87.52091655 137.05743751 86.80058277 114.97968462 81 96 C80.79101074 95.31196289 80.58202148 94.62392578 80.36669922 93.91503906 C75.51669998 78.56215759 67.66741972 65.03454391 57 53 C56.08347656 51.86884766 56.08347656 51.86884766 55.1484375 50.71484375 C37.49917454 29.42307333 9.06341105 16.60420884 -18 13.25 C-19.66495246 13.13750321 -21.3322657 13.05817678 -23 13 C-24.2375 12.9484375 -25.475 12.896875 -26.75 12.84375 C-39.50437816 12.48655567 -51.8641642 14.13118022 -64.125 17.6875 C-68.66613587 18.99891865 -72.27902374 19.57976901 -77 19 C-79.5 17.375 -79.5 17.375 -81 15 C-81.5625 12.0625 -81.5625 12.0625 -81 9 C-75.76838319 2.75827138 -69.62606162 1.76073419 -62 0 C-60.19789062 -0.45246094 -60.19789062 -0.45246094 -58.359375 -0.9140625 C-39.87106458 -4.91861557 -18.21662873 -5.39350839 0 0 Z " fill="#010202" transform="translate(287,174)"/>
<path d="M0 0 C0.66 0.33 1.32 0.66 2 1 C-5.80583634 18.37112324 -14.45499986 33.60271796 -27 48 C-27.83015625 48.96421875 -28.6603125 49.9284375 -29.515625 50.921875 C-48.76542153 72.86100757 -73.38976391 87.98313943 -100.90771484 97.28613281 C-102.67376439 97.88869161 -104.42655267 98.52991255 -106.17578125 99.1796875 C-126.1902851 106.16715975 -147.95848392 106.5857382 -168.91064453 106.45410156 C-171.48587527 106.45296953 -174.06110729 106.45361387 -176.63633728 106.45587158 C-182.119345 106.45794239 -187.60215847 106.44567649 -193.08511734 106.42292023 C-201.01196407 106.39004283 -208.93871942 106.37995729 -216.86562692 106.37496826 C-229.73468958 106.36627071 -242.6036493 106.33980789 -255.47265625 106.30175781 C-267.95409642 106.26489264 -280.43550837 106.23665248 -292.91699219 106.21972656 C-294.07615474 106.21815022 -294.07615474 106.21815022 -295.25873472 106.21654204 C-299.13654065 106.21132089 -303.01434677 106.20626629 -306.89215302 106.20129442 C-338.92817745 106.16000545 -370.96407255 106.08940794 -403 106 C-403 101.05 -403 96.1 -403 91 C-401.65123024 90.99853344 -400.30246048 90.99706688 -398.91281891 90.99555588 C-366.79684425 90.95974788 -334.6809748 90.90335491 -302.56508401 90.82207905 C-298.60035585 90.81206323 -294.63562729 90.80221883 -290.67089844 90.79248047 C-289.88169036 90.7905391 -289.09248228 90.78859772 -288.2793588 90.78659752 C-275.55005287 90.75569214 -262.82076491 90.73862906 -250.09142858 90.72680578 C-237.00119826 90.71433447 -223.91106127 90.68669968 -210.82088995 90.64538693 C-202.76275733 90.6204213 -194.70477976 90.6068702 -186.64660794 90.60857043 C-180.43676274 90.60860409 -174.22714397 90.58740131 -168.01736832 90.55883217 C-165.4925228 90.55040444 -162.96764422 90.54853389 -160.44279099 90.55419731 C-110.84783028 90.65051161 -66.85328234 74.62402695 -31 40 C-29.70835937 38.78570312 -29.70835937 38.78570312 -28.390625 37.546875 C-16.88998195 26.47482734 -8.46187712 13.43282775 0 0 Z " fill="#62A8D7" transform="translate(410,366)"/>
<path d="M0 0 C2.76655418 1.29108381 5.04962067 2.7064804 7.3984375 4.65234375 C8.03531494 5.17578369 8.67219238 5.69922363 9.32836914 6.23852539 C10.00375732 6.79918701 10.67914551 7.35984863 11.375 7.9375 C12.8182481 9.12332425 14.2622721 10.30820472 15.70703125 11.4921875 C16.42971191 12.08483398 17.15239258 12.67748047 17.89697266 13.28808594 C20.92261041 15.75102672 23.98752959 18.16161689 27.0625 20.5625 C34.42297372 26.31526886 41.71424802 32.15303097 49 38 C47.46330635 42.19449712 44.39186623 44.29563843 40.9375 46.875 C39.66385462 47.84959237 38.39178917 48.82625202 37.12109375 49.8046875 C36.44933105 50.3212793 35.77756836 50.83787109 35.08544922 51.37011719 C31.49739195 54.1743633 28.00270209 57.0903754 24.5 60 C19.06745346 64.49788167 13.60441301 68.94984101 8.0625 73.3125 C7.47726562 73.77462891 6.89203125 74.23675781 6.2890625 74.71289062 C2.2513076 77.8743462 2.2513076 77.8743462 0 79 C-0.05607422 77.10314453 -0.05607422 77.10314453 -0.11328125 75.16796875 C-0.17893833 73.5077827 -0.24538576 71.84762778 -0.3125 70.1875 C-0.33505859 69.35412109 -0.35761719 68.52074219 -0.38085938 67.66210938 C-0.41630859 66.85966797 -0.45175781 66.05722656 -0.48828125 65.23046875 C-0.51446533 64.49207764 -0.54064941 63.75368652 -0.56762695 62.99291992 C-1.12582932 60.42001991 -1.94716499 59.62779531 -4 58 C-6.20215348 57.54267535 -6.20215348 57.54267535 -8.68864441 57.60127258 C-9.65198196 57.58873444 -10.61531952 57.57619629 -11.60784912 57.5632782 C-12.66304749 57.56471329 -13.71824585 57.56614838 -14.80541992 57.56762695 C-16.47393761 57.55233948 -16.47393761 57.55233948 -18.17616272 57.53674316 C-21.86098185 57.50649552 -25.54554153 57.49732905 -29.23046875 57.48828125 C-31.7820981 57.47144334 -34.33371912 57.45329431 -36.8853302 57.43388367 C-42.92010436 57.39114945 -48.95480332 57.36166153 -54.98967296 57.33856028 C-61.86030874 57.31152286 -68.73080411 57.26761054 -75.6013397 57.22227156 C-89.73415026 57.12938705 -103.86700523 57.05772382 -118 57 C-114.40306699 54.19642119 -110.60009327 52.26750495 -106.5 50.3125 C-94.57072617 44.46733132 -80.57295645 36.55763878 -71.64599609 26.46994019 C-67.98680013 22.57933886 -65.08238415 21.56224913 -59.76098633 21.25878906 C-57.28481779 21.23145465 -54.80816758 21.23551352 -52.33203125 21.265625 C-50.32708204 21.25193194 -48.32213285 21.2382302 -46.31718731 21.22401047 C-43.52424516 21.21161376 -40.73169328 21.22646088 -37.93878174 21.24102783 C-33.03839791 21.26170574 -28.13805529 21.24308093 -23.23771667 21.21868896 C-20.63235862 21.20847026 -18.02692046 21.2102403 -15.42158508 21.22515869 C-13.65406136 21.22440338 -13.65406136 21.22440338 -11.85083008 21.22363281 C-10.8149324 21.22840637 -9.77903473 21.23317993 -8.71174622 21.23809814 C-5.92072423 20.99303939 -4.29750016 20.58895122 -2 19 C-0.76240177 15.28720531 -0.64391103 11.68693654 -0.4375 7.8125 C-0.37272461 6.68811523 -0.37272461 6.68811523 -0.30664062 5.54101562 C-0.20077315 3.69421625 -0.0999024 1.84713166 0 0 Z " fill="#FAB079" transform="translate(447,415)"/>
<path d="M0 0 C0 0.33 0 0.66 0 1 C-1.1859375 1.08636719 -2.371875 1.17273438 -3.59375 1.26171875 C-25.43807239 3.06485754 -44.85606991 10.02397003 -62 24 C-62.85078125 24.68707031 -63.7015625 25.37414062 -64.578125 26.08203125 C-78.64277238 38.05423876 -88.19950801 54.6220078 -94 72 C-94.24621094 72.72703125 -94.49242187 73.4540625 -94.74609375 74.203125 C-96.37975532 79.7463077 -96.18906523 85.28602855 -96 91 C-94.865625 91.433125 -93.73125 91.86625 -92.5625 92.3125 C-91.47582031 92.73595703 -91.47582031 92.73595703 -90.3671875 93.16796875 C-88.01611531 94.0452335 -88.01611531 94.0452335 -85.5703125 94.55078125 C-83.12358015 95.14040364 -81.16930143 95.71612773 -79 97 C-77.28961977 99.85828643 -76.66409977 102.75983581 -76 106 C-75.61437353 107.35710855 -75.21966648 108.7116977 -74.8125 110.0625 C-74.544375 111.031875 -74.27625 112.00125 -74 113 C-82.06251743 111.43884035 -90.05686282 109.63709683 -98.05273438 107.76757812 C-103.02611699 106.62040764 -107.93333963 105.62369678 -113 105 C-118.33260452 84.31465505 -111.82982216 61.28462032 -101.3125 43.375 C-86.96797396 21.1764369 -66.39744155 6.26175024 -40.9375 -0.875 C-27.8646769 -3.60929097 -12.98363186 -3.06786238 0 0 Z " fill="#FACC62" transform="translate(389,17)"/>
<path d="M0 0 C0 0.66 0 1.32 0 2 C-1.65737352 3.01532792 -3.32624611 4.01190805 -5 5 C-6.80548493 6.54370311 -8.57473942 8.13043731 -10.3125 9.75 C-13.46168146 12.67244039 -16.61625747 15.5263032 -19.9375 18.25 C-30.48242226 27.47950251 -38.69978066 39.13525429 -46 51 C-46.38784668 51.62600098 -46.77569336 52.25200195 -47.17529297 52.89697266 C-57.04237321 69.02768371 -63.73067414 86.60809475 -68 105 C-68.15839355 105.65983887 -68.31678711 106.31967773 -68.47998047 106.99951172 C-70.32871392 115.00936334 -71.07009826 122.90595733 -71.26171875 131.12109375 C-71.27899017 131.84643814 -71.2962616 132.57178253 -71.3140564 133.31910706 C-71.39356831 136.98035168 -71.44146271 140.63892692 -71.44628906 144.30102539 C-71.52446482 154.16132128 -72.50899748 163.00056093 -79.5 170.5 C-80.0671875 171.1290625 -80.634375 171.758125 -81.21875 172.40625 C-83 174 -83 174 -85.171875 175.0546875 C-85.77515625 175.36664063 -86.3784375 175.67859375 -87 176 C-87.81171228 178.55519921 -87.81171228 178.55519921 -88 181 C-88.33 181 -88.66 181 -89 181 C-91.79892854 158.85847598 -92.35812031 136.96132228 -88 115 C-87.86609863 114.28086426 -87.73219727 113.56172852 -87.59423828 112.82080078 C-83.04339382 88.76476116 -71.85960581 66.30960608 -57 47 C-55.95779297 45.62134766 -55.95779297 45.62134766 -54.89453125 44.21484375 C-44.7202827 31.25365282 -18.32761581 0 0 0 Z " fill="#63AAD9" transform="translate(179,155)"/>
<path d="M0 0 C0.92232422 0.02707031 1.84464844 0.05414063 2.79492188 0.08203125 C5.0532652 0.15223881 7.30661037 0.25047106 9.5625 0.375 C5.64064496 5.07592736 1.58696245 9.3146116 -2.99609375 13.3828125 C-4.76025978 15.32876568 -4.76025978 15.32876568 -4.02758789 17.99951172 C-3.83285889 18.78342285 -3.63812988 19.56733398 -3.4375 20.375 C-2.5810791 20.38958252 -1.7246582 20.40416504 -0.84228516 20.41918945 C2.38235139 20.4808081 5.60639878 20.55505996 8.83056641 20.63745117 C10.21717655 20.67038919 11.60391077 20.6985144 12.99072266 20.72143555 C32.59158842 21.05401341 32.59158842 21.05401341 40.0625 26.75 C42.47642187 29.28461797 43.60987491 31.0408122 44.5625 34.375 C46.2125 34.375 47.8625 34.375 49.5625 34.375 C49.5625 34.705 49.5625 35.035 49.5625 35.375 C12.6025 35.375 -24.3575 35.375 -62.4375 35.375 C-58.73161551 32.59558663 -55.07933564 30.66240854 -50.9375 28.6875 C-38.62896278 22.65649783 -25.48290281 14.67840411 -15.86157227 4.74853516 C-10.88165963 -0.22038106 -6.84227221 -0.38423127 0 0 Z " fill="#F59968" transform="translate(391.4375,436.625)"/>
<path d="M0 0 C0.67544861 -0.00861557 1.35089722 -0.01723114 2.04681396 -0.02610779 C4.26858375 -0.0487197 6.48908738 -0.0420393 8.7109375 -0.03295898 C10.26123427 -0.03819644 11.81152784 -0.04447337 13.36181641 -0.05174255 C16.60659815 -0.0621376 19.8509411 -0.05759811 23.09570312 -0.04296875 C27.24889485 -0.02577401 31.40070397 -0.04928753 35.55374146 -0.08445835 C38.75375492 -0.10644315 41.95343801 -0.10498856 45.15350342 -0.09669304 C46.68448402 -0.09587424 48.21548906 -0.10272402 49.74639893 -0.11746407 C51.88908334 -0.13493407 54.02928924 -0.12035354 56.171875 -0.09765625 C57.3892334 -0.09669449 58.6065918 -0.09573273 59.86083984 -0.09474182 C64.01377139 0.71417206 65.52591943 2.22414139 68.0859375 5.53344727 C68.2109375 9.09594727 68.2109375 9.09594727 67.0859375 12.53344727 C64.36832145 15.30867026 62.71967172 16.43384554 58.85411072 17.04138184 C57.63373611 17.04456421 56.41336151 17.04774658 55.15600586 17.05102539 C54.14042351 17.06153931 54.14042351 17.06153931 53.10432434 17.07226562 C50.87771985 17.08979819 48.65239749 17.07824263 46.42578125 17.06469727 C44.87309018 17.06739327 43.32040076 17.07127659 41.76771545 17.07629395 C38.51872634 17.08218224 35.270178 17.07364695 32.02124023 17.05493164 C27.8591381 17.03212281 23.69806665 17.04528066 19.53600216 17.0692215 C16.33175399 17.08368169 13.12774989 17.07907294 9.92349434 17.06871033 C8.38891032 17.06604461 6.85430404 17.06930741 5.31974602 17.07862854 C3.17472563 17.0888007 1.03137103 17.07328826 -1.11352539 17.05102539 C-2.3331044 17.04784302 -3.55268341 17.04466064 -4.80921936 17.04138184 C-8.49421992 16.43853683 -9.66616668 15.45455952 -11.9140625 12.53344727 C-12.48046875 10.53344727 -12.48046875 10.53344727 -12.4765625 8.53344727 C-12.49847656 7.87344727 -12.52039062 7.21344727 -12.54296875 6.53344727 C-10.71073797 0.70672577 -5.35063413 0.0272445 0 0 Z " fill="#020304" transform="translate(11.9140625,420.466552734375)"/>
<path d="M0 0 C0.99 0 1.98 0 3 0 C3.24613739 6.52264091 2.53020433 12.64462582 1 19 C0 20 0 20 -3.0625 20.0625 C-4.031875 20.041875 -5.00125 20.02125 -6 20 C-4.22089072 13.24947898 -2.29561809 6.59379663 0 0 Z " fill="#61AAD8" transform="translate(428,319)"/>
</svg>
