<?xml version="1.0" encoding="UTF-8"?>
<svg version="1.1" xmlns="http://www.w3.org/2000/svg" width="260" height="290">
<path d="M0 0 C1.75570312 0.01353516 1.75570312 0.01353516 3.546875 0.02734375 C4.43890625 0.03894531 5.3309375 0.05054688 6.25 0.0625 C7.85425079 3.77141009 9.4294489 7.4868622 10.94140625 11.234375 C14.83988466 20.81430009 19.13753834 30.01554764 24.09985352 39.09472656 C24.51033936 39.84850586 24.9208252 40.60228516 25.34375 41.37890625 C25.71177734 42.04349854 26.07980469 42.70809082 26.45898438 43.39282227 C27.25 45.0625 27.25 45.0625 27.25 47.0625 C27.95817871 47.1049585 28.66635742 47.14741699 29.39599609 47.19116211 C68.61563869 49.94974 113.38814868 62.86883867 141.25 92.0625 C141.98452393 92.82651123 141.98452393 92.82651123 142.73388672 93.60595703 C148.12014 99.37224929 151.85702609 104.09801514 151.875 112.375 C151.71754265 114.27573512 151.52793734 116.1756143 151.25 118.0625 C150.34967041 118.23471069 150.34967041 118.23471069 149.43115234 118.41040039 C124.7412808 123.16488459 100.34275516 128.86459318 76.0625 135.375 C75.24124634 135.59368744 74.41999268 135.81237488 73.57385254 136.03768921 C71.24145887 136.66065159 68.91142289 137.29169734 66.58203125 137.92578125 C65.53415184 138.2050798 65.53415184 138.2050798 64.46510315 138.49002075 C61.28751069 139.36574752 59.02329442 140.21363705 56.25 142.0625 C56.31928711 142.61542725 56.38857422 143.16835449 56.45996094 143.73803711 C60.75998137 181.5698005 54.34567457 217.99600676 40.25 253.0625 C39.95947754 253.79678223 39.66895508 254.53106445 39.36962891 255.28759766 C30.8846742 276.63938387 30.8846742 276.63938387 24.25 281.0625 C14.77408936 282.09849316 4.92844868 280.48054057 -4.5 279.375 C-5.64902298 279.24203522 -5.64902298 279.24203522 -6.82125854 279.10638428 C-39.37786499 275.29620407 -77.40491587 268.60298768 -99.75 242.0625 C-105.39506962 233.23623093 -105.9899425 223.26078673 -104.75 213.0625 C-101.57096207 202.58730945 -91.47752551 192.37317229 -82.75 186.0625 C-82.09 186.0625 -81.43 186.0625 -80.75 186.0625 C-80.75 185.4025 -80.75 184.7425 -80.75 184.0625 C-79.13281689 182.6296282 -77.45376628 181.26625251 -75.75 179.9375 C-71.27374565 176.37382395 -67.21957732 172.66726749 -63.30859375 168.49609375 C-61.75 167.0625 -61.75 167.0625 -59.75 167.0625 C-59.42 166.0725 -59.09 165.0825 -58.75 164.0625 C-57.12496295 162.35521849 -55.4511915 160.69391137 -53.75 159.0625 C-37.96405395 143.00981754 -23.17380904 122.2426887 -22.3125 98.875 C-23.35089019 78.00335723 -36.09391764 64.33600307 -50.25634766 50.52441406 C-52.43877487 48.38836075 -54.59065461 46.22184539 -56.75 44.0625 C-57.86375 43.010625 -57.86375 43.010625 -59 41.9375 C-62.17849963 38.53196468 -62.16098115 34.71225767 -62.08203125 30.26953125 C-61.52352291 26.55709345 -59.68485279 25.27861333 -56.75 23.0625 C-56.19957031 22.62808594 -55.64914063 22.19367187 -55.08203125 21.74609375 C-40.96109915 11.40201774 -17.67190227 -0.17671902 0 0 Z M-10.875 16.0625 C-11.86306641 16.49175781 -11.86306641 16.49175781 -12.87109375 16.9296875 C-14.49880671 17.63738879 -16.12458959 18.34952624 -17.75 19.0625 C-14.21939899 21.41623401 -11.16404244 21.72028415 -7.0625 22.1875 C-6.36060547 22.27386719 -5.65871094 22.36023437 -4.93554688 22.44921875 C-3.20788855 22.66076875 -1.4790434 22.862586 0.25 23.0625 C-0.41 19.7625 -1.07 16.4625 -1.75 13.0625 C-5.04960141 13.0625 -7.89605652 14.75294465 -10.875 16.0625 Z M-40.75 33.0625 C-41.08 33.7225 -41.41 34.3825 -41.75 35.0625 C-40.76 34.7325 -39.77 34.4025 -38.75 34.0625 C-39.41 33.7325 -40.07 33.4025 -40.75 33.0625 Z M-18.75 34.0625 C-17.1 35.7125 -15.45 37.3625 -13.75 39.0625 C-12.43 37.7425 -11.11 36.4225 -9.75 35.0625 C-12.72 34.7325 -15.69 34.4025 -18.75 34.0625 Z M-16.75 55.0625 C-16.09 56.7125 -15.43 58.3625 -14.75 60.0625 C-13.1 59.0725 -11.45 58.0825 -9.75 57.0625 C-12.39738916 55.6018715 -13.64448334 55.0625 -16.75 55.0625 Z M20.25 62.0625 C20.91 64.7025 21.57 67.3425 22.25 70.0625 C26.0410119 68.61299545 29.6374638 66.91077434 33.25 65.0625 C33.25 64.4025 33.25 63.7425 33.25 63.0625 C28.96 62.7325 24.67 62.4025 20.25 62.0625 Z M6.25 64.0625 C1.795 67.5275 1.795 67.5275 -2.75 71.0625 C-0.4370518 73.3754482 0.72904875 73.55830975 3.875 74.1875 C5.10089844 74.43886719 5.10089844 74.43886719 6.3515625 74.6953125 C6.97804688 74.81648438 7.60453125 74.93765625 8.25 75.0625 C8.30399736 73.60457116 8.34279177 72.14607288 8.375 70.6875 C8.40980469 69.46933594 8.40980469 69.46933594 8.4453125 68.2265625 C8.46370051 65.84907757 8.46370051 65.84907757 6.25 64.0625 Z M63.25 71.0625 C62.26 75.6825 61.27 80.3025 60.25 85.0625 C67.84 82.7525 75.43 80.4425 83.25 78.0625 C81.84568225 75.25386449 79.87536341 75.06216826 77.02539062 74.109375 C76.33638672 73.88765625 75.64738281 73.6659375 74.9375 73.4375 C74.26009766 73.20804687 73.58269531 72.97859375 72.88476562 72.7421875 C69.46868696 71.62019099 66.8834852 71.0625 63.25 71.0625 Z M38.625 79.5625 C37.12066406 80.53703125 37.12066406 80.53703125 35.5859375 81.53125 C34.81507813 82.0365625 34.04421875 82.541875 33.25 83.0625 C35.64509338 85.96182357 37.56245243 86.56418276 41.25 87.0625 C42.08848804 85.60712432 42.92063934 84.14809627 43.75 82.6875 C44.2140625 81.87539062 44.678125 81.06328125 45.15625 80.2265625 C46.40035859 78.16913126 46.40035859 78.16913126 46.25 76.0625 C43.11827983 76.0625 41.21390427 77.87670187 38.625 79.5625 Z M-8.75 88.0625 C-8.75 90.0425 -8.75 92.0225 -8.75 94.0625 C-5.12206002 92.19683512 -5.12206002 92.19683512 -2.75 89.0625 C-5.72 88.5675 -5.72 88.5675 -8.75 88.0625 Z M110.25 90.0625 C108.55966728 92.55461887 106.98145835 95.04415651 105.4375 97.625 C104.57912808 99.04436537 103.71846111 100.46234541 102.85546875 101.87890625 C102.47543701 102.51256104 102.09540527 103.14621582 101.70385742 103.79907227 C99.6661415 106.97147601 97.45645534 110.00508539 95.25 113.0625 C100.19943728 112.3977636 105.14720753 111.72207913 110.09375 111.03613281 C111.77725466 110.80426122 113.46117746 110.57540492 115.14550781 110.34960938 C117.56431072 110.02482312 119.98141026 109.68927774 122.3984375 109.3515625 C123.1536972 109.25251617 123.90895691 109.15346985 124.68710327 109.05142212 C128.91092446 108.53337035 128.91092446 108.53337035 132.25 106.0625 C122.46619819 95.57249742 122.46619819 95.57249742 110.25 90.0625 Z M80.70703125 94.03125 C79.09731445 94.64033203 79.09731445 94.64033203 77.45507812 95.26171875 C75.77575195 95.90560547 75.77575195 95.90560547 74.0625 96.5625 C72.93134766 96.99175781 71.80019531 97.42101562 70.63476562 97.86328125 C67.83813699 98.92529212 65.04333549 99.99186377 62.25 101.0625 C63.7825904 104.26860865 65.49116189 106.66379099 67.875 109.3125 C68.82246094 110.37210938 68.82246094 110.37210938 69.7890625 111.453125 C70.27117187 111.98421875 70.75328125 112.5153125 71.25 113.0625 C75.77634498 111.48951486 78.02244527 107.92112465 80.8125 104.25 C81.29396484 103.63318359 81.77542969 103.01636719 82.27148438 102.38085938 C84.83838474 99.05836523 87.17819253 95.72478594 89.25 92.0625 C85.89047644 92.0625 83.83938608 92.83797197 80.70703125 94.03125 Z M20.25 99.0625 C19.92 100.3825 19.59 101.7025 19.25 103.0625 C20.57 102.4025 21.89 101.7425 23.25 101.0625 C22.26 100.4025 21.27 99.7425 20.25 99.0625 Z M45.25 114.0625 C43.47916199 115.96298339 41.8259017 117.86581432 40.1875 119.875 C39.72794922 120.42220703 39.26839844 120.96941406 38.79492188 121.53320312 C36.73440112 124.0294287 35.28246817 125.9650955 34.25 129.0625 C34.91644531 128.88074219 35.58289063 128.69898438 36.26953125 128.51171875 C42.25651042 126.87890625 48.24348958 125.24609375 54.23046875 123.61328125 C54.89691406 123.43152344 55.56335938 123.24976563 56.25 123.0625 C54.90194669 119.90805525 53.57292677 118.25027177 50.75 116.3125 C50.1415625 115.88453125 49.533125 115.4565625 48.90625 115.015625 C47.27957664 113.89624055 47.27957664 113.89624055 45.25 114.0625 Z M9.25 128.0625 C9.58 129.0525 9.91 130.0425 10.25 131.0625 C11.57 129.4125 12.89 127.7625 14.25 126.0625 C11.92642489 125.87759993 11.92642489 125.87759993 9.25 128.0625 Z M33.25 147.0625 C33.25 147.7225 33.25 148.3825 33.25 149.0625 C36.715 151.0425 36.715 151.0425 40.25 153.0625 C40.25 150.4225 40.25 147.7825 40.25 145.0625 C37.89712386 145.0625 35.45626776 146.31143012 33.25 147.0625 Z M20.25 157.0625 C19.59 162.3425 18.93 167.6225 18.25 173.0625 C22.48202882 171.24877336 26.25450251 169.61378319 30.1875 167.375 C31.34572266 166.71951172 31.34572266 166.71951172 32.52734375 166.05078125 C33.09582031 165.72464844 33.66429687 165.39851562 34.25 165.0625 C31.60935652 163.04353268 28.93355845 161.15304175 26.125 159.375 C25.44179687 158.93800781 24.75859375 158.50101563 24.0546875 158.05078125 C22.30056301 156.90239513 22.30056301 156.90239513 20.25 157.0625 Z M-4.75 161.0625 C-3.29997977 165.17089064 -1.3520866 168.56594613 1.25 172.0625 C1.91 172.0625 2.57 172.0625 3.25 172.0625 C3.91 167.4425 4.57 162.8225 5.25 158.0625 C1.38304322 158.0625 -1.2588452 159.48159971 -4.75 161.0625 Z M-16.75 173.0625 C-19.39 178.3425 -22.03 183.6225 -24.75 189.0625 C-20.76754349 190.3899855 -18.30210457 189.06157829 -14.5625 187.625 C-13.58120117 187.26051758 -13.58120117 187.26051758 -12.58007812 186.88867188 C-10.96696714 186.2881707 -9.3580565 185.67640797 -7.75 185.0625 C-8.36488281 184.14210937 -8.97976562 183.22171875 -9.61328125 182.2734375 C-11.06887867 180.08604979 -12.5086259 177.89204861 -13.9375 175.6875 C-14.8346875 174.388125 -14.8346875 174.388125 -15.75 173.0625 C-16.08 173.0625 -16.41 173.0625 -16.75 173.0625 Z M-43.4375 178.0625 C-45.5465 181.27621429 -44.93614585 184.27753429 -44.75 188.0625 C-40.50745368 183.05786182 -40.50745368 183.05786182 -38.75 177.0625 C-41.64677829 176.8075988 -41.64677829 176.8075988 -43.4375 178.0625 Z M35.5546875 180.25 C34.48154297 180.92675781 34.48154297 180.92675781 33.38671875 181.6171875 C32.64035156 182.09414062 31.89398438 182.57109375 31.125 183.0625 C30.37089844 183.53945312 29.61679688 184.01640625 28.83984375 184.5078125 C26.97398961 185.68873284 25.11087992 186.87376257 23.25 188.0625 C26.29600211 190.52968936 29.36054557 192.15971185 32.9375 193.75 C33.91074219 194.18699219 34.88398438 194.62398437 35.88671875 195.07421875 C37.97682986 196.12680102 37.97682986 196.12680102 39.25 196.0625 C39.91 190.1225 40.57 184.1825 41.25 178.0625 C38.70069506 178.0625 37.69939887 178.8882785 35.5546875 180.25 Z M-76.75 198.75 C-81.02143538 202.81637757 -81.02143538 202.81637757 -82.75 208.0625 C-74.99511233 206.73209038 -67.01229266 205.14048528 -59.75 202.0625 C-58.59162427 198.58737282 -58.97734057 196.92579714 -59.6875 193.375 C-59.97947266 191.88419922 -59.97947266 191.88419922 -60.27734375 190.36328125 C-60.43332031 189.60402344 -60.58929688 188.84476563 -60.75 188.0625 C-65.87124893 188.0625 -73.26256352 195.2924986 -76.75 198.75 Z M11.25 198.0625 C10.445625 199.774375 9.64125 201.48625 8.8125 203.25 C8.36003906 204.21292969 7.90757813 205.17585937 7.44140625 206.16796875 C6.02884331 209.33681049 6.02884331 209.33681049 5.25 214.0625 C12.18 211.4225 19.11 208.7825 26.25 206.0625 C26.25 205.4025 26.25 204.7425 26.25 204.0625 C18.825 201.0925 18.825 201.0925 11.25 198.0625 Z M-10.75 203.0625 C-20.155 206.0325 -20.155 206.0325 -29.75 209.0625 C-29.75 210.0525 -29.75 211.0425 -29.75 212.0625 C-27.60091512 214.20876006 -27.60091512 214.20876006 -24.875 216.25 C-23.97007813 216.96542969 -23.06515625 217.68085938 -22.1328125 218.41796875 C-19.95819707 220.25183889 -19.95819707 220.25183889 -17.75 220.0625 C-16.38603538 217.60915445 -15.03365831 215.15058766 -13.6875 212.6875 C-13.29755859 211.98882812 -12.90761719 211.29015625 -12.50585938 210.5703125 C-11.52584822 208.76639816 -10.63124929 206.91666518 -9.75 205.0625 C-10.08 204.4025 -10.41 203.7425 -10.75 203.0625 Z M33.25 217.0625 C29.16641058 219.02029965 25.08317297 220.97883196 21 222.9375 C19.84113281 223.49308594 18.68226562 224.04867187 17.48828125 224.62109375 C16.37324219 225.15605469 15.25820312 225.69101563 14.109375 226.2421875 C13.08295898 226.73444824 12.05654297 227.22670898 10.99902344 227.73388672 C8.73983372 228.82576154 6.49048426 229.93288346 4.25 231.0625 C7.15153725 233.96403725 10.71438411 234.58160872 14.5625 235.6875 C15.70235352 236.03167969 15.70235352 236.03167969 16.86523438 236.3828125 C20.752774 237.51766334 24.15523953 238.37308063 28.25 238.0625 C29.28282411 234.94133314 30.29919118 231.81505182 31.3125 228.6875 C31.60705078 227.79804688 31.90160156 226.90859375 32.20507812 225.9921875 C32.47900391 225.14140625 32.75292969 224.290625 33.03515625 223.4140625 C33.42006226 222.23577881 33.42006226 222.23577881 33.81274414 221.03369141 C34.4812021 218.99965636 34.4812021 218.99965636 33.25 217.0625 Z M-73.859375 219.9375 C-74.99052734 220.20820313 -74.99052734 220.20820313 -76.14453125 220.484375 C-76.92183594 220.67515625 -77.69914062 220.8659375 -78.5 221.0625 C-79.29277344 221.25328125 -80.08554688 221.4440625 -80.90234375 221.640625 C-82.85253845 222.11055143 -84.80140409 222.58598746 -86.75 223.0625 C-84.49004511 227.84301595 -82.26651852 232.04362169 -78.75 236.0625 C-74.54995746 234.66248582 -72.9904045 231.61965855 -70.5625 228.125 C-70.09908203 227.47853516 -69.63566406 226.83207031 -69.15820312 226.16601562 C-66.61965979 222.92742388 -66.61965979 222.92742388 -65.75 219.0625 C-68.85977923 219.0625 -70.93084389 219.22755306 -73.859375 219.9375 Z M-48.07861328 222.31591797 C-48.57087402 222.88971191 -49.06313477 223.46350586 -49.5703125 224.0546875 C-50.10527344 224.67730469 -50.64023437 225.29992187 -51.19140625 225.94140625 C-51.74699219 226.60011719 -52.30257812 227.25882813 -52.875 227.9375 C-53.43832031 228.58847656 -54.00164063 229.23945313 -54.58203125 229.91015625 C-57.66612099 233.07158739 -57.66612099 233.07158739 -58.75 237.0625 C-50.96280717 235.20984097 -43.93734688 232.5797123 -36.75 229.0625 C-37.513125 228.299375 -38.27625 227.53625 -39.0625 226.75 C-40.54181337 225.27068663 -42.01192812 223.78116979 -43.4375 222.25 C-45.32084468 220.54602148 -46.23667276 220.57822546 -48.07861328 222.31591797 Z M-11.75 242.0625 C-13.90497211 244.74552391 -13.90497211 244.74552391 -15.9375 248.0625 C-16.30552734 248.63484375 -16.67355469 249.2071875 -17.05273438 249.796875 C-17.96125071 251.21274462 -18.85686477 252.63687797 -19.75 254.0625 C-16.18364762 255.25128413 -15.14620485 254.78263686 -11.64453125 253.62890625 C-10.66162109 253.30986328 -9.67871094 252.99082031 -8.66601562 252.66210938 C-7.64185547 252.31986328 -6.61769531 251.97761719 -5.5625 251.625 C-4.00885742 251.11743164 -4.00885742 251.11743164 -2.42382812 250.59960938 C0.1368234 249.76179252 2.6944802 248.91581644 5.25 248.0625 C5.25 247.4025 5.25 246.7425 5.25 246.0625 C2.98050898 245.39094651 0.7096039 244.7251037 -1.5625 244.0625 C-2.82707031 243.69125 -4.09164062 243.32 -5.39453125 242.9375 C-8.65587415 241.93633491 -8.65587415 241.93633491 -11.75 242.0625 Z M-45.875 247.4375 C-46.71160156 247.65921875 -47.54820313 247.8809375 -48.41015625 248.109375 C-49.20550781 248.32851562 -50.00085937 248.54765625 -50.8203125 248.7734375 C-51.55008301 248.97243652 -52.27985352 249.17143555 -53.03173828 249.37646484 C-54.95820865 249.92488407 -54.95820865 249.92488407 -55.75 252.0625 C-53.65049414 252.92805948 -51.5452093 253.77961277 -49.4375 254.625 C-48.26574219 255.10066406 -47.09398437 255.57632813 -45.88671875 256.06640625 C-42.76803916 257.39547345 -42.76803916 257.39547345 -39.75 256.0625 C-38.06250296 253.51577745 -38.06250296 253.51577745 -36.5625 250.5 C-35.76779297 248.98212891 -35.76779297 248.98212891 -34.95703125 247.43359375 C-34.55871094 246.65113281 -34.16039063 245.86867187 -33.75 245.0625 C-38.00914296 245.0625 -41.78892155 246.30636164 -45.875 247.4375 Z M20.25 257.0625 C12.66 259.7025 5.07 262.3425 -2.75 265.0625 C-2.75 265.3925 -2.75 265.7225 -2.75 266.0625 C3.85 267.0525 10.45 268.0425 17.25 269.0625 C17.930625 267.45375 18.61125 265.845 19.3125 264.1875 C19.88677734 262.83011719 19.88677734 262.83011719 20.47265625 261.4453125 C21.5523998 259.08183138 21.5523998 259.08183138 20.25 257.0625 Z " fill="#BC333D" transform="translate(108.75,5.9375)"/>
<path d="M0 0 C10.34100316 47.18710182 -3.75439171 94.95337863 -25 137 C-25.66 137.99 -26.32 138.98 -27 140 C-34.1770908 140.50225078 -41.25116291 139.54699213 -48.375 138.6875 C-49.5189624 138.55142334 -50.6629248 138.41534668 -51.84155273 138.27514648 C-64.75493729 136.70805393 -77.56312155 134.90639807 -90.25 132 C-90.9294165 131.8460376 -91.60883301 131.6920752 -92.30883789 131.53344727 C-96.81398917 130.44917567 -100.78621601 128.87223217 -105 127 C-106.30581067 126.58262874 -107.61778842 126.18358169 -108.9375 125.8125 C-119.80177285 122.25319277 -130.51449389 116.67736267 -139 109 C-139.63292969 108.44699219 -140.26585937 107.89398438 -140.91796875 107.32421875 C-147.30432432 101.40083992 -151.22527221 95.49136939 -151.6875 86.625 C-151.10318784 74.04768069 -142.55423039 65.37990837 -134 57 C-129.37437604 53 -129.37437604 53 -127 53 C-126.67 52.34 -126.34 51.68 -126 51 C-125.01 51.66 -124.02 52.32 -123 53 C-123.49371094 53.40992188 -123.98742187 53.81984375 -124.49609375 54.2421875 C-125.13675781 54.78101563 -125.77742188 55.31984375 -126.4375 55.875 C-127.07558594 56.40867188 -127.71367188 56.94234375 -128.37109375 57.4921875 C-130.10805004 58.9222757 -130.10805004 58.9222757 -131 61 C-131.66 61 -132.32 61 -133 61 C-133.25523437 61.51046875 -133.51046875 62.0209375 -133.7734375 62.546875 C-137.88671875 70.7734375 -137.88671875 70.7734375 -142 79 C-141.15816162 78.73783691 -140.31632324 78.47567383 -139.44897461 78.20556641 C-136.2976454 77.22461296 -133.14609061 76.24439079 -129.99438477 75.26464844 C-128.63557099 74.84208558 -127.27684531 74.41923933 -125.91821289 73.99609375 C-123.95482633 73.3846535 -121.99111537 72.77426477 -120.02734375 72.1640625 C-118.25991821 71.61419678 -118.25991821 71.61419678 -116.45678711 71.05322266 C-112.98127956 69.99429621 -109.49625581 68.98777523 -106 68 C-106.15855469 67.19820313 -106.31710938 66.39640625 -106.48046875 65.5703125 C-107.09965364 61.31516218 -107.25996149 57.16914778 -107.3125 52.875 C-107.34150391 52.07707031 -107.37050781 51.27914062 -107.40039062 50.45703125 C-107.46337678 44.65261454 -107.46337678 44.65261454 -105.23046875 41.5078125 C-103.07688891 40.05197744 -101.55599631 39.36514233 -99 39 C-98.94392578 40.61068359 -98.94392578 40.61068359 -98.88671875 42.25390625 C-98.82100888 43.6901362 -98.75456332 45.12633262 -98.6875 46.5625 C-98.65366211 47.61920898 -98.65366211 47.61920898 -98.61914062 48.69726562 C-98.36252691 53.75955442 -97.23233598 57.44555581 -95 62 C-94.3709375 60.86304688 -93.741875 59.72609375 -93.09375 58.5546875 C-88.94388858 51.06294553 -84.78806342 43.5743769 -80.5625 36.125 C-79.94503906 35.03445312 -79.32757813 33.94390625 -78.69140625 32.8203125 C-75.57986838 27.63202071 -73.99737869 25.59930098 -68 24 C-69.94282937 31.29273485 -72.62357905 37.91685914 -75.9375 44.6875 C-76.36740234 45.58533203 -76.79730469 46.48316406 -77.24023438 47.40820312 C-79.64611861 52.39155969 -82.18949265 57.23322304 -85 62 C-81.10348084 60.61370533 -77.20741948 59.22613233 -73.31176758 57.83740234 C-71.9879979 57.36570129 -70.66410629 56.8943423 -69.34008789 56.42333984 C-67.43082598 55.7440763 -65.52201416 55.0635609 -63.61328125 54.3828125 C-62.46641846 53.97434082 -61.31955566 53.56586914 -60.13793945 53.14501953 C-58.16626651 52.42556523 -56.20822393 51.66626976 -54.27416992 50.85107422 C-52 50 -52 50 -49 50 C-49.99 49.071875 -49.99 49.071875 -51 48.125 C-57.66120621 41.4258382 -66 32.91117961 -66 23 C-64.68 22.67 -63.36 22.34 -62 22 C-61.59910156 22.75023437 -61.19820313 23.50046875 -60.78515625 24.2734375 C-56.63814947 31.73993043 -51.95961785 37.89172955 -46 44 C-43.41019113 37.22200943 -42.18275744 30.6230683 -41.3125 23.4375 C-41.11817383 21.92446289 -41.11817383 21.92446289 -40.91992188 20.38085938 C-40.60521374 17.92147358 -40.29874531 15.4613668 -40 13 C-38.35 12.34 -36.7 11.68 -35 11 C-33.26782767 12.73217233 -33.74470316 14.94308508 -33.6875 17.3125 C-33.71908148 26.74483469 -35.93514503 35.83583317 -38 45 C-34.33045682 43.10969767 -30.66491644 41.211755 -27 39.3125 C-25.97003906 38.78205078 -24.94007813 38.25160156 -23.87890625 37.70507812 C-18.0812311 34.69545695 -12.48287519 31.55200689 -7 28 C-8.12277344 27.34773438 -9.24554688 26.69546875 -10.40234375 26.0234375 C-29.73624457 14.75234076 -29.73624457 14.75234076 -33 12 C-33 11.34 -33 10.68 -33 10 C-26.41068329 10.35284159 -22.15528525 12.96175918 -16.6875 16.5 C-15.08742383 17.51070841 -13.487172 18.52113879 -11.88671875 19.53125 C-11.18764404 19.98048828 -10.48856934 20.42972656 -9.76831055 20.89257812 C-7.9951794 22.04228964 -7.9951794 22.04228964 -6 23 C-6.02356567 22.06148193 -6.02356567 22.06148193 -6.04760742 21.10400391 C-6.10984675 18.27776069 -6.14895462 15.45166139 -6.1875 12.625 C-6.21263672 11.64015625 -6.23777344 10.6553125 -6.26367188 9.640625 C-6.27817383 8.22910156 -6.27817383 8.22910156 -6.29296875 6.7890625 C-6.31653442 5.48509521 -6.31653442 5.48509521 -6.34057617 4.15478516 C-6.22818604 3.44370605 -6.1157959 2.73262695 -6 2 C-3 0 -3 0 0 0 Z M-10.6953125 47.1875 C-11.76845703 47.86425781 -11.76845703 47.86425781 -12.86328125 48.5546875 C-13.60964844 49.03164062 -14.35601562 49.50859375 -15.125 50 C-15.87910156 50.47695312 -16.63320312 50.95390625 -17.41015625 51.4453125 C-19.27601039 52.62623284 -21.13912008 53.81126257 -23 55 C-19.95399789 57.46718936 -16.88945443 59.09721185 -13.3125 60.6875 C-12.33925781 61.12449219 -11.36601562 61.56148437 -10.36328125 62.01171875 C-8.27317014 63.06430102 -8.27317014 63.06430102 -7 63 C-6.34 57.06 -5.68 51.12 -5 45 C-7.54930494 45 -8.55060113 45.8257785 -10.6953125 47.1875 Z M-35 65 C-35.804375 66.711875 -36.60875 68.42375 -37.4375 70.1875 C-37.88996094 71.15042969 -38.34242187 72.11335938 -38.80859375 73.10546875 C-40.22115669 76.27431049 -40.22115669 76.27431049 -41 81 C-34.07 78.36 -27.14 75.72 -20 73 C-20 72.34 -20 71.68 -20 71 C-27.425 68.03 -27.425 68.03 -35 65 Z M-57 70 C-66.405 72.97 -66.405 72.97 -76 76 C-76 76.99 -76 77.98 -76 79 C-73.85091512 81.14626006 -73.85091512 81.14626006 -71.125 83.1875 C-70.22007813 83.90292969 -69.31515625 84.61835938 -68.3828125 85.35546875 C-66.20819707 87.18933889 -66.20819707 87.18933889 -64 87 C-62.63603538 84.54665445 -61.28365831 82.08808766 -59.9375 79.625 C-59.54755859 78.92632812 -59.15761719 78.22765625 -58.75585938 77.5078125 C-57.77584822 75.70389816 -56.88124929 73.85416518 -56 72 C-56.33 71.34 -56.66 70.68 -57 70 Z M-13 84 C-17.08358942 85.95779965 -21.16682703 87.91633196 -25.25 89.875 C-26.40886719 90.43058594 -27.56773438 90.98617187 -28.76171875 91.55859375 C-29.87675781 92.09355469 -30.99179688 92.62851563 -32.140625 93.1796875 C-33.16704102 93.67194824 -34.19345703 94.16420898 -35.25097656 94.67138672 C-37.51016628 95.76326154 -39.75951574 96.87038346 -42 98 C-39.09846275 100.90153725 -35.53561589 101.51910872 -31.6875 102.625 C-30.54764648 102.96917969 -30.54764648 102.96917969 -29.38476562 103.3203125 C-25.497226 104.45516334 -22.09476047 105.31058063 -18 105 C-16.96717589 101.87883314 -15.95080882 98.75255182 -14.9375 95.625 C-14.64294922 94.73554688 -14.34839844 93.84609375 -14.04492188 92.9296875 C-13.77099609 92.07890625 -13.49707031 91.228125 -13.21484375 90.3515625 C-12.82993774 89.17327881 -12.82993774 89.17327881 -12.43725586 87.97119141 C-11.7687979 85.93715636 -11.7687979 85.93715636 -13 84 Z M-120.109375 86.875 C-121.24052734 87.14570313 -121.24052734 87.14570313 -122.39453125 87.421875 C-123.17183594 87.61265625 -123.94914062 87.8034375 -124.75 88 C-125.54277344 88.19078125 -126.33554688 88.3815625 -127.15234375 88.578125 C-129.10253845 89.04805143 -131.05140409 89.52348746 -133 90 C-130.74004511 94.78051595 -128.51651852 98.98112169 -125 103 C-120.79995746 101.59998582 -119.2404045 98.55715855 -116.8125 95.0625 C-116.34908203 94.41603516 -115.88566406 93.76957031 -115.40820312 93.10351562 C-112.86965979 89.86492388 -112.86965979 89.86492388 -112 86 C-115.10977923 86 -117.18084389 86.16505306 -120.109375 86.875 Z M-94.32861328 89.25341797 C-94.82087402 89.82721191 -95.31313477 90.40100586 -95.8203125 90.9921875 C-96.35527344 91.61480469 -96.89023438 92.23742187 -97.44140625 92.87890625 C-97.99699219 93.53761719 -98.55257812 94.19632812 -99.125 94.875 C-99.68832031 95.52597656 -100.25164062 96.17695313 -100.83203125 96.84765625 C-103.91612099 100.00908739 -103.91612099 100.00908739 -105 104 C-97.21280717 102.14734097 -90.18734688 99.5172123 -83 96 C-83.763125 95.236875 -84.52625 94.47375 -85.3125 93.6875 C-86.79181337 92.20818663 -88.26192812 90.71866979 -89.6875 89.1875 C-91.57084468 87.48352148 -92.48667276 87.51572546 -94.32861328 89.25341797 Z M-58 109 C-60.15497211 111.68302391 -60.15497211 111.68302391 -62.1875 115 C-62.55552734 115.57234375 -62.92355469 116.1446875 -63.30273438 116.734375 C-64.21125071 118.15024462 -65.10686477 119.57437797 -66 121 C-62.43364762 122.18878413 -61.39620485 121.72013686 -57.89453125 120.56640625 C-56.91162109 120.24736328 -55.92871094 119.92832031 -54.91601562 119.59960938 C-53.89185547 119.25736328 -52.86769531 118.91511719 -51.8125 118.5625 C-50.25885742 118.05493164 -50.25885742 118.05493164 -48.67382812 117.53710938 C-46.1131766 116.69929252 -43.5555198 115.85331644 -41 115 C-41 114.34 -41 113.68 -41 113 C-43.26949102 112.32844651 -45.5403961 111.6626037 -47.8125 111 C-49.07707031 110.62875 -50.34164062 110.2575 -51.64453125 109.875 C-54.90587415 108.87383491 -54.90587415 108.87383491 -58 109 Z M-92.125 114.375 C-92.96160156 114.59671875 -93.79820313 114.8184375 -94.66015625 115.046875 C-95.45550781 115.26601562 -96.25085938 115.48515625 -97.0703125 115.7109375 C-97.80008301 115.90993652 -98.52985352 116.10893555 -99.28173828 116.31396484 C-101.20820865 116.86238407 -101.20820865 116.86238407 -102 119 C-99.90049414 119.86555948 -97.7952093 120.71711277 -95.6875 121.5625 C-94.51574219 122.03816406 -93.34398437 122.51382813 -92.13671875 123.00390625 C-89.01803916 124.33297345 -89.01803916 124.33297345 -86 123 C-84.31250296 120.45327745 -84.31250296 120.45327745 -82.8125 117.4375 C-82.01779297 115.91962891 -82.01779297 115.91962891 -81.20703125 114.37109375 C-80.80871094 113.58863281 -80.41039063 112.80617188 -80 112 C-84.25914296 112 -88.03892155 113.24386164 -92.125 114.375 Z M-26 124 C-33.59 126.64 -41.18 129.28 -49 132 C-49 132.33 -49 132.66 -49 133 C-42.4 133.99 -35.8 134.98 -29 136 C-28.319375 134.39125 -27.63875 132.7825 -26.9375 131.125 C-26.36322266 129.76761719 -26.36322266 129.76761719 -25.77734375 128.3828125 C-24.6976002 126.01933138 -24.6976002 126.01933138 -26 124 Z " fill="#B4BAC1" transform="translate(155,139)"/>
<path d="M0 0 C7.80317663 0.52131509 14.67573473 2.55658117 22.0625 5.0625 C23.2589917 5.46662109 24.4554834 5.87074219 25.68823242 6.28710938 C34.90763321 9.47563362 43.57495957 13.08637502 52 18 C52.60054199 18.34498535 53.20108398 18.6899707 53.81982422 19.04541016 C62.85043452 24.30785213 70.77894428 30.43767521 78 38 C78.49113281 38.51079102 78.98226562 39.02158203 79.48828125 39.54785156 C84.87278658 45.31239783 88.60703214 50.03829951 88.625 58.3125 C88.46754265 60.21323512 88.27793734 62.1131143 88 64 C87.09967041 64.17221069 87.09967041 64.17221069 86.18115234 64.34790039 C61.4912808 69.10238459 37.09275516 74.80209318 12.8125 81.3125 C11.99124634 81.53118744 11.16999268 81.74987488 10.32385254 81.97518921 C7.99145887 82.59815159 5.66142289 83.22919734 3.33203125 83.86328125 C2.28415184 84.1425798 2.28415184 84.1425798 1.21510315 84.42752075 C-1.96248931 85.30324752 -4.22670558 86.15113705 -7 88 C-6.93071289 88.55292725 -6.86142578 89.10585449 -6.79003906 89.67553711 C-2.49001863 127.5073005 -8.90432543 163.93350676 -23 199 C-23.29052246 199.73428223 -23.58104492 200.46856445 -23.88037109 201.22509766 C-32.3653258 222.57688387 -32.3653258 222.57688387 -39 227 C-48.47591064 228.03599316 -58.32155132 226.41804057 -67.75 225.3125 C-68.89902298 225.17953522 -68.89902298 225.17953522 -70.07125854 225.04388428 C-102.72101759 221.22280219 -140.53033771 214.50503021 -163 188 C-166.49659824 182.88067108 -167.56228161 178.12805743 -168 172 C-166.53763563 173.93271548 -165.09190718 175.86743085 -163.7109375 177.859375 C-152.67337119 193.47979048 -134.98425213 201.94113864 -117 207 C-115.94941406 207.3196875 -114.89882812 207.639375 -113.81640625 207.96875 C-91.18610699 214.75013366 -67.43756237 216.81797064 -44 219 C-43.71930664 218.28102539 -43.43861328 217.56205078 -43.14941406 216.82128906 C-42.04915882 214.12066257 -40.85648391 211.49497733 -39.609375 208.859375 C-34.08412074 197.07545994 -28.9799375 185.3935513 -25 173 C-24.63519531 171.91203125 -24.27039063 170.8240625 -23.89453125 169.703125 C-15.80485335 144.78319766 -12.5099008 117.31617956 -15.77734375 91.22265625 C-16.18456292 87.15760872 -16.0781346 83.08036254 -16 79 C-10.09327275 76.69876638 -4.16126381 74.78592839 1.9375 73.0625 C2.8555542 72.80162598 3.7736084 72.54075195 4.71948242 72.27197266 C11.76820161 70.29327774 18.84978017 68.54553294 25.98828125 66.92578125 C29.84637771 66.0485622 33.67075562 65.05850035 37.5 64.0625 C44.5395725 62.27134487 51.63385567 60.76630769 58.75 59.3125 C59.77931641 59.09795166 60.80863281 58.88340332 61.86914062 58.66235352 C68.8977921 57.25426235 75.84702685 56.44805562 83 56 C62.6723673 25.34035541 35.01363426 10.24099896 0 1 C0 0.67 0 0.34 0 0 Z " fill="#020101" transform="translate(172,60)"/>
<path d="M0 0 C0.34611328 1.19882813 0.34611328 1.19882813 0.69921875 2.421875 C4.41309141 14.92867148 9.44040724 26.17183232 15.69775391 37.59033203 C16.12362793 38.37649902 16.54950195 39.16266602 16.98828125 39.97265625 C17.37540283 40.67656494 17.76252441 41.38047363 18.16137695 42.10571289 C19 44 19 44 19 47 C14.61321386 47.35094289 14.61321386 47.35094289 12 46 C9.31710003 42.02511783 6 36.91974529 6 32 C5.25234375 32.55429687 4.5046875 33.10859375 3.734375 33.6796875 C2.74953125 34.40414062 1.7646875 35.12859375 0.75 35.875 C-0.22453125 36.59429687 -1.1990625 37.31359375 -2.203125 38.0546875 C-7.15713119 41.50035102 -9.87880213 42.23543069 -16 42 C-16 41.01 -16 40.02 -16 39 C-14.05859375 37.5 -14.05859375 37.5 -11.4375 36 C-10.59058594 35.505 -9.74367187 35.01 -8.87109375 34.5 C-5.63803707 32.81089284 -2.36806213 31.39884904 1 30 C0.20940186 29.85900879 -0.58119629 29.71801758 -1.39575195 29.57275391 C-5.03470167 28.92369137 -8.6736011 28.27434737 -12.3125 27.625 C-14.17745117 27.29242188 -14.17745117 27.29242188 -16.08007812 26.953125 C-23.38915387 25.64861804 -30.69627044 24.33412655 -38 23 C-37.27296875 23.66588135 -37.27296875 23.66588135 -36.53125 24.34521484 C-34.34901527 26.34961842 -32.17445458 28.36216029 -30 30.375 C-29.236875 31.07367188 -28.47375 31.77234375 -27.6875 32.4921875 C-26.965625 33.1625 -26.24375 33.8328125 -25.5 34.5234375 C-24.8296875 35.14138184 -24.159375 35.75932617 -23.46875 36.39599609 C-22 38 -22 38 -22 40 C-26.57769438 40.16646161 -28.87448421 39.97862955 -32.39453125 36.91796875 C-36.33930585 32.5545116 -39.95300465 28.03416624 -43 23 C-48.63689034 24.32632714 -50.93185683 28.46631765 -54 33 C-56.375 32.3125 -56.375 32.3125 -59 31 C-60.1640625 28.41796875 -60.1640625 28.41796875 -61 26 C-45.98624456 13.41235492 -19.93358971 -0.38333826 0 0 Z M-11.125 16 C-12.11306641 16.42925781 -12.11306641 16.42925781 -13.12109375 16.8671875 C-14.74880671 17.57488879 -16.37458959 18.28702624 -18 19 C-14.46939899 21.35373401 -11.41404244 21.65778415 -7.3125 22.125 C-6.61060547 22.21136719 -5.90871094 22.29773437 -5.18554688 22.38671875 C-3.45788855 22.59826875 -1.7290434 22.800086 0 23 C-0.66 19.7 -1.32 16.4 -2 13 C-5.29960141 13 -8.14605652 14.69044465 -11.125 16 Z " fill="#A7ADB5" transform="translate(109,6)"/>
<path d="M0 0 C12.61700256 4.47625275 26.07037094 16.12815589 35 26 C35 26.66 35 27.32 35 28 C30.83128902 28.3808452 28.69624585 28.49619775 25.2265625 26.0234375 C24.36804688 25.14945313 23.50953125 24.27546875 22.625 23.375 C15.37183112 15.68560789 15.37183112 15.68560789 6 12 C5.50371094 12.9178125 5.00742188 13.835625 4.49609375 14.78125 C-5.68431451 33.33659918 -5.68431451 33.33659918 -16.1875 36.5625 C-20.29277653 37.63440861 -22.95286958 38.1942082 -27 37 C-26.16597656 36.15179688 -25.33195313 35.30359375 -24.47265625 34.4296875 C-14.34480687 23.94422484 -6.79454402 12.90621929 0 0 Z " fill="#030001" transform="translate(213,85)"/>
<path d="M0 0 C-4.83629556 10.42490376 -11.85677358 13.85377764 -22.375 17.75 C-34.02544994 22 -34.02544994 22 -38 22 C-37.04287109 23.15628906 -37.04287109 23.15628906 -36.06640625 24.3359375 C-34.82697266 25.84027344 -34.82697266 25.84027344 -33.5625 27.375 C-32.32693359 28.87160156 -32.32693359 28.87160156 -31.06640625 30.3984375 C-29 33 -29 33 -28 35 C-29.4375 37.625 -29.4375 37.625 -31 40 C-34.30250387 36.90390262 -37.06028369 33.6615521 -39.8125 30.0625 C-43.0017183 25.98637527 -46.22399351 23.00566583 -50.53125 20.15625 C-51.0159375 19.7746875 -51.500625 19.393125 -52 19 C-52 18.34 -52 17.68 -52 17 C-20.99925112 4.6328008 -20.99925112 4.6328008 -9 1 C-7.75863281 0.60941406 -6.51726562 0.21882813 -5.23828125 -0.18359375 C-2 -1 -2 -1 0 0 Z " fill="#030101" transform="translate(209,85)"/>
<path d="M0 0 C3.44499192 0.6118991 6.54097824 1.52380751 9.8125 2.75 C19.91599072 6.21551006 30.53918661 7.94438165 41 10 C35.11370611 13.92419593 28.53975567 15.70548291 21.515625 14.59375 C16.25694497 13.35257086 11.12470206 11.70295354 6 10 C5.59201172 11.09634766 5.59201172 11.09634766 5.17578125 12.21484375 C2.70009113 18.07918613 -0.31192992 22.78373724 -6.24609375 25.46875 C-10.53354599 26.80708515 -14.49123982 28 -19 28 C-17.69035246 25.21599346 -16.23019014 22.82727076 -14.35546875 20.390625 C-13.84306641 19.71773438 -13.33066406 19.04484375 -12.80273438 18.3515625 C-11.73781277 16.9660055 -10.67271272 15.58058563 -9.60742188 14.1953125 C-6.12173055 9.61735086 -2.96111834 4.93382215 0 0 Z " fill="#020202" transform="translate(91,238)"/>
<path d="M0 0 C1.22236418 3.99065952 1.05339354 6.7111111 -0.35546875 10.62890625 C-4.09215268 16.01647667 -11.15903471 18.41297443 -17 21 C-17.68352539 21.30631348 -18.36705078 21.61262695 -19.07128906 21.92822266 C-23.02068211 23.68635795 -26.99527728 25.37096025 -31 27 C-26.71972707 28.90768718 -22.61076874 30.50831922 -18.0625 31.6875 C-17.10472656 31.93886719 -16.14695313 32.19023437 -15.16015625 32.44921875 C-14.44730469 32.63097656 -13.73445313 32.81273437 -13 33 C-13 33.33 -13 33.66 -13 34 C-19.71959635 33.44286461 -25.75715319 32.12079273 -32.1875 30.125 C-33.48204102 29.74021484 -33.48204102 29.74021484 -34.80273438 29.34765625 C-39.44911088 27.93276884 -43.71796298 26.34075346 -48 24 C-45.80998441 21.56305821 -43.87597056 20.32249186 -40.8515625 19.08984375 C-40.02060059 18.74445557 -39.18963867 18.39906738 -38.33349609 18.04321289 C-37.43969238 17.67832764 -36.54588867 17.31344238 -35.625 16.9375 C-27.78347674 13.66025095 -20.04484995 10.22429975 -12.375 6.5625 C-11.48119629 6.13767334 -10.58739258 5.71284668 -9.66650391 5.27514648 C-6.28384629 3.651379 -3.12870159 2.08580106 0 0 Z " fill="#020202" transform="translate(145,210)"/>
<path d="M0 0 C4.03651192 0.59586604 6.55515445 2.68334342 9.75 5.125 C10.2749707 5.52517334 10.79994141 5.92534668 11.34082031 6.33764648 C15.72391887 9.71075582 19.92006206 13.26805677 24 17 C21.85524907 18.30217021 20.5519701 19.0510681 18.015625 18.81640625 C15.59654869 17.83658658 13.80308417 16.54574927 11.75 14.9375 C11.04359375 14.38964844 10.3371875 13.84179688 9.609375 13.27734375 C9.07828125 12.85582031 8.5471875 12.43429688 8 12 C3.84674476 13.50944298 2.62134997 16.00367093 0.375 19.6875 C-5.60152798 28.56048867 -15.99680071 31.44672631 -26.046875 33.67578125 C-26.69140625 33.78277344 -27.3359375 33.88976562 -28 34 C-24.95106133 30.3412736 -21.90986925 26.88357157 -18.4375 23.625 C-11.7069845 17.02542838 -4.23776037 8.47552075 0 0 Z " fill="#030100" transform="translate(148,109)"/>
<path d="M0 0 C2.68050073 1.05305386 3.9371087 1.91614494 5.6875 4.25 C8.51363158 7.61080513 11.65009015 9.84304964 15.25 12.3125 C15.8996875 12.76689453 16.549375 13.22128906 17.21875 13.68945312 C18.80792899 14.79954139 20.40334173 15.90069651 22 17 C20 19 20 19 17.375 20.0625 C12.6728133 19.97542247 11.01672661 17.73510422 7.83203125 14.46875 C7.22746094 13.9840625 6.62289062 13.499375 6 13 C2.13480173 14.28839942 1.02029651 16.14112689 -1.5 19.3125 C-2.2734375 20.27800781 -3.046875 21.24351562 -3.84375 22.23828125 C-5.95234682 24.84532526 -5.95234682 24.84532526 -7.37890625 27.1796875 C-9.69924472 29.785176 -12.19380375 30.59381276 -15.4375 31.8125 C-16.57058594 32.25207031 -17.70367187 32.69164062 -18.87109375 33.14453125 C-22.02316978 34.00633481 -23.01528544 33.91548477 -26 33 C-19.36187712 23.97539665 -12.60689063 15.14740062 -5.27734375 6.671875 C-3.42507952 4.49872108 -1.67681883 2.30906199 0 0 Z " fill="#020202" transform="translate(58,215)"/>
<path d="M0 0 C0.80667114 0.37753418 0.80667114 0.37753418 1.62963867 0.76269531 C11.92045966 5.55402603 21.98463516 10.12555261 33 13 C29.59730329 15.99437311 26.4659637 17.24558277 22 18 C19.17209502 17.41211005 16.67796787 16.33134926 14.0625 15.125 C13.37865234 14.82980469 12.69480469 14.53460938 11.99023438 14.23046875 C10.31858255 13.50569663 8.65803699 12.75539909 7 12 C6.71769531 13.01320312 6.43539062 14.02640625 6.14453125 15.0703125 C2.80082153 25.67721473 2.80082153 25.67721473 -2.22265625 29.3671875 C-5.47291334 30.87173619 -8.51959673 32.15393512 -12 33 C-12.66 32.67 -13.32 32.34 -14 32 C-13.75354736 31.49251221 -13.50709473 30.98502441 -13.25317383 30.4621582 C-8.4052423 20.4461167 -3.74743222 10.48904395 0 0 Z " fill="#030303" transform="translate(113,193)"/>
<path d="M0 0 C7.92518669 1.1891663 15.2208117 3.22001151 22.75 5.9375 C24.23306641 6.45860352 24.23306641 6.45860352 25.74609375 6.99023438 C30.91616815 8.82288425 35.98946924 10.76765459 41 13 C36.49275742 16.00482839 32.3656644 16.28373079 27 16 C22.98073541 15.08508711 19.13905763 13.67203081 15.28515625 12.2265625 C12.84048086 11.31380617 10.54131171 10.5477514 8 10 C7.87625 11.19625 7.7525 12.3925 7.625 13.625 C7.41918817 15.08369132 7.21091674 16.54203806 7 18 C6.87625 19.051875 6.7525 20.10375 6.625 21.1875 C3.94422851 25.82729681 -1.00352314 27.4501669 -6 29 C-6.66 28.67 -7.32 28.34 -8 28 C-7.49339844 26.71416016 -7.49339844 26.71416016 -6.9765625 25.40234375 C-3.64148124 16.8525834 -0.96206736 9.13963992 0 0 Z " fill="#020000" transform="translate(164,67)"/>
<path d="M0 0 C1 2 1 2 0.5234375 4.57421875 C-1.26126326 9.41233611 -2.73309521 12.79729677 -7.34960938 15.24658203 C-13.40166314 17.68884782 -19.66960893 19.43806498 -26 21 C-23.31460888 23.72198929 -20.6543656 26.39760939 -17.6875 28.8125 C-16.3571875 29.8953125 -16.3571875 29.8953125 -15 31 C-15.33 31.99 -15.66 32.98 -16 34 C-24.94338616 30.90421248 -34.14038576 23.44831246 -40 16 C-40 15.34 -40 14.68 -40 14 C-39.28569824 13.78907715 -38.57139648 13.5781543 -37.83544922 13.36083984 C-18.54663768 7.68279318 -18.54663768 7.68279318 0 0 Z " fill="#030404" transform="translate(105,195)"/>
<path d="M0 0 C0 4.34926825 -1.81606893 6.49721056 -4.47265625 9.84375 C-9.42182419 14.06622404 -15.77904037 14.73881806 -22 16 C-24.34793004 16.62487059 -26.6709258 17.30668023 -29 18 C-28.59007812 18.59167969 -28.18015625 19.18335938 -27.7578125 19.79296875 C-27.21898437 20.58316406 -26.68015625 21.37335938 -26.125 22.1875 C-25.59132813 22.96480469 -25.05765625 23.74210937 -24.5078125 24.54296875 C-23.00518859 26.99154501 -21.87383148 29.26352772 -21 32 C-21.33 32.66 -21.66 33.32 -22 34 C-29.21723504 31.79402533 -33.48838515 25.12731831 -37.28125 18.89453125 C-39.04658325 15.19223512 -38.93595708 12.88883577 -38 9 C-37.09757568 8.79842285 -36.19515137 8.5968457 -35.26538086 8.38916016 C-31.88984679 7.63412645 -28.51473792 6.87724438 -25.13989258 6.11914062 C-23.68432746 5.79256222 -22.22860081 5.4667029 -20.77270508 5.14160156 C-18.66964634 4.6718536 -16.56719884 4.19944839 -14.46484375 3.7265625 C-13.202771 3.44377441 -11.94069824 3.16098633 -10.64038086 2.86962891 C-7.05372195 2.01283332 -3.53676497 1.04010778 0 0 Z " fill="#030303" transform="translate(52,212)"/>
<path d="M0 0 C0.66 0.33 1.32 0.66 2 1 C2.45256443 4.96921259 2.32712035 8.21033411 1 12 C-2.01188723 14.71772331 -5.1702552 16.69131072 -8.6171875 18.796875 C-14.31103507 22.31786152 -18.32432487 27.4864873 -22 33 C-24.05859375 33.94921875 -24.05859375 33.94921875 -26.4375 34.6875 C-27.21996094 34.93886719 -28.00242187 35.19023437 -28.80859375 35.44921875 C-31 36 -31 36 -34 36 C-32.18807607 29.27680858 -29.54401843 23.35409414 -25 18 C-24.34 18 -23.68 18 -23 18 C-22.78472656 17.43152344 -22.56945313 16.86304688 -22.34765625 16.27734375 C-18.3087726 9.45221573 -7.3061394 2.85037725 0 0 Z " fill="#010000" transform="translate(47,182)"/>
<path d="M0 0 C2.48647283 2.98900207 4.56747097 5.84147863 6.3125 9.3125 C9.47361507 15.16496692 13.4387068 20.2924712 19 24 C19 24.66 19 25.32 19 26 C16.03 26.495 16.03 26.495 13 27 C10.36 23.7 7.72 20.4 5 17 C4.5153125 18.10859375 4.030625 19.2171875 3.53125 20.359375 C2.85548753 21.82352702 2.17832955 23.28703552 1.5 24.75 C1.18546875 25.47960937 0.8709375 26.20921875 0.546875 26.9609375 C-1.78114632 31.88559798 -4.00035615 34.13215929 -9.01757812 36.29296875 C-11.98696675 37.35200193 -14.9404651 38.23511628 -18 39 C-16.23362031 34.1130162 -13.71891195 29.68022007 -11.25 25.125 C-6.86796837 16.94378025 -3.20280176 8.71005843 0 0 Z " fill="#040304" transform="translate(87,163)"/>
<path d="M0 0 C1 2 1 2 0.36328125 4.27734375 C-0.15685547 5.59412109 -0.15685547 5.59412109 -0.6875 6.9375 C-1.02136719 7.81277344 -1.35523438 8.68804687 -1.69921875 9.58984375 C-5.4571674 16.55276962 -15.18786441 18.47848341 -22.23046875 20.671875 C-32.9321434 23.52949386 -43.61854479 21.16374163 -54 18 C-54 17.67 -54 17.34 -54 17 C-52.95211304 16.77449463 -52.95211304 16.77449463 -51.88305664 16.54443359 C-33.78105901 12.61096183 -16.70670787 8.15489412 0 0 Z " fill="#020202" transform="translate(134,250)"/>
<path d="M0 0 C-0.9987376 1.61801563 -2.02519909 3.21893224 -3.0625 4.8125 C-3.63097656 5.70582031 -4.19945312 6.59914062 -4.78515625 7.51953125 C-9.1743472 12.43511547 -15.7483344 13.62654263 -21.9375 15.1875 C-22.62134766 15.36474609 -23.30519531 15.54199219 -24.00976562 15.72460938 C-25.6719081 16.15467421 -27.33577788 16.57805437 -29 17 C-22.565 19.97 -22.565 19.97 -16 23 C-16.33 23.66 -16.66 24.32 -17 25 C-20.15079515 23.95185517 -23.29451684 22.8838203 -26.4375 21.8125 C-27.31599609 21.52052734 -28.19449219 21.22855469 -29.09960938 20.92773438 C-35.12592984 18.8596613 -40.53936794 16.28071903 -46 13 C-46 12.34 -46 11.68 -46 11 C-39.93442945 9.2607718 -33.86519778 7.53481471 -27.79321289 5.81811523 C-25.72723688 5.23231416 -23.66212433 4.64345904 -21.59790039 4.05151367 C-18.63388197 3.20210844 -15.6669509 2.36366731 -12.69921875 1.52734375 C-11.7741301 1.25969711 -10.84904144 0.99205048 -9.8959198 0.71629333 C-9.03525406 0.47596878 -8.17458832 0.23564423 -7.2878418 -0.01196289 C-6.53061325 -0.22736221 -5.7733847 -0.44276154 -4.99320984 -0.66468811 C-3 -1 -3 -1 0 0 Z " fill="#020202" transform="translate(83,240)"/>
<path d="M0 0 C3.70897259 1.39417368 7.07838312 3.07818479 10.51953125 5.0390625 C11.54111328 5.61914062 12.56269531 6.19921875 13.61523438 6.796875 C14.67033203 7.40015625 15.72542969 8.0034375 16.8125 8.625 C17.88693359 9.23601562 18.96136719 9.84703125 20.06835938 10.4765625 C22.71386076 11.98155885 25.3576625 13.48945791 28 15 C24.328125 18.984375 24.328125 18.984375 21.375 19.125 C16.46921059 17.48973686 12.32679097 14.79616729 8 12 C7.96261719 12.88042969 7.92523438 13.76085937 7.88671875 14.66796875 C7.82097656 15.82941406 7.75523437 16.99085938 7.6875 18.1875 C7.62949219 19.33605469 7.57148438 20.48460937 7.51171875 21.66796875 C6.93798578 25.40380253 6.48184155 27.143722 4 30 C1.08841792 31.58258522 -1.89964904 32.83655593 -5 34 C-4.88406494 33.43192627 -4.76812988 32.86385254 -4.64868164 32.27856445 C-2.47464731 21.5300779 -0.40759426 10.98466532 0 0 Z " fill="#020202" transform="translate(121,151)"/>
<path d="M0 0 C1.1237351 4.68590192 1.46921562 8.36866633 0 13 C-4.75564129 17.55244445 -11.09524377 20.25230356 -17 23 C-12.05 25.64 -7.1 28.28 -2 31 C-2.33 31.66 -2.66 32.32 -3 33 C-13.09148221 29.40577346 -22.49962937 24.91482589 -32 20 C-32 19.34 -32 18.68 -32 18 C-31.23091309 17.60844727 -31.23091309 17.60844727 -30.44628906 17.20898438 C-20.98322039 12.36938544 -11.77089298 7.50702472 -3.0546875 1.3984375 C-1 0 -1 0 0 0 Z " fill="#020202" transform="translate(150,171)"/>
<path d="M0 0 C1.98 0 3.96 0 6 0 C7.60425079 3.70891009 9.1794489 7.4243622 10.69140625 11.171875 C14.58988466 20.75180009 18.88753834 29.95304764 23.84985352 39.03222656 C24.46558228 40.16289551 24.46558228 40.16289551 25.09375 41.31640625 C25.46177734 41.98099854 25.82980469 42.64559082 26.20898438 43.33032227 C27 45 27 45 27 47 C23.875 47.625 23.875 47.625 20 47 C17.22676123 44.15201086 15.72275838 40.54617231 14 37 C13.61376465 36.22205078 13.2275293 35.44410156 12.82958984 34.64257812 C-0.31468393 8.12456697 -0.31468393 8.12456697 0 0 Z " fill="#020102" transform="translate(109,6)"/>
<path d="M0 0 C-0.4674278 5.42216248 -1.09092333 9.26271378 -4 14 C-6.8828125 16.30078125 -6.8828125 16.30078125 -10.125 18.3125 C-11.73761719 19.32763672 -11.73761719 19.32763672 -13.3828125 20.36328125 C-14.24648437 20.90339844 -15.11015625 21.44351563 -16 22 C-16.33 22.33 -16.66 22.66 -17 23 C-15.02 23.99 -13.04 24.98 -11 26 C-11 26.99 -11 27.98 -11 29 C-14.70552313 28.40553105 -17.61494851 27.35713585 -20.9375 25.625 C-21.79988281 25.18027344 -22.66226563 24.73554687 -23.55078125 24.27734375 C-24.35902344 23.85582031 -25.16726562 23.43429688 -26 23 C-27.20690167 22.39297845 -28.41494705 21.78821512 -29.625 21.1875 C-30.40875 20.795625 -31.1925 20.40375 -32 20 C-28.36743088 15.84988742 -23.93754736 13.34668867 -19.25 10.5625 C-17.69247644 9.62668793 -16.13518319 8.69049243 -14.578125 7.75390625 C-13.81822266 7.30031738 -13.05832031 6.84672852 -12.27539062 6.37939453 C-9.35392998 4.60833738 -6.48325145 2.76184271 -3.62011719 0.89819336 C-2 0 -2 0 0 0 Z " fill="#020000" transform="translate(160,67)"/>
<path d="M0 0 C6.11186311 0.86507437 12.22235769 1.73922745 18.33203125 2.61962891 C20.62652053 2.9467532 22.92201873 3.26334462 25.21875 3.57421875 C26.3634375 3.73535156 27.508125 3.89648438 28.6875 4.0625 C29.68136719 4.19785156 30.67523438 4.33320312 31.69921875 4.47265625 C34 5 34 5 36 7 C27.40564823 12.0689136 20.77883051 12.44184216 11 11 C11.33 13.64 11.66 16.28 12 19 C10.8562364 19.83617182 9.70992861 20.66886459 8.5625 21.5 C7.92441406 21.9640625 7.28632812 22.428125 6.62890625 22.90625 C5 24 5 24 4 24 C3.81824219 22.40671875 3.81824219 22.40671875 3.6328125 20.78125 C3.463812 19.35413463 3.29452581 17.92705307 3.125 16.5 C3.04636719 15.80390625 2.96773438 15.1078125 2.88671875 14.390625 C2.29352278 9.46253543 1.28520684 4.79522552 0 0 Z " fill="#020000" transform="translate(119,58)"/>
<path d="M0 0 C0.66 0 1.32 0 2 0 C0.14135481 6.58974205 -2.27140868 13.32086688 -8.25 17 C-9.1575 17.33 -10.065 17.66 -11 18 C-12.5171684 19.5171684 -12.18722552 21.01323017 -12.3125 23.125 C-12.77849565 27.97912139 -14.33370599 30.95755424 -17 35 C-20.49908727 29.7513691 -21.31219954 25.76150641 -21.375 19.4375 C-21.40335938 18.13683594 -21.43171875 16.83617187 -21.4609375 15.49609375 C-21 12 -21 12 -19.2890625 9.72265625 C-15.13996647 6.60021367 -11.16123869 4.56074949 -6.25 2.875 C-2.85369499 1.89797747 -2.85369499 1.89797747 0 0 Z " fill="#040202" transform="translate(77,167)"/>
<path d="M0 0 C0.66 0.33 1.32 0.66 2 1 C-10.63610468 18.85465181 -10.63610468 18.85465181 -15.14453125 21.0390625 C-17.32862825 21.89684488 -17.32862825 21.89684488 -17.9375 24.8125 C-19.20797221 28.62391662 -21.11611521 30.27350218 -24 33 C-24.27714844 32.02417969 -24.55429688 31.04835937 -24.83984375 30.04296875 C-25.205694 28.75780249 -25.57158136 27.47264679 -25.9375 26.1875 C-26.29714844 24.92292969 -26.65679687 23.65835938 -27.02734375 22.35546875 C-27.64491261 20.22498018 -28.29854631 18.10436108 -29 16 C-24.57917169 13.5387095 -20.15660227 11.08064563 -15.73046875 8.62890625 C-12.95318347 7.08953463 -10.18291395 5.54000355 -7.42578125 3.96484375 C-6.46027344 3.41957031 -5.49476563 2.87429687 -4.5 2.3125 C-3.24703125 1.59513672 -3.24703125 1.59513672 -1.96875 0.86328125 C-1.3190625 0.57839844 -0.669375 0.29351562 0 0 Z " fill="#040101" transform="translate(136,112)"/>
<path d="M0 0 C0.16005666 8.32294618 0.16005666 8.32294618 -1 11 C-3.28515625 12.046875 -3.28515625 12.046875 -6.0625 12.75 C-7.44115234 13.11351562 -7.44115234 13.11351562 -8.84765625 13.484375 C-9.55792969 13.65453125 -10.26820312 13.8246875 -11 14 C-10.22462891 15.08667969 -10.22462891 15.08667969 -9.43359375 16.1953125 C-8.77488281 17.16210938 -8.11617187 18.12890625 -7.4375 19.125 C-6.77621094 20.07632813 -6.11492187 21.02765625 -5.43359375 22.0078125 C-3.73621997 25.55055995 -3.98759167 27.27123927 -5 31 C-11.88577324 25.69221646 -19.06331561 18.96039854 -20.7265625 10.15234375 C-20.81679687 9.11207031 -20.90703125 8.07179687 -21 7 C-18.06574629 5.82504857 -15.12710487 4.66149148 -12.1875 3.5 C-11.35412109 3.16613281 -10.52074219 2.83226562 -9.66210938 2.48828125 C-8.85966797 2.17246094 -8.05722656 1.85664063 -7.23046875 1.53125 C-6.49207764 1.23798828 -5.75368652 0.94472656 -4.99291992 0.64257812 C-3 0 -3 0 0 0 Z " fill="#030202" transform="translate(115,153)"/>
<path d="M0 0 C0.495 4.95 0.495 4.95 1 10 C-5.93 12.97 -5.93 12.97 -13 16 C-12.67 16.66 -12.34 17.32 -12 18 C-15.29305731 17.72283063 -18.5840249 17.42581219 -21.875 17.125 C-22.81214844 17.04636719 -23.74929687 16.96773437 -24.71484375 16.88671875 C-25.61074219 16.80292969 -26.50664063 16.71914063 -27.4296875 16.6328125 C-28.25710449 16.55949707 -29.08452148 16.48618164 -29.93701172 16.41064453 C-32 16 -32 16 -34 14 C-30.71090537 12.41128468 -27.41826227 10.83005575 -24.125 9.25 C-22.74828125 8.58484375 -22.74828125 8.58484375 -21.34375 7.90625 C-4.83363971 0 -4.83363971 0 0 0 Z " fill="#020202" transform="translate(106,9)"/>
<path d="M0 0 C5.79357526 0.63933652 11.37787714 1.66628745 17.0625 2.9375 C25.34200308 4.74203846 33.58066443 6.04354334 42 7 C37.53486919 10.49969712 32.48472442 13.953921 26.63671875 14.03125 C24.4375 13.75 24.4375 13.75 21 13 C21.99 14.32 22.98 15.64 24 17 C23 18 23 18 20.70703125 18.31640625 C17.10090099 17.89491051 16.11085539 16.59122921 13.6875 13.9375 C10.13968024 10.16979862 6.49347496 6.73559506 2.53125 3.41015625 C1 2 1 2 0 0 Z " fill="#030303" transform="translate(70,28)"/>
<path d="M0 0 C2.26954631 3.40431947 2.36549949 5.16524202 2.625 9.1875 C2.69976562 10.27417969 2.77453125 11.36085938 2.8515625 12.48046875 C2.90054688 13.31191406 2.94953125 14.14335938 3 15 C2.34 14.67 1.68 14.34 1 14 C-1.64 15.98 -4.28 17.96 -7 20 C-2.05 21.98 -2.05 21.98 3 24 C2.67 24.66 2.34 25.32 2 26 C-0.89683709 25.21186779 -3.79244595 24.41963319 -6.6875 23.625 C-7.91243164 23.29242188 -7.91243164 23.29242188 -9.16210938 22.953125 C-13.2135576 21.83774654 -17.13829618 20.68310513 -21 19 C-16.79135099 13.80146625 -12.40947882 9.64363335 -7.125 5.5625 C-6.43664062 5.02173828 -5.74828125 4.48097656 -5.0390625 3.92382812 C-3.36429043 2.60959727 -1.68284206 1.30388144 0 0 Z " fill="#020000" transform="translate(114,57)"/>
<path d="M0 0 C3.89316208 3.16885286 7.45127974 6.44142218 11 10 C12.30668339 11.24029697 13.61545739 12.47839341 14.92578125 13.71484375 C26.46504256 24.74136527 36.43691784 35.58025491 39 52 C39.03707937 53.66625415 39.04751484 55.33401077 39 57 C37.54068758 54.2203573 36.45997629 51.46369939 35.4375 48.5 C30.56348867 36.37700454 20.79488624 27.4219361 11.57128906 18.5246582 C10.10399273 17.10090656 8.66038275 15.65285681 7.21875 14.203125 C5.06412889 11.98762402 5.06412889 11.98762402 2.75 10.1875 C0.14952046 6.93690057 0.27426027 4.11390398 0 0 Z " fill="#030001" transform="translate(47,38)"/>
<path d="M0 0 C-10.57834253 8.76786826 -27.03587065 11.48645858 -40 15 C-41.24910156 15.34417969 -42.49820313 15.68835938 -43.78515625 16.04296875 C-46.18806152 16.70338013 -48.59233682 17.35720468 -51 18 C-51 18.33 -51 18.66 -51 19 C-52.98 19 -54.96 19 -57 19 C-57 18.01 -57 17.02 -57 16 C-57.66 15.67 -58.32 15.34 -59 15 C-53.72162812 13.36046189 -48.4420398 11.72491772 -43.16137695 10.09277344 C-41.37199007 9.53913326 -39.58291717 8.98447708 -37.79418945 8.42871094 C-29.06713058 5.71786675 -20.33394091 3.01703338 -11.53515625 0.546875 C-10.38539307 0.22041992 -9.23562988 -0.10603516 -8.05102539 -0.44238281 C-4.96356768 -1.00665851 -2.99271643 -0.85376432 0 0 Z " fill="#9FA8B1" transform="translate(134,250)"/>
<path d="M0 0 C6.77864289 0.66048315 13.38230956 1.74691622 20.0625 3.0625 C21.02349609 3.24876953 21.98449219 3.43503906 22.97460938 3.62695312 C25.31704531 4.08145562 27.65879844 4.53918902 30 5 C29.38511719 5.45890625 28.77023438 5.9178125 28.13671875 6.390625 C26.67875026 7.4887658 25.23779102 8.60976719 23.8125 9.75 C19.74017498 11.55992223 16.29461898 10.77658687 12 10 C12.66 11.98 13.32 13.96 14 16 C12.02 17.65 10.04 19.3 8 21 C7.608125 19.948125 7.21625 18.89625 6.8125 17.8125 C4.58156284 11.85975902 2.28748355 5.93118265 0 0 Z " fill="#020000" transform="translate(80,51)"/>
<path d="M0 0 C4.13782924 4.27575688 5.05944297 8.31953056 6 14 C5.2265625 14.14695313 5.2265625 14.14695313 4.4375 14.296875 C1.12002469 15.25383903 -1.89908845 16.75683726 -5 18.25 C-9.90792528 20.57065725 -14.82522143 22.8531183 -19.8125 25 C-20.76769531 25.4125 -21.72289063 25.825 -22.70703125 26.25 C-25 27 -25 27 -27 26 C-26.33355469 25.47792969 -25.66710937 24.95585937 -24.98046875 24.41796875 C-15.8318516 17.1118703 -7.24560992 9.24439886 0 0 Z " fill="#050101" transform="translate(102,134)"/>
<path d="M0 0 C3.8053125 0.928125 3.8053125 0.928125 7.6875 1.875 C8.87218872 2.16093018 8.87218872 2.16093018 10.08081055 2.45263672 C13.8561991 3.38538539 17.42495913 4.43459749 21 6 C18.9375 8.5625 18.9375 8.5625 16 11 C12.1875 10.8125 12.1875 10.8125 9 10 C9.12375 11.010625 9.2475 12.02125 9.375 13.0625 C8.89325506 18.12082191 6.82338506 20.74120807 3 24 C2.34 24 1.68 24 1 24 C0.67 16.08 0.34 8.16 0 0 Z " fill="#020000" transform="translate(91,84)"/>
<path d="M0 0 C0 2.97 0 5.94 0 9 C-4 11 -4 11 -7 11 C-7 11.66 -7 12.32 -7 13 C-6.195625 13.309375 -5.39125 13.61875 -4.5625 13.9375 C-2 15 -2 15 -1 16 C-0.34 15.01 0.32 14.02 1 13 C1 15.64 1 18.28 1 21 C-7.04536371 17.22249288 -14.49595345 12.74001686 -22 8 C-21.67 7.01 -21.34 6.02 -21 5 C-18.21320849 3.94865995 -15.54973983 3.09097279 -12.6875 2.3125 C-11.52831055 1.97508789 -11.52831055 1.97508789 -10.34570312 1.63085938 C-6.66560022 0.58979845 -3.8851623 0 0 0 Z " fill="#040303" transform="translate(149,142)"/>
<path d="M0 0 C1.8157251 5.44717529 -1.75510212 10.94274394 -4 16 C-5.22285896 18.12760935 -6.55593481 20.00818594 -8 22 C-8.99 24.475 -8.99 24.475 -10 27 C-13.63 24.69 -17.26 22.38 -21 20 C-19.28329742 16.56659484 -18.64263415 15.40960471 -15.91796875 13.125 C-15.31533203 12.61453125 -14.71269531 12.1040625 -14.09179688 11.578125 C-13.46337891 11.05734375 -12.83496094 10.5365625 -12.1875 10 C-11.57068359 9.47921875 -10.95386719 8.9584375 -10.31835938 8.421875 C-6.92035435 5.56191753 -3.48118133 2.75842178 0 0 Z " fill="#050101" transform="translate(114,96)"/>
<path d="M0 0 C4.35970831 1.34849837 8.31341438 3.04907846 12.375 5.125 C13.43460938 5.66382812 14.49421875 6.20265625 15.5859375 6.7578125 C16.38257813 7.16773437 17.17921875 7.57765625 18 8 C18 8.66 18 9.32 18 10 C11.375 13.125 11.375 13.125 8 12 C7.79632813 12.58265625 7.59265625 13.1653125 7.3828125 13.765625 C5.45149785 16.88628031 3.06423328 17.98574329 -0.125 19.75 C-1.76855469 20.67039062 -1.76855469 20.67039062 -3.4453125 21.609375 C-4.28835937 22.06828125 -5.13140625 22.5271875 -6 23 C-6.33 22.34 -6.66 21.68 -7 21 C-6.10857102 18.53233567 -5.16355096 16.15482244 -4.125 13.75 C-2.14786221 9.15473454 -0.60799232 5.019834 0 0 Z " fill="#040101" transform="translate(121,94)"/>
<path d="M0 0 C4.05901828 1.35300609 5.66769719 4.12686869 8.125 7.4375 C8.80755859 8.3356543 8.80755859 8.3356543 9.50390625 9.25195312 C12.82819368 13.65638736 12.82819368 13.65638736 14 16 C6.33668281 14.99322726 -0.74847707 13.7039577 -8 11 C-7.91601729 8.14458787 -7.39043615 6.43760967 -5.48046875 4.296875 C-2.00244352 1.16299122 -2.00244352 1.16299122 0 0 Z M4 11 C3.67 11.66 3.34 12.32 3 13 C3.99 12.67 4.98 12.34 6 12 C5.34 11.67 4.68 11.34 4 11 Z " fill="#060506" transform="translate(64,28)"/>
<path d="M0 0 C0.66 0 1.32 0 2 0 C3.98 4.29 5.96 8.58 8 13 C1.32240112 12.40831402 -5.34001579 11.76426048 -12 11 C-10.78821999 7.36465996 -9.73911373 6.92478955 -6.5625 4.9375 C-4.10191119 3.38531476 -2.06116538 2.06116538 0 0 Z " fill="#060404" transform="translate(113,38)"/>
<path d="M0 0 C6.60391862 0.34432196 10.79795547 2.98291995 16.25 6.5625 C17.83472949 7.59053593 19.42312219 8.61295337 21.015625 9.62890625 C21.70946289 10.08338135 22.40330078 10.53785645 23.11816406 11.00610352 C25.08742781 12.2335089 25.08742781 12.2335089 28 12 C28.33 12.99 28.66 13.98 29 15 C28.67 15.66 28.34 16.32 28 17 C24.35970419 16.42553272 21.66954509 15.46256037 18.49609375 13.6015625 C17.67302734 13.12203125 16.84996094 12.6425 16.00195312 12.1484375 C15.15568359 11.64570313 14.30941406 11.14296875 13.4375 10.625 C12.58736328 10.13 11.73722656 9.635 10.86132812 9.125 C2.91920904 4.46562347 2.91920904 4.46562347 0 2 C0 1.34 0 0.68 0 0 Z " fill="#D6D7D9" transform="translate(122,149)"/>
<path d="M0 0 C3 1 3 1 3.98388672 2.86474609 C4.48686279 3.92169678 4.48686279 3.92169678 5 5 C6.5020204 6.6549087 6.5020204 6.6549087 8.2578125 8.1640625 C8.88300781 8.72867188 9.50820312 9.29328125 10.15234375 9.875 C11.12880859 10.74125 11.12880859 10.74125 12.125 11.625 C13.42372637 12.77885865 14.71824295 13.93747902 16.0078125 15.1015625 C16.58160645 15.61025879 17.15540039 16.11895508 17.74658203 16.64306641 C19 18 19 18 19 20 C14.33102526 20.1697809 12.09777173 19.97425067 8.53515625 16.8125 C-0.30892042 6.95070948 -0.30892042 6.95070948 0 0 Z " fill="#A4AAB2" transform="translate(68,26)"/>
<path d="M0 0 C-0.37926876 2.61525625 -0.7696606 3.77967536 -2.70703125 5.6328125 C-3.40183594 6.12523437 -4.09664062 6.61765625 -4.8125 7.125 C-5.49957031 7.62257813 -6.18664062 8.12015625 -6.89453125 8.6328125 C-11.52158714 11.63739424 -14.39054637 12.21574822 -20 12 C-20 11.01 -20 10.02 -20 9 C-14.66952348 4.88148293 -6.88036314 0 0 0 Z " fill="#C6C8CD" transform="translate(113,36)"/>
<path d="M0 0 C0.66 0.33 1.32 0.66 2 1 C-13.47504026 17.1489533 -13.47504026 17.1489533 -23 23 C-23.99 23 -24.98 23 -26 23 C-19.59448227 14.14482691 -13.10564816 8.8510189 -4 3 C-2.65592174 2.01448926 -1.31747425 1.0208033 0 0 Z " fill="#100405" transform="translate(91,138)"/>
<path d="M0 0 C1.39698636 0.28609307 2.7925433 0.57916905 4.1875 0.875 C5.35345703 1.11863281 5.35345703 1.11863281 6.54296875 1.3671875 C7.35378906 1.57601562 8.16460937 1.78484375 9 2 C9.86496094 2.20882812 10.72992188 2.41765625 11.62109375 2.6328125 C15.05334299 4.60536954 15.74899981 7.40546095 16.875 11 C17.21144531 11.96292969 17.21144531 11.96292969 17.5546875 12.9453125 C18.11093697 14.6071078 18.563241 16.3028793 19 18 C18.67 18.66 18.34 19.32 18 20 C17.57589844 19.43152344 17.15179688 18.86304687 16.71484375 18.27734375 C12.79500206 13.11693678 8.68155995 8.47297559 4 4 C2.66666667 2.66666667 1.33333333 1.33333333 0 0 Z " fill="#090103" transform="translate(62,46)"/>
<path d="M0 0 C5 1 5 1 9 5 C2.565 9.95 2.565 9.95 -4 15 C-4.66 14.67 -5.32 14.34 -6 14 C-4.02 9.38 -2.04 4.76 0 0 Z " fill="#090203" transform="translate(88,124)"/>
<path d="M0 0 C4.60853797 0.72008406 8.67237409 2.31295939 13 4 C13 4.99 13 5.98 13 7 C11.39536551 6.68991116 9.79130769 6.37683713 8.1875 6.0625 C7.29417969 5.88847656 6.40085938 5.71445313 5.48046875 5.53515625 C3 5 3 5 0 4 C0 2.68 0 1.36 0 0 Z " fill="#C7C9CC" transform="translate(133,199)"/>
<path d="M0 0 C-0.33 0.33 -0.66 0.66 -1 1 C-0.34 1.66 0.32 2.32 1 3 C-1.31 3.33 -3.62 3.66 -6 4 C-6 4.66 -6 5.32 -6 6 C-6.66 6 -7.32 6 -8 6 C-7.8125 3.625 -7.8125 3.625 -7 1 C-2.77108434 -1.38554217 -2.77108434 -1.38554217 0 0 Z " fill="#7E8995" transform="translate(43,247)"/>
<path d="M0 0 C0.33 0.99 0.66 1.98 1 3 C0.67 3.66 0.34 4.32 0 5 C-1.65 4.67 -3.3 4.34 -5 4 C-4.67 3.01 -4.34 2.02 -4 1 C-1.9375 0.3125 -1.9375 0.3125 0 0 Z " fill="#CDCED0" transform="translate(150,161)"/>
<path d="M0 0 C4 6 4 6 4 10 C3.34 10 2.68 10 2 10 C0.68373308 6.38026598 0 3.90432869 0 0 Z " fill="#000000" transform="translate(48,197)"/>
</svg>
