<?xml version="1.0" standalone="no"?>
<!DOCTYPE svg PUBLIC "-//W3C//DTD SVG 20010904//EN"
 "http://www.w3.org/TR/2001/REC-SVG-20010904/DTD/svg10.dtd">
<svg version="1.0" xmlns="http://www.w3.org/2000/svg"
 width="300.000000pt" height="300.000000pt" viewBox="0 0 300.000000 300.000000"
 preserveAspectRatio="xMidYMid meet">

<g transform="translate(0.000000,300.000000) scale(0.100000,-0.100000)"
fill="#000000" stroke="none">
<path d="M920 2589 c0 -7 49 -62 109 -123 143 -147 173 -208 174 -356 2 -178
-117 -367 -378 -599 l-70 -62 58 36 c142 88 455 230 672 304 221 74 578 171
765 206 47 9 100 19 119 23 l33 7 -54 70 c-120 156 -294 252 -573 319 -60 14
-249 49 -418 77 -301 49 -368 65 -414 95 -16 10 -23 11 -23 3z m185 -89 c14
-5 27 -29 42 -74 12 -36 17 -66 12 -66 -5 0 -9 4 -9 10 0 5 -30 42 -67 81
l-68 72 35 -8 c19 -4 44 -11 55 -15z m175 -36 c47 -9 86 -17 88 -19 1 -1 -24
-18 -56 -38 -31 -19 -66 -45 -76 -56 -11 -12 -22 -21 -26 -21 -7 0 -60 138
-60 154 0 4 10 4 23 1 12 -2 60 -12 107 -21z m138 -136 c3 -43 1 -78 -4 -78
-26 2 -169 49 -172 58 -1 5 32 38 74 72 91 73 95 71 102 -52z m152 86 c126
-22 134 -27 79 -51 -24 -11 -75 -38 -113 -61 -37 -23 -72 -42 -77 -42 -5 0 -9
17 -9 38 0 22 -7 61 -15 88 -8 27 -15 50 -15 52 0 2 12 1 28 -2 15 -3 70 -13
122 -22z m156 -69 c-8 -39 -56 -150 -77 -177 -13 -16 -19 -15 -84 18 -38 19
-71 38 -73 42 -2 8 210 143 237 151 2 1 0 -15 -3 -34z m136 -1 c46 -15 108
-38 138 -51 l55 -25 -90 -23 c-49 -13 -129 -37 -177 -54 -47 -17 -88 -31 -91
-31 -2 0 6 28 18 63 12 34 26 81 30 105 4 25 12 42 20 42 8 0 51 -12 97 -26z
m-551 -114 c38 -12 69 -24 69 -29 0 -7 -144 -141 -152 -141 -8 0 -3 190 6 190
5 0 40 -9 77 -20z m748 -12 c-12 -18 -63 -85 -113 -148 -49 -63 -92 -117 -93
-120 -2 -2 -16 11 -30 30 -15 19 -48 56 -75 81 -26 26 -48 49 -48 52 0 10 343
135 373 137 5 0 -2 -15 -14 -32z m117 -17 c66 -44 184 -148 184 -162 0 -5 -15
-9 -32 -9 -39 0 -244 -32 -346 -54 -97 -21 -98 -21 -58 15 45 39 121 140 152
201 13 27 28 48 33 48 5 0 35 -18 67 -39z m-661 -53 c36 -18 65 -35 65 -38 0
-8 -200 -119 -200 -111 0 4 9 24 19 44 11 21 25 60 32 88 7 27 14 49 16 49 1
0 32 -14 68 -32z m-115 -25 c-11 -33 -66 -151 -76 -162 -1 -2 -23 12 -49 30
-25 18 -42 36 -38 39 5 4 43 37 86 74 43 37 81 65 84 62 3 -2 -1 -22 -7 -43z
m283 -75 c52 -35 127 -99 127 -107 0 -4 -37 -18 -82 -30 -45 -13 -132 -40
-192 -62 -61 -21 -112 -37 -114 -34 -2 2 15 20 38 41 23 21 74 78 112 126 39
48 73 88 75 88 3 0 19 -10 36 -22z m-113 -5 c0 -16 -182 -243 -195 -243 -3 0
-5 10 -5 23 -1 12 -7 40 -15 62 -18 50 -18 49 105 114 97 52 110 57 110 44z
m-301 -118 c0 -9 -119 -100 -119 -91 0 2 14 34 31 70 l31 66 29 -17 c16 -10
29 -22 28 -28z m64 -70 c34 -71 48 -60 -218 -169 l-40 -16 35 27 c19 15 71 64
115 109 44 45 83 82 86 83 3 0 13 -15 22 -34z m-136 -51 c-58 -54 -161 -134
-172 -134 -3 0 13 23 37 51 44 53 177 154 187 143 3 -3 -20 -30 -52 -60z"/>
<path d="M1569 878 c4 -28 6 -29 9 -9 2 13 0 27 -5 32 -6 6 -7 -3 -4 -23z"/>
<path d="M1600 875 c1 -26 2 -28 11 -12 8 14 8 22 0 30 -8 8 -11 3 -11 -18z"/>
<path d="M1632 880 c-6 -11 -12 -22 -12 -25 0 -11 20 6 30 26 14 25 -2 25 -18
-1z"/>
<path d="M630 540 c0 -58 17 -68 22 -12 3 35 5 37 38 37 l35 0 0 -110 0 -110
-32 -3 c-63 -6 -32 -22 42 -22 43 0 75 4 75 10 0 6 -13 10 -30 10 l-30 0 0
115 0 115 35 0 c34 0 35 -1 35 -40 0 -29 4 -40 15 -40 11 0 15 12 15 50 l0 50
-110 0 -110 0 0 -50z"/>
<path d="M1275 566 c-14 -14 -25 -34 -25 -46 0 -32 41 -66 90 -74 74 -12 101
-53 60 -91 -39 -35 -130 -13 -130 32 0 7 -7 13 -15 13 -11 0 -15 -11 -15 -39
0 -44 -5 -42 107 -45 65 -1 93 21 93 74 0 46 -22 67 -83 79 -26 4 -54 14 -62
21 -41 34 18 93 72 75 15 -6 32 -20 38 -33 15 -33 25 -27 25 16 l0 38 -65 2
c-58 2 -68 0 -90 -22z"/>
<path d="M1584 572 c-73 -58 -71 -183 3 -242 25 -19 26 -23 10 -31 -17 -10
-24 -39 -9 -39 4 0 22 4 40 9 21 7 43 6 63 -1 22 -7 37 -7 55 1 35 15 30 31
-8 25 -18 -3 -46 0 -63 5 -26 8 -27 9 -6 10 33 1 88 60 96 104 11 57 -3 107
-40 144 -27 27 -40 33 -76 33 -26 0 -53 -7 -65 -18z m115 -19 c53 -43 56 -142
7 -191 -70 -71 -175 20 -146 127 19 71 90 103 139 64z"/>
<path d="M1840 581 c0 -5 12 -11 28 -13 l27 -3 0 -110 0 -110 -27 -3 c-16 -2
-28 -8 -28 -13 0 -5 50 -9 115 -9 l115 0 0 55 c0 42 -3 55 -15 55 -11 0 -15
-12 -15 -45 l0 -45 -60 0 -60 0 0 115 0 115 30 0 c17 0 30 5 30 10 0 6 -30 10
-70 10 -38 0 -70 -4 -70 -9z"/>
<path d="M940 455 c0 -12 18 -15 100 -15 82 0 100 3 100 15 0 12 -18 15 -100
15 -82 0 -100 -3 -100 -15z"/>
</g>
</svg>
